<?xml version="1.0" standalone="no"?>
<!DOCTYPE svg PUBLIC "-//W3C//DTD SVG 1.1//EN" "http://www.w3.org/Graphics/SVG/1.1/DTD/svg11.dtd" >
<svg xmlns="http://www.w3.org/2000/svg" xmlns:xlink="http://www.w3.org/1999/xlink" version="1.1">
<metadata></metadata>
<defs>
<font id="ge_dinar_onelight_italic" horiz-adv-x="960" >
<font-face units-per-em="2048" ascent="1638" descent="-410" />
<missing-glyph horiz-adv-x="331" />
<glyph horiz-adv-x="0" />
<glyph horiz-adv-x="682" />
<glyph unicode=" "  horiz-adv-x="331" />
<glyph unicode="&#x09;" horiz-adv-x="331" />
<glyph unicode="&#xa0;" horiz-adv-x="331" />
<glyph unicode="!" horiz-adv-x="325" d="M-217 1321l246 -965h90l-232 965h-104zM70 123l30 -123h125l-30 123h-125z" />
<glyph unicode="&#x22;" horiz-adv-x="436" d="M-211 1255q2 -15 78 -196q6 -19 24 -19q13 0 13 19q-6 145 -17 196q-18 66 -65 66q-51 0 -33 -66zM-57 1255q2 -14 75 -196q6 -19 25 -19q12 0 12 19q-6 150 -16 196q-18 66 -64 66q-50 0 -32 -66z" />
<glyph unicode="$" horiz-adv-x="1089" d="M-113 971q38 -149 156 -238q113 -84 270 -102l27 -4l137 -547q-178 9 -364 156l-54 -72q207 -165 441 -174l49 -203h84l-49 203q186 11 269.5 107.5t43.5 256.5q-71 283 -436 344l-58 11l-133 536q155 -9 303 -121l50 66q-185 132 -375 141l-41 166h-84l41 -166 q-167 -10 -241 -107t-36 -253zM-14 975q-29 117 23.5 188.5t176.5 81.5l131 -524q-279 37 -331 254zM428 614q160 -21 234 -65q99 -57 137 -197q31 -122 -32.5 -193t-205.5 -79z" />
<glyph unicode="'" horiz-adv-x="301" d="M-211 1255q2 -15 78 -196q6 -19 24 -19q13 0 13 19q-6 145 -17 196q-18 66 -65 66q-51 0 -33 -66z" />
<glyph unicode="(" horiz-adv-x="526" d="M-123 1350q-18 -67 6 -174l256 -1029q23 -102 78 -172q42 -49 70 -75l90 -74l49 65q-106 80 -129 119q-44 59 -68 148l-247 1007q-23 84 -7 146q40 88 66 123l-80 63q-68 -91 -84 -147z" />
<glyph unicode=")" horiz-adv-x="530" d="M-227 1427q99 -79 129 -120q35 -45 61 -142l248 -1007q24 -90 12 -144q-49 -87 -71 -120l86 -68q73 98 84 149q20 61 -5 172l-258 1029q-23 105 -77 174q-97 97 -160 147z" />
<glyph unicode="*" horiz-adv-x="800" d="M-10 451l256 -127l-195 -127l58 -70l190 135l59 -262h84l-71 262l256 -135l24 70l-260 127l197 127l-60 69l-188 -135l-59 262h-84l71 -262l-258 135z" />
<glyph unicode="+" d="M-31 532l21 -88h334l84 -335h90l-84 335h334l-21 88h-334l-84 334h-90l84 -334h-334z" />
<glyph unicode="-" d="M-31 532l21 -88h758l-21 88h-758z" />
<glyph unicode="." horiz-adv-x="364" d="M104 88q9 -37 41 -62.5t70 -25.5q35 0 54 25.5t10 62.5q-9 35 -41.5 60.5t-67.5 25.5q-38 0 -56.5 -25t-9.5 -61z" />
<glyph unicode="/" horiz-adv-x="327" d="M-186 0h82l288 1321h-84z" />
<glyph unicode="0" horiz-adv-x="411" d="M31 414l47 -185l151 -43l-47 185z" />
<glyph unicode="1" horiz-adv-x="366" d="M-193 1321l320 -1290l104 -31l-327 1321h-97z" />
<glyph unicode="2" horiz-adv-x="968" d="M-147 1141l274 -1110l104 -31l-276 1116q-30 116 70 125h497l-18 80l-510 4q-187 -6 -141 -184z" />
<glyph unicode="3" horiz-adv-x="1118" d="M-195 1325l322 -1294l104 -31l-208 831q90 -100 184 -100q143 0 158 143q94 -143 219 -143q98 0 137.5 77t7.5 206l-78 311h-100l76 -299q49 -205 -64 -205q-117 0 -209 183l-80 321h-98l76 -299q49 -205 -66 -205q-117 0 -202 180l-82 324h-97z" />
<glyph unicode="4" horiz-adv-x="995" d="M-86 987q56 -214 252 -289q-189 -71 -121 -338q41 -164 168 -262t289 -98h358l-61 86h-320q-120 0 -216 75.5t-126 198.5q-73 289 205 289h160l-21 82h-159q-251 0 -316 256q-27 128 23 193q55 61 161 61h250l-18 80q-106 4 -252 4q-152 0 -223 -92t-33 -246z" />
<glyph unicode="5" horiz-adv-x="1009" d="M25 442q46 -191 174 -313q132 -129 305 -129q176 0 246 129q61 119 14 313q-77 306 -516 580q-303 -254 -223 -580zM121 442q-68 264 153 476q327 -209 394 -476q39 -163 -2 -249q-43 -107 -185 -107q-139 0 -237 107q-86 95 -123 249z" />
<glyph unicode="6" horiz-adv-x="968" d="M-193 1321l19 -80h496q107 -9 137 -125l278 -1116l88 31l-276 1110q-46 178 -236 184z" />
<glyph unicode="7" horiz-adv-x="1232" d="M-193 1321l758 -1321h103l100 1321h-106l-72 -1227l-676 1227h-107z" />
<glyph unicode="8" horiz-adv-x="1232" d="M135 0h107l65 1229l684 -1229h107l-760 1321h-102z" />
<glyph unicode="9" horiz-adv-x="970" d="M-82 877q111 -447 459 -447q159 0 227 109l135 -539l88 31l-217 868q-47 184 -157 297q-125 125 -297 125q-349 0 -238 -444zM10 877q-88 362 166 362q253 0 344 -362q89 -361 -164 -361q-257 0 -346 361z" />
<glyph unicode=":" horiz-adv-x="364" d="M-37 657q11 -39 41 -63.5t68 -24.5q36 0 54.5 25t8.5 63q-7 35 -39 60.5t-67 25.5q-36 0 -55 -25t-11 -61zM104 88q9 -37 41 -62.5t70 -25.5q35 0 54 25.5t10 62.5q-9 35 -41.5 60.5t-67.5 25.5q-38 0 -56.5 -25t-9.5 -61z" />
<glyph unicode="&#x3c;" horiz-adv-x="839" d="M-2 457l596 -477h141l-598 477l361 479h-142z" />
<glyph unicode="=" d="M-68 674l23 -88h758l-23 88h-758zM2 389l23 -86h759l-22 86h-760z" />
<glyph unicode="&#x3e;" horiz-adv-x="823" d="M-119 936l596 -479l-360 -477h141l360 477l-598 479h-139z" />
<glyph unicode="[" horiz-adv-x="538" d="M-182 1460l395 -1597h274l-20 84h-178l-355 1431h177l-21 82h-272z" />
<glyph unicode="\" horiz-adv-x="802" d="M-362 1460l923 -1597h98l-923 1597h-98z" />
<glyph unicode="]" horiz-adv-x="538" d="M-279 1460l19 -78h186l359 -1443h-187l19 -76h274l-395 1597h-275z" />
<glyph unicode="_" horiz-adv-x="479" d="M4 -117l21 -86h530l-20 86h-531z" />
<glyph unicode="{" horiz-adv-x="585" d="M-80 702l21 -84q142 0 180 -145l96 -385q34 -137 105 -184q59 -41 206 -41l-20 84q-105 0 -141 22q-32 20 -56 121l-96 385q-35 129 -162 187q100 56 70 184l-96 385q-27 103 -4 123q21 24 129 24l-21 82q-147 0 -186 -39q-47 -50 -13 -188l95 -383q19 -73 -8.5 -110.5 t-98.5 -37.5z" />
<glyph unicode="|" horiz-adv-x="266" d="M-274 1464l397 -1597h108l-397 1597h-108z" />
<glyph unicode="}" horiz-adv-x="585" d="M-268 1460l20 -82q100 0 135 -24q34 -24 60 -123l94 -385q30 -128 160 -184q-102 -60 -68 -187l96 -385q23 -98 0 -121q-22 -22 -123 -22l21 -84q145 0 188 43q43 46 9 182l-97 385q-38 145 113 145l-21 84q-148 0 -186 148l-96 383q-35 140 -100 188q-59 39 -205 39z " />
<glyph unicode="&#xab;" horiz-adv-x="806" d="M0 379q47 -195 219 -379h86q-150 210 -190 377q-43 169 0 381h-86q-78 -182 -29 -379zM209 379q50 -194 223 -379h86q-150 210 -190 377q-44 169 0 381h-86q-82 -183 -33 -379z" />
<glyph unicode="&#xad;" d="M-31 532l21 -88h758l-21 88h-758z" />
<glyph unicode="&#xbb;" horiz-adv-x="806" d="M-92 758q148 -217 190 -381q41 -173 -2 -377h88q77 190 29 379q-50 201 -219 379h-86zM119 758q146 -210 190 -381q42 -177 0 -377h88q75 191 27 379q-51 205 -219 379h-86z" />
<glyph unicode="&#xd7;" horiz-adv-x="892" d="M-92 778l358 -289l-217 -286l74 -60l215 289l360 -289l41 60l-358 286l215 289l-70 58l-217 -287l-356 287z" />
<glyph unicode="&#xf7;" d="M-31 532l21 -88h758l-21 88h-758zM197 866l32 -129h133l-32 129h-133zM352 242l33 -131h133l-33 131h-133z" />
<glyph unicode="&#x2000;" horiz-adv-x="748" />
<glyph unicode="&#x2001;" horiz-adv-x="1497" />
<glyph unicode="&#x2002;" horiz-adv-x="748" />
<glyph unicode="&#x2003;" horiz-adv-x="1497" />
<glyph unicode="&#x2004;" horiz-adv-x="499" />
<glyph unicode="&#x2005;" horiz-adv-x="374" />
<glyph unicode="&#x2006;" horiz-adv-x="249" />
<glyph unicode="&#x2007;" horiz-adv-x="249" />
<glyph unicode="&#x2008;" horiz-adv-x="187" />
<glyph unicode="&#x2009;" horiz-adv-x="299" />
<glyph unicode="&#x200a;" horiz-adv-x="83" />
<glyph unicode="&#x2010;" d="M-31 532l21 -88h758l-21 88h-758z" />
<glyph unicode="&#x2011;" d="M-31 532l21 -88h758l-21 88h-758z" />
<glyph unicode="&#x2012;" d="M-31 532l21 -88h758l-21 88h-758z" />
<glyph unicode="&#x2013;" horiz-adv-x="1205" d="M-31 532l28 -88h996l-28 88h-996z" />
<glyph unicode="&#x2014;" horiz-adv-x="2229" d="M-31 532l55 -88h1993l-55 88h-1993z" />
<glyph unicode="&#x201c;" horiz-adv-x="436" d="M-193 1300q6 -145 17 -196q15 -66 65 -66q48 0 33 66q-2 6 -78 196q-6 19 -24 19q-13 0 -13 -19zM-39 1300q6 -150 16 -196q15 -66 64 -66q48 0 33 66q-2 6 -10.5 28t-28 71.5t-37.5 96.5q-6 19 -25 19q-12 0 -12 -19z" />
<glyph unicode="&#x201d;" horiz-adv-x="436" d="M-211 1255q2 -15 78 -196q6 -19 24 -19q13 0 13 19q-6 145 -17 196q-18 66 -65 66q-51 0 -33 -66zM-57 1255q2 -14 75 -196q6 -19 25 -19q12 0 12 19q-6 150 -16 196q-18 66 -64 66q-50 0 -32 -66z" />
<glyph unicode="&#x202f;" horiz-adv-x="299" />
<glyph unicode="&#x205f;" horiz-adv-x="374" />
<glyph unicode="&#x25fc;" horiz-adv-x="1024" d="M0 0z" />
</font>
</defs>
</svg>
