<?xml version="1.0" standalone="no"?>
<!DOCTYPE svg PUBLIC "-//W3C//DTD SVG 1.1//EN" "http://www.w3.org/Graphics/SVG/1.1/DTD/svg11.dtd" >
<svg xmlns="http://www.w3.org/2000/svg" xmlns:xlink="http://www.w3.org/1999/xlink" version="1.1">
<metadata></metadata>
<defs>
<font id="ge_dinar_twomedium_italic" horiz-adv-x="1011" >
<font-face units-per-em="2048" ascent="1638" descent="-410" />
<missing-glyph horiz-adv-x="329" />
<glyph horiz-adv-x="0" />
<glyph horiz-adv-x="682" />
<glyph unicode=" "  horiz-adv-x="329" />
<glyph unicode="&#x09;" horiz-adv-x="329" />
<glyph unicode="&#xa0;" horiz-adv-x="329" />
<glyph unicode="!" horiz-adv-x="651" d="M-211 1319l86 -348l205 -568h78l-74 568l-84 348h-211zM78 113q27 -115 143 -115q50 0 75 33t13 82t-54.5 81.5t-90.5 32.5q-50 0 -74 -33t-12 -81z" />
<glyph unicode="&#x22;" horiz-adv-x="708" d="M-215 1319l121 -330h125l-35 330h-211zM53 1319l121 -330h127l-37 330h-211z" />
<glyph unicode="$" horiz-adv-x="1478" d="M-127 920q35 -145 162 -232q87 -63 256 -121l106 -420q-55 5 -139 37l-88 197h-160l105 -328q186 -60 321 -63l39 -160h148l-41 168q156 26 227.5 125t34.5 244q-38 150 -176 247q-94 64 -273 129l-98 396q80 -8 145 -37l93 -201h159l-106 324q-185 58 -330 67l-39 154 h-147l41 -162q-147 -30 -210 -130.5t-30 -233.5zM59 967q-27 113 95 153l79 -317q-148 59 -174 164zM455 508q166 -64 196 -180q30 -122 -110 -166z" />
<glyph unicode="'" horiz-adv-x="86" d="M-215 1319l121 -330h125l-35 330h-211z" />
<glyph unicode="(" horiz-adv-x="604" d="M-82 760q-3 -126 31 -262q36 -144 98 -262q169 -323 528 -564l56 76q-145 130 -219 221q-79 101 -158 267q-61 122 -96 262q-29 113 -35 254q-6 261 135 495l-94 76q-140 -134 -187 -248q-53 -114 -59 -315z" />
<glyph unicode=")" horiz-adv-x="606" d="M-272 1247q249 -226 376 -495q66 -147 93 -254q34 -136 34 -262q0 -179 -28 -267q-26 -91 -105 -221l90 -76q247 244 250 564q3 122 -32 262t-99 262q-102 190 -217 315q-120 126 -311 248z" />
<glyph unicode="*" horiz-adv-x="925" d="M-61 565l368 -151l-295 -152l88 -106l244 211l53 -361h127l-127 361l351 -211l34 106l-372 152l297 151l-89 107l-243 -213l-53 362h-127l127 -362l-349 213z" />
<glyph unicode="+" d="M-4 475l22 -102h342l95 -373h102l-94 373h344l-25 102h-344l-88 352h-102l88 -352h-340z" />
<glyph unicode="-" d="M-4 475l22 -102h789l-25 102h-786z" />
<glyph unicode="." horiz-adv-x="495" d="M78 137q15 -59 64.5 -98t105.5 -39q59 0 86.5 40t13.5 97q-15 59 -63.5 98t-106.5 39q-56 0 -85 -40.5t-15 -96.5z" />
<glyph unicode="/" horiz-adv-x="604" d="M33 16l164 -45l118 1237l-163 49z" />
<glyph unicode="0" horiz-adv-x="538" d="M47 383l70 -283l235 66l-69 278z" />
<glyph unicode="1" horiz-adv-x="546" d="M-172 1272l92 -223l260 -1051l162 154l-223 899l-49 280z" />
<glyph unicode="2" horiz-adv-x="1142" d="M-180 1319l323 -1319h207l-284 1139h296l213 -31l95 211h-850z" />
<glyph unicode="3" horiz-adv-x="1234" d="M-170 1264l313 -1264h205l-166 664q62 -33 142 -33q109 0 155 67q98 -67 213 -67q109 0 158.5 67t21.5 176l-110 445l-213 -55l86 -215l37 -148q21 -88 -62 -88q-49 0 -106 45l-115 461l-209 -55l86 -215l37 -148q21 -88 -61 -88q-45 0 -111 57l-115 453z" />
<glyph unicode="4" horiz-adv-x="1185" d="M-70 967q26 -106 123 -187q95 -77 217 -86q-123 -6 -188 -98q-68 -92 -33 -221q41 -167 168 -271q125 -104 281 -104h544l-202 215l-197 -31h-168q-67 0 -121 45q-77 59 -104 168q-27 106 26 162q37 37 80 37h344l-45 184h-309q-52 0 -108 41q-79 60 -99 146 q-43 172 117 172h92l195 -31l100 211h-438q-159 0 -238 -94q-80 -95 -37 -258z" />
<glyph unicode="5" horiz-adv-x="1087" d="M16 508q41 -166 166 -279q138 -123 320 -123q391 0 303 359l-72 287l-31 211q-155 47 -305 47q-233 0 -335 -136t-46 -366zM209 549q-80 317 178 317q54 0 109 -10l39 -119q22 -72 39 -126t24.5 -76.5t7.5 -20.5q62 -244 -145 -244q-83 0 -151.5 74t-100.5 205z" />
<glyph unicode="6" horiz-adv-x="1142" d="M-184 1319l200 -211l195 31h297l287 -1139h204l-329 1319h-854z" />
<glyph unicode="7" horiz-adv-x="1443" d="M-184 1319l182 -229l610 -1090h228l67 1090l68 229h-279v-291q6 -263 -30 -797q-546 1022 -570 1088h-276z" />
<glyph unicode="8" horiz-adv-x="1443" d="M143 0h281l27 1090l458 -885l113 -205h278l-182 229l-610 1090h-229l-66 -1090z" />
<glyph unicode="9" horiz-adv-x="970" d="M-76 883q41 -165 148.5 -263t246.5 -98q82 3 166 29l140 -551h202l-329 1319h-265q-189 0 -272 -121q-87 -121 -37 -315zM117 922q-29 121 7.5 188.5t129.5 67.5h76l114 -459q-56 -21 -122 -21q-147 0 -205 224z" />
<glyph unicode=":" horiz-adv-x="495" d="M-35 598q13 -59 61.5 -98t104.5 -39q59 0 87.5 40t14.5 97q-15 59 -63.5 98t-106.5 39q-55 0 -83.5 -40.5t-14.5 -96.5zM78 137q15 -59 64.5 -98t105.5 -39q59 0 86.5 40t13.5 97q-15 59 -63.5 98t-106.5 39q-56 0 -85 -40.5t-15 -96.5z" />
<glyph unicode="&#x3c;" horiz-adv-x="1003" d="M12 393l598 -477h244l-598 477l358 479h-243z" />
<glyph unicode="=" horiz-adv-x="1005" d="M-49 651l26 -102h781l-27 102h-780zM25 346l26 -102h783l-27 102h-782z" />
<glyph unicode="&#x3e;" horiz-adv-x="1003" d="M-109 872h242l600 -479l-360 -477h-244l360 477z" />
<glyph unicode="[" horiz-adv-x="487" d="M-211 1303l408 -1647h346l-17 68l-166 30l-67 187l-270 1079l-23 188l150 27l-17 68h-344z" />
<glyph unicode="\" horiz-adv-x="702" d="M-264 1208l735 -1237l143 45l-737 1241z" />
<glyph unicode="]" horiz-adv-x="495" d="M-287 1303l17 -68l166 -27l65 -188l268 -1079l27 -187l-152 -30l17 -68h346l-410 1647h-344z" />
<glyph unicode="_" horiz-adv-x="696" d="M-12 -63l45 -185h753l-47 185h-751z" />
<glyph unicode="{" horiz-adv-x="688" d="M-100 528l22 -86l55 -12q127 -25 154 -141l78 -309q41 -157 131 -238q79 -70 176 -70h139l-16 70l-64 10q-147 21 -196 217l-80 324q-37 139 -176 174l-76 20l70 17q123 35 86 170l-80 327q-50 197 86 218l59 8l-16 67h-139q-231 0 -154 -305l76 -309q27 -120 -84 -141z " />
<glyph unicode="|" horiz-adv-x="315" d="M-225 1266l397 -1598h150l-398 1598h-149z" />
<glyph unicode="}" horiz-adv-x="698" d="M-281 1294l17 -67l65 -8q145 -21 195 -218l78 -327q37 -137 174 -170l76 -17l-64 -20q-127 -35 -90 -174l80 -324q49 -196 -84 -217l-62 -10l17 -70h141q98 0 144 70q52 86 12 238l-78 309q-27 117 82 141l55 12l-22 86l-60 11q-124 21 -151 141l-78 309 q-77 305 -305 305h-142z" />
<glyph unicode="&#xab;" horiz-adv-x="888" d="M-6 477q54 -229 282 -475h164q-202 273 -252 473q-49 196 15 481h-160q-109 -234 -49 -479zM326 477q58 -232 286 -475h162q-201 275 -250 473q-49 194 13 481h-158q-114 -231 -53 -479z" />
<glyph unicode="&#xad;" d="M-4 475l22 -102h789l-25 102h-786z" />
<glyph unicode="&#xbb;" horiz-adv-x="888" d="M-125 956q206 -290 254 -481q50 -200 -18 -473h161q109 239 50 475q-62 250 -291 479h-156zM207 956q207 -287 256 -481q49 -198 -19 -473h164q106 239 47 475q-62 250 -288 479h-160z" />
<glyph unicode="&#xd7;" horiz-adv-x="847" d="M-25 553l297 -240l-178 -241l90 -72l178 240l304 -240l51 72l-299 241l178 240l-86 70l-182 -240l-301 240z" />
<glyph unicode="&#xf7;" d="M-4 475l22 -102h789l-25 102h-786zM211 713q10 -47 53.5 -81t91.5 -34q50 0 73.5 33t12.5 82q-12 50 -53.5 83t-89.5 33q-50 0 -75 -34t-13 -82zM358 117q12 -49 56 -83t92 -34q50 0 73 34.5t11 82.5q-12 50 -54 82t-90 32q-50 0 -74.5 -34t-13.5 -80z" />
<glyph unicode="&#x2000;" horiz-adv-x="723" />
<glyph unicode="&#x2001;" horiz-adv-x="1446" />
<glyph unicode="&#x2002;" horiz-adv-x="723" />
<glyph unicode="&#x2003;" horiz-adv-x="1446" />
<glyph unicode="&#x2004;" horiz-adv-x="482" />
<glyph unicode="&#x2005;" horiz-adv-x="361" />
<glyph unicode="&#x2006;" horiz-adv-x="241" />
<glyph unicode="&#x2007;" horiz-adv-x="241" />
<glyph unicode="&#x2008;" horiz-adv-x="180" />
<glyph unicode="&#x2009;" horiz-adv-x="289" />
<glyph unicode="&#x200a;" horiz-adv-x="80" />
<glyph unicode="&#x2010;" d="M-4 475l22 -102h789l-25 102h-786z" />
<glyph unicode="&#x2011;" d="M-4 475l22 -102h789l-25 102h-786z" />
<glyph unicode="&#x2012;" d="M-4 475l22 -102h789l-25 102h-786z" />
<glyph unicode="&#x2013;" horiz-adv-x="1224" d="M-4 475l28 -102h996l-32 102h-992z" />
<glyph unicode="&#x2014;" horiz-adv-x="2248" d="M-4 475l56 -102h1992l-63 102h-1985z" />
<glyph unicode="&#x201c;" horiz-adv-x="708" d="M-172 1317l37 -330h209l-119 330h-127zM96 1317l37 -330h211l-121 330h-127z" />
<glyph unicode="&#x201d;" horiz-adv-x="708" d="M-215 1319l121 -330h125l-35 330h-211zM53 1319l121 -330h127l-37 330h-211z" />
<glyph unicode="&#x202f;" horiz-adv-x="289" />
<glyph unicode="&#x205f;" horiz-adv-x="361" />
<glyph unicode="&#x25fc;" horiz-adv-x="1024" d="M0 0z" />
</font>
</defs>
</svg>
