<?xml version="1.0" standalone="no"?>
<!DOCTYPE svg PUBLIC "-//W3C//DTD SVG 1.1//EN" "http://www.w3.org/Graphics/SVG/1.1/DTD/svg11.dtd" >
<svg xmlns="http://www.w3.org/2000/svg" xmlns:xlink="http://www.w3.org/1999/xlink" version="1.1">
<metadata></metadata>
<defs>
<font id="whyte_inktrapregular" horiz-adv-x="1415" >
<font-face units-per-em="2048" ascent="1638" descent="-410" />
<missing-glyph horiz-adv-x="522" />
<glyph unicode="&#xfb01;" horiz-adv-x="1280" d="M39 856v160h219v149q0 268 256 269h238v-166h-199q-53 0 -76.5 -23.5t-23.5 -77.5v-151h659v-1016h-192v856h-467v-856h-195v856h-219zM913 1204v230h203v-230h-203z" />
<glyph unicode="&#xfb02;" horiz-adv-x="1280" d="M39 856v160h219v149q0 268 256 269h598v-1434h-192v1268h-367q-53 0 -76.5 -23.5t-23.5 -77.5v-151h262v-160h-262v-856h-195v856h-219z" />
<glyph horiz-adv-x="0" />
<glyph horiz-adv-x="682" />
<glyph unicode="&#xd;" horiz-adv-x="681" />
<glyph unicode=" "  horiz-adv-x="522" />
<glyph unicode="&#x09;" horiz-adv-x="522" />
<glyph unicode="&#xa0;" horiz-adv-x="522" />
<glyph unicode="!" horiz-adv-x="557" d="M150 0v266h260v-266h-260zM176 1008v426h207v-433l-61 -544h-93z" />
<glyph unicode="&#x22;" horiz-adv-x="815" d="M125 1255v179h203v-179l-52 -387h-102zM489 1255v179h203v-179l-51 -387h-102z" />
<glyph unicode="#" horiz-adv-x="1464" d="M74 391v166h282l70 326h-252v172h287l80 379h180l-35 -168q-12 -66 -41 -109t-94 -88l47 -72q43 35 84 46.5t113 11.5h163l80 379h183l-33 -168q-18 -70 -43 -110t-94 -87l49 -72q43 35 82 46.5t106 11.5h105v-172h-287l-70 -326h252v-166h-284l-82 -391h-183l39 178 q14 68 43 111t94 88l-49 72q-45 -35 -85 -46.5t-111 -11.5h-164l-84 -391h-180l37 178q12 68 40.5 111t94.5 88l-47 72q-47 -35 -86 -46.5t-105 -11.5h-102zM539 557h317l70 326h-320z" />
<glyph unicode="$" horiz-adv-x="1245" d="M68 367l188 86q33 -115 107.5 -192t183.5 -101v493l-45 11q-180 39 -272.5 133t-92.5 260q0 158 114 270.5t296 130.5v189h160v-189q170 -16 281.5 -114.5t148.5 -217.5l-183 -86q-72 195 -247 234v-457l59 -14q391 -104 391 -404q0 -178 -118.5 -292.5t-331.5 -133.5 v-186h-160v188q-182 23 -305 126.5t-174 265.5zM334 1065q0 -94 47 -138t166 -73v184q0 92 12 141.5t62 100.5l-41 63q-121 -29 -183.5 -100.5t-62.5 -177.5zM635 168l43 -64q129 31 202.5 106t73.5 179q0 90 -58 143.5t-189 85.5v-219q0 -152 -72 -231z" />
<glyph unicode="%" horiz-adv-x="1808" d="M74 1028q0 190 94 306t246 116q154 0 246 -115.5t92 -306.5q0 -199 -89.5 -313.5t-248.5 -114.5q-158 0 -249 114.5t-91 313.5zM248 1028q0 -135 44 -211t122 -76t122 76t44 211q0 125 -46.5 203t-119.5 78q-72 0 -119 -78t-47 -203zM293 0l1022 1434h196l-1019 -1434 h-199zM1055 418q0 190 94 306t246 116q154 0 246 -116t92 -306q0 -199 -89.5 -313.5t-248.5 -114.5q-158 0 -249 114.5t-91 313.5zM1229 418q0 -135 44 -211t122 -76t122 76t44 211q0 125 -46.5 202.5t-119.5 77.5q-72 0 -119 -77.5t-47 -202.5z" />
<glyph unicode="&#x26;" horiz-adv-x="1355" d="M90 369q0 242 256 399q-86 174 -86 332q0 168 98.5 265t253.5 97q154 0 245 -88t91 -219q0 -150 -110.5 -257t-313.5 -122l-8 -84q51 -12 90 -40.5t99 -90.5q96 -102 221 -199q80 133 116 316l185 -57q-53 -213 -148 -361q115 -70 256 -127l-65 -160q-141 49 -303 152 q-166 -154 -408 -154q-213 0 -341 113t-128 285zM289 389q0 -111 76.5 -181.5t205.5 -70.5q160 0 291 70v78q-154 8 -309 186q-55 66 -123 156q-141 -100 -141 -238zM440 1104q1 -117 60 -248l67 39q199 115 199 262q0 61 -41 106.5t-117 45.5q-80 0 -124 -55.5t-44 -149.5z " />
<glyph unicode="'" horiz-adv-x="450" d="M125 1255v179h203v-179l-52 -387h-102z" />
<glyph unicode="(" horiz-adv-x="657" d="M100 612q-2 233 47.5 431t166 345.5t288.5 178.5v-174q-160 -43 -241.5 -258t-81.5 -517q0 -195 31.5 -353.5t106.5 -275t185 -145.5v-172q-131 25 -230.5 113t-157.5 219t-86 284.5t-28 323.5z" />
<glyph unicode=")" horiz-adv-x="657" d="M55 -154q160 43 242 258t82 517q0 195 -32 353.5t-106.5 275t-185.5 145.5v172q131 -25 230.5 -113t158 -219t86 -284.5t27.5 -323.5q2 -233 -47 -431t-166 -345.5t-289 -178.5v174z" />
<glyph unicode="*" horiz-adv-x="1110" d="M106 1137v172l312 -15l-164 252l154 94l32 -65q72 -135 72 -236h86q-2 109 61 232l35 67l158 -90l-168 -254l320 15v-172h-86q-143 0 -244 57l-41 -78q106 -61 170 -164l51 -75l-162 -89l-139 271l-147 -275l-156 93l47 71q70 106 178 168l-41 80q-100 -59 -241 -59h-87z " />
<glyph unicode="+" horiz-adv-x="1243" d="M76 629v186h452v455h187v-455h454v-186h-454v-455h-187v455h-452z" />
<glyph unicode="," horiz-adv-x="557" d="M129 -287l162 287h-139v266h260v-266l-158 -287h-125z" />
<glyph unicode="-" horiz-adv-x="868" d="M137 537v198h592v-198h-592z" />
<glyph unicode="." horiz-adv-x="536" d="M137 0v266h262v-266h-262z" />
<glyph unicode="/" horiz-adv-x="872" d="M63 -213l551 1862h193l-551 -1862h-193z" />
<glyph unicode="0" horiz-adv-x="1380" d="M117 723q0 346 162.5 542.5t412.5 196.5q248 0 410 -196.5t162 -542.5q0 -356 -156 -554t-416 -198q-264 0 -419.5 197t-155.5 555zM332 723q0 -274 95 -421.5t265 -147.5q168 0 262.5 147.5t94.5 421.5q0 254 -97.5 405.5t-259.5 151.5q-164 0 -262 -151.5t-98 -405.5z " />
<glyph unicode="1" horiz-adv-x="854" d="M57 905v213q291 66 424 316h164v-1434h-201v967q0 129 39 225h-94q-39 -121 -125 -195.5t-207 -91.5z" />
<glyph unicode="2" horiz-adv-x="1196" d="M111 989q4 211 134 342t349 131q217 0 345 -124t128 -320q0 -225 -149 -400q-158 -184 -627 -444l51 -78q137 92 305 92h436v-188h-960v223q244 154 385 260q344 262 344 512q0 131 -75 208t-185 77q-121 0 -198 -86t-77 -231z" />
<glyph unicode="3" horiz-adv-x="1206" d="M92 410l215 45q6 -141 86 -223t211 -82q119 0 196 66.5t77 178.5q0 111 -78 178.5t-201 67.5h-100v174h100q106 0 181 65.5t75 170.5q0 102 -72.5 167.5t-177.5 65.5q-113 0 -184.5 -70.5t-81.5 -187.5l-209 39q12 172 141 284.5t334 112.5q209 0 333 -106.5t124 -270.5 q0 -139 -91 -219t-233 -90v-84q150 -6 250 -91t100 -239q0 -168 -133 -279.5t-350 -111.5q-221 0 -358.5 119t-153.5 320z" />
<glyph unicode="4" horiz-adv-x="1214" d="M59 387v193l568 854h305v-873h211v-174h-211v-387h-199v387h-674zM246 537l71 -56q41 43 85 61.5t137 18.5h194v367q0 109 21.5 176t68.5 135l-78 51l-483 -729z" />
<glyph unicode="5" horiz-adv-x="1222" d="M94 332l205 67q29 -119 112 -184t199 -65q135 0 214 79.5t79 212.5t-79 212t-214 79q-92 0 -166.5 -43t-113.5 -108l-207 34l123 818h825v-189h-674l-37 -229q-23 -127 -45 -189q-25 -61 -67 -116h104q102 195 318 194q201 0 322.5 -124t121.5 -332q0 -215 -135 -346.5 t-356 -131.5q-215 0 -354.5 99.5t-174.5 261.5z" />
<glyph unicode="6" horiz-adv-x="1255" d="M115 668q-4 352 180 575t508 219q156 0 272 -43v-198q-131 47 -260 47q-246 0 -397.5 -160t-153.5 -463h84q27 119 123 202t240 83q199 0 324.5 -132t125.5 -327q0 -215 -136 -357.5t-368 -142.5q-250 0 -396 183.5t-146 513.5zM367 452.5q0 -137.5 81.5 -220 t208.5 -82.5q123 0 207 84t84 219q0 133 -84 218t-207 85q-127 0 -208.5 -83t-81.5 -220.5z" />
<glyph unicode="7" horiz-adv-x="1067" d="M51 1245v189h973v-224q-303 -258 -416.5 -534.5t-115.5 -675.5h-228q0 383 151.5 699.5t436.5 545.5l25 23l-54 71q-125 -94 -291 -94h-481z" />
<glyph unicode="8" horiz-adv-x="1239" d="M115 371q0 145 100 232t260 97v84q-147 10 -234 89t-87 214q0 164 129 269.5t338 105.5q207 0 336.5 -106.5t129.5 -268.5q0 -135 -87 -213.5t-234 -89.5v-84q162 -10 260 -96t98 -233q0 -174 -132 -287t-371.5 -113t-372.5 113t-133 287zM328 397q0 -113 79.5 -180 t210.5 -67q135 0 214 67.5t79 180t-79.5 180t-213.5 67.5q-119 0 -204.5 -71.5t-85.5 -176.5zM358 1065q0 -106 73 -167.5t190 -61.5q113 0 187.5 62.5t74.5 166.5q0 96 -74 158.5t-188.5 62.5t-188.5 -62.5t-74 -158.5z" />
<glyph unicode="9" horiz-adv-x="1236" d="M96 963q0 213 132 356t351.5 143t364.5 -147q178 -182 178 -547q0 -367 -171 -582t-498 -215q-168 0 -279 43v209q127 -51 270 -51q279 0 406 207q43 74 69.5 179.5t24.5 199.5h-84q-31 -96 -121 -165t-215 -69q-188 0 -308 126t-120 313zM309 989q0 -129 81 -210 t200 -81q121 0 200.5 81t79.5 210q0 131 -79.5 213t-200.5 82q-119 0 -200 -82t-81 -213z" />
<glyph unicode=":" horiz-adv-x="536" d="M137 0v266h262v-266h-262zM137 752v266h262v-266h-262z" />
<glyph unicode=";" horiz-adv-x="567" d="M133 -287l162 287h-139v266h260v-266l-158 -287h-125zM158 752v266h262v-266h-262z" />
<glyph unicode="&#x3c;" horiz-adv-x="1316" d="M82 571v289l1094 430v-211l-623 -237q-190 -68 -346 -78v-86q170 -10 346 -78l623 -240v-217z" />
<glyph unicode="=" horiz-adv-x="1388" d="M145 399v187h1096v-187h-1096zM145 848v186h1096v-186h-1096z" />
<glyph unicode="&#x3e;" horiz-adv-x="1318" d="M143 143v211l623 238q190 68 344 78v86q-168 10 -344 78l-623 237v219l1094 -428v-291z" />
<glyph unicode="?" horiz-adv-x="1017" d="M70 1016q2 211 119.5 327.5t320.5 116.5q184 0 306 -104.5t122 -276.5q0 -111 -55.5 -199.5t-186.5 -195.5q-76 -63 -100.5 -109.5t-24.5 -117.5h-188q0 127 41 198.5t137 153.5q92 80 129 132t41 132q0 96 -61.5 153.5t-159.5 57.5q-117 0 -180.5 -77t-63.5 -222zM348 0 v266h260v-266h-260z" />
<glyph unicode="@" horiz-adv-x="1832" d="M92 610q-2 381 238.5 618.5t613.5 233.5q356 4 594 -218t234 -554q0 -236 -112 -384t-278 -148q-188 0 -200 174h-68q-63 -178 -244 -178q-152 0 -245 123.5t-93 312.5q0 190 96.5 318t243.5 128q170 0 238 -162h76q-33 80 -33 138h158v-625q0 -76 82 -76q86 0 140 106.5 t54 276.5q0 270 -176 439.5t-467 169.5q-303 0 -485.5 -185.5t-182.5 -507t181.5 -507t494.5 -185.5q289 0 502 133l74 -147q-248 -145 -576 -146q-401 0 -630.5 229.5t-229.5 622.5zM711 604q0 -131 58 -216t155 -85q102 0 165.5 87t63.5 226q0 125 -59.5 202t-159.5 77 t-161.5 -81t-61.5 -210z" />
<glyph unicode="A" d="M31 0l538 1434h283l528 -1434h-229l-133 379h-631l-135 -379h-221zM455 565h497l-139 391q-63 190 -65 334h-86q-8 -168 -66 -334z" />
<glyph unicode="B" horiz-adv-x="1437" d="M205 0v1434h629q215 0 330.5 -94.5t115.5 -243.5q0 -137 -84 -214t-223 -87v-84q154 -6 254 -90t100 -236q0 -184 -132 -284.5t-341 -100.5h-649zM410 188h415q131 0 208 63.5t77 170.5q0 109 -76 169t-209 60h-415v-463zM410 836h399q117 0 187.5 57t70.5 156 q0 96 -67.5 146t-190.5 50h-399v-409z" />
<glyph unicode="C" horiz-adv-x="1507" d="M102 729v12q0 303 198 513q196 208 489 208h16q248 0 412.5 -124t216.5 -300l-205 -73q-39 125 -142 217q-96 94 -282 94q-219 0 -351 -146.5t-132 -398.5q0 -258 133 -414.5t350 -156.5q176 0 277.5 83t154.5 240l199 -75q-55 -193 -220 -315t-411 -122h-11 q-311 0 -502 214q-190 214 -190 531v13z" />
<glyph unicode="D" horiz-adv-x="1505" d="M205 0v1434h504q307 0 498.5 -197t191.5 -514q0 -336 -189.5 -529.5t-513.5 -193.5h-491zM410 188h256q518 0 518 533q0 246 -129 385t-375 139h-270v-1057z" />
<glyph unicode="E" horiz-adv-x="1318" d="M205 0v1434h1014v-189h-809v-409h600v-187h-600v-461h809v-188h-1014z" />
<glyph unicode="F" horiz-adv-x="1296" d="M205 0v1434h1040v-189h-835v-454h657v-189h-657v-602h-205z" />
<glyph unicode="G" horiz-adv-x="1597" d="M104 719v17q0 302 210 513q212 213 498 213h11q246 0 414 -121.5t231 -308.5l-208 -84q-121 324 -443 324q-203 0 -348 -150.5t-145 -402.5q0 -260 134 -410.5t353 -150.5q188 0 310 108.5t132 251.5h-495v189h706v-707h-198q0 150 80 305h-97q-45 -121 -164 -229 q-115 -104 -331 -105q-289 0 -469.5 204t-180.5 544z" />
<glyph unicode="H" horiz-adv-x="1570" d="M205 0v1434h205v-598h751v598h205v-1434h-205v647h-751v-647h-205z" />
<glyph unicode="I" horiz-adv-x="614" d="M205 0v1434h205v-1434h-205z" />
<glyph unicode="J" horiz-adv-x="1040" d="M37 432l211 51q0 -168 47 -248.5t151.5 -80.5t152.5 76.5t48 238.5v965h205v-971q0 -492 -403 -492q-195 0 -301.5 122t-110.5 339z" />
<glyph unicode="K" horiz-adv-x="1398" d="M205 0v1434h205v-338q0 -115 -21.5 -183.5t-73.5 -128.5l64 -59l661 709h277l-574 -590l676 -844h-268l-551 696l-190 -196v-500h-205z" />
<glyph unicode="L" horiz-adv-x="1202" d="M205 0v1434h205v-1241h772v-193h-977z" />
<glyph unicode="M" horiz-adv-x="1937" d="M205 0v1434h344l319 -822q57 -147 66 -379h86q4 131 14 203q16 84 51 176l312 822h336v-1434h-203v743q0 276 98 514l-86 33l-498 -1290h-145l-504 1290l-86 -33q100 -233 101 -514v-743h-205z" />
<glyph unicode="N" horiz-adv-x="1656" d="M205 0v1434h311l754 -1186l73 51q-57 86 -76.5 163t-19.5 214v758h205v-1434h-256l-799 1262l-73 -48q86 -164 86 -415v-799h-205z" />
<glyph unicode="O" horiz-adv-x="1642" d="M102 717v12q0 318 205 525.5t505 207.5h11.5h10.5q299 0 501.5 -208t202.5 -525v-12v-12q0 -318 -202 -526t-502 -208h-11.5h-10.5q-300 0 -505 208t-205 526v12zM322 717q0 -248 135 -403.5t364.5 -155.5t364.5 155.5t135 403.5q0 244 -136 401.5t-364 157.5 q-229 0 -364 -156.5t-135 -402.5z" />
<glyph unicode="P" horiz-adv-x="1327" d="M205 0v1434h581q221 0 350.5 -120t129.5 -316.5t-129 -317.5t-353 -121h-374v-559h-205zM410 737h338q145 0 223 72t78 188q0 115 -78 181.5t-223 66.5h-338v-508z" />
<glyph unicode="Q" horiz-adv-x="1669" d="M102 717v12q0 318 205 525.5t505 207.5h11h11q300 0 502 -208t202 -525v-12q0 -266 -135 -459q111 -98 235 -98v-189q-252 0 -321 215h-80q-70 -96 -180.5 -155.5t-239.5 -59.5h-11q-300 0 -501 208q-203 210 -203 532v6zM322 717q0 -248 135 -403.5t364 -155.5h3 q189 0 321 116l-33 41q-94 119 -163.5 171.5t-172.5 58.5q-18 0 -33 -2v194q37 4 66 4q137 0 258 -104q90 -88 129 -254h80q45 141 45 334q0 244 -136 401.5t-364 157.5q-229 0 -364 -156.5t-135 -402.5z" />
<glyph unicode="R" horiz-adv-x="1413" d="M205 0v1434h612q213 0 338 -110t125 -280q0 -166 -106 -241q-104 -74 -263 -84v-86q154 -2 224.5 -62.5t101.5 -210.5l70 -360h-224l-59 342q-20 135 -95 192.5t-222 57.5h-297v-592h-205zM410 776h376q131 0 205 60.5t74 175t-73.5 174t-205.5 59.5h-376v-469z" />
<glyph unicode="S" horiz-adv-x="1282" d="M72 369l196 90q98 -303 398 -303q143 0 223 62.5t80 166.5q0 90 -62.5 144.5t-197.5 82.5l-191 43q-186 39 -280.5 135.5t-94.5 264.5q0 178 138.5 292.5t361.5 114.5q207 0 341 -101t177 -237l-192 -88q-35 100 -115 170q-80 74 -229 74q-129 0 -203 -59.5t-74 -155.5 q0 -86 54.5 -134t172.5 -75l197 -43q195 -43 303.5 -147.5t108.5 -262.5q0 -195 -140.5 -313.5t-390.5 -118.5q-225 0 -377.5 109t-203.5 289z" />
<glyph unicode="T" horiz-adv-x="1277" d="M20 1245v189h1235v-189h-524v-1245h-205v1245h-506z" />
<glyph unicode="U" horiz-adv-x="1488" d="M184 555v879h205v-850q0 -205 89 -313.5t265.5 -108.5t265.5 110.5t89 311.5v850h205v-879q0 -279 -144.5 -431.5t-415.5 -152.5q-266 0 -412.5 147.5t-146.5 436.5z" />
<glyph unicode="V" horiz-adv-x="1347" d="M59 1434h228l293 -947q41 -137 51 -321h86q2 150 53 319l297 949h225l-467 -1434h-303z" />
<glyph unicode="W" horiz-adv-x="2031" d="M76 1434h215l180 -807q39 -162 43 -434h86q6 213 62 407l235 834h250l242 -912q39 -141 43 -329h88q6 283 43 442l190 799h215l-371 -1434h-262l-231 864q-39 152 -43 389h-88q-4 -248 -41 -389l-248 -864h-266z" />
<glyph unicode="X" horiz-adv-x="1341" d="M14 0l531 748l-490 686h256l203 -293q59 -88 81.5 -154.5t27.5 -161.5h86q6 80 28 150q23 61 90 160l209 299h244l-481 -678l530 -756h-256l-248 367q-63 92 -80.5 153.5t-21.5 155.5h-88q-2 -76 -28.5 -143.5t-94.5 -165.5l-252 -367h-246z" />
<glyph unicode="Y" horiz-adv-x="1323" d="M43 1434h246l241 -404q92 -154 95 -317h86q2 164 90 319l227 402h244l-504 -826v-608h-205v600z" />
<glyph unicode="Z" horiz-adv-x="1292" d="M86 0v283l924 993l-62 63q-109 -94 -272 -94h-555v189h1065v-258l-942 -1014l61 -66q49 47 106.5 69.5t163.5 22.5h646v-188h-1135z" />
<glyph unicode="[" horiz-adv-x="690" d="M182 -307v1853h451v-155h-271v-1543h271v-155h-451z" />
<glyph unicode="\" horiz-adv-x="876" d="M66 1649h194l551 -1862h-195z" />
<glyph unicode="]" horiz-adv-x="690" d="M57 -152h271v1543h-271v155h451v-1853h-451v155z" />
<glyph unicode="^" horiz-adv-x="1075" d="M88 684l320 750h260l319 -750h-211l-123 313q-63 154 -73 328h-84q-10 -156 -74 -328l-123 -313h-211z" />
<glyph unicode="_" horiz-adv-x="1265" d="M111 -129h1044v-176h-1044v176z" />
<glyph unicode="`" horiz-adv-x="1099" d="M266 1450h248l102 -289h-124z" />
<glyph unicode="a" horiz-adv-x="1112" d="M82 760q31 119 147.5 201.5t298.5 82.5q199 0 302.5 -93t103.5 -263v-465q0 -35 12 -46t47 -11h105v-166h-84q-115 0 -155 45t-40 168h-78q-31 -111 -111.5 -176.5t-203.5 -65.5q-150 0 -237 78t-87 213q0 193 177 285q174 94 462 117v30q0 188 -213 189 q-209 0 -266 -185zM301 279q0 -70 46 -110t134 -40q109 0 184.5 76t75.5 215v104q-440 -43 -440 -245z" />
<glyph unicode="b" horiz-adv-x="1193" d="M168 0v1434h192v-236q0 -143 -27.5 -229t-86.5 -172h112q88 247 328 247h2q180 0 296 -146t116 -388q0 -244 -116 -391.5t-296 -147.5q-137 0 -210 67.5t-120 180.5h-108q92 -129 92 -219h-174zM348 510q0 -180 77 -277.5t204 -97.5q272 0 272 375q0 371 -272 371 q-127 0 -204 -95.5t-77 -275.5z" />
<glyph unicode="c" horiz-adv-x="1089" d="M90 510q0 233 139.5 383.5t352.5 150.5q162 0 274.5 -81.5t153.5 -212.5l-181 -62q-66 190 -249 191q-125 0 -207 -97.5t-82 -271.5q0 -180 80 -276.5t211 -96.5q203 0 270 219l182 -63q-55 -152 -172 -237t-278 -85q-223 0 -358.5 146.5t-135.5 392.5z" />
<glyph unicode="d" horiz-adv-x="1193" d="M92 510q0 240 117 387t297 147q242 0 328 -247h112q-113 158 -112 401v236h192v-1434h-174q0 90 92 219h-108q-47 -113 -120 -180.5t-210 -67.5q-180 0 -297 147.5t-117 391.5zM293 510q0 -375 270 -375q127 0 204 97.5t77 277.5t-76 275.5t-205 95.5q-270 0 -270 -371z " />
<glyph unicode="e" horiz-adv-x="1101" d="M92 504q0 244 129 392t332 148t328 -141t125 -360q0 -39 -7 -84h-714q6 -164 82.5 -245t197.5 -81q182 0 266 195l177 -64q-53 -141 -169 -217t-278 -76q-215 0 -342 140.5t-127 392.5zM289 612h516q-2 129 -74 204t-178 75q-104 0 -178 -76t-86 -203z" />
<glyph unicode="f" horiz-adv-x="745" d="M39 856v160h219v149q0 268 256 269h238v-166h-199q-53 0 -76.5 -23.5t-23.5 -77.5v-151h262v-160h-262v-856h-195v856h-219z" />
<glyph unicode="g" horiz-adv-x="1210" d="M70 -215q0 137 141 199v71q-100 41 -100 127q0 117 151 180v72q-110 87 -110 251q0 150 110.5 254.5t278.5 104.5q262 0 342 -196h71q6 76 47 122t109 46h70v-160h-84q-68 0 -94.5 -26.5t-32.5 -110.5l-4 -49q-12 -172 -122 -273.5t-282 -101.5q-131 0 -192 37 q-90 -37 -90 -96q0 -66 90 -66h442q147 0 236.5 -79t89.5 -206q0 -135 -91.5 -209.5t-232.5 -74.5h-498q-121 0 -183 55t-62 129zM276.5 -212q36.5 -24 116.5 -24h395q154 0 154 119q0 63 -39 90t-115 27h-475q-73 -46 -73 -127q0 -61 36.5 -85zM342 668q0 -102 59.5 -163 t160 -61t159.5 61t59 163q0 98 -60.5 161.5t-158.5 63.5t-158.5 -62.5t-60.5 -162.5z" />
<glyph unicode="h" horiz-adv-x="1191" d="M168 0v1434h192v-279q-2 -141 -26.5 -217t-79.5 -158h104q31 102 117 183t209 81q176 0 265 -99t89 -281v-664h-192v621q0 256 -213 256q-123 0 -184 -74q-55 -66 -72 -150t-17 -215v-438h-192z" />
<glyph unicode="i" horiz-adv-x="526" d="M160 1204v230h205v-230h-205zM168 0v1016h192v-1016h-192z" />
<glyph unicode="j" horiz-adv-x="542" d="M-78 -227h162q98 0 98 98v1145h195v-1166q0 -249 -256 -249h-2h-197v172zM178 1204v230h205v-230h-205z" />
<glyph unicode="k" horiz-adv-x="1167" d="M168 0v1434h192v-584q0 -135 -20.5 -194.5t-87.5 -120.5l61 -64l566 545h251l-450 -422l485 -594h-245l-375 467l-185 -172v-295h-192z" />
<glyph unicode="l" horiz-adv-x="526" d="M168 0v1434h192v-1434h-192z" />
<glyph unicode="m" horiz-adv-x="1822" d="M168 0v1016h178q0 -92 -78 -207h103q74 235 280 235h2q106 0 183 -62t106 -173h82q23 94 104.5 164.5t192.5 70.5q158 0 252 -101t94 -275v-668h-192v621q0 253 -211 253h-2q-111 0 -166 -65q-51 -57 -67.5 -134t-16.5 -196v-479h-189v621q0 253 -213 253h-2 q-109 0 -164 -65q-84 -96 -84 -330v-479h-192z" />
<glyph unicode="n" horiz-adv-x="1191" d="M168 0v1016h184q0 -86 -98 -236h104q31 102 117 183t209 81q176 0 265 -99t89 -281v-664h-192v621q0 256 -213 256q-123 0 -184 -74q-55 -66 -72 -150t-17 -215v-438h-192z" />
<glyph unicode="o" horiz-adv-x="1142" d="M88 508q0 229 137 382.5t346 153.5t345.5 -153.5t136.5 -382.5t-137.5 -383t-344.5 -154q-205 0 -344 154t-139 383zM289 504q0 -178 74.5 -272.5t207.5 -94.5q131 0 207 95.5t76 271.5q0 182 -77 278.5t-206 96.5q-131 0 -206.5 -96.5t-75.5 -278.5z" />
<glyph unicode="p" horiz-adv-x="1193" d="M168 -399v1415h174q0 -86 -90 -219h106q47 113 120 180t210 67q180 0 296 -147t116 -389t-116 -389.5t-296 -147.5q-244 0 -330 248h-112q57 -92 84.5 -176t29.5 -225v-217h-192zM348 506q0 -180 77 -275.5t204 -95.5q272 0 272 371q0 375 -272 375q-127 0 -204 -98.5 t-77 -276.5z" />
<glyph unicode="q" horiz-adv-x="1193" d="M92 508q0 242 117 389t297 147q137 0 209.5 -67.5t120.5 -179.5h106q-90 121 -90 219h174v-1415h-192v217q0 141 26.5 225t85.5 176h-112q-86 -248 -328 -248q-180 0 -297 147.5t-117 389.5zM293 506q0 -371 270 -371q129 0 205 95.5t76 275.5q0 178 -77 276.5t-204 98.5 q-270 0 -270 -375z" />
<glyph unicode="r" horiz-adv-x="821" d="M168 0v1016h186q0 -121 -108 -291h110q78 305 336 305q51 0 96 -10v-199q-66 10 -108 10q-319 0 -320 -378v-453h-192z" />
<glyph unicode="s" horiz-adv-x="1017" d="M72 262l182 60q51 -193 266 -193q217 0 217 141q0 113 -182 150l-123 22q-158 33 -238.5 97.5t-80.5 195.5q0 135 110.5 222t272.5 87q166 0 271 -70.5t142 -187.5l-170 -65q-61 172 -245 172q-94 0 -145.5 -40t-51.5 -97q0 -53 35 -82t137 -49l121 -25q131 -25 237 -96 q106 -70 107 -217q0 -145 -110.5 -230.5t-305.5 -85.5q-168 0 -291.5 78t-154.5 213z" />
<glyph unicode="t" horiz-adv-x="821" d="M35 856v160h231v317h193v-317h274v-160h-274v-590q0 -100 100 -100h213v-166h-252q-254 0 -254 250v606h-231z" />
<glyph unicode="u" horiz-adv-x="1181" d="M154 348v668h192v-621q0 -258 209 -258q117 0 174 70q92 111 92 366v443h193v-1016h-183q0 98 95 238h-107q-94 -266 -323 -267q-166 0 -254 100.5t-88 276.5z" />
<glyph unicode="v" horiz-adv-x="1021" d="M47 1016h203l176 -557q43 -135 45 -320h86q8 197 45 320l168 557h197l-334 -1016h-240z" />
<glyph unicode="w" horiz-adv-x="1703" d="M47 1016h201l143 -473q33 -106 41 -181q12 -102 14 -192h84q12 207 62 362l147 484h226l159 -529q39 -127 47 -317h86q2 205 58 379l145 467h203l-342 -1016h-227l-144 471q-55 184 -57 387h-90q-2 -207 -58 -385l-147 -473h-219z" />
<glyph unicode="x" horiz-adv-x="1013" d="M35 0l354 520l-336 496h228l102 -160q72 -109 76 -256h84q2 106 100 256l102 160h213l-340 -498l363 -518h-233l-119 180q-74 109 -76 252h-84q-2 -102 -102 -252l-121 -180h-211z" />
<glyph unicode="y" horiz-adv-x="1042" d="M10 1016h215l211 -504q49 -113 53 -307h86q2 158 43 284l173 527h202l-397 -1159q-53 -147 -119.5 -201.5t-202.5 -54.5h-211v172h205q57 0 89 20.5t51 73.5l51 143z" />
<glyph unicode="z" horiz-adv-x="1003" d="M86 0v193l604 679l-59 64q-80 -86 -213 -86h-314v166h799v-168l-627 -707l62 -59q76 84 223 84h369v-166h-844z" />
<glyph unicode="{" horiz-adv-x="700" d="M49 528v172q125 0 164 53.5t39 192.5v271q0 164 61.5 246.5t198.5 82.5h127v-155h-80q-68 0 -97.5 -36t-29.5 -118v-319q0 -139 -53 -194.5t-191 -66.5v-82q137 -10 190.5 -66t53.5 -198v-309q0 -82 30 -118t97 -36h80v-155h-127q-260 0 -260 330v256q0 141 -39 195 t-164 54z" />
<glyph unicode="|" horiz-adv-x="546" d="M182 -213v1862h180v-1862h-180z" />
<glyph unicode="}" horiz-adv-x="700" d="M61 -162h80q68 0 97.5 37t29.5 117v319q0 141 52.5 195.5t191.5 64.5v84q-137 10 -190.5 66.5t-53.5 198.5v309q0 82 -29.5 117.5t-97.5 35.5h-80v154h125q137 0 200 -82t63 -246v-258q0 -141 38.5 -194.5t163.5 -53.5v-174q-127 0 -164.5 -51t-37.5 -194v-271 q0 -164 -62.5 -245.5t-200.5 -81.5h-125v153z" />
<glyph unicode="~" horiz-adv-x="1323" d="M131 735q63 76 149.5 118t165.5 42q82 0 207 -55l66 -29q106 -49 172 -49q96 0 194 102l111 -143q-63 -76 -149 -118t-166 -42q-78 0 -209 57l-66 29q-106 49 -170 49q-98 0 -194 -102z" />
<glyph unicode="&#xa1;" horiz-adv-x="550" d="M143 887v266h263v-266h-263zM170 152l61 544h93l55 -551v-426h-209v433z" />
<glyph unicode="&#xa2;" horiz-adv-x="1116" d="M98 510q0 205 114 351.5t292 174.5v226h147v-222q127 -16 227.5 -91t149.5 -185l-178 -70q-66 152 -199 176v-446q0 -121 -12 -177.5t-59 -115.5l45 -57q178 88 239 282l183 -63q-49 -133 -151.5 -218t-244.5 -102v-217h-147v221q-184 29 -295 172.5t-111 360.5zM299 510 q0 -145 54.5 -237t150.5 -123v425q0 119 12 180.5t57 114.5l-45 60q-229 -119 -229 -420z" />
<glyph unicode="&#xa3;" horiz-adv-x="1191" d="M121 0v180q84 20 172 82q86 57 86 189q0 92 -45 180h-209v160h108q-74 119 -73 239q0 197 137 313.5t336 116.5q168 0 302 -103.5t161 -289.5l-205 -49q-20 133 -96 198.5t-177 65.5q-109 0 -177 -67.5t-68 -186.5q0 -111 80 -237h366v-160h-280q27 -68 26 -158 q0 -182 -237 -287l47 -84q125 86 268 86h447v-188h-969z" />
<glyph unicode="&#xa4;" horiz-adv-x="1329" d="M119 299l166 164q-74 113 -74 256t76 260l-168 168l127 125l170 -166q119 72 252 72q131 0 245 -74l170 168l127 -125l-170 -168q80 -115 80 -258q0 -150 -78 -256l168 -166l-127 -127l-170 170q-119 -80 -245 -80q-135 0 -254 76l-168 -166zM399 719q0 -123 76 -200 t193 -77q113 0 188.5 79t75.5 200q0 123 -76 200.5t-188 77.5q-117 0 -193 -78.5t-76 -201.5z" />
<glyph unicode="&#xa5;" horiz-adv-x="1357" d="M63 1434h246l244 -402q84 -135 92 -319h86q8 197 80 321l240 400h243l-407 -627h276v-158h-375v-162h375v-157h-375v-330h-204v330h-385v157h385v162h-385v158h280z" />
<glyph unicode="&#xa6;" horiz-adv-x="546" d="M182 -213v811h180v-811h-180zM182 838v811h180v-811h-180z" />
<glyph unicode="&#xa7;" horiz-adv-x="1243" d="M76 500q0 102 72.5 172.5t209.5 91.5v84q-88 49 -128 110.5t-40 151.5q0 145 114 248.5t308 103.5q197 0 318 -95t147 -241l-203 -75q-57 229 -262 229q-98 0 -153.5 -48t-55.5 -122q0 -82 37 -119t135 -67l316 -101q129 -43 203.5 -115.5t74.5 -162.5 q0 -109 -76.5 -183.5t-209.5 -87.5v-86q170 -84 170 -262q0 -150 -118 -252t-323 -102q-199 0 -318.5 95.5t-148.5 242.5l203 76q59 -231 264 -232q109 0 168.5 47t59.5 123q0 74 -41 115t-135 72l-314 102q-274 82 -274 287zM287 549q0 -111 162 -162l192 -59l109 -39 q100 47 152 93t52 103q0 59 -38.5 97.5t-122.5 64.5l-193 62l-111 36q-203 -94 -202 -196z" />
<glyph unicode="&#xa8;" horiz-adv-x="1153" d="M270 1202v211h207v-211h-207zM674 1202v211h207v-211h-207z" />
<glyph unicode="&#xa9;" horiz-adv-x="1792" d="M96 735q-8 319 233.5 559t567.5 234q213 4 399.5 -104.5t295 -294t104.5 -394.5q6 -322 -233.5 -558t-565.5 -230q-215 -4 -401.5 103.5t-295 290.5t-104.5 394zM250 735q-4 -264 187.5 -457.5t459.5 -189.5q266 -4 457.5 189.5t187.5 457.5q4 264 -187.5 460t-457.5 189 q-266 6 -458.5 -189.5t-188.5 -459.5zM500 752q0 184 116.5 300.5t292.5 116.5q131 0 223.5 -65.5t127.5 -179.5l-140 -35q-59 160 -219 160q-111 0 -179.5 -86t-68.5 -228q0 -139 66.5 -219t179.5 -80q84 0 146.5 52.5t84.5 138.5l144 -43q-35 -127 -134.5 -203t-238.5 -76 q-186 0 -293.5 120t-107.5 327z" />
<glyph unicode="&#xaa;" horiz-adv-x="1030" d="M98 1026q0 199 96.5 313.5t237.5 114.5q172 0 250 -168h74q-33 68 -33 148h156v-822h-156q0 82 33 150h-74q-78 -170 -250 -170q-139 0 -236.5 119.5t-97.5 314.5zM283 1026q0 -131 61.5 -211t155.5 -80t155.5 80t61.5 211q0 135 -60.5 210t-157 75t-156.5 -75t-60 -210z " />
<glyph unicode="&#xab;" horiz-adv-x="1091" d="M86 518l272 445h207l-270 -439l276 -450h-213zM516 518l275 445h206l-272 -439l279 -450h-213z" />
<glyph unicode="&#xac;" horiz-adv-x="1380" d="M135 633v184h1088v-493h-187v309h-901z" />
<glyph unicode="&#xad;" horiz-adv-x="868" d="M137 537v198h592v-198h-592z" />
<glyph unicode="&#xae;" horiz-adv-x="1171" d="M94 1040q0 203 142.5 345.5t349.5 142.5t350 -142.5t143 -345.5q0 -205 -143 -348t-350 -143q-205 0 -348.5 143t-143.5 348zM219 1040q0 -164 104.5 -272.5t262 -108.5t264 108.5t106.5 272.5q0 160 -106.5 267.5t-264 107.5t-262 -107.5t-104.5 -267.5zM408 805v467 h233q70 0 113 -31t43 -84q0 -104 -142 -108v-41q106 -4 117 -95l16 -108h-118l-17 106q-6 49 -22.5 65.5t-61.5 16.5h-51v-188h-110zM518 1075h86q78 0 78 60q0 55 -78 55h-86v-115z" />
<glyph unicode="&#xaf;" horiz-adv-x="708" d="M47 1210v148h627v-148h-627z" />
<glyph unicode="&#xb0;" horiz-adv-x="878" d="M88 1239q0 145 100.5 244.5t249.5 99.5q152 0 252.5 -99.5t100.5 -244.5q0 -147 -100.5 -244.5t-254.5 -97.5q-150 0 -249 98.5t-99 243.5zM262 1241q0 -86 49 -140t127 -54q80 0 128 53t48 141q0 84 -48 135t-128 51q-78 0 -127 -52t-49 -134z" />
<glyph unicode="&#xb1;" horiz-adv-x="1409" d="M156 174v186h1095v-186h-1095zM160 782v183h454v305h185v-305h454v-183h-454v-284h-185v284h-454z" />
<glyph unicode="&#xb2;" horiz-adv-x="768" d="M90 1341q-4 131 78 213t213 82q129 0 208 -72.5t79 -187.5q0 -131 -97 -231q-88 -88 -317 -199l35 -63q109 66 223 65h164v-145h-578v151q207 127 298 214t98 194q0 61 -32 97t-83 36q-53 0 -86 -42t-33 -114v-18z" />
<glyph unicode="&#xb3;" horiz-adv-x="770" d="M80 1057l170 33q2 -76 38 -120t97 -44q53 0 86 30.5t33 81.5q0 111 -139 111h-60v137h60q61 0 94 28.5t33 78.5q0 45 -29 74.5t-76 29.5q-55 0 -87 -38t-32 -105l-170 28q0 113 82 183.5t207 70.5q123 0 199 -58t76 -148q0 -74 -48.5 -120t-132.5 -55v-63 q94 -4 145.5 -51t51.5 -125q0 -102 -81 -166t-210 -64q-133 0 -217 75t-90 196z" />
<glyph unicode="&#xb4;" horiz-adv-x="716" d="M262 1161l100 289h254l-229 -289h-125z" />
<glyph unicode="&#xb5;" horiz-adv-x="1239" d="M190 -399v1415h193v-621q0 -258 209 -258q115 0 174 72q92 111 92 364v443h193v-1016h-187q2 94 94 238h-104q-100 -266 -330 -267q-82 0 -141 27v-397h-193z" />
<glyph unicode="&#xb6;" horiz-adv-x="1355" d="M61 987q0 205 145.5 326t362.5 121h686v-156h-155v-1677h-182v1677h-197v-1677h-182v954h-39q-180 0 -309.5 127t-129.5 305z" />
<glyph unicode="&#xb7;" horiz-adv-x="536" d="M137 575v267h262v-267h-262z" />
<glyph unicode="&#xb8;" horiz-adv-x="731" d="M82 -346l80 102q63 -72 151 -71q94 0 95 63q0 29 -25 45.5t-64 16.5q-45 0 -71 -13l-58 76l119 127h135l-55 -49l-51 -51h31q78 0 131 -45t53 -119q0 -78 -61.5 -128t-167.5 -50q-160 0 -242 96z" />
<glyph unicode="&#xb9;" horiz-adv-x="585" d="M66 1294v150q162 29 237 176h137v-817h-166v461q0 94 35 180h-69q-49 -147 -174 -150z" />
<glyph unicode="&#xba;" horiz-adv-x="978" d="M92 1024q0 184 115 307t282.5 123t282.5 -123t115 -307t-115 -308t-283 -124q-166 0 -281.5 125t-115.5 307zM281 1024q0 -135 56 -212t152 -77q98 0 153.5 77t55.5 212q0 137 -55 212t-153.5 75t-153.5 -76t-55 -211z" />
<glyph unicode="&#xbb;" horiz-adv-x="1091" d="M88 963h213l274 -447l-274 -442h-207l273 436zM520 963h213l273 -447l-273 -442h-207l271 436z" />
<glyph unicode="&#xbc;" horiz-adv-x="1726" d="M72 1108v149q162 29 237 177h137v-818h-165v461q0 94 34 180h-69q-49 -147 -174 -149zM164 0l1022 1434h196l-1020 -1434h-198zM1012 211v127l325 479h205v-471h113v-135h-113v-211h-156v211h-374zM1159 309l51 -37q55 74 136 74h40v94q0 104 76 185l-55 39z" />
<glyph unicode="&#xbd;" horiz-adv-x="1701" d="M70 1108v149q162 29 237 177h137v-818h-165v461q0 94 34 180h-69q-49 -147 -174 -149zM162 0l1022 1434h196l-1020 -1434h-198zM1032 539q-4 131 78 213t213 82q129 0 208 -73t79 -188q0 -131 -97 -231q-88 -88 -317 -199l35 -63q109 66 223 65h164v-145h-578v152 q207 127 298.5 214t97.5 193q0 61 -32 97t-83 36q-53 0 -86 -42t-33 -113v-19z" />
<glyph unicode="&#xbe;" horiz-adv-x="1906" d="M78 870l170 33q2 -76 38 -120t97 -44q53 0 86 31t33 82q0 111 -140 111h-59v137h59q61 0 94 28.5t33 77.5q0 45 -28.5 75t-75.5 30q-55 0 -87 -38t-32 -106l-170 29q0 113 82 183.5t207 70.5q123 0 198.5 -58.5t75.5 -148.5q0 -74 -48 -120t-132 -54v-63 q94 -4 145.5 -51.5t51.5 -125.5q0 -102 -81 -165.5t-210 -63.5q-133 0 -217 74.5t-90 195.5zM344 0l1022 1434h197l-1020 -1434h-199zM1192 211v127l326 479h204v-471h113v-135h-113v-211h-155v211h-375zM1339 309l52 -37q55 74 135 74h41v94q0 104 75 185l-55 39z" />
<glyph unicode="&#xbf;" horiz-adv-x="1015" d="M78 74q0 111 56 199.5t188 195.5q76 66 100 111t24 116h189q0 -127 -41 -198.5t-137 -153.5q-94 -82 -133 -134t-39 -130q0 -96 61.5 -153.5t161.5 -57.5q117 0 179.5 77t64.5 222l194 -31q0 -211 -117.5 -327.5t-320.5 -116.5q-186 0 -308 104.5t-122 276.5zM410 887 v266h260v-266h-260z" />
<glyph unicode="&#xc0;" d="M31 0l538 1434h283l528 -1434h-229l-133 379h-631l-135 -379h-221zM399 1868h275l110 -291h-137zM455 565h497l-139 391q-63 190 -65 334h-86q-8 -168 -66 -334z" />
<glyph unicode="&#xc1;" d="M31 0l538 1434h283l528 -1434h-229l-133 379h-631l-135 -379h-221zM455 565h497l-139 391q-63 190 -65 334h-86q-8 -168 -66 -334zM643 1577l111 291h280l-254 -291h-137z" />
<glyph unicode="&#xc2;" d="M31 0l538 1434h283l528 -1434h-229l-133 379h-631l-135 -379h-221zM313 1577l242 252h305l244 -252h-211l-184 149l-185 -149h-211zM455 565h497l-139 391q-63 190 -65 334h-86q-8 -168 -66 -334z" />
<glyph unicode="&#xc3;" d="M31 0l538 1434h283l528 -1434h-229l-133 379h-631l-135 -379h-221zM315 1577q0 121 65.5 187.5t178.5 66.5q86 0 174 -49l64 -37q68 -37 98 -37q78 0 90 96h164q0 -121 -64.5 -185.5t-179.5 -64.5q-78 1 -174 56l-67 39q-70 35 -97 34q-86 0 -86 -106h-166zM455 565h497 l-139 391q-63 190 -65 334h-86q-8 -168 -66 -334z" />
<glyph unicode="&#xc4;" d="M31 0l538 1434h283l528 -1434h-229l-133 379h-631l-135 -379h-221zM375 1577v211h227v-211h-227zM455 565h497l-139 391q-63 190 -65 334h-86q-8 -168 -66 -334zM817 1577v211h230v-211h-230z" />
<glyph unicode="&#xc5;" d="M31 0l538 1434h283l528 -1434h-229l-133 379h-631l-135 -379h-221zM455 565h497l-139 391q-63 190 -65 334h-86q-8 -168 -66 -334zM457 1802q0 100 73.5 171t178.5 71q100 0 173.5 -73t73.5 -175q0 -104 -72.5 -175t-174.5 -71q-104 0 -178 73t-74 179zM592 1802 q0 -55 31.5 -91t85.5 -36q45 0 79.5 37t34.5 84q0 51 -33.5 87t-80.5 36q-49 0 -83 -35t-34 -82z" />
<glyph unicode="&#xc6;" horiz-adv-x="1890" d="M-35 0l821 1434h1000v-189h-684v-395h508v-186h-508v-476h684v-188h-887v391h-475l-213 -391h-246zM524 578h375v397q0 174 39 315h-96q-39 -211 -135 -381z" />
<glyph unicode="&#xc7;" horiz-adv-x="1507" d="M102 729q-4 311 198 525t505 208q248 0 412.5 -124t216.5 -300l-205 -73q-39 125 -142 217q-96 94 -282 94q-219 0 -351 -146.5t-132 -398.5q0 -258 133 -414.5t350 -156.5q176 0 277.5 83t154.5 240l199 -75q-51 -170 -186.5 -289t-338.5 -142l-30 -26l-52 -51h31 q78 0 131 -45t53 -119q0 -78 -62 -128t-169 -50q-158 0 -240 96l80 102q63 -72 152 -71q92 0 92 63q0 29 -24.5 45.5t-61.5 16.5q-45 0 -72 -13l-57 76l92 98q-309 12 -490.5 225.5t-181.5 532.5z" />
<glyph unicode="&#xc8;" horiz-adv-x="1318" d="M205 0v1434h1014v-189h-809v-409h600v-187h-600v-461h809v-188h-1014zM399 1868h275l110 -291h-137z" />
<glyph unicode="&#xc9;" horiz-adv-x="1318" d="M205 0v1434h1014v-189h-809v-409h600v-187h-600v-461h809v-188h-1014zM643 1577l111 291h280l-254 -291h-137z" />
<glyph unicode="&#xca;" horiz-adv-x="1318" d="M205 0v1434h1014v-189h-809v-409h600v-187h-600v-461h809v-188h-1014zM313 1577l242 252h305l244 -252h-211l-184 149l-185 -149h-211z" />
<glyph unicode="&#xcb;" horiz-adv-x="1318" d="M205 0v1434h1014v-189h-809v-409h600v-187h-600v-461h809v-188h-1014zM375 1577v211h227v-211h-227zM817 1577v211h230v-211h-230z" />
<glyph unicode="&#xcc;" horiz-adv-x="614" d="M-4 1868h274l111 -291h-137zM205 0v1434h205v-1434h-205z" />
<glyph unicode="&#xcd;" horiz-adv-x="614" d="M205 0v1434h205v-1434h-205zM240 1577l110 291h281l-254 -291h-137z" />
<glyph unicode="&#xce;" horiz-adv-x="614" d="M-90 1577l242 252h305l243 -252h-211l-184 149l-184 -149h-211zM205 0v1434h205v-1434h-205z" />
<glyph unicode="&#xcf;" horiz-adv-x="614" d="M-31 1577v211h228v-211h-228zM205 0v1434h205v-1434h-205zM412 1577v211h229v-211h-229z" />
<glyph unicode="&#xd0;" horiz-adv-x="1517" d="M57 666v165h160v603h504q307 0 498.5 -197t191.5 -514q0 -336 -189.5 -529.5t-512.5 -193.5h-492v666h-160zM422 188h258q516 1 516 533q0 246 -129 385t-375 139h-270v-414h311v-165h-311v-478z" />
<glyph unicode="&#xd1;" horiz-adv-x="1656" d="M205 0v1434h311l754 -1186l73 51q-57 86 -76.5 163t-19.5 214v758h205v-1434h-256l-799 1262l-73 -48q86 -164 86 -415v-799h-205zM444 1577q0 121 65.5 187.5t178.5 66.5q86 0 174 -49l64 -37q68 -37 98 -37q78 0 90 96h164q0 -121 -64.5 -185.5t-179.5 -64.5 q-80 1 -174 56l-67 39q-70 35 -97 34q-86 0 -86 -106h-166z" />
<glyph unicode="&#xd2;" horiz-adv-x="1642" d="M102 717q-4 326 205 537.5t516 207.5q307 4 513 -208t202 -537q4 -326 -202 -538t-513 -208q-307 -4 -516 208t-205 538zM322 717q0 -248 135 -403.5t364.5 -155.5t364.5 155.5t135 403.5q0 244 -136 401.5t-364 157.5q-229 0 -364 -156.5t-135 -402.5zM512 1868h274 l111 -291h-137z" />
<glyph unicode="&#xd3;" horiz-adv-x="1642" d="M102 717q-4 326 205 537.5t516 207.5q307 4 513 -208t202 -537q4 -326 -202 -538t-513 -208q-307 -4 -516 208t-205 538zM322 717q0 -248 135 -403.5t364.5 -155.5t364.5 155.5t135 403.5q0 244 -136 401.5t-364 157.5q-229 0 -364 -156.5t-135 -402.5zM756 1577l110 291 h281l-254 -291h-137z" />
<glyph unicode="&#xd4;" horiz-adv-x="1642" d="M102 717q-4 326 205 537.5t516 207.5q307 4 513 -208t202 -537q4 -326 -202 -538t-513 -208q-307 -4 -516 208t-205 538zM322 717q0 -248 135 -403.5t364.5 -155.5t364.5 155.5t135 403.5q0 244 -136 401.5t-364 157.5q-229 0 -364 -156.5t-135 -402.5zM426 1577l242 252 h305l244 -252h-211l-185 149l-184 -149h-211z" />
<glyph unicode="&#xd5;" horiz-adv-x="1642" d="M102 717q-4 326 205 537.5t516 207.5q307 4 513 -208t202 -537q4 -326 -202 -538t-513 -208q-307 -4 -516 208t-205 538zM322 717q0 -248 135 -403.5t364.5 -155.5t364.5 155.5t135 403.5q0 244 -136 401.5t-364 157.5q-229 0 -364 -156.5t-135 -402.5zM428 1577 q0 121 65.5 187.5t178.5 66.5q86 0 174 -49l63 -37q68 -37 99 -37q78 0 90 96h164q0 -121 -64.5 -185.5t-179.5 -64.5q-80 1 -174 56l-68 39q-70 35 -96 34q-86 0 -86 -106h-166z" />
<glyph unicode="&#xd6;" horiz-adv-x="1642" d="M102 717q-4 326 205 537.5t516 207.5q307 4 513 -208t202 -537q4 -326 -202 -538t-513 -208q-307 -4 -516 208t-205 538zM322 717q0 -248 135 -403.5t364.5 -155.5t364.5 155.5t135 403.5q0 244 -136 401.5t-364 157.5q-229 0 -364 -156.5t-135 -402.5zM485 1577v211h228 v-211h-228zM928 1577v211h229v-211h-229z" />
<glyph unicode="&#xd7;" horiz-adv-x="1232" d="M121 1083l129 129l368 -366l365 364l127 -125l-365 -364l367 -371l-131 -129l-367 369l-366 -367l-125 125l366 369z" />
<glyph unicode="&#xd8;" horiz-adv-x="1650" d="M104 717q-4 326 205 537.5t514 207.5q223 0 402 -114l127 155l145 -117l-133 -159q176 -205 176 -510q4 -326 -203 -539t-514 -209q-219 0 -395 115l-125 -154l-143 113l129 158q-184 207 -185 516zM322 719q0 -207 98 -357l495 607q66 80 118 111.5t120 35.5v90 q-47 29 -140 49.5t-188 20.5q-229 0 -366 -156.5t-137 -400.5zM500 223q113 -66 329 -65q223 0 358.5 155.5t135.5 401.5q0 201 -92 348l-506 -619q-55 -66 -106.5 -95.5t-118.5 -35.5v-90z" />
<glyph unicode="&#xd9;" horiz-adv-x="1488" d="M184 555v879h205v-850q0 -205 89 -313.5t265.5 -108.5t265.5 110.5t89 311.5v850h205v-879q0 -279 -144.5 -431.5t-415.5 -152.5q-266 0 -412.5 147.5t-146.5 436.5zM440 1868h275l110 -291h-137z" />
<glyph unicode="&#xda;" horiz-adv-x="1488" d="M184 555v879h205v-850q0 -205 89 -313.5t265.5 -108.5t265.5 110.5t89 311.5v850h205v-879q0 -279 -144.5 -431.5t-415.5 -152.5q-266 0 -412.5 147.5t-146.5 436.5zM682 1577l111 291h280l-254 -291h-137z" />
<glyph unicode="&#xdb;" horiz-adv-x="1488" d="M184 555v879h205v-850q0 -205 89 -313.5t265.5 -108.5t265.5 110.5t89 311.5v850h205v-879q0 -279 -144.5 -431.5t-415.5 -152.5q-266 0 -412.5 147.5t-146.5 436.5zM354 1577l242 252h305l244 -252h-211l-184 149l-185 -149h-211z" />
<glyph unicode="&#xdc;" horiz-adv-x="1488" d="M184 555v879h205v-850q0 -205 89 -313.5t265.5 -108.5t265.5 110.5t89 311.5v850h205v-879q0 -279 -144.5 -431.5t-415.5 -152.5q-266 0 -412.5 147.5t-146.5 436.5zM414 1577v211h227v-211h-227zM856 1577v211h229v-211h-229z" />
<glyph unicode="&#xdd;" horiz-adv-x="1323" d="M43 1434h246l241 -404q92 -154 95 -317h86q2 164 90 319l227 402h244l-504 -826v-608h-205v600zM596 1577l111 291h280l-254 -291h-137z" />
<glyph unicode="&#xde;" horiz-adv-x="1380" d="M205 0v1434h205v-260h407q203 0 340 -123.5t137 -313.5q0 -184 -138 -311t-339 -127h-407v-299h-205zM410 485h374q137 0 215 68.5t78 183.5q0 117 -76.5 183.5t-216.5 66.5h-374v-502z" />
<glyph unicode="&#xdf;" horiz-adv-x="1230" d="M168 0v1018q0 207 122 325.5t335 118.5q193 0 312.5 -98t119.5 -256q0 -123 -80 -204t-201 -93v-92q150 -4 259.5 -91t109.5 -243q0 -188 -128 -293.5t-341 -105.5q-82 0 -154 14v172q68 -12 127 -12q135 0 213 66.5t78 187.5q0 117 -86 187.5t-213 70.5h-94v162h51 q119 0 192.5 66.5t73.5 176.5q0 100 -68.5 160.5t-177.5 60.5q-117 0 -187.5 -76.5t-70.5 -205.5v-1016h-192z" />
<glyph unicode="&#xe0;" horiz-adv-x="1112" d="M82 760q31 119 147.5 201.5t298.5 82.5q199 0 302.5 -93t103.5 -263v-465q0 -35 12 -46t47 -11h105v-166h-84q-115 0 -155 45t-40 168h-78q-31 -111 -111.5 -176.5t-203.5 -65.5q-150 0 -237 78t-87 213q0 193 177 285q174 94 462 117v30q0 188 -213 189 q-209 0 -266 -185zM246 1450h248l102 -289h-125zM301 279q0 -70 46 -110t134 -40q109 0 184.5 76t75.5 215v104q-440 -43 -440 -245z" />
<glyph unicode="&#xe1;" horiz-adv-x="1112" d="M82 760q31 119 147.5 201.5t298.5 82.5q199 0 302.5 -93t103.5 -263v-465q0 -35 12 -46t47 -11h105v-166h-84q-115 0 -155 45t-40 168h-78q-31 -111 -111.5 -176.5t-203.5 -65.5q-150 0 -237 78t-87 213q0 193 177 285q174 94 462 117v30q0 188 -213 189 q-209 0 -266 -185zM301 279q0 -70 46 -110t134 -40q109 0 184.5 76t75.5 215v104q-440 -43 -440 -245zM473 1161l100 289h254l-229 -289h-125z" />
<glyph unicode="&#xe2;" horiz-adv-x="1112" d="M82 760q31 119 147.5 201.5t298.5 82.5q199 0 302.5 -93t103.5 -263v-465q0 -35 12 -46t47 -11h105v-166h-84q-115 0 -155 45t-40 168h-78q-31 -111 -111.5 -176.5t-203.5 -65.5q-150 0 -237 78t-87 213q0 193 177 285q174 94 462 117v30q0 188 -213 189 q-209 0 -266 -185zM178 1161l219 252h279l219 -252h-190l-168 150l-168 -150h-191zM301 279q0 -70 46 -110t134 -40q109 0 184.5 76t75.5 215v104q-440 -43 -440 -245z" />
<glyph unicode="&#xe3;" horiz-adv-x="1112" d="M82 760q31 119 147.5 201.5t298.5 82.5q199 0 302.5 -93t103.5 -263v-465q0 -35 12 -46t47 -11h105v-166h-84q-115 0 -155 45t-40 168h-78q-31 -111 -111.5 -176.5t-203.5 -65.5q-150 0 -237 78t-87 213q0 193 177 285q174 94 462 117v30q0 188 -213 189 q-209 0 -266 -185zM156 1188q0 121 60 186.5t163 65.5q80 0 158 -49l57 -35q57 -37 88 -37q39 0 58.5 21.5t25.5 72.5h149q0 -121 -59 -185.5t-162 -64.5q-71 1 -159 56l-62 38q-55 35 -86 35q-37 0 -58.5 -27.5t-21.5 -76.5h-151zM301 279q0 -70 46 -110t134 -40 q109 0 184.5 76t75.5 215v104q-440 -43 -440 -245z" />
<glyph unicode="&#xe4;" horiz-adv-x="1112" d="M82 760q31 119 147.5 201.5t298.5 82.5q199 0 302.5 -93t103.5 -263v-465q0 -35 12 -46t47 -11h105v-166h-84q-115 0 -155 45t-40 168h-78q-31 -111 -111.5 -176.5t-203.5 -65.5q-150 0 -237 78t-87 213q0 193 177 285q174 94 462 117v30q0 188 -213 189 q-209 0 -266 -185zM229 1202v211h207v-211h-207zM301 279q0 -70 46 -110t134 -40q109 0 184.5 76t75.5 215v104q-440 -43 -440 -245zM633 1202v211h207v-211h-207z" />
<glyph unicode="&#xe5;" horiz-adv-x="1112" d="M82 760q31 119 147.5 201.5t298.5 82.5q199 0 302.5 -93t103.5 -263v-465q0 -35 12 -46t47 -11h105v-166h-84q-115 0 -155 45t-40 168h-78q-31 -111 -111.5 -176.5t-203.5 -65.5q-150 0 -237 78t-87 213q0 193 177 285q174 94 462 117v30q0 188 -213 189 q-209 0 -266 -185zM299 1366q0 96 69.5 162.5t168.5 66.5q96 0 166.5 -68.5t70.5 -164.5q0 -100 -70.5 -168t-166.5 -68q-100 0 -169 69t-69 171zM301 279q0 -70 46 -110t134 -40q109 0 184.5 76t75.5 215v104q-440 -43 -440 -245zM426 1366q0 -51 30.5 -86t80.5 -35 q43 0 76.5 35t33.5 82t-33.5 81t-76.5 34q-47 0 -79 -33t-32 -78z" />
<glyph unicode="&#xe6;" horiz-adv-x="1734" d="M86 760q33 119 143.5 201.5t282.5 82.5q133 0 214 -62t103 -142h78q29 82 102.5 143t192.5 61q193 0 313.5 -140t120.5 -363q0 -33 -4 -82h-717q8 -164 84 -245t199 -81q186 0 266 195l176 -64q-55 -141 -170.5 -217t-275.5 -76q-147 0 -239.5 70t-118.5 174h-80 q-25 -92 -100.5 -168t-235.5 -76q-147 0 -232.5 78t-85.5 215q0 346 639 400v30q0 188 -219 189q-199 0 -258 -185zM299 279q0 -70 47 -110t133 -40q111 0 186.5 76t75.5 215v106q-442 -39 -442 -247zM922 606h516q-2 135 -73 210t-179 75q-104 0 -178 -77t-86 -208z" />
<glyph unicode="&#xe7;" horiz-adv-x="1089" d="M90 510q0 233 139.5 383.5t352.5 150.5q162 0 274.5 -81.5t153.5 -212.5l-181 -62q-66 190 -249 191q-125 0 -207 -97.5t-82 -271.5q0 -180 80 -276.5t211 -96.5q203 0 270 219l182 -63q-103 -281 -379 -318l-26 -24l-54 -51h31q80 0 132.5 -44t52.5 -120 q0 -78 -61.5 -128t-168.5 -50q-164 0 -239 96l77 102q63 -72 154 -71q92 0 92 63q0 29 -24.5 45.5t-63.5 16.5q-45 0 -72 -13l-57 76l96 100q-199 23 -316.5 166.5t-117.5 370.5z" />
<glyph unicode="&#xe8;" horiz-adv-x="1101" d="M92 504q0 244 129 392t332 148t328 -141t125 -360q0 -39 -7 -84h-714q6 -164 82.5 -245t197.5 -81q182 0 266 195l177 -64q-53 -141 -169 -217t-278 -76q-215 0 -342 140.5t-127 392.5zM266 1450h248l102 -289h-124zM289 612h516q-2 129 -74 204t-178 75q-104 0 -178 -76 t-86 -203z" />
<glyph unicode="&#xe9;" horiz-adv-x="1101" d="M92 504q0 244 129 392t332 148t328 -141t125 -360q0 -39 -7 -84h-714q6 -164 82.5 -245t197.5 -81q182 0 266 195l177 -64q-53 -141 -169 -217t-278 -76q-215 0 -342 140.5t-127 392.5zM289 612h516q-2 129 -74 204t-178 75q-104 0 -178 -76t-86 -203zM494 1161l100 289 h254l-230 -289h-124z" />
<glyph unicode="&#xea;" horiz-adv-x="1101" d="M92 504q0 244 129 392t332 148t328 -141t125 -360q0 -39 -7 -84h-714q6 -164 82.5 -245t197.5 -81q182 0 266 195l177 -64q-53 -141 -169 -217t-278 -76q-215 0 -342 140.5t-127 392.5zM197 1161l219 252h278l219 -252h-190l-168 150l-168 -150h-190zM289 612h516 q-2 129 -74 204t-178 75q-104 0 -178 -76t-86 -203z" />
<glyph unicode="&#xeb;" horiz-adv-x="1101" d="M92 504q0 244 129 392t332 148t328 -141t125 -360q0 -39 -7 -84h-714q6 -164 82.5 -245t197.5 -81q182 0 266 195l177 -64q-53 -141 -169 -217t-278 -76q-215 0 -342 140.5t-127 392.5zM248 1202v211h207v-211h-207zM289 612h516q-2 129 -74 204t-178 75q-104 0 -178 -76 t-86 -203zM651 1202v211h207v-211h-207z" />
<glyph unicode="&#xec;" horiz-adv-x="526" d="M-25 1450h248l103 -289h-125zM168 0v1016h192v-1016h-192z" />
<glyph unicode="&#xed;" horiz-adv-x="526" d="M168 0v1016h192v-1016h-192zM203 1161l100 289h254l-229 -289h-125z" />
<glyph unicode="&#xee;" horiz-adv-x="526" d="M-94 1161l219 252h278l220 -252h-191l-168 150l-168 -150h-190zM168 0v1016h192v-1016h-192z" />
<glyph unicode="&#xef;" horiz-adv-x="526" d="M-41 1202v211h207v-211h-207zM168 0v1016h192v-1016h-192zM362 1202v211h207v-211h-207z" />
<glyph unicode="&#xf0;" horiz-adv-x="1185" d="M92 463q0 197 116 331t300 134q125 0 205 -61.5t110 -159.5h88q-2 266 -159 436l-168 -137l-82 108l141 117q-115 66 -246 65q-121 0 -229 -39v166q113 39 254 39q211 0 366 -112l150 120l86 -102l-137 -113q182 -218 182 -587q0 -330 -135 -513.5t-373 -183.5 q-219 0 -344 138.5t-125 353.5zM293 451q0 -143 72.5 -228.5t195.5 -85.5t196.5 85.5t73.5 228.5q0 141 -73.5 226t-196.5 85q-121 0 -194.5 -86t-73.5 -225z" />
<glyph unicode="&#xf1;" horiz-adv-x="1191" d="M168 0v1016h184q0 -86 -98 -236h104q31 102 117 183t209 81q176 0 265 -99t89 -281v-664h-192v621q0 256 -213 256q-123 0 -184 -74q-55 -66 -72 -150t-17 -215v-438h-192zM229 1188q0 121 60.5 186.5t163.5 65.5q80 0 157 -49l58 -35q57 -37 88 -37q39 0 58.5 21.5 t25.5 72.5h149q0 -121 -59.5 -185.5t-161.5 -64.5q-72 1 -160 56l-61 38q-55 35 -86 35q-37 0 -58.5 -27.5t-21.5 -76.5h-152z" />
<glyph unicode="&#xf2;" horiz-adv-x="1142" d="M88 508q0 229 137 382.5t346 153.5t345.5 -153.5t136.5 -382.5t-137.5 -383t-344.5 -154q-205 0 -344 154t-139 383zM283 1450h247l103 -289h-125zM289 504q0 -178 74.5 -272.5t207.5 -94.5q131 0 207 95.5t76 271.5q0 182 -77 278.5t-206 96.5q-131 0 -206.5 -96.5 t-75.5 -278.5z" />
<glyph unicode="&#xf3;" horiz-adv-x="1142" d="M88 508q0 229 137 382.5t346 153.5t345.5 -153.5t136.5 -382.5t-137.5 -383t-344.5 -154q-205 0 -344 154t-139 383zM289 504q0 -178 74.5 -272.5t207.5 -94.5q131 0 207 95.5t76 271.5q0 182 -77 278.5t-206 96.5q-131 0 -206.5 -96.5t-75.5 -278.5zM508 1161l100 289 h254l-229 -289h-125z" />
<glyph unicode="&#xf4;" horiz-adv-x="1142" d="M88 508q0 229 137 382.5t346 153.5t345.5 -153.5t136.5 -382.5t-137.5 -383t-344.5 -154q-205 0 -344 154t-139 383zM213 1161l219 252h279l219 -252h-191l-168 150l-168 -150h-190zM289 504q0 -178 74.5 -272.5t207.5 -94.5q131 0 207 95.5t76 271.5q0 182 -77 278.5 t-206 96.5q-131 0 -206.5 -96.5t-75.5 -278.5z" />
<glyph unicode="&#xf5;" horiz-adv-x="1142" d="M88 508q0 229 137 382.5t346 153.5t345.5 -153.5t136.5 -382.5t-137.5 -383t-344.5 -154q-205 0 -344 154t-139 383zM190 1188q0 121 60.5 186.5t163.5 65.5q80 0 157 -49l58 -35q57 -37 88 -37q39 0 58.5 21.5t25.5 72.5h149q0 -121 -59.5 -185.5t-161.5 -64.5 q-70 1 -160 56l-61 38q-55 35 -86 35q-37 0 -58.5 -27.5t-21.5 -76.5h-152zM289 504q0 -178 74.5 -272.5t207.5 -94.5q131 0 207 95.5t76 271.5q0 182 -77 278.5t-206 96.5q-131 0 -206.5 -96.5t-75.5 -278.5z" />
<glyph unicode="&#xf6;" horiz-adv-x="1142" d="M88 508q0 229 137 382.5t346 153.5t345.5 -153.5t136.5 -382.5t-137.5 -383t-344.5 -154q-205 0 -344 154t-139 383zM264 1202v211h207v-211h-207zM289 504q0 -178 74.5 -272.5t207.5 -94.5q131 0 207 95.5t76 271.5q0 182 -77 278.5t-206 96.5q-131 0 -206.5 -96.5 t-75.5 -278.5zM668 1202v211h206v-211h-206z" />
<glyph unicode="&#xf7;" horiz-adv-x="1327" d="M117 629v186h1093v-186h-1093zM535 174v260h260v-260h-260zM535 1010v260h260v-260h-260z" />
<glyph unicode="&#xf8;" horiz-adv-x="1159" d="M98 508q0 229 136.5 382.5t345.5 153.5q162 0 278 -92l80 97l104 -84l-88 -109q109 -147 109 -348q0 -233 -137.5 -385t-343.5 -152q-162 0 -279 92l-80 -98l-106 86l90 111q-109 137 -109 346zM299 506q0 -121 33 -195l291 357q43 53 80.5 71.5t95.5 18.5v80 q-94 45 -203 45q-139 0 -218 -99.5t-79 -277.5zM362 172q72 -39 187 -39q154 0 233.5 94.5t79.5 276.5q0 121 -35 201l-288 -357q-45 -53 -84 -74.5t-93 -21.5v-80z" />
<glyph unicode="&#xf9;" horiz-adv-x="1181" d="M154 348v668h192v-621q0 -258 209 -258q117 0 174 70q92 111 92 366v443h193v-1016h-183q0 98 95 238h-107q-94 -266 -323 -267q-166 0 -254 100.5t-88 276.5zM293 1450h248l102 -289h-125z" />
<glyph unicode="&#xfa;" horiz-adv-x="1181" d="M154 348v668h192v-621q0 -258 209 -258q117 0 174 70q92 111 92 366v443h193v-1016h-183q0 98 95 238h-107q-94 -266 -323 -267q-166 0 -254 100.5t-88 276.5zM520 1161l101 289h253l-229 -289h-125z" />
<glyph unicode="&#xfb;" horiz-adv-x="1181" d="M154 348v668h192v-621q0 -258 209 -258q117 0 174 70q92 111 92 366v443h193v-1016h-183q0 98 95 238h-107q-94 -266 -323 -267q-166 0 -254 100.5t-88 276.5zM223 1161l219 252h279l219 -252h-190l-168 150l-168 -150h-191z" />
<glyph unicode="&#xfc;" horiz-adv-x="1181" d="M154 348v668h192v-621q0 -258 209 -258q117 0 174 70q92 111 92 366v443h193v-1016h-183q0 98 95 238h-107q-94 -266 -323 -267q-166 0 -254 100.5t-88 276.5zM274 1202v211h207v-211h-207zM678 1202v211h207v-211h-207z" />
<glyph unicode="&#xfd;" horiz-adv-x="1042" d="M10 1016h215l211 -504q49 -113 53 -307h86q2 158 43 284l173 527h202l-397 -1159q-53 -147 -119.5 -201.5t-202.5 -54.5h-211v172h205q57 0 89 20.5t51 73.5l51 143zM446 1161l101 289h254l-230 -289h-125z" />
<glyph unicode="&#xfe;" horiz-adv-x="1193" d="M168 -399v1833h192v-236q0 -143 -27.5 -229t-86.5 -172h112q88 248 330 247q180 0 296 -147t116 -389t-116 -389.5t-296 -147.5q-244 0 -330 248h-112q57 -92 84.5 -176t29.5 -225v-217h-192zM348 510q0 -180 77 -277.5t204 -97.5q272 0 272 375q0 371 -272 371 q-127 0 -204 -95.5t-77 -275.5z" />
<glyph unicode="&#xff;" horiz-adv-x="1042" d="M10 1016h215l211 -504q49 -113 53 -307h86q2 158 43 284l173 527h202l-397 -1159q-53 -147 -119.5 -201.5t-202.5 -54.5h-211v172h205q57 0 89 20.5t51 73.5l51 143zM203 1202v211h207v-211h-207zM606 1202v211h207v-211h-207z" />
<glyph unicode="&#x152;" horiz-adv-x="2467" d="M104 715q-4 326 185.5 538.5t460.5 208.5q209 0 317 -96q106 -94 152 -201h96q-43 102 -39 269h1089v-189h-884v-393h641v-182h-641v-482h884v-188h-1089q-4 160 39 268h-96q-43 -106 -152 -202q-106 -94 -315 -95q-272 -6 -462 207t-186 537zM319 717 q0 -248 130.5 -403.5t353.5 -155.5q219 0 351 155.5t132 403.5t-132 403.5t-351 155.5t-351.5 -155.5t-132.5 -403.5z" />
<glyph unicode="&#x153;" horiz-adv-x="1865" d="M88 508q0 229 125 382.5t317 153.5q145 0 246 -75.5t133 -188.5h80q27 109 117 186.5t217 77.5q203 0 324.5 -141t121.5 -356q0 -43 -6 -88h-716q8 -158 78.5 -242t191.5 -84q199 0 276 195l176 -64q-117 -293 -442 -293q-133 0 -227 76t-127 186h-82 q-39 -119 -131 -190.5t-230 -71.5q-195 0 -318.5 147.5t-123.5 389.5zM289 504q0 -176 76.5 -271.5t209.5 -95.5q123 0 201 95.5t78 271.5q0 178 -78 276.5t-201 98.5q-133 0 -209.5 -96.5t-76.5 -278.5zM1053 606h514q0 135 -71 210t-189 75q-100 0 -173 -77t-81 -208z" />
<glyph unicode="&#x178;" horiz-adv-x="1323" d="M43 1434h246l241 -404q92 -154 95 -317h86q2 164 90 319l227 402h244l-504 -826v-608h-205v600zM328 1577v211h227v-211h-227zM770 1577v211h229v-211h-229z" />
<glyph unicode="&#x2c6;" horiz-adv-x="874" d="M16 1161l220 252h278l219 -252h-190l-168 150l-168 -150h-191z" />
<glyph unicode="&#x2dc;" horiz-adv-x="765" d="M31 1188q0 121 60.5 186.5t162.5 65.5q80 0 158 -49l57 -35q59 -37 88 -37q39 0 58.5 21.5t25.5 72.5h150q0 -121 -59.5 -185.5t-162.5 -64.5q-69 1 -159 56l-62 38q-55 35 -86 35q-37 0 -58.5 -27.5t-21.5 -76.5h-151z" />
<glyph unicode="&#x2000;" horiz-adv-x="1022" />
<glyph unicode="&#x2001;" horiz-adv-x="2044" />
<glyph unicode="&#x2002;" horiz-adv-x="1022" />
<glyph unicode="&#x2003;" horiz-adv-x="2044" />
<glyph unicode="&#x2004;" horiz-adv-x="681" />
<glyph unicode="&#x2005;" horiz-adv-x="511" />
<glyph unicode="&#x2006;" horiz-adv-x="340" />
<glyph unicode="&#x2007;" horiz-adv-x="340" />
<glyph unicode="&#x2008;" horiz-adv-x="255" />
<glyph unicode="&#x2009;" horiz-adv-x="408" />
<glyph unicode="&#x200a;" horiz-adv-x="113" />
<glyph unicode="&#x2010;" horiz-adv-x="868" d="M137 537v198h592v-198h-592z" />
<glyph unicode="&#x2011;" horiz-adv-x="868" d="M137 537v198h592v-198h-592z" />
<glyph unicode="&#x2012;" horiz-adv-x="868" d="M137 537v198h592v-198h-592z" />
<glyph unicode="&#x2013;" horiz-adv-x="1282" d="M147 547v176h988v-176h-988z" />
<glyph unicode="&#x2014;" horiz-adv-x="1925" d="M147 547v176h1633v-176h-1633z" />
<glyph unicode="&#x2018;" horiz-adv-x="518" d="M127 907v254l152 273h116l-151 -273h131v-254h-248z" />
<glyph unicode="&#x2019;" horiz-adv-x="501" d="M131 909l152 273h-133v254h247v-254l-151 -273h-115z" />
<glyph unicode="&#x201a;" horiz-adv-x="536" d="M129 -272l152 272h-134v254h248v-254l-151 -272h-115z" />
<glyph unicode="&#x201c;" horiz-adv-x="894" d="M127 907v254l152 273h116l-151 -273h131v-254h-248zM504 907v254l151 273h117l-151 -273h131v-254h-248z" />
<glyph unicode="&#x201d;" horiz-adv-x="878" d="M131 909l152 273h-133v254h247v-254l-151 -273h-115zM508 909l151 273h-133v254h248v-254l-151 -273h-115z" />
<glyph unicode="&#x201e;" horiz-adv-x="913" d="M129 -272l152 272h-134v254h248v-254l-151 -272h-115zM506 -272l151 272h-133v254h248v-254l-151 -272h-115z" />
<glyph unicode="&#x2022;" horiz-adv-x="1073" d="M150 715q0 162 114.5 276.5t272.5 114.5q160 0 274.5 -114.5t114.5 -276.5q0 -156 -116 -270.5t-273.5 -114.5t-272 114.5t-114.5 270.5z" />
<glyph unicode="&#x2026;" horiz-adv-x="1499" d="M137 0v266h262v-266h-262zM618 0v266h263v-266h-263zM1100 0v266h262v-266h-262z" />
<glyph unicode="&#x202f;" horiz-adv-x="408" />
<glyph unicode="&#x2039;" horiz-adv-x="659" d="M86 518l272 445h207l-270 -439l276 -450h-213z" />
<glyph unicode="&#x203a;" horiz-adv-x="659" d="M88 963h213l272 -447l-272 -442h-207l271 436z" />
<glyph unicode="&#x205f;" horiz-adv-x="511" />
<glyph unicode="&#x20ac;" horiz-adv-x="1456" d="M86 479v160h166q-4 61 -4 86q0 27 4 80h-166v158h188q53 236 201 367.5t367 131.5q207 0 342 -110.5t178 -282.5l-201 -68q-29 127 -110.5 205t-223.5 78q-276 0 -407 -358l67 -39q35 43 83 59.5t155 16.5h201v-158h-480q-2 -31 -2 -88q0 -51 2 -78h480v-160h-201 q-104 0 -153.5 18.5t-86.5 63.5l-63 -45q123 -367 407 -366q147 0 222 76.5t114 222.5l203 -76q-47 -178 -189.5 -290t-347.5 -112q-225 0 -369.5 134t-187.5 374h-188z" />
<glyph unicode="&#x2122;" horiz-adv-x="1886" d="M70 1294v140h659v-140h-252v-632h-158v632h-249zM829 662v772h254l111 -336q31 -86 41 -152q6 -43 10 -139h68q4 96 10 139q10 61 39 152l108 336h246v-772h-155v278q0 145 65 322l14 34l-69 25l-10 -29l-207 -630h-152l-217 624l-10 33l-68 -29q2 -16 13 -30 q66 -166 65 -322v-276h-156z" />
<glyph unicode="&#x25fc;" horiz-adv-x="1013" d="M0 0v1014h1014v-1014h-1014z" />
<glyph unicode="&#xfb03;" horiz-adv-x="1939" d="M39 856v160h219v149q0 268 256 269h238v-166h-199q-53 0 -76.5 -23.5t-23.5 -77.5v-151h467v149q0 268 256 269h237v-166h-199q-53 0 -77.5 -23.5t-24.5 -77.5v-151h662v-1016h-195v856h-467v-856h-192v856h-467v-856h-195v856h-219zM1573 1204v230h205v-230h-205z" />
<glyph unicode="&#xfb04;" horiz-adv-x="1941" d="M39 856v160h219v149q0 268 256 269h238v-166h-199q-53 0 -76.5 -23.5t-23.5 -77.5v-151h467v149q0 268 256 269h598v-1434h-193v1268h-367q-53 0 -77.5 -23.5t-24.5 -77.5v-151h262v-160h-262v-856h-192v856h-467v-856h-195v856h-219z" />
</font>
</defs>
</svg>
