<?xml version="1.0" standalone="no"?>
<!DOCTYPE svg PUBLIC "-//W3C//DTD SVG 1.1//EN" "http://www.w3.org/Graphics/SVG/1.1/DTD/svg11.dtd" >
<svg xmlns="http://www.w3.org/2000/svg" xmlns:xlink="http://www.w3.org/1999/xlink" version="1.1">
<metadata></metadata>
<defs>
<font id="whyte_inktrapbold" horiz-adv-x="1515" >
<font-face units-per-em="2048" ascent="1638" descent="-410" />
<missing-glyph horiz-adv-x="481" />
<glyph unicode="&#xfb01;" horiz-adv-x="1351" d="M35 803v221h198v141q0 123 68 196t188 73h316v-232h-191q-47 0 -68.5 -21.5t-21.5 -68.5v-88h690v-1024h-290v803h-400v-803h-291v803h-198zM913 1163v275h310v-275h-310z" />
<glyph unicode="&#xfb02;" horiz-adv-x="1355" d="M35 803v221h198v141q0 123 68 196t188 73h725v-1434h-290v1202h-310q-47 0 -68.5 -21.5t-21.5 -68.5v-88h238v-221h-238v-803h-291v803h-198z" />
<glyph horiz-adv-x="0" />
<glyph horiz-adv-x="682" />
<glyph unicode="&#xd;" horiz-adv-x="681" />
<glyph unicode=" "  horiz-adv-x="481" />
<glyph unicode="&#x09;" horiz-adv-x="481" />
<glyph unicode="&#xa0;" horiz-adv-x="481" />
<glyph unicode="!" horiz-adv-x="595" d="M127 0v322h340v-322h-340zM135 1108v326h324v-326l-94 -594h-134z" />
<glyph unicode="&#x22;" horiz-adv-x="897" d="M100 1169v265h297v-265l-82 -403h-133zM500 1169v265h297v-265l-82 -403h-133z" />
<glyph unicode="#" horiz-adv-x="1544" d="M68 346v234h290l58 272h-246v256h299l70 326h249l-16 -80q-14 -86 -45 -149.5t-102 -137.5l82 -74q49 70 99 92.5t142 22.5h37l70 326h245l-14 -80q-14 -86 -45 -149.5t-102 -137.5l82 -74q49 70 90 92.5t108 22.5h54v-256h-291l-58 -272h246v-234h-295l-74 -346h-249 l22 100q23 92 50.5 152.5t97.5 134.5l-82 74q-47 -70 -98.5 -92.5t-143.5 -22.5h-39l-74 -346h-249l18 100q14 86 45 149.5t102 137.5l-82 74q-47 -72 -88 -93.5t-110 -21.5h-53zM608 580h266l58 272h-266z" />
<glyph unicode="$" horiz-adv-x="1286" d="M68 406l258 98q18 -102 79.5 -180t155.5 -103v381l-43 8q-190 37 -287.5 139.5t-97.5 288.5q0 164 114.5 284t313.5 140v174h187v-176q172 -25 283.5 -125t154.5 -248l-246 -98q-53 174 -192 219v-352l53 -12q399 -94 399 -432q0 -176 -116.5 -298t-335.5 -143v-174h-187 v176q-203 23 -326.5 140.5t-166.5 292.5zM416 1055q0 -129 145 -164v72q0 182 92 258l-47 75q-190 -72 -190 -241zM655 240l47 -76q213 71 213 229q0 68 -44 114t-123 62v-71q0 -55 -4.5 -91t-26 -85.5t-62.5 -81.5z" />
<glyph unicode="%" horiz-adv-x="1824" d="M68 1020q0 197 95 314.5t257 117.5t258 -117.5t96 -314.5q0 -195 -96 -311.5t-258 -116.5t-257 116.5t-95 311.5zM266 0l1047 1434h252l-1045 -1434h-254zM305 1020q0 -240 115 -240q117 0 117 240q0 244 -117 244q-53 0 -84 -63.5t-31 -180.5zM1053 410q0 197 95 314.5 t257 117.5t258 -118t96 -314q0 -195 -96 -311.5t-258 -116.5t-257 116.5t-95 311.5zM1290 410q0 -240 115 -240q117 0 117 240q0 244 -117 243q-53 0 -84 -63.5t-31 -179.5z" />
<glyph unicode="&#x26;" horiz-adv-x="1452" d="M72 387q0 127 64.5 220t203.5 177q-68 160 -68 301q0 174 113 277.5t297 103.5q176 0 282.5 -92t106.5 -219q0 -160 -128 -267.5t-361 -101.5v-98q41 -4 92 -38t157 -122q86 -72 134 -102q82 123 118 293l254 -96q-57 -193 -141 -328q139 -66 248 -96l-84 -228 q-162 37 -334 127q-168 -131 -408 -131q-264 0 -405 110.5t-141 309.5zM356 422q0 -96 70 -158.5t195 -62.5q133 0 221 37v90q-104 6 -165 31.5t-124 97.5q-68 76 -107 129q-90 -70 -90 -164zM524 1085q0 -88 33 -184l55 27q115 55 156 101t41 106q0 51 -34 83.5t-93 32.5 q-68 0 -113 -47t-45 -119z" />
<glyph unicode="'" horiz-adv-x="497" d="M100 1169v265h297v-265l-82 -403h-133z" />
<glyph unicode="(" horiz-adv-x="704" d="M82 618q0 180 31.5 341t96 297.5t178.5 220.5t261 90v-250q-174 -33 -237 -223q-63 -188 -64 -476q0 -285 63.5 -475t237.5 -223v-248q-147 14 -260 98.5t-178.5 218.5t-97 292.5t-31.5 336.5z" />
<glyph unicode=")" horiz-adv-x="704" d="M55 -78q174 33 238 223q63 188 63 476q0 285 -63 473q-63 193 -238 225v248q147 -14 260 -98.5t178.5 -218.5t97.5 -292.5t32 -336.5q0 -180 -32 -341t-96.5 -297.5t-178 -220.5t-261.5 -90v250z" />
<glyph unicode="*" horiz-adv-x="1159" d="M84 1106v237l299 -20l-162 229l219 127l39 -69q45 -82 45 -213v-49h109q-2 29 -2 59q0 117 37 192l39 80l225 -125l-166 -231l307 20v-241h-98q-109 0 -246 90l-51 -96q80 -39 124 -70t79 -82l53 -76l-229 -118l-130 251l-135 -258l-223 127l51 72q74 98 203 156l-51 96 q-135 -88 -248 -88h-88z" />
<glyph unicode="+" horiz-adv-x="1224" d="M70 600v246h419v420h246v-420h420v-246h-420v-420h-246v420h-419z" />
<glyph unicode="," horiz-adv-x="593" d="M123 -338l196 338h-190v324h338v-324l-199 -338h-145z" />
<glyph unicode="-" horiz-adv-x="974" d="M123 518v266h729v-266h-729z" />
<glyph unicode="." horiz-adv-x="579" d="M121 0v324h338v-324h-338z" />
<glyph unicode="/" horiz-adv-x="923" d="M47 -205l551 1854h279l-551 -1854h-279z" />
<glyph unicode="0" horiz-adv-x="1376" d="M94 715q0 348 164 549.5t430 201.5q264 0 429 -201.5t165 -549.5q0 -350 -164 -549t-430 -199t-430 199t-164 549zM412 715q0 -250 73.5 -370t202.5 -120q277 1 277 490q0 250 -74 371.5t-203 121.5t-202.5 -121.5t-73.5 -371.5z" />
<glyph unicode="1" horiz-adv-x="905" d="M53 829v310q311 23 422 295h252v-1434h-291v881q0 141 53 247h-114q-51 -145 -127 -219.5t-195 -79.5z" />
<glyph unicode="2" horiz-adv-x="1253" d="M94 954q0 209 144.5 362.5t392.5 149.5q240 0 377 -123.5t137 -326.5q0 -197 -119 -340q-63 -76 -152 -139q-102 -70 -212 -129q-76 -41 -326 -164l59 -105q82 59 169 89t229 30h358v-258h-1047v315q313 182 465 294t204 193t58 187q0 98 -59 158.5t-151 60.5 q-219 0 -230 -301z" />
<glyph unicode="3" horiz-adv-x="1241" d="M59 410l306 63q14 -123 77.5 -187.5t171.5 -64.5q104 0 165 51.5t61 143.5q0 82 -58.5 134t-160.5 52h-140v244h133q86 0 143.5 51t57.5 135q0 80 -57.5 130t-143.5 50q-90 0 -145 -59t-61 -162l-297 47q18 188 151 308t352 120q221 0 358.5 -106.5t137.5 -261.5 q0 -141 -92 -218t-262 -87v-105q184 -12 286.5 -100t102.5 -223q0 -184 -142.5 -291t-388.5 -107q-238 0 -381 116t-174 327z" />
<glyph unicode="4" horiz-adv-x="1312" d="M49 342v256l561 836h420v-848h215v-244h-215v-342h-287v342h-694zM317 561l86 -65q35 33 56 49q55 41 172 41h112v147q0 240 105 410l-94 59l-11 -14z" />
<glyph unicode="5" horiz-adv-x="1226" d="M78 346l270 92q29 -98 93.5 -157.5t162.5 -59.5q104 0 169 63.5t65 174.5q0 106 -65.5 172.5t-168.5 66.5q-150 0 -215 -123l-283 60l121 799h863v-258h-654l-22 -142q-20 -127 -47 -183t-91 -130h136q49 96 120.5 141t184.5 45q174 0 299 -122.5t125 -333.5 q0 -219 -141.5 -351.5t-383.5 -132.5q-213 0 -357 103.5t-181 275.5z" />
<glyph unicode="6" horiz-adv-x="1288" d="M92 662q0 375 189.5 589.5t513.5 214.5q180 0 323 -53v-283q-147 63 -303 64q-213 0 -348 -129t-154 -381h101q31 125 119 192.5t227 67.5q186 0 318 -129t132 -336q0 -229 -148.5 -370.5t-383.5 -141.5q-268 -4 -429 198t-157 497zM426 471q0 -111 68.5 -180.5 t173 -69.5t173 69.5t68.5 180.5t-68.5 180.5t-172.5 69.5q-117 0 -179.5 -66.5t-62.5 -183.5z" />
<glyph unicode="7" horiz-adv-x="1114" d="M43 1176v258h1028v-328q-250 -178 -383 -472t-133 -634h-315q0 199 53 385t145 332.5t198.5 260.5t227.5 198l21 14l-64 94q-133 -109 -329 -108h-449z" />
<glyph unicode="8" horiz-adv-x="1275" d="M94 362q0 156 112.5 232t280.5 88v104q-354 27 -354 306q0 154 133 264t371 110q236 0 373 -110.5t137 -263.5q0 -281 -352 -306v-104q180 -12 283.5 -91t103.5 -229q0 -176 -150.5 -285.5t-394.5 -109.5t-393.5 109.5t-149.5 285.5zM399 422q0 -92 63.5 -146.5 t172.5 -54.5q111 0 174 54.5t63 146.5q0 90 -65.5 144.5t-172 54.5t-171 -54.5t-64.5 -144.5zM418 1038q0 -90 60.5 -142t160.5 -52q96 0 157.5 53t61.5 141q0 80 -61.5 132.5t-157.5 52.5t-158.5 -52.5t-62.5 -132.5z" />
<glyph unicode="9" horiz-adv-x="1277" d="M82 954q0 229 145.5 370.5t374.5 141.5q227 0 397 -163q184 -166 185 -529q0 -385 -185.5 -596t-511.5 -211q-194 1 -333 56v288q162 -66 331 -65q104 0 193.5 46t146.5 128q104 137 105 305h-101q-37 -100 -122.5 -159.5t-204.5 -59.5q-176 0 -298 124t-122 324z M383 972.5q0 -106.5 66.5 -173t164.5 -66.5q100 0 166 66.5t66 173t-65.5 173t-166.5 66.5q-98 0 -164.5 -66.5t-66.5 -173z" />
<glyph unicode=":" horiz-adv-x="579" d="M121 0v324h338v-324h-338zM121 721v323h338v-323h-338z" />
<glyph unicode=";" horiz-adv-x="585" d="M119 -338l196 338h-190v324h338v-324l-199 -338h-145zM125 721v323h338v-323h-338z" />
<glyph unicode="&#x3c;" horiz-adv-x="1304" d="M78 520v391l1096 369v-264l-424 -139q-147 -49 -265 -76q-102 -23 -235 -33v-98q133 -10 235 -33q117 -27 265 -76l424 -139v-270z" />
<glyph unicode="=" horiz-adv-x="1353" d="M129 348v246h1096v-246h-1096zM129 840v245h1096v-245h-1096z" />
<glyph unicode="&#x3e;" horiz-adv-x="1304" d="M131 152v264l424 139q152 49 266 76q100 23 234 33v98q-133 10 -234 33q-115 27 -266 75l-424 140v270l1096 -369v-391z" />
<glyph unicode="?" horiz-adv-x="1107" d="M61 1008q10 213 138.5 334.5t355.5 121.5t350 -109.5t123 -269.5q-4 -131 -58.5 -205.5t-178.5 -164.5q-123 -90 -123 -201h-269q6 139 43 201.5t150 148.5q68 53 99.5 96.5t31.5 100.5q0 74 -48 117t-128 43q-186 0 -199 -258zM367 0v322h338v-322h-338z" />
<glyph unicode="@" horiz-adv-x="1918" d="M74 600q-4 258 126 461t337.5 306t449.5 99q377 4 638 -213t255 -559q0 -236 -128 -386t-296 -150q-221 0 -237 213h-74q-72 -213 -275 -213q-137 0 -226 133t-89 321q0 174 89 295t226 121q119 0 177.5 -55t99.5 -154h90q-47 88 -47 187h194v-568q0 -29 18.5 -47 t49.5 -18q68 0 115 84t47 235q0 254 -171 402.5t-456 148.5q-283 0 -465 -169t-182 -472q0 -313 174 -478t487 -165q293 0 525 113l100 -207q-258 -129 -625 -129q-416 -4 -672.5 228.5t-254.5 635.5zM811 612q0 -109 42 -174t118 -65q78 0 121 67t43 176q0 98 -43 159 t-121 61q-76 0 -118 -60.5t-42 -163.5z" />
<glyph unicode="A" d="M10 0l547 1434h404l542 -1434h-344l-115 336h-581l-119 -336h-334zM553 594h403l-106 311q-37 102 -39 355h-111q-4 -160 -10 -216q-6 -70 -28 -141z" />
<glyph unicode="B" horiz-adv-x="1472" d="M172 0v1434h707q223 0 341.5 -91.5t118.5 -234.5q0 -137 -102 -216t-266 -85v-107q186 -4 300.5 -84.5t114.5 -238.5q0 -172 -141 -274.5t-385 -102.5h-688zM483 258h332q250 0 250 178q0 180 -250 180h-332v-358zM483 866h328q217 0 217 156q0 82 -54 118t-163 36h-328 v-310z" />
<glyph unicode="C" horiz-adv-x="1546" d="M84 719v12q0 307 210 521t523 214h12q248 0 425.5 -121.5t236.5 -320.5l-281 -109q-102 293 -385 293q-195 0 -305 -129t-110 -360q0 -233 109.5 -362.5t305.5 -129.5q287 0 394 295l274 -110q-80 -215 -249 -330t-419 -115q-332 0 -536.5 211t-204.5 541z" />
<glyph unicode="D" horiz-adv-x="1556" d="M172 0v1434h541h13q308 0 526 -193t218 -500v-14v-12q0 -319 -218 -517q-218 -199 -527 -198h-12h-541zM483 258h215q451 0 451 463q0 211 -112.5 333t-325.5 122h-228v-918z" />
<glyph unicode="E" horiz-adv-x="1351" d="M172 0v1434h1083v-258h-772v-312h584v-254h-584v-352h772v-258h-1083z" />
<glyph unicode="F" horiz-adv-x="1323" d="M172 0v1434h1102v-258h-791v-373h633v-258h-633v-545h-311z" />
<glyph unicode="G" horiz-adv-x="1630" d="M86 711v16q0 305 218 523q217 216 523 216h19q268 0 441 -120.5t235 -317.5l-293 -108q-96 288 -381 288h-2q-195 0 -315.5 -134t-120.5 -363q0 -221 121.5 -354.5t306.5 -133.5q162 0 258 76t112 180h-463v258h768v-737h-280q0 141 96 293h-127q-55 -139 -151 -230 q-102 -96 -293 -96h-10q-270 0 -466 203t-196 528v13z" />
<glyph unicode="H" horiz-adv-x="1581" d="M172 0v1434h311v-568h615v568h311v-1434h-311v608h-615v-608h-311z" />
<glyph unicode="I" horiz-adv-x="655" d="M172 0v1434h311v-1434h-311z" />
<glyph unicode="J" horiz-adv-x="1157" d="M23 483l315 80v-16q0 -162 40 -240q42 -82 144 -82q90 0 127 64.5t37 206.5v938h311v-899q0 -289 -114.5 -428.5t-350.5 -139.5q-233 0 -368 138t-141 378z" />
<glyph unicode="K" horiz-adv-x="1470" d="M172 0v1434h311v-222q0 -92 -20.5 -163.5t-43 -108.5t-61.5 -80l78 -76l572 650h417l-555 -574l625 -860h-391l-447 639l-174 -180v-459h-311z" />
<glyph unicode="L" horiz-adv-x="1275" d="M172 0v1434h311v-1170h772v-264h-1083z" />
<glyph unicode="M" horiz-adv-x="2037" d="M172 0v1434h510l236 -699q47 -147 51 -471h110q4 322 56 471l239 699h492v-1434h-312v569q0 303 150 654l-115 45l-434 -1268h-276l-428 1268l-115 -45q147 -346 147 -654v-569h-311z" />
<glyph unicode="N" horiz-adv-x="1730" d="M172 0v1434h479l637 -1065l92 63q-84 141 -107.5 218t-25.5 243v541h312v-1434h-375l-744 1245l-94 -59q76 -141 106.5 -241.5t30.5 -260.5v-684h-311z" />
<glyph unicode="O" horiz-adv-x="1703" d="M86 713q0 328 210 540.5t556 212.5t556 -213t210 -540v-12q0 -318 -207 -525q-209 -209 -552 -209h-6.5h-7.5q-343 0 -552 209q-207 207 -207 525v12zM412 715q0 -217 118.5 -353.5t323.5 -136.5q201 0 319.5 136.5t118.5 353.5q0 219 -118.5 356t-319.5 137 q-205 0 -323.5 -137t-118.5 -356z" />
<glyph unicode="P" horiz-adv-x="1382" d="M172 0v1434h643q231 0 374.5 -126t143.5 -337t-143 -339t-373 -128h-334v-504h-311zM483 762h277q113 0 181.5 56t68.5 153q0 92 -70 148.5t-180 56.5h-277v-414z" />
<glyph unicode="Q" horiz-adv-x="1732" d="M86 713q0 328 210 540.5t556 212.5t556 -213t210 -540q0 -258 -129 -447q80 -43 211 -43v-256q-156 0 -238 57.5t-116 182.5h-93q-41 -92 -160.5 -166t-277.5 -74h-12q-326 0 -521 207q-196 207 -196 526v13zM412 715q0 -217 118.5 -353.5t323.5 -136.5q138 0 242 68 l-47 55q-80 92 -157 131q-73 37 -184 37h-12v250q45 6 92 6q154 0 254 -86q104 -92 109 -254h100q41 129 41 283q0 219 -118.5 356t-319.5 137q-205 0 -323.5 -137t-118.5 -356z" />
<glyph unicode="R" horiz-adv-x="1486" d="M172 0v1434h709q227 0 358 -102.5t131 -274.5q0 -141 -70 -213q-61 -68 -146 -92.5t-226 -30.5v-107q201 -6 289 -59t118 -211l60 -344h-332l-43 317q-18 125 -79.5 176.5t-197.5 51.5h-260v-545h-311zM483 797h338q104 0 165 49t61 141q0 90 -60.5 139.5t-165.5 49.5 h-338v-379z" />
<glyph unicode="S" horiz-adv-x="1402" d="M57 410l293 98q27 -125 119 -209t244 -84q139 0 209.5 49t70.5 135q0 141 -233 176l-178 25q-453 63 -453 430q0 186 152.5 311t414.5 125q250 0 401.5 -105.5t205.5 -277.5l-287 -100q-76 236 -320 236q-121 0 -182 -49.5t-61 -127.5q0 -127 184 -153l178 -25 q240 -33 371 -145.5t131 -298.5q0 -199 -155.5 -326t-448.5 -127q-274 0 -442.5 123t-213.5 320z" />
<glyph unicode="T" horiz-adv-x="1335" d="M20 1176v258h1295v-258h-492v-1176h-311v1176h-492z" />
<glyph unicode="U" horiz-adv-x="1597" d="M156 559v875h311v-826q0 -184 84 -279.5t248 -95.5q332 0 331 375v826h312v-875q0 -272 -178.5 -432t-464.5 -160q-293 0 -468 160t-175 432z" />
<glyph unicode="V" horiz-adv-x="1480" d="M25 1434h346l241 -777q70 -231 72 -434h111q2 205 75 434l242 777h342l-493 -1434h-441z" />
<glyph unicode="W" horiz-adv-x="2166" d="M37 1434h340l123 -568q29 -137 39 -270q8 -113 8 -309h112q0 287 46 454l182 693h405l183 -693q25 -94 34 -204q6 -74 11 -250h112q0 199 8 311q10 135 39 268l125 568h330l-393 -1434h-348l-191 721q-37 145 -45 225q-8 84 -8 223h-113q0 -115 -10 -221q-8 -86 -47 -227 l-199 -721h-356z" />
<glyph unicode="X" horiz-adv-x="1468" d="M-14 0l561 770l-506 664h399l129 -174q66 -90 87.5 -180.5t21.5 -235.5h110q6 139 31 201.5t111 191.5l137 197h350l-483 -670l551 -764h-400l-178 270q-61 90 -85 180q-22 82 -21 193v19h-111q-6 -119 -35.5 -193t-124.5 -203l-188 -266h-356z" />
<glyph unicode="Y" horiz-adv-x="1384" d="M18 1434h361l162 -279q45 -76 67 -145q33 -90 35 -283h111q4 145 22.5 229t83.5 203l150 275h350l-510 -850v-584h-311v584z" />
<glyph unicode="Z" horiz-adv-x="1363" d="M90 0v362l914 875l-78 84q-45 -43 -82 -68.5t-108.5 -50t-157.5 -26.5h-474v258h1149v-353l-917 -878l80 -90q138 151 343 151h3h528v-264h-1200z" />
<glyph unicode="[" horiz-adv-x="743" d="M164 -307v1853h524v-225h-258v-1403h258v-225h-524z" />
<glyph unicode="\" horiz-adv-x="929" d="M47 1649h285l551 -1854h-285z" />
<glyph unicode="]" horiz-adv-x="743" d="M55 -82h258v1403h-258v225h525v-1853h-525v225z" />
<glyph unicode="^" horiz-adv-x="1165" d="M66 676l376 758h283l375 -758h-305l-93 205q-61 135 -71 381h-99q-10 -240 -75 -379l-95 -207h-296z" />
<glyph unicode="_" horiz-adv-x="1331" d="M92 -113h1147v-233h-1147v233z" />
<glyph unicode="`" horiz-adv-x="720" d="M152 1475h319l102 -316h-196z" />
<glyph unicode="a" horiz-adv-x="1175" d="M70 741q12 129 144 221.5t341 92.5q221 0 339 -100.5t118 -297.5v-374q0 -41 10 -51.5t51 -10.5h90v-221h-121q-131 0 -175 46t-48 167h-96q-78 -246 -313 -246q-141 0 -234.5 82t-93.5 213q2 100 49 174t136 119t198.5 70.5t259.5 40.5v39q0 141 -168 141 q-186 0 -225 -162zM377 291q0 -111 133 -111q92 0 153.5 61.5t61.5 178.5v65q-176 -23 -262 -63.5t-86 -130.5z" />
<glyph unicode="b" horiz-adv-x="1284" d="M141 0v1434h291v-201q-2 -162 -28.5 -246t-84.5 -174h123q100 242 344 242q186 0 304 -150.5t118 -392.5t-117.5 -393.5t-304.5 -151.5q-143 4 -215 64.5t-131 177.5h-123q88 -131 89 -209h-265zM420 512q0 -156 65.5 -240t178.5 -84q239 0 239 324t-239 324 q-115 0 -179.5 -83t-64.5 -241z" />
<glyph unicode="c" horiz-adv-x="1167" d="M72 514q0 240 157.5 390.5t393.5 150.5q176 0 305 -84t182 -223l-268 -101q-63 178 -230 178q-109 0 -178 -81.5t-69 -229t70.5 -231.5t178.5 -84q168 0 238 194l274 -98q-59 -150 -194 -239t-311 -89q-240 0 -394.5 151.5t-154.5 395.5z" />
<glyph unicode="d" horiz-adv-x="1284" d="M76 512q0 242 117.5 392.5t304.5 150.5q238 0 340 -242h123q-37 61 -56.5 102t-36 123t-16.5 195v201h291v-1434h-264q0 82 88 209h-123q-55 -117 -130 -177.5t-216 -64.5q-186 0 -304 151.5t-118 393.5zM381 512q0 -324 240 -324q113 0 178 84t65 240q0 158 -64.5 241 t-178.5 83q-240 0 -240 -324z" />
<glyph unicode="e" horiz-adv-x="1167" d="M74 514q0 236 147.5 388.5t370.5 152.5q231 0 364.5 -151.5t133.5 -391.5q0 -47 -3 -70h-722q6 -125 67.5 -189.5t161.5 -64.5q160 0 237 179l261 -101q-53 -123 -172 -213q-117 -86 -326 -86q-236 0 -378 148.5t-142 398.5zM375 647h426q-23 199 -209 199 q-88 0 -145.5 -51.5t-71.5 -147.5z" />
<glyph unicode="f" horiz-adv-x="792" d="M35 803v221h198v141q0 123 68 196t188 73h316v-232h-191q-47 0 -68.5 -21.5t-21.5 -68.5v-88h238v-221h-238v-803h-291v803h-198z" />
<glyph unicode="g" horiz-adv-x="1259" d="M53 -207q0 55 40 100.5t102 63.5v94q-117 31 -117 137q0 137 168 193v92q-117 86 -117 213q0 160 122 264.5t304 104.5q137 0 237.5 -55.5t137.5 -159.5h88q12 106 48 145t114 39h53v-221h-113q-49 0 -66.5 -20.5t-25.5 -98.5l-2 -18q-18 -164 -140 -260.5t-302 -96.5 q-131 0 -213 35q-78 -23 -78 -72q0 -31 21.5 -38t80.5 -7h441q158 0 257 -90t99 -219q0 -150 -99.5 -233.5t-256.5 -83.5h-527q-129 0 -192.5 52t-63.5 140zM276 -92q0 -45 29 -70.5t74 -25.5h399q127 0 127 96q0 92 -127 92h-448q-53 -33 -54 -92zM401 674q0 -78 49.5 -126 t131.5 -48t131 48t49 126q0 80 -50 132t-130 52t-130.5 -52t-50.5 -132z" />
<glyph unicode="h" horiz-adv-x="1222" d="M141 0v1434h291v-217q0 -246 -129 -429h127q41 123 121 195t192 72q166 0 257.5 -101.5t91.5 -275.5v-678h-291v623q0 192 -162 192h-2q-92 0 -137 -55q-68 -82 -68 -275v-485h-291z" />
<glyph unicode="i" horiz-adv-x="567" d="M129 1163v275h309v-275h-309zM139 0v1024h291v-1024h-291z" />
<glyph unicode="j" horiz-adv-x="585" d="M-76 -168h144q49 0 69.5 21.5t20.5 68.5v1102h286v-1155q0 -125 -68.5 -196.5t-189.5 -71.5h-262v231zM147 1165v269h304v-269h-304z" />
<glyph unicode="k" horiz-adv-x="1241" d="M141 0v1434h291v-453q0 -141 -33.5 -215t-113.5 -141l77 -84l482 483h356l-418 -406l486 -618h-367l-319 426l-150 -145v-281h-291z" />
<glyph unicode="l" horiz-adv-x="573" d="M141 0v1434h291v-1434h-291z" />
<glyph unicode="m" horiz-adv-x="1837" d="M141 0v1024h250q0 -100 -82 -213h129q27 115 96.5 179.5t178.5 64.5q100 0 175 -63.5t95 -180.5h96q37 117 115 180.5t178 63.5q147 0 240.5 -101.5t93.5 -287.5v-666h-291v623q0 192 -158 192h-2q-61 -2 -102 -26.5t-58.5 -70.5t-22.5 -89t-5 -107v-522h-287v623 q0 192 -157 192h-2q-61 -2 -102.5 -26.5t-59 -70.5t-22.5 -89t-5 -107v-522h-291z" />
<glyph unicode="n" horiz-adv-x="1222" d="M141 0v1024h262q-2 -92 -100 -236h127q41 123 121 195t192 72q166 0 257.5 -101.5t91.5 -275.5v-678h-291v623q0 192 -162 192h-2q-92 0 -137 -55q-68 -82 -68 -275v-485h-291z" />
<glyph unicode="o" horiz-adv-x="1220" d="M72 512q0 242 151.5 392.5t386.5 150.5q238 0 388.5 -150.5t150.5 -392.5q0 -246 -149.5 -395.5t-389.5 -149.5q-231 0 -384.5 154.5t-153.5 390.5zM375 507.5q0 -151.5 62.5 -230t173 -78.5t173 78.5t62.5 230t-62.5 234.5t-173 83t-173 -83t-62.5 -234.5z" />
<glyph unicode="p" horiz-adv-x="1284" d="M141 -399v1423h265q0 -82 -87 -209h123q61 119 132 178.5t212 63.5q186 0 304 -151.5t118 -393.5t-117.5 -392.5t-304.5 -150.5q-238 0 -340 242h-122q39 -63 57 -103t34.5 -122t16.5 -195v-190h-291zM420 512q0 -158 64.5 -241t179.5 -83q239 0 239 324t-239 324 q-113 0 -178.5 -84t-65.5 -240z" />
<glyph unicode="q" horiz-adv-x="1284" d="M76 512q0 242 117.5 393.5t304.5 151.5q141 -4 215.5 -64.5t130.5 -177.5h123q-88 127 -88 209h264v-1423h-291v190q2 162 27.5 245t81.5 175h-123q-49 -117 -129 -180.5t-211 -63.5q-186 0 -304 151.5t-118 393.5zM381 512q0 -326 240 -326q115 0 179 84t64 242 q0 156 -65.5 240t-177.5 84q-240 0 -240 -324z" />
<glyph unicode="r" horiz-adv-x="880" d="M141 0v1024h262q0 -164 -88 -311h123q39 174 115 252.5t231 78.5q51 0 62 -2v-299q-59 6 -113 7q-164 0 -232.5 -78t-68.5 -279v-393h-291z" />
<glyph unicode="s" horiz-adv-x="1075" d="M55 264l264 84q12 -55 60 -115q45 -57 174 -57q72 0 114 28.5t42 74.5q0 43 -29 68.5t-98 39.5l-146 29q-178 35 -259 104.5t-81 210.5q0 147 119 235.5t322 88.5q168 0 279.5 -70t152.5 -166l-240 -108q-53 143 -207 143q-70 0 -107.5 -26.5t-37.5 -71.5 q0 -43 29.5 -64.5t111.5 -36.5l141 -26q352 -68 353 -320q0 -156 -127 -247t-348 -91q-182 0 -316.5 80t-165.5 213z" />
<glyph unicode="t" horiz-adv-x="892" d="M31 803v221h215v322h291v-322h266v-221h-266v-481q0 -47 21.5 -69t68.5 -22h221v-231h-342q-121 0 -190.5 73.5t-69.5 194.5v535h-215z" />
<glyph unicode="u" horiz-adv-x="1210" d="M129 334v690h291v-623q0 -192 151 -192h2q102 0 153.5 82t51.5 227v506h291v-1024h-270q2 96 98 236h-125q-43 -123 -126 -196t-197 -73q-145 0 -232.5 99.5t-87.5 267.5z" />
<glyph unicode="v" horiz-adv-x="1157" d="M16 1024h306l141 -420q43 -129 51 -203q14 -92 16 -225h109q2 152 12 236q12 80 47 192l136 420h296l-372 -1024h-348z" />
<glyph unicode="w" horiz-adv-x="1765" d="M23 1024h299l75 -303q27 -100 37 -176q14 -78 17 -144q4 -55 8 -206h108q4 201 11 270q8 92 36 201l95 358h346l94 -356q27 -106 37 -207q12 -121 14 -266h107l6 208q12 160 63 353l70 268h297l-328 -1024h-350l-86 330q-33 129 -41 221q-6 74 -10 266q-2 6 -2 31h-113 q0 -35 -1 -105.5t-3 -97.5q-4 -156 -45 -311l-88 -334h-326z" />
<glyph unicode="x" horiz-adv-x="1138" d="M10 0l391 532l-374 492h352l59 -84q70 -99 70 -300v-22h108q0 168 111 322l61 84h318l-375 -496l404 -528h-357l-78 113q-73 102 -73 296v25h-109q0 -150 -112 -313l-82 -121h-314z" />
<glyph unicode="y" horiz-adv-x="1146" d="M-10 1024h315l170 -393q66 -143 68 -381h108q4 170 8 229q10 78 39 170l121 375h303l-428 -1188q-47 -125 -118.5 -180t-202.5 -55h-305v231h266q55 0 81.5 22.5t51.5 92.5l18 53z" />
<glyph unicode="z" horiz-adv-x="1021" d="M80 0v287l575 555l-73 78q-63 -63 -123 -95t-158 -32h-197v231h824v-250l-613 -592l74 -76q141 125 297 125h268v-231h-874z" />
<glyph unicode="{" horiz-adv-x="761" d="M57 502v233q98 0 139.5 32t41.5 130v354q0 158 67.5 226.5t233.5 68.5h166v-217h-72q-70 0 -99.5 -28.5t-29.5 -102.5v-299q0 -123 -60.5 -172t-205.5 -55v-101q147 -10 206.5 -59t59.5 -172v-297q0 -74 29.5 -103.5t99.5 -29.5h72v-217h-166q-166 0 -233.5 68.5 t-67.5 226.5v334q0 104 -42 142t-139 38z" />
<glyph unicode="|" horiz-adv-x="593" d="M164 -205v1854h266v-1854h-266z" />
<glyph unicode="}" horiz-adv-x="761" d="M57 -90h72q70 0 99.5 28.5t29.5 102.5v299q0 123 60.5 172t205.5 55v101q-147 10 -206.5 59t-59.5 172v297q0 74 -29.5 103.5t-99.5 29.5h-72v217h166q168 0 234.5 -68.5t66.5 -226.5v-333q0 -104 42 -142.5t139 -38.5v-233q-98 0 -139.5 -32t-41.5 -130v-354 q0 -158 -66.5 -226.5t-234.5 -68.5h-166v217z" />
<glyph unicode="~" horiz-adv-x="1300" d="M88 709q55 104 149.5 162.5t206.5 58.5q111 0 224 -60l82 -45q72 -37 120 -37q92 0 174 119l173 -153q-55 -104 -150.5 -163t-208.5 -59q-112 1 -227 62l-88 49q-55 31 -109 31q-100 0 -174 -113z" />
<glyph unicode="&#xa1;" horiz-adv-x="593" d="M127 885v321h340v-321h-340zM135 98l94 594h133l97 -594v-325h-324v325z" />
<glyph unicode="&#xa2;" horiz-adv-x="1198" d="M82 512q0 213 124 356.5t324 178.5v241h175v-237q150 -18 258 -99.5t157 -206.5l-268 -100q-49 131 -147 166v-334q0 -111 -12.5 -160t-65.5 -98l65 -65q121 63 170 239l275 -98q-53 -135 -167 -220t-265 -104v-215h-175v219q-199 31 -323.5 177.5t-124.5 359.5zM375 520 q-1 -233 155 -303v315q0 106 15.5 168t62.5 107l-65 67q-168 -119 -168 -354z" />
<glyph unicode="&#xa3;" horiz-adv-x="1208" d="M109 0v268q98 35 176 86q82 55 82 150q0 55 -21 98h-233v182h112q-78 119 -78 240q0 201 143.5 321.5t346.5 120.5q174 0 312 -106.5t167 -298.5l-295 -72q-12 111 -65.5 167t-130.5 56q-82 0 -132.5 -49t-50.5 -135q0 -94 97 -244h303v-182h-226q2 -20 2 -47 q-4 -117 -68.5 -179.5t-232.5 -139.5l56 -103q158 125 385 125h370v-258h-1019z" />
<glyph unicode="&#xa4;" horiz-adv-x="1339" d="M94 346l158 156q-57 98 -57 219q0 119 55 221l-156 158l199 196l162 -161q102 51 217 51q121 0 213 -51l162 161l198 -196l-155 -158q57 -98 57 -221q0 -115 -57 -221l155 -154l-198 -199l-160 162q-100 -51 -215 -51q-117 0 -217 51l-162 -162zM461 721 q0 -90 59.5 -153.5t151.5 -63.5t150.5 63.5t58.5 153.5q0 92 -58.5 155.5t-150.5 63.5t-151.5 -64.5t-59.5 -154.5z" />
<glyph unicode="&#xa5;" horiz-adv-x="1454" d="M55 1434h359l164 -279q63 -113 80.5 -192.5t21.5 -235.5h111q4 115 8 162q16 135 92 272l156 273h350l-396 -615h244v-182h-358v-145h358v-183h-358v-309h-312v309h-362v183h362v145h-362v182h244z" />
<glyph unicode="&#xa6;" horiz-adv-x="593" d="M164 -205v778h266v-778h-266zM164 870v779h266v-779h-266z" />
<glyph unicode="&#xa7;" horiz-adv-x="1349" d="M70 483q0 106 78.5 176t230.5 86v103q-188 74 -189 250q0 152 134.5 260t345.5 108q213 0 340 -98t155 -256l-288 -76q-47 176 -211 176q-76 0 -122 -42t-46 -97q0 -51 26.5 -81.5t108.5 -57.5l356 -111q147 -47 221 -110.5t74 -157.5q0 -102 -78 -167.5t-231 -80.5v-102 q188 -82 188 -266q0 -160 -132 -262.5t-357 -102.5q-215 0 -345 99t-157 259l289 76q39 -178 217 -178q84 0 131 39t47 94q0 102 -135 141l-356 111q-156 49 -225.5 110.5t-69.5 157.5zM385 571q0 -88 119 -127l237 -77q51 -18 86 -27q142 51 142 127q0 88 -119 127l-238 78 l-86 26q-141 -51 -141 -127z" />
<glyph unicode="&#xa8;" horiz-adv-x="1007" d="M201 1178v245h270v-245h-270zM651 1178v245h271v-245h-271z" />
<glyph unicode="&#xa9;" horiz-adv-x="1792" d="M82 729q-6 330 237.5 571.5t575.5 235.5q332 6 577.5 -235.5t239.5 -571.5q4 -215 -107.5 -404.5t-302 -299t-407.5 -105.5q-217 -4 -406.5 105.5t-300 298t-106.5 405.5zM283 729q-6 -252 176 -436t438 -180q254 -4 436 180t178 436q4 252 -178 437.5t-436 179.5 q-256 6 -438.5 -179.5t-175.5 -437.5zM471 731q0 197 119 321t309 124q137 0 244.5 -76t144.5 -193l-198 -69q-49 184 -203 184q-94 0 -153.5 -79t-59.5 -212t58.5 -210t154.5 -77q162 0 205 181l196 -72q-41 -117 -147.5 -190.5t-241.5 -73.5q-197 0 -312.5 119.5 t-115.5 322.5z" />
<glyph unicode="&#xaa;" horiz-adv-x="1052" d="M78 1024q0 188 94 309t244 121q188 0 266 -209h88q-6 16 -12 30.5t-10.5 26t-7.5 22.5t-5 17.5t-4 16.5t-3 14t-1 14.5v13.5v16.5v17.5h193v-822h-193q0 90 43 189h-88q-78 -209 -266 -209q-150 0 -244 122t-94 310zM332 1024q0 -125 45 -189.5t127 -64.5q170 0 170 254 q0 123 -45 187.5t-125 64.5q-82 0 -127 -64.5t-45 -187.5z" />
<glyph unicode="&#xab;" horiz-adv-x="1220" d="M63 516l291 488h308l-297 -488l294 -489h-307zM565 518l291 486h307l-297 -488l295 -489h-307z" />
<glyph unicode="&#xac;" horiz-adv-x="1335" d="M111 610v246h1085v-541h-246v295h-839z" />
<glyph unicode="&#xad;" horiz-adv-x="974" d="M123 518v266h729v-266h-729z" />
<glyph unicode="&#xae;" horiz-adv-x="1153" d="M76 1040q0 209 141 352.5t358.5 143.5t359.5 -143.5t142 -352.5q0 -211 -143 -355t-359 -144q-217 0 -358 144t-141 355zM219 1040q0 -162 97.5 -266t259 -104t261 104t99.5 266q0 160 -99.5 262.5t-261 102.5t-259 -102.5t-97.5 -262.5zM391 805v467h248q63 0 106 -31 t43 -80q0 -51 -36.5 -79.5t-100.5 -28.5v-45q57 -4 81 -21.5t32 -73.5l16 -108h-131l-12 104q-6 45 -22.5 60.5t-53.5 15.5h-45v-180h-125zM516 1077h78q70 0 70 51q0 49 -70 50h-78v-101z" />
<glyph unicode="&#xaf;" horiz-adv-x="675" d="M47 1186v196h647v-196h-647z" />
<glyph unicode="&#xb0;" horiz-adv-x="911" d="M66 1237q0 162 110.5 272.5t278.5 110.5q166 0 277.5 -110.5t111.5 -272.5q0 -166 -109.5 -273.5t-281.5 -107.5q-170 0 -278.5 108.5t-108.5 272.5zM299 1239q0 -74 44 -121t111.5 -47t110.5 46t43 122q0 72 -43 117t-110 45q-66 0 -111 -46t-45 -116z" />
<glyph unicode="&#xb1;" horiz-adv-x="1359" d="M123 180v246h1096v-246h-1096zM147 772v225h420v269h246v-269h420v-225h-420v-252h-246v252h-420z" />
<glyph unicode="&#xb2;" horiz-adv-x="819" d="M86 1317q0 141 91 231t235 90q139 0 226 -71.5t87 -182.5q0 -121 -88 -208q-47 -49 -129 -95q-74 -39 -236 -112l43 -82q92 61 133 77.5t125 20.5h152v-188h-629v207q238 133 314.5 202.5t76.5 149.5q0 43 -22.5 68.5t-61.5 25.5q-100 0 -96 -156z" />
<glyph unicode="&#xb3;" horiz-adv-x="811" d="M68 1040l223 45q16 -121 112 -120q92 0 93 79q0 78 -107 78h-53v181h53q92 0 92 75q0 33 -20.5 53.5t-54.5 20.5q-39 0 -61.5 -30.5t-22.5 -86.5l-226 31q6 121 92 196.5t218 75.5q141 0 221 -56t80 -146q0 -162 -224 -172v-84q242 -10 242 -183q0 -96 -87 -157.5 t-232 -61.5q-143 0 -234.5 70.5t-103.5 191.5z" />
<glyph unicode="&#xb4;" horiz-adv-x="720" d="M166 1159l102 316h318l-226 -316h-194z" />
<glyph unicode="&#xb5;" horiz-adv-x="1267" d="M164 -399v1423h291v-623q0 -193 153 -192q102 0 153.5 83t51.5 226v506h291v-1024h-270q2 96 98 236h-125q-39 -123 -124 -196t-200 -73h-28v-366h-291z" />
<glyph unicode="&#xb6;" horiz-adv-x="1560" d="M57 932q0 233 156.5 367.5t402.5 134.5h859v-224h-179v-1607h-266v1607h-164v-1607h-266v843h-49q-213 0 -353.5 139.5t-140.5 346.5z" />
<glyph unicode="&#xb7;" horiz-adv-x="579" d="M121 575v324h338v-324h-338z" />
<glyph unicode="&#xb8;" horiz-adv-x="813" d="M90 -375l100 133q72 -70 154 -69q78 0 78 45t-72 45q-31 0 -55 -6l-76 98l133 129h185l-64 -55l-24 -21l-29 -26h6q74 0 133 -47.5t59 -135.5q0 -82 -68.5 -139t-203.5 -57q-76 0 -146.5 31.5t-109.5 74.5z" />
<glyph unicode="&#xb9;" horiz-adv-x="630" d="M68 1245v215q182 -4 237 160h193v-823h-224v401q0 106 58 221h-94q-23 -92 -62 -131t-108 -43z" />
<glyph unicode="&#xba;" horiz-adv-x="1001" d="M74 1026q0 193 113.5 310.5t314.5 117.5q199 0 312.5 -117.5t113.5 -310.5q0 -188 -116 -311t-310 -123q-199 0 -313.5 122t-114.5 312zM328 1026q0 -123 47 -192.5t127 -69.5q78 0 125 69.5t47 192.5q0 125 -46 190.5t-126 65.5q-82 0 -128 -65.5t-46 -190.5z" />
<glyph unicode="&#xbb;" horiz-adv-x="1216" d="M57 27l297 487l-295 490h308l288 -492l-290 -485h-308zM559 27l297 487l-295 490h307l289 -490l-291 -487h-307z" />
<glyph unicode="&#xbc;" horiz-adv-x="1865" d="M63 1059v215q182 -4 238 160h193v-824h-224v402q0 106 58 221h-95q-23 -92 -61.5 -131t-108.5 -43zM211 0l1046 1434h252l-1044 -1434h-254zM1094 184v197l319 442h275v-458h114v-181h-114v-184h-209v184h-385zM1266 313l63 -43q33 53 59.5 74t63.5 21h27v53 q0 84 104 188l-65 53z" />
<glyph unicode="&#xbd;" horiz-adv-x="1830" d="M63 1059v215q182 -4 238 160h193v-824h-224v402q0 106 58 221h-95q-23 -92 -61.5 -131t-108.5 -43zM211 0l1046 1434h252l-1044 -1434h-254zM1110 520q0 141 91 231.5t235 90.5q139 0 226 -72t87 -182q0 -121 -88 -209q-47 -49 -129 -94q-74 -39 -236 -113l43 -82 q92 61 133 77.5t125 20.5h152v-188h-629v207q238 133 314.5 202.5t76.5 149.5q0 43 -22.5 68.5t-61.5 25.5q-100 0 -96 -155z" />
<glyph unicode="&#xbe;" horiz-adv-x="2045" d="M66 854l223 45q16 -121 112 -121q92 0 93 80q0 78 -107 78h-53v180h53q92 0 92 76q0 33 -20.5 53.5t-55.5 20.5q-39 0 -61.5 -31t-22.5 -86l-225 31q6 121 92 196.5t217 75.5q141 0 221.5 -56.5t80.5 -146.5q0 -162 -224 -172v-84q242 -10 242 -182q0 -96 -87 -157.5 t-233 -61.5q-143 0 -234 70.5t-103 191.5zM391 0l1047 1434h252l-1045 -1434h-254zM1274 184v197l319 442h275v-458h114v-181h-114v-184h-209v184h-385zM1446 313l63 -43q33 53 59.5 74t63.5 21h27v53q0 84 104 188l-65 53z" />
<glyph unicode="&#xbf;" horiz-adv-x="1107" d="M82 123q4 129 57.5 202.5t179.5 168.5q123 90 123 200h269q-6 -141 -44 -205.5t-149 -144.5q-68 -53 -99.5 -96t-31.5 -101q0 -74 48 -116.5t128 -42.5q186 0 199 258l287 -45q-10 -213 -138.5 -335t-355.5 -122t-350 109.5t-123 269.5zM406 887v321h337v-321h-337z" />
<glyph unicode="&#xc0;" d="M10 0l547 1434h404l542 -1434h-344l-115 336h-581l-119 -336h-334zM410 1884h352l112 -315h-217zM553 594h403l-106 311q-37 102 -39 355h-111q-4 -160 -10 -216q-6 -70 -28 -141z" />
<glyph unicode="&#xc1;" d="M10 0l547 1434h404l542 -1434h-344l-115 336h-581l-119 -336h-334zM553 594h403l-106 311q-37 102 -39 355h-111q-4 -160 -10 -216q-6 -70 -28 -141zM653 1569l113 315h350l-250 -315h-213z" />
<glyph unicode="&#xc2;" d="M10 0l547 1434h404l542 -1434h-344l-115 336h-581l-119 -336h-334zM315 1569l248 264h387l248 -264h-274l-166 145l-168 -145h-275zM553 594h403l-106 311q-37 102 -39 355h-111q-4 -160 -10 -216q-6 -70 -28 -141z" />
<glyph unicode="&#xc3;" d="M10 0l547 1434h404l542 -1434h-344l-115 336h-581l-119 -336h-334zM274 1569q0 135 81 209.5t218 74.5q84 0 195 -53l55 -31q70 -37 111 -36q82 0 86 100h221q0 -285 -289 -285q-92 1 -194 54l-58 30q-74 37 -108 37q-86 0 -86 -100h-232zM553 594h403l-106 311 q-37 102 -39 355h-111q-4 -160 -10 -216q-6 -70 -28 -141z" />
<glyph unicode="&#xc4;" d="M10 0l547 1434h404l542 -1434h-344l-115 336h-581l-119 -336h-334zM365 1569v246h297v-246h-297zM553 594h403l-106 311q-37 102 -39 355h-111q-4 -160 -10 -216q-6 -70 -28 -141zM860 1569v246h297v-246h-297z" />
<glyph unicode="&#xc5;" d="M10 0l547 1434h404l542 -1434h-344l-115 336h-581l-119 -336h-334zM485 1776q0 113 82 188.5t191 75.5q111 0 191.5 -76t80.5 -188q0 -111 -81 -185.5t-191.5 -74.5t-191.5 74.5t-81 185.5zM553 594h403l-106 311q-37 102 -39 355h-111q-4 -160 -10 -216q-6 -70 -28 -141 zM655 1776q0 -45 30 -75t73 -30t72.5 30t29.5 75q0 47 -29.5 76.5t-72.5 29.5t-73 -29.5t-30 -76.5z" />
<glyph unicode="&#xc6;" horiz-adv-x="1966" d="M-45 0l741 1434h1174v-258h-686v-312h493v-254h-493v-352h686v-258h-996v338h-405l-158 -338h-356zM590 596h284v278q1 177 62 386h-123q-45 -276 -133 -472z" />
<glyph unicode="&#xc7;" horiz-adv-x="1546" d="M84 719q-4 315 210 533t535 214q248 0 425.5 -121.5t236.5 -320.5l-281 -109q-102 293 -385 293q-195 0 -305 -129t-110 -360q0 -233 109.5 -362.5t305.5 -129.5q287 0 394 295l274 -110q-141 -378 -530 -435l-37 -32l-25 -21l-29 -26h7q74 0 133 -47.5t59 -135.5 q0 -84 -67.5 -140t-204.5 -56q-76 0 -146.5 31.5t-109.5 74.5l100 133q72 -70 154 -69q78 0 77.5 45t-71.5 45q-31 0 -55 -6l-76 98l100 96q-309 18 -498.5 228.5t-189.5 523.5z" />
<glyph unicode="&#xc8;" horiz-adv-x="1351" d="M172 0v1434h1083v-258h-772v-312h584v-254h-584v-352h772v-258h-1083zM365 1884h352l112 -315h-217z" />
<glyph unicode="&#xc9;" horiz-adv-x="1351" d="M172 0v1434h1083v-258h-772v-312h584v-254h-584v-352h772v-258h-1083zM608 1569l113 315h350l-250 -315h-213z" />
<glyph unicode="&#xca;" horiz-adv-x="1351" d="M172 0v1434h1083v-258h-772v-312h584v-254h-584v-352h772v-258h-1083zM270 1569l248 264h387l248 -264h-274l-166 145l-168 -145h-275z" />
<glyph unicode="&#xcb;" horiz-adv-x="1351" d="M172 0v1434h1083v-258h-772v-312h584v-254h-584v-352h772v-258h-1083zM319 1569v246h297v-246h-297zM815 1569v246h297v-246h-297z" />
<glyph unicode="&#xcc;" horiz-adv-x="655" d="M-20 1884h352l112 -315h-217zM172 0v1434h311v-1434h-311z" />
<glyph unicode="&#xcd;" horiz-adv-x="655" d="M172 0v1434h311v-1434h-311zM223 1569l113 315h350l-250 -315h-213z" />
<glyph unicode="&#xce;" horiz-adv-x="655" d="M-115 1569l248 264h387l248 -264h-274l-166 145l-168 -145h-275zM172 0v1434h311v-1434h-311z" />
<glyph unicode="&#xcf;" horiz-adv-x="655" d="M-66 1569v246h297v-246h-297zM172 0v1434h311v-1434h-311zM430 1569v246h297v-246h-297z" />
<glyph unicode="&#xd0;" horiz-adv-x="1583" d="M41 637v213h158v584h540q317 4 539.5 -193t218.5 -514q4 -326 -218 -528.5t-540 -198.5h-540v637h-158zM510 258h215q451 0 451 463q0 211 -112 333t-327 122h-227v-326h260v-213h-260v-379z" />
<glyph unicode="&#xd1;" horiz-adv-x="1730" d="M172 0v1434h479l637 -1065l92 63q-84 141 -107.5 218t-25.5 243v541h312v-1434h-375l-744 1245l-94 -59q76 -141 106.5 -241.5t30.5 -260.5v-684h-311zM381 1569q0 135 81 209.5t218 74.5q84 0 194 -53l56 -31q70 -37 110 -36q82 0 86 100h222q0 -285 -289 -285 q-93 1 -195 54l-57 30q-74 37 -109 37q-86 0 -86 -100h-231z" />
<glyph unicode="&#xd2;" horiz-adv-x="1703" d="M86 713q0 328 210 540.5t556 212.5t556 -213t210 -540q4 -326 -207 -537t-559 -209q-348 -2 -559 209t-207 537zM412 715q0 -217 118.5 -353.5t323.5 -136.5q201 0 319.5 136.5t118.5 353.5q0 219 -118.5 356t-319.5 137q-205 0 -323.5 -137t-118.5 -356zM502 1884h352 l113 -315h-217z" />
<glyph unicode="&#xd3;" horiz-adv-x="1703" d="M86 713q0 328 210 540.5t556 212.5t556 -213t210 -540q4 -326 -207 -537t-559 -209q-348 -2 -559 209t-207 537zM412 715q0 -217 118.5 -353.5t323.5 -136.5q201 0 319.5 136.5t118.5 353.5q0 219 -118.5 356t-319.5 137q-205 0 -323.5 -137t-118.5 -356zM745 1569 l113 315h350l-250 -315h-213z" />
<glyph unicode="&#xd4;" horiz-adv-x="1703" d="M86 713q0 328 210 540.5t556 212.5t556 -213t210 -540q4 -326 -207 -537t-559 -209q-348 -2 -559 209t-207 537zM408 1569l247 264h387l248 -264h-274l-166 145l-168 -145h-274zM412 715q0 -217 118.5 -353.5t323.5 -136.5q201 0 319.5 136.5t118.5 353.5 q0 219 -118.5 356t-319.5 137q-205 0 -323.5 -137t-118.5 -356z" />
<glyph unicode="&#xd5;" horiz-adv-x="1703" d="M86 713q0 328 210 540.5t556 212.5t556 -213t210 -540q4 -326 -207 -537t-559 -209q-348 -2 -559 209t-207 537zM367 1569q0 135 80.5 209.5t218.5 74.5q84 0 194 -53l55 -31q70 -37 111 -36q82 0 86 100h221q0 -285 -289 -285q-92 1 -194 54l-57 30q-74 37 -109 37 q-86 0 -86 -100h-231zM412 715q0 -217 118.5 -353.5t323.5 -136.5q201 0 319.5 136.5t118.5 353.5q0 219 -118.5 356t-319.5 137q-205 0 -323.5 -137t-118.5 -356z" />
<glyph unicode="&#xd6;" horiz-adv-x="1703" d="M86 713q0 328 210 540.5t556 212.5t556 -213t210 -540q4 -326 -207 -537t-559 -209q-348 -2 -559 209t-207 537zM412 715q0 -217 118.5 -353.5t323.5 -136.5q201 0 319.5 136.5t118.5 353.5q0 219 -118.5 356t-319.5 137q-205 0 -323.5 -137t-118.5 -356zM457 1569v246 h297v-246h-297zM952 1569v246h297v-246h-297z" />
<glyph unicode="&#xd7;" horiz-adv-x="1214" d="M92 1063l166 166l350 -350l348 348l164 -164l-348 -348l348 -348l-166 -166l-348 348l-348 -348l-164 164l348 348z" />
<glyph unicode="&#xd8;" horiz-adv-x="1703" d="M86 711q0 328 210 540.5t556 212.5q207 0 360 -75l138 176l209 -162l-132 -168q190 -213 191 -524q4 -326 -207 -539t-559 -209q-201 0 -360 72l-136 -172l-209 157l129 166q-190 207 -190 525zM412 723q0 -168 63 -285l363 471q66 84 124 120t136 40v105q-98 33 -226 32 q-219 0 -339.5 -134t-120.5 -349zM606 260q86 -37 225 -37q219 0 340 133.5t121 350.5q0 162 -61 276l-361 -463q-113 -143 -264 -147v-113z" />
<glyph unicode="&#xd9;" horiz-adv-x="1597" d="M156 559v875h311v-826q0 -184 84 -279.5t248 -95.5q332 0 331 375v826h312v-875q0 -272 -178.5 -432t-464.5 -160q-293 0 -468 160t-175 432zM449 1884h352l112 -315h-217z" />
<glyph unicode="&#xda;" horiz-adv-x="1597" d="M156 559v875h311v-826q0 -184 84 -279.5t248 -95.5q332 0 331 375v826h312v-875q0 -272 -178.5 -432t-464.5 -160q-293 0 -468 160t-175 432zM692 1569l113 315h350l-250 -315h-213z" />
<glyph unicode="&#xdb;" horiz-adv-x="1597" d="M156 559v875h311v-826q0 -184 84 -279.5t248 -95.5q332 0 331 375v826h312v-875q0 -272 -178.5 -432t-464.5 -160q-293 0 -468 160t-175 432zM354 1569l248 264h387l248 -264h-274l-166 145l-168 -145h-275z" />
<glyph unicode="&#xdc;" horiz-adv-x="1597" d="M156 559v875h311v-826q0 -184 84 -279.5t248 -95.5q332 0 331 375v826h312v-875q0 -272 -178.5 -432t-464.5 -160q-293 0 -468 160t-175 432zM403 1569v246h297v-246h-297zM899 1569v246h297v-246h-297z" />
<glyph unicode="&#xdd;" horiz-adv-x="1384" d="M18 1434h361l162 -279q45 -76 67 -145q33 -90 35 -283h111q4 145 22.5 229t83.5 203l150 275h350l-510 -850v-584h-311v584zM588 1569l112 315h351l-250 -315h-213z" />
<glyph unicode="&#xde;" horiz-adv-x="1406" d="M172 0v1434h311v-244h332q231 0 374.5 -126t143.5 -337t-143 -339t-373 -128h-334v-260h-311zM483 518h277q113 0 181.5 56.5t68.5 152.5q0 92 -70 148.5t-180 56.5h-277v-414z" />
<glyph unicode="&#xdf;" horiz-adv-x="1304" d="M141 0v965q0 244 133.5 372.5t399.5 128.5q225 0 356 -99t131 -247q0 -131 -92 -211t-233 -92v-100q178 -6 288.5 -91t110.5 -233q0 -186 -131 -301t-354 -115q-77 1 -179 17v242q82 -16 129 -17q109 0 170.5 57.5t61.5 151.5q0 98 -72 155.5t-192 57.5h-97v211h76 q104 0 165.5 52t61.5 140q0 80 -62 134.5t-148 54.5q-115 0 -174.5 -63.5t-59.5 -217.5v-952h-289z" />
<glyph unicode="&#xe0;" horiz-adv-x="1175" d="M70 741q12 129 144 221.5t341 92.5q221 0 339 -100.5t118 -297.5v-374q0 -41 10 -51.5t51 -10.5h90v-221h-121q-131 0 -175 46t-48 167h-96q-78 -246 -313 -246q-141 0 -234.5 82t-93.5 213q2 100 49 174t136 119t198.5 70.5t259.5 40.5v39q0 141 -168 141 q-186 0 -225 -162zM236 1475h319l102 -316h-196zM377 291q0 -111 133 -111q92 0 153.5 61.5t61.5 178.5v65q-176 -23 -262 -63.5t-86 -130.5z" />
<glyph unicode="&#xe1;" horiz-adv-x="1175" d="M70 741q12 129 144 221.5t341 92.5q221 0 339 -100.5t118 -297.5v-374q0 -41 10 -51.5t51 -10.5h90v-221h-121q-131 0 -175 46t-48 167h-96q-78 -246 -313 -246q-141 0 -234.5 82t-93.5 213q2 100 49 174t136 119t198.5 70.5t259.5 40.5v39q0 141 -168 141 q-186 0 -225 -162zM377 291q0 -111 133 -111q92 0 153.5 61.5t61.5 178.5v65q-176 -23 -262 -63.5t-86 -130.5zM467 1159l102 316h318l-225 -316h-195z" />
<glyph unicode="&#xe2;" horiz-adv-x="1175" d="M70 741q12 129 144 221.5t341 92.5q221 0 339 -100.5t118 -297.5v-374q0 -41 10 -51.5t51 -10.5h90v-221h-121q-131 0 -175 46t-48 167h-96q-78 -246 -313 -246q-141 0 -234.5 82t-93.5 213q2 100 49 174t136 119t198.5 70.5t259.5 40.5v39q0 141 -168 141 q-186 0 -225 -162zM158 1159l225 264h352l226 -264h-250l-152 146l-151 -146h-250zM377 291q0 -111 133 -111q92 0 153.5 61.5t61.5 178.5v65q-176 -23 -262 -63.5t-86 -130.5z" />
<glyph unicode="&#xe3;" horiz-adv-x="1175" d="M70 741q12 129 144 221.5t341 92.5q221 0 339 -100.5t118 -297.5v-374q0 -41 10 -51.5t51 -10.5h90v-221h-121q-131 0 -175 46t-48 167h-96q-78 -246 -313 -246q-141 0 -234.5 82t-93.5 213q2 100 49 174t136 119t198.5 70.5t259.5 40.5v39q0 141 -168 141 q-186 0 -225 -162zM121 1159q0 135 72.5 210t197.5 75q80 0 176 -53l51 -31q61 -37 101 -37q74 0 78 100h200q0 -285 -262 -284q-84 0 -176 53l-51 31q-70 37 -100 37q-74 0 -78 -101h-209zM377 291q0 -111 133 -111q92 0 153.5 61.5t61.5 178.5v65q-176 -23 -262 -63.5 t-86 -130.5z" />
<glyph unicode="&#xe4;" horiz-adv-x="1175" d="M70 741q12 129 144 221.5t341 92.5q221 0 339 -100.5t118 -297.5v-374q0 -41 10 -51.5t51 -10.5h90v-221h-121q-131 0 -175 46t-48 167h-96q-78 -246 -313 -246q-141 0 -234.5 82t-93.5 213q2 100 49 174t136 119t198.5 70.5t259.5 40.5v39q0 141 -168 141 q-186 0 -225 -162zM199 1178v245h270v-245h-270zM377 291q0 -111 133 -111q92 0 153.5 61.5t61.5 178.5v65q-176 -23 -262 -63.5t-86 -130.5zM649 1178v245h271v-245h-271z" />
<glyph unicode="&#xe5;" horiz-adv-x="1175" d="M70 741q12 129 144 221.5t341 92.5q221 0 339 -100.5t118 -297.5v-374q0 -41 10 -51.5t51 -10.5h90v-221h-121q-131 0 -175 46t-48 167h-96q-78 -246 -313 -246q-141 0 -234.5 82t-93.5 213q2 100 49 174t136 119t198.5 70.5t259.5 40.5v39q0 141 -168 141 q-186 0 -225 -162zM301 1376q0 106 78 179t182 73q106 0 182 -72.5t76 -179t-75.5 -177.5t-182.5 -71q-104 0 -182 72t-78 176zM377 291q0 -111 133 -111q92 0 153.5 61.5t61.5 178.5v65q-176 -23 -262 -63.5t-86 -130.5zM463 1376q0 -45 27.5 -72.5t70.5 -27.5 q41 0 68.5 27.5t27.5 72.5q0 43 -27.5 72t-68.5 29q-43 0 -70.5 -28t-27.5 -73z" />
<glyph unicode="&#xe6;" horiz-adv-x="1775" d="M76 272q0 184 162.5 271.5t480.5 118.5v40q0 143 -174 144q-78 0 -130.5 -43t-70.5 -119l-260 57q12 125 132 219.5t290 94.5q283 0 356 -203h99q25 88 98.5 146.5t193.5 58.5q199 0 323 -154.5t124 -382.5q0 -33 -4 -78h-723q6 -125 67.5 -189.5t161.5 -64.5 q160 0 238 179l260 -101q-53 -121 -170 -213q-113 -86 -313 -86q-307 0 -386 260h-98q-63 -260 -342 -260q-139 0 -227 82t-88 223zM367 291q0 -51 34.5 -81t100.5 -30q94 0 155.5 61.5t61.5 178.5v65q-180 -23 -266 -63.5t-86 -130.5zM983 643h426q-8 98 -62.5 150.5 t-146.5 52.5q-182 0 -217 -203z" />
<glyph unicode="&#xe7;" horiz-adv-x="1167" d="M72 514q0 240 157.5 390.5t393.5 150.5q176 0 305 -84t182 -223l-268 -101q-63 178 -230 178q-109 0 -178 -81.5t-69 -229t70.5 -231.5t178.5 -84q168 0 238 194l274 -98q-49 -123 -146 -204.5t-228 -108.5l-41 -37l-25 -21l-29 -26h7q74 0 133 -47.5t59 -135.5 q0 -84 -67.5 -140t-204.5 -56q-76 0 -146.5 31.5t-109.5 74.5l100 133q72 -70 154 -69q78 0 77.5 45t-71.5 45q-31 0 -56 -6l-75 98l102 98q-215 23 -351 171.5t-136 373.5z" />
<glyph unicode="&#xe8;" horiz-adv-x="1167" d="M74 514q0 236 147.5 388.5t370.5 152.5q231 0 364.5 -151.5t133.5 -391.5q0 -47 -3 -70h-722q6 -125 67.5 -189.5t161.5 -64.5q160 0 237 179l261 -101q-53 -123 -172 -213q-117 -86 -326 -86q-236 0 -378 148.5t-142 398.5zM270 1475h320l102 -316h-196zM375 647h426 q-23 199 -209 199q-88 0 -145.5 -51.5t-71.5 -147.5z" />
<glyph unicode="&#xe9;" horiz-adv-x="1167" d="M74 514q0 236 147.5 388.5t370.5 152.5q231 0 364.5 -151.5t133.5 -391.5q0 -47 -3 -70h-722q6 -125 67.5 -189.5t161.5 -64.5q160 0 237 179l261 -101q-53 -123 -172 -213q-117 -86 -326 -86q-236 0 -378 148.5t-142 398.5zM375 647h426q-23 199 -209 199 q-88 0 -145.5 -51.5t-71.5 -147.5zM502 1159l102 316h318l-226 -316h-194z" />
<glyph unicode="&#xea;" horiz-adv-x="1167" d="M74 514q0 236 147.5 388.5t370.5 152.5q231 0 364.5 -151.5t133.5 -391.5q0 -47 -3 -70h-722q6 -125 67.5 -189.5t161.5 -64.5q160 0 237 179l261 -101q-53 -123 -172 -213q-117 -86 -326 -86q-236 0 -378 148.5t-142 398.5zM193 1159l225 264h352l225 -264h-250 l-151 146l-152 -146h-249zM375 647h426q-23 199 -209 199q-88 0 -145.5 -51.5t-71.5 -147.5z" />
<glyph unicode="&#xeb;" horiz-adv-x="1167" d="M74 514q0 236 147.5 388.5t370.5 152.5q231 0 364.5 -151.5t133.5 -391.5q0 -47 -3 -70h-722q6 -125 67.5 -189.5t161.5 -64.5q160 0 237 179l261 -101q-53 -123 -172 -213q-117 -86 -326 -86q-236 0 -378 148.5t-142 398.5zM233 1178v245h271v-245h-271zM375 647h426 q-23 199 -209 199q-88 0 -145.5 -51.5t-71.5 -147.5zM684 1178v245h270v-245h-270z" />
<glyph unicode="&#xec;" horiz-adv-x="573" d="M-39 1475h320l102 -316h-197zM141 0v1024h291v-1024h-291z" />
<glyph unicode="&#xed;" horiz-adv-x="573" d="M141 0v1024h291v-1024h-291zM193 1159l102 316h317l-225 -316h-194z" />
<glyph unicode="&#xee;" horiz-adv-x="573" d="M-117 1159l226 264h352l225 -264h-250l-151 146l-152 -146h-250zM141 0v1024h291v-1024h-291z" />
<glyph unicode="&#xef;" horiz-adv-x="573" d="M-76 1178v245h271v-245h-271zM141 0v1024h291v-1024h-291zM375 1178v245h270v-245h-270z" />
<glyph unicode="&#xf0;" horiz-adv-x="1275" d="M74 473q0 201 131 330t307 129q143 0 235.5 -69.5t124.5 -188.5h97q-14 256 -168 416l-172 -123l-105 141l123 88q-94 41 -194 41q-158 0 -287 -59v235q135 53 326 53q207 0 376 -114l158 110l104 -139l-131 -92q193 -231 193 -559q4 -303 -155.5 -506t-430.5 -199 q-236 0 -384 139.5t-148 366.5zM375 455q0 -117 68.5 -186.5t173 -69.5t173 69.5t68.5 186t-64.5 186.5t-177.5 70q-100 0 -170.5 -73t-70.5 -183z" />
<glyph unicode="&#xf1;" horiz-adv-x="1222" d="M141 0v1024h262q-2 -92 -100 -236h127q41 123 121 195t192 72q166 0 257.5 -101.5t91.5 -275.5v-678h-291v623q0 193 -164 192q-92 0 -137 -55q-68 -82 -68 -275v-485h-291zM182 1159q0 135 73 210t198 75q80 0 176 -53l51 -31q61 -37 100 -37q74 0 78 100h201 q0 -285 -262 -284q-84 0 -176 53l-52 31q-72 37 -100 37q-74 0 -78 -101h-209z" />
<glyph unicode="&#xf2;" horiz-adv-x="1220" d="M72 512q0 242 151.5 392.5t386.5 150.5q238 0 388.5 -150.5t150.5 -392.5q0 -246 -149.5 -395.5t-389.5 -149.5q-231 0 -384.5 154.5t-153.5 390.5zM287 1475h319l103 -316h-197zM375 507.5q0 -151.5 62.5 -230t173 -78.5t173 78.5t62.5 230t-62.5 234.5t-173 83 t-173 -83t-62.5 -234.5z" />
<glyph unicode="&#xf3;" horiz-adv-x="1220" d="M72 512q0 242 151.5 392.5t386.5 150.5q238 0 388.5 -150.5t150.5 -392.5q0 -246 -149.5 -395.5t-389.5 -149.5q-231 0 -384.5 154.5t-153.5 390.5zM375 507.5q0 -151.5 62.5 -230t173 -78.5t173 78.5t62.5 230t-62.5 234.5t-173 83t-173 -83t-62.5 -234.5zM518 1159 l103 316h317l-225 -316h-195z" />
<glyph unicode="&#xf4;" horiz-adv-x="1220" d="M72 512q0 242 151.5 392.5t386.5 150.5q238 0 388.5 -150.5t150.5 -392.5q0 -246 -149.5 -395.5t-389.5 -149.5q-231 0 -384.5 154.5t-153.5 390.5zM209 1159l225 264h352l226 -264h-250l-152 146l-151 -146h-250zM375 507.5q0 -151.5 62.5 -230t173 -78.5t173 78.5 t62.5 230t-62.5 234.5t-173 83t-173 -83t-62.5 -234.5z" />
<glyph unicode="&#xf5;" horiz-adv-x="1220" d="M72 512q0 242 151.5 392.5t386.5 150.5q238 0 388.5 -150.5t150.5 -392.5q0 -246 -149.5 -395.5t-389.5 -149.5q-231 0 -384.5 154.5t-153.5 390.5zM172 1159q0 135 72.5 210t197.5 75q80 0 176 -53l52 -31q61 -37 100 -37q74 0 78 100h201q0 -285 -263 -284 q-82 0 -176 53l-51 31q-72 37 -100 37q-74 0 -78 -101h-209zM375 507.5q0 -151.5 62.5 -230t173 -78.5t173 78.5t62.5 230t-62.5 234.5t-173 83t-173 -83t-62.5 -234.5z" />
<glyph unicode="&#xf6;" horiz-adv-x="1220" d="M72 512q0 242 151.5 392.5t386.5 150.5q238 0 388.5 -150.5t150.5 -392.5q0 -246 -149.5 -395.5t-389.5 -149.5q-231 0 -384.5 154.5t-153.5 390.5zM250 1178v245h270v-245h-270zM375 507.5q0 -151.5 62.5 -230t173 -78.5t173 78.5t62.5 230t-62.5 234.5t-173 83 t-173 -83t-62.5 -234.5zM700 1178v245h271v-245h-271z" />
<glyph unicode="&#xf7;" horiz-adv-x="1253" d="M84 600v246h1085v-246h-1085zM459 180v283h338v-283h-338zM459 983v283h338v-283h-338z" />
<glyph unicode="&#xf8;" horiz-adv-x="1224" d="M74 512q0 242 151.5 392.5t386.5 150.5q162 0 281 -70l90 107l139 -115l-90 -107q119 -145 119 -358q0 -246 -150.5 -395.5t-388.5 -149.5q-159 0 -284 76l-86 -102l-142 112l90 107q-117 141 -116 352zM377 510q0 -64 12 -117l148 176q68 80 121 110t124 26v96 q-74 33 -159 33q-113 0 -179.5 -84t-66.5 -240zM440 225q53 -35 148 -35q125 0 192.5 80t67.5 236q0 82 -14 131l-148 -176q-117 -141 -219 -142q-14 0 -27 3v-97z" />
<glyph unicode="&#xf9;" horiz-adv-x="1210" d="M129 334v690h291v-623q0 -193 153 -192q102 0 153.5 82t51.5 227v506h291v-1024h-270q2 96 98 236h-125q-43 -123 -126 -196t-197 -73q-145 0 -232.5 99.5t-87.5 267.5zM276 1475h320l102 -316h-196z" />
<glyph unicode="&#xfa;" horiz-adv-x="1210" d="M129 334v690h291v-623q0 -193 153 -192q102 0 153.5 82t51.5 227v506h291v-1024h-270q2 96 98 236h-125q-43 -123 -126 -196t-197 -73q-145 0 -232.5 99.5t-87.5 267.5zM508 1159l102 316h318l-226 -316h-194z" />
<glyph unicode="&#xfb;" horiz-adv-x="1210" d="M129 334v690h291v-623q0 -193 153 -192q102 0 153.5 82t51.5 227v506h291v-1024h-270q2 96 98 236h-125q-43 -123 -126 -196t-197 -73q-145 0 -232.5 99.5t-87.5 267.5zM199 1159l225 264h352l225 -264h-249l-152 146l-151 -146h-250z" />
<glyph unicode="&#xfc;" horiz-adv-x="1210" d="M129 334v690h291v-623q0 -193 153 -192q102 0 153.5 82t51.5 227v506h291v-1024h-270q2 96 98 236h-125q-43 -123 -126 -196t-197 -73q-145 0 -232.5 99.5t-87.5 267.5zM240 1178v245h270v-245h-270zM690 1178v245h271v-245h-271z" />
<glyph unicode="&#xfd;" horiz-adv-x="1146" d="M-10 1024h315l170 -393q66 -143 68 -381h108q4 170 8 229q10 78 39 170l121 375h303l-428 -1188q-47 -125 -118.5 -180t-202.5 -55h-305v231h266q55 0 81.5 22.5t51.5 92.5l18 53zM469 1159l102 316h318l-225 -316h-195z" />
<glyph unicode="&#xfe;" horiz-adv-x="1284" d="M141 -399v1833h291v-201q-2 -162 -28.5 -246t-84.5 -174h123q100 242 344 242q186 0 304 -150.5t118 -392.5t-117.5 -392.5t-304.5 -150.5q-238 0 -340 242h-122q39 -63 57 -103t34.5 -122t16.5 -195v-190h-291zM420 512q0 -158 64.5 -241t179.5 -83q239 0 239 324 t-239 324q-115 0 -179.5 -83t-64.5 -241z" />
<glyph unicode="&#xff;" horiz-adv-x="1146" d="M-10 1024h315l170 -393q66 -143 68 -381h108q4 170 8 229q10 78 39 170l121 375h303l-428 -1188q-47 -125 -118.5 -180t-202.5 -55h-305v231h266q55 0 81.5 22.5t51.5 92.5l18 53zM201 1178v245h270v-245h-270zM651 1178v245h271v-245h-271z" />
<glyph unicode="&#x152;" horiz-adv-x="2437" d="M88 715q-2 162 55.5 305t150.5 239.5t212 151.5t237 53q207 0 308 -92q104 -94 143 -194h98q-31 133 -30 256h1079v-258h-768v-302h575v-251h-575v-365h768v-258h-1079q0 121 30 254h-98q-37 -94 -143 -195q-100 -92 -301 -92q-123 -2 -243 52.5t-214 150.5t-151.5 239.5 t-53.5 305.5zM412 712.5q0 -229.5 112.5 -358.5t319.5 -129t319.5 129t112.5 358.5t-113.5 362.5t-318.5 133t-318.5 -133t-113.5 -362.5z" />
<glyph unicode="&#x153;" horiz-adv-x="1925" d="M74 510q0 242 134 393.5t339 151.5q156 0 247 -65.5t144 -190.5h94q31 106 120 181t222 75q217 0 345 -148.5t128 -388.5q0 -49 -2 -76h-723q6 -125 66.5 -189.5t161.5 -64.5q88 0 143 44t96 135l260 -101q-55 -131 -161.5 -215t-298.5 -84q-147 0 -241.5 71t-127.5 181 h-94q-57 -125 -145.5 -188.5t-233.5 -63.5q-203 0 -338 152.5t-135 390.5zM377 507.5q0 -151.5 62.5 -230t173 -78.5t173 78.5t62.5 230t-62.5 234.5t-173 83t-173 -83t-62.5 -234.5zM1133 643h426q-23 203 -209 203q-88 0 -144.5 -52.5t-72.5 -150.5z" />
<glyph unicode="&#x178;" horiz-adv-x="1384" d="M18 1434h361l162 -279q45 -76 67 -145q33 -90 35 -283h111q4 145 22.5 229t83.5 203l150 275h350l-510 -850v-584h-311v584zM299 1569v246h297v-246h-297zM795 1569v246h297v-246h-297z" />
<glyph unicode="&#x2c6;" horiz-adv-x="1705" d="M236 1159l225 264h352l225 -264h-250l-151 146l-152 -146h-249z" />
<glyph unicode="&#x2dc;" horiz-adv-x="1032" d="M84 1159q0 135 72.5 210t197.5 75q80 0 176 -53l52 -31q61 -37 100 -37q74 0 78 100h201q0 -285 -263 -284q-84 0 -176 53l-51 31q-70 37 -100 37q-74 0 -78 -101h-209z" />
<glyph unicode="&#x2000;" horiz-adv-x="1020" />
<glyph unicode="&#x2001;" horiz-adv-x="2040" />
<glyph unicode="&#x2002;" horiz-adv-x="1020" />
<glyph unicode="&#x2003;" horiz-adv-x="2040" />
<glyph unicode="&#x2004;" horiz-adv-x="680" />
<glyph unicode="&#x2005;" horiz-adv-x="510" />
<glyph unicode="&#x2006;" horiz-adv-x="340" />
<glyph unicode="&#x2007;" horiz-adv-x="340" />
<glyph unicode="&#x2008;" horiz-adv-x="255" />
<glyph unicode="&#x2009;" horiz-adv-x="408" />
<glyph unicode="&#x200a;" horiz-adv-x="113" />
<glyph unicode="&#x2010;" horiz-adv-x="974" d="M123 518v266h729v-266h-729z" />
<glyph unicode="&#x2011;" horiz-adv-x="974" d="M123 518v266h729v-266h-729z" />
<glyph unicode="&#x2012;" horiz-adv-x="974" d="M123 518v266h729v-266h-729z" />
<glyph unicode="&#x2013;" horiz-adv-x="1323" d="M125 535v233h1073v-233h-1073z" />
<glyph unicode="&#x2014;" horiz-adv-x="1835" d="M125 535v233h1585v-233h-1585z" />
<glyph unicode="&#x2018;" horiz-adv-x="548" d="M106 807v307l191 322h137l-186 -322h180v-307h-322z" />
<glyph unicode="&#x2019;" horiz-adv-x="530" d="M119 805l186 321h-180v308h321v-308l-190 -321h-137z" />
<glyph unicode="&#x201a;" horiz-adv-x="569" d="M119 -322l186 322h-180v307h321v-307l-190 -322h-137z" />
<glyph unicode="&#x201c;" horiz-adv-x="978" d="M106 807v307l191 322h137l-186 -322h180v-307h-322zM537 807v307l188 322h139l-186 -322h180v-307h-321z" />
<glyph unicode="&#x201d;" horiz-adv-x="960" d="M119 805l186 321h-180v308h321v-308l-190 -321h-137zM549 805l186 321h-180v308h322v-308l-191 -321h-137z" />
<glyph unicode="&#x201e;" horiz-adv-x="999" d="M119 -322l186 322h-180v307h321v-307l-190 -322h-137zM549 -322l186 322h-180v307h322v-307l-191 -322h-137z" />
<glyph unicode="&#x2022;" horiz-adv-x="1122" d="M133 715q0 176 127 303t301 127q176 0 302 -127t126 -303q0 -172 -126 -299t-302 -127q-174 0 -301 127t-127 299z" />
<glyph unicode="&#x2026;" horiz-adv-x="1644" d="M121 0v324h338v-324h-338zM653 0v324h338v-324h-338zM1186 0v324h338v-324h-338z" />
<glyph unicode="&#x202f;" horiz-adv-x="408" />
<glyph unicode="&#x2039;" horiz-adv-x="718" d="M63 516l291 488h308l-297 -488l294 -489h-307z" />
<glyph unicode="&#x203a;" horiz-adv-x="714" d="M57 27l297 487l-295 490h308l288 -490l-290 -487h-308z" />
<glyph unicode="&#x205f;" horiz-adv-x="510" />
<glyph unicode="&#x20ac;" horiz-adv-x="1458" d="M72 451v184h123q-4 61 -5 72q0 8 5 69h-123v185h147q55 231 213 368t371 137q227 0 378.5 -116.5t200.5 -325.5l-286 -94q-25 131 -103 204.5t-202 73.5q-106 0 -194.5 -71.5t-145.5 -196.5l79 -57q66 78 154 78h141v-185h-331q-4 -61 -5 -69q0 -10 5 -72h331v-184h-141 q-88 0 -154 77l-79 -57q121 -244 352 -244q121 0 189.5 71t105.5 220l291 -106q-74 -227 -216.5 -336t-369.5 -109q-213 0 -368 130.5t-210 353.5h-153z" />
<glyph unicode="&#x2122;" horiz-adv-x="1992" d="M66 1270v164h692v-164h-248v-615h-199v615h-245zM842 655v779h325l97 -328q41 -137 45 -307h73q2 156 45 311l93 324h319v-779h-194v260q0 133 79 342l9 25l-82 31l-6 -23l-193 -635h-217l-199 635l-6 21l-82 -35q88 -190 88 -363v-258h-194z" />
<glyph unicode="&#x25fc;" horiz-adv-x="1024" d="M0 0v1024h1024v-1024h-1024z" />
<glyph unicode="&#xfb03;" horiz-adv-x="2033" d="M35 803v221h198v141q0 123 68 196t188 73h316v-232h-191q-47 0 -68.5 -21.5t-21.5 -68.5v-88h400v141q0 123 67.5 196t188.5 73h315v-232h-190q-47 0 -69 -21.5t-22 -68.5v-88h682v-1024h-290v803h-392v-803h-290v803h-400v-803h-291v803h-198zM1595 1163v275h310v-275 h-310z" />
<glyph unicode="&#xfb04;" horiz-adv-x="2045" d="M35 803v221h198v141q0 123 68 196t188 73h316v-232h-191q-47 0 -68.5 -21.5t-21.5 -68.5v-88h400v141q0 123 67.5 196t188.5 73h725v-1434h-291v1202h-309q-47 0 -69 -21.5t-22 -68.5v-88h238v-221h-238v-803h-290v803h-400v-803h-291v803h-198z" />
</font>
</defs>
</svg>
