<?xml version="1.0" standalone="no"?>
<!DOCTYPE svg PUBLIC "-//W3C//DTD SVG 1.1//EN" "http://www.w3.org/Graphics/SVG/1.1/DTD/svg11.dtd" >
<svg xmlns="http://www.w3.org/2000/svg" xmlns:xlink="http://www.w3.org/1999/xlink" version="1.1">
<metadata></metadata>
<defs>
<font id="whyte_inktrapheavy" horiz-adv-x="1552" >
<font-face units-per-em="2048" ascent="1638" descent="-410" />
<missing-glyph horiz-adv-x="440" />
<glyph unicode="&#xfb01;" horiz-adv-x="1443" d="M33 776v250h190v121q0 143 75 221t216 78h342v-258h-201q-80 0 -80 -80v-82h752v-1026h-360v776h-392v-776h-352v776h-190zM958 1153v303h375v-303h-375z" />
<glyph unicode="&#xfb02;" horiz-adv-x="1439" d="M33 776v250h190v121q0 143 75 221t216 78h807v-1446h-356v1188h-310q-80 0 -80 -80v-82h236v-250h-236v-776h-352v776h-190z" />
<glyph horiz-adv-x="0" />
<glyph horiz-adv-x="682" />
<glyph unicode="&#xd;" horiz-adv-x="681" />
<glyph unicode=" "  horiz-adv-x="440" />
<glyph unicode="&#x09;" horiz-adv-x="440" />
<glyph unicode="&#xa0;" horiz-adv-x="440" />
<glyph unicode="!" horiz-adv-x="624" d="M113 0v360h397v-360h-397zM117 1108v326h389v-326l-103 -578h-186z" />
<glyph unicode="&#x22;" horiz-adv-x="989" d="M86 1157v277h348v-277l-82 -446h-184zM555 1157v277h348v-277l-82 -446h-184z" />
<glyph unicode="#" horiz-adv-x="1595" d="M63 324v268h293l56 252h-246v284h305l66 306h284l-12 -64q-35 -164 -172 -301l88 -84q55 80 110.5 111.5t141.5 31.5h29l65 306h283l-11 -62q-27 -156 -174 -303l88 -84q55 80 107.5 111.5t124.5 31.5h41v-284h-297l-53 -252h247v-268h-307l-67 -324h-285l16 80 q37 164 174 301l-90 84q-59 -82 -110 -111.5t-140 -29.5h-32l-70 -324h-280l14 78q33 162 174 303l-88 84q-57 -80 -108.5 -110.5t-123.5 -30.5h-41zM643 592h250l53 252h-250z" />
<glyph unicode="$" horiz-adv-x="1335" d="M61 412l324 96q14 -86 63.5 -149.5t124.5 -82.5v312l-36 8q-211 35 -310.5 138.5t-99.5 297.5q0 170 120 291t326 145v168h218v-168q182 -25 298.5 -127t153.5 -256l-303 -90q-41 147 -149 187v-305l51 -13q416 -92 415 -434q0 -182 -120.5 -304t-345.5 -146v-168h-218 v165q-213 25 -345 142t-167 293zM446 1071q0 -112 127 -153v51q0 154 93 225l-56 88q-164 -66 -164 -211zM696 281l60 -93q176 66 176 205q0 125 -144 162v-49q0 -158 -92 -225z" />
<glyph unicode="%" horiz-adv-x="1869" d="M61 1024q0 195 98.5 311.5t266.5 116.5t267.5 -116.5t99.5 -311.5t-99.5 -309.5t-267.5 -114.5t-266.5 114.5t-98.5 309.5zM276 0l1047 1434h274l-1040 -1434h-281zM330 1026q0 -221 96 -221q98 0 98 221q0 225 -98 225q-96 0 -96 -225zM1079 403.5q0 194.5 98.5 311 t266.5 116.5t267 -116.5t99 -311t-99 -309t-267 -114.5t-266.5 114.5t-98.5 309zM1348 406q0 -221 96 -222q98 1 98 222q0 225 -98 225q-96 0 -96 -225z" />
<glyph unicode="&#x26;" horiz-adv-x="1499" d="M59 385q0 131 68 225.5t207 171.5q-76 152 -76 293q0 174 126 283.5t323 109.5q193 0 306 -96t113 -225q0 -154 -121.5 -255t-345.5 -101h-30v-115q94 0 272 -135q78 -59 105 -78q80 115 127 280l272 -110q-57 -182 -141 -314q125 -59 235 -94l-92 -256q-158 45 -338 137 q-193 -141 -444 -141q-266 0 -416 112.5t-150 307.5zM389 420q0 -94 69.5 -152.5t190.5 -58.5q137 0 217 37v104q-100 0 -161.5 21.5t-121 81t-106.5 116.5q-88 -57 -88 -149zM551 1063q0 -76 37 -164l47 23q184 78 184 186q0 49 -31.5 79t-87.5 30q-63 0 -106 -43.5 t-43 -110.5z" />
<glyph unicode="'" horiz-adv-x="522" d="M86 1157v277h348v-277l-82 -446h-184z" />
<glyph unicode="(" horiz-adv-x="733" d="M70 620.5q0 184.5 33.5 346t103 298t192.5 217.5t285 85v-289q-176 -29 -240 -211q-61 -184 -61 -457q0 -264 63 -442q66 -182 238 -209v-287q-162 8 -285 90t-192.5 217.5t-103 296t-33.5 345z" />
<glyph unicode=")" horiz-adv-x="733" d="M49 -39q176 29 238 211q63 184 63 457q0 264 -63 442q-66 182 -238 209v287q162 -8 284 -90t192.5 -216.5t104.5 -295t34 -344.5q0 -240 -60 -455q-57 -207 -196.5 -346t-358.5 -148v289z" />
<glyph unicode="*" horiz-adv-x="1165" d="M74 1077v260l293 -20l-158 231l240 133l38 -69q43 -80 43 -209q0 -49 -2 -64h115q-2 29 -2 82q0 113 35 183l41 77l235 -133l-164 -231l302 20v-262l-95 2q-111 0 -247 101l-56 -103q141 -57 211 -155l51 -74l-247 -127l-132 256l-135 -260l-235 133l51 70 q70 100 213 159l-57 103q-137 -100 -254 -101z" />
<glyph unicode="+" horiz-adv-x="1222" d="M63 584v278h404v410h289v-410h403v-278h-403v-410h-289v410h-404z" />
<glyph unicode="," horiz-adv-x="616" d="M109 -358l221 358h-217v362h393v-362l-219 -358h-178z" />
<glyph unicode="-" horiz-adv-x="1005" d="M109 502v301h788v-301h-788z" />
<glyph unicode="." horiz-adv-x="606" d="M106 0v362h396v-362h-396z" />
<glyph unicode="/" horiz-adv-x="946" d="M41 -197l551 1835h313l-551 -1835h-313z" />
<glyph unicode="0" horiz-adv-x="1413" d="M82 710.5q0 348.5 172 553t451 204.5q283 0 454.5 -204.5t171.5 -553t-172 -547t-454.5 -198.5t-452.5 198.5t-170 547zM475.5 716.5q-0.5 -448.5 229.5 -448.5q233 0 233 448.5t-233 448.5q-229 0 -229.5 -448.5z" />
<glyph unicode="1" horiz-adv-x="952" d="M47 760v373q324 25 430 301h322v-1434h-361v760q0 205 76 344h-135q-49 -166 -124 -252t-208 -92z" />
<glyph unicode="2" horiz-adv-x="1286" d="M80 940q-2 211 146.5 370.5t420.5 157.5q246 0 394.5 -124.5t148.5 -329.5q0 -190 -133 -342q-57 -63 -146 -121q-98 -61 -186 -102l-256 -117l-100 -45l57 -119q207 133 461 133h305v-301h-1094v367q291 145 447.5 250.5t211 184.5t58.5 175q0 86 -49 138t-129 52 q-197 0 -201 -278z" />
<glyph unicode="3" horiz-adv-x="1277" d="M45 397l367 78q29 -213 217 -213q90 0 141 44t51 120q0 74 -52 119t-142 45h-150v268h146q78 0 129 43t51 115q0 68 -49 110.5t-123 42.5q-78 0 -125 -48t-55 -138l-357 59q18 186 165 306t378 120q229 0 374.5 -105.5t145.5 -258.5q0 -147 -103.5 -225t-291.5 -82v-121 q207 -6 319.5 -93t112.5 -227q0 -182 -146.5 -286.5t-408.5 -104.5q-254 0 -406.5 111.5t-187.5 320.5z" />
<glyph unicode="4" horiz-adv-x="1363" d="M43 311v301l549 822h498v-840h210v-283h-210v-311h-347v311h-700zM342 555l98 -70q45 57 90 83t129 26h84v129q0 211 109 369l-107 65l-6 -8l-387 -576z" />
<glyph unicode="5" horiz-adv-x="1271" d="M63 360l334 89q53 -186 226 -187q90 0 144 54.5t54 152.5q0 96 -56 150.5t-142 54.5q-127 0 -187 -113l-334 60l117 813h920v-304h-662l-16 -112q-16 -113 -46 -172.5t-89 -124.5h149q88 186 301 186q170 0 294 -117.5t124 -330.5q0 -229 -145.5 -361.5t-413.5 -132.5 q-231 0 -382 110.5t-190 284.5z" />
<glyph unicode="6" horiz-adv-x="1318" d="M80 662q0 383 198.5 594.5t522.5 211.5q205 0 350 -61v-315q-160 63 -320 63q-201 0 -327.5 -117.5t-141.5 -343.5h115q27 119 112 184.5t218 65.5q178 0 309 -123t131 -338q0 -240 -157.5 -379t-395.5 -139q-197 -2 -340 98.5t-209.5 257.5t-64.5 341zM471 479 q0 -96 58.5 -155.5t148.5 -59.5q88 0 148.5 60.5t60.5 154.5t-59.5 152.5t-149.5 58.5q-98 0 -152.5 -56t-54.5 -155z" />
<glyph unicode="7" horiz-adv-x="1136" d="M41 1130v304h1059v-381q-248 -166 -374 -444.5t-122 -608.5h-393q-2 410 201 688q200 279 460 451l31 18l-67 109q-164 -135 -412 -136h-383z" />
<glyph unicode="8" horiz-adv-x="1314" d="M82 356q0 147 114.5 230.5t297.5 89.5v121q-178 10 -276.5 84.5t-98.5 214.5q0 154 147.5 262t390.5 108q248 0 394.5 -107.5t146.5 -262.5q0 -276 -373 -299v-121q190 -8 299 -89t109 -231q0 -174 -157.5 -282.5t-418 -108.5t-418 107.5t-157.5 283.5zM451 438 q0 -82 55 -130t149 -48q96 0 152.5 48t56.5 130q0 80 -57 128t-151.5 48t-149.5 -48t-55 -128zM467 1024q0 -80 51 -124t139 -44t140.5 45t52.5 123q0 72 -54.5 118t-138.5 46t-137 -45t-53 -119z" />
<glyph unicode="9" horiz-adv-x="1312" d="M74 950q0 238 155.5 378t388.5 140q238 0 412 -161q201 -176 201 -537q0 -387 -191.5 -596t-537.5 -209q-198 1 -352 60v317q166 -66 337 -66q221 0 342 166q86 119 91 275h-115q-35 -106 -119 -163.5t-201 -57.5q-170 0 -290.5 119.5t-120.5 334.5zM432 958.5 q0 -90.5 59.5 -148.5t143.5 -58q86 0 143.5 58t57.5 148q0 92 -57.5 150.5t-143.5 58.5q-84 0 -143.5 -59t-59.5 -149.5z" />
<glyph unicode=":" horiz-adv-x="610" d="M106 0v362h396v-362h-396zM106 698v363h396v-363h-396z" />
<glyph unicode=";" horiz-adv-x="614" d="M109 -358l221 358h-217v362h393v-362l-219 -358h-178zM111 698v363h395v-363h-395z" />
<glyph unicode="&#x3c;" horiz-adv-x="1288" d="M72 487v447l1095 338v-307l-348 -107q-274 -80 -540 -88v-115q258 -8 538 -88l350 -104v-313z" />
<glyph unicode="=" horiz-adv-x="1316" d="M117 338v272h1083v-272h-1083zM117 821v275h1083v-275h-1083z" />
<glyph unicode="&#x3e;" horiz-adv-x="1286" d="M121 150v307l348 106q266 78 539 86v117q-250 2 -539 88l-348 104v314l1096 -338v-447z" />
<glyph unicode="?" horiz-adv-x="1204" d="M53 1016q6 199 150.5 324.5t406.5 125.5q256 0 390.5 -104.5t134.5 -263.5q-4 -123 -60.5 -198t-181.5 -159q-82 -51 -115 -98t-33 -113h-329q0 133 39.5 204t150.5 143q78 51 110 87.5t32 90.5q0 57 -41 93t-109 36q-170 0 -178 -221zM385 0v360h395v-360h-395z" />
<glyph unicode="@" horiz-adv-x="1947" d="M61 584q-4 264 131.5 471t352.5 312.5t467 100.5q252 2 459.5 -93t330.5 -275t119 -406q0 -246 -134 -395t-310 -149q-113 0 -178.5 58t-75.5 148h-84q-66 -207 -267 -206q-133 0 -218 126.5t-85 315.5q0 178 85 298t220 120q195 0 265 -207h100q-45 86 -49 182h215v-528 q0 -74 68 -74q70 0 116.5 81t46.5 230q0 242 -171 385.5t-457 143.5q-289 0 -472.5 -168t-183.5 -469q0 -309 176.5 -474t495.5 -165q297 0 539 119l106 -228q-272 -137 -641 -137q-444 0 -705.5 233.5t-261.5 649.5zM854 592q0 -98 38 -157.5t105.5 -59.5t105.5 60.5 t38 158.5q0 94 -38 150.5t-105.5 56.5t-105.5 -56.5t-38 -152.5z" />
<glyph unicode="A" d="M0 0l520 1434h512l518 -1434h-420l-96 299h-536l-101 -299h-397zM594 594h346l-68 213q-36 124 -36 340v12v78h-129v-53q0 -246 -41 -377z" />
<glyph unicode="B" horiz-adv-x="1466" d="M147 0v1434h727q225 0 348.5 -89.5t123.5 -232.5q0 -141 -102.5 -219t-289.5 -82v-123q209 -2 325 -84t116 -239q0 -168 -141.5 -266.5t-387.5 -98.5h-719zM524 295h277q96 0 150.5 39t54.5 112q0 154 -205 154h-277v-305zM524 868h273q182 0 182 138q0 135 -182 135 h-273v-273z" />
<glyph unicode="C" horiz-adv-x="1581" d="M72 713v12q0 314 214 529q213 214 539 214h15q262 0 449.5 -124.5t248.5 -333.5l-371 -127q-82 276 -333 276q-164 0 -257.5 -117.5t-93.5 -326.5q0 -205 93.5 -322t257.5 -117q248 0 340 277l366 -133q-76 -211 -259 -333t-445 -122q-344 0 -554 207t-210 541z" />
<glyph unicode="D" horiz-adv-x="1574" d="M147 0v1434h582q340 0 555 -192.5t215 -516.5v-17q0 -312 -215 -510q-217 -199 -532 -198h-13h-592zM532 307h181q190 0 287.5 106.5t97.5 309.5q0 184 -98.5 294.5t-278.5 110.5h-189v-821z" />
<glyph unicode="E" horiz-adv-x="1347" d="M147 0v1434h1110v-306h-731v-254h566v-284h-566v-285h731v-305h-1110z" />
<glyph unicode="F" horiz-adv-x="1323" d="M147 0v1434h1125v-310h-744v-319h602v-299h-602v-506h-381z" />
<glyph unicode="G" horiz-adv-x="1648" d="M74 709v11q0 317 218 534q215 214 541 214h21q287 0 463 -121.5t237 -310.5l-374 -133q-90 256 -332 256q-166 0 -268.5 -122t-102.5 -332q0 -213 102.5 -332t266.5 -119q133 0 216 63.5t103 155.5h-395v287h774v-760h-344q0 129 103 289h-146q-123 -324 -440 -324h-10 q-260 0 -447 200q-186 200 -186 530v14z" />
<glyph unicode="H" horiz-adv-x="1593" d="M147 0v1434h390v-543h520v543h389v-1434h-389v582h-520v-582h-390z" />
<glyph unicode="I" horiz-adv-x="684" d="M147 0v1434h390v-1434h-390z" />
<glyph unicode="J" horiz-adv-x="1222" d="M18 520l373 90v-18q0 -164 36 -243q38 -83 132 -83q78 0 112 55.5t34 172.5v940h385v-875q0 -301 -123 -447.5t-389 -146.5q-270 0 -412 146.5t-148 408.5z" />
<glyph unicode="K" horiz-adv-x="1521" d="M147 0v1434h379v-166q0 -131 -43 -220.5t-125 -164.5l91 -90l561 641h485l-545 -572l606 -862h-471l-405 612l-154 -161v-451h-379z" />
<glyph unicode="L" horiz-adv-x="1290" d="M147 0v1434h390v-1121h731v-313h-1121z" />
<glyph unicode="M" horiz-adv-x="2064" d="M147 0v1434h607l176 -553q29 -98 37 -234q10 -150 10 -373h127q0 418 53 607l178 553h584v-1434h-377v416q0 360 170 803l-131 45l-393 -1264h-314l-391 1262l-131 -43q168 -434 168 -803v-416h-373z" />
<glyph unicode="N" horiz-adv-x="1732" d="M147 0v1434h543l590 -1049l111 72q-98 152 -139.5 273.5t-41.5 285.5v418h375v-1434h-442l-694 1237l-111 -68q184 -305 184 -612v-557h-375z" />
<glyph unicode="O" horiz-adv-x="1722" d="M74 711q0 332 209 544.5t577 212.5h13q360 0 568 -213t208 -532v-12q0 -330 -207 -538t-582 -208q-373 0 -579.5 208t-206.5 538zM483 713q0 -199 100.5 -319t278.5 -120q176 0 276.5 120t100.5 319q0 203 -100.5 324.5t-276.5 121.5t-277.5 -123t-101.5 -323z" />
<glyph unicode="P" horiz-adv-x="1406" d="M147 0v1434h684q233 0 384 -131.5t151 -348.5q0 -219 -150.5 -350t-381.5 -131h-306v-473h-381zM528 768h234q96 0 154.5 50t58.5 134q0 82 -58.5 130t-154.5 48h-234v-362z" />
<glyph unicode="Q" horiz-adv-x="1744" d="M74 711q0 332 209 544.5t577.5 212.5t577.5 -212t209 -531q0 -260 -131 -442q68 -35 192 -35v-281q-158 0 -242 58.5t-112 187.5h-103q-47 -98 -166.5 -173t-281.5 -75q-338 0 -533.5 210t-195.5 536zM473 715q0 -203 103.5 -325t285.5 -122q109 0 191 51l-39 46 q-70 78 -138 111q-60 30 -141 30h-20v276q47 6 73 6q172 0 259 -102q76 -82 76 -209q0 -16 -1 -33h113q43 121 43 269q0 195 -108.5 322.5t-305.5 127.5q-182 0 -286.5 -122.5t-104.5 -325.5z" />
<glyph unicode="R" horiz-adv-x="1513" d="M147 0v1434h756q236 0 370 -100.5t134 -270.5q0 -139 -74 -213q-68 -68 -162 -92.5t-237 -30.5v-121q215 -4 314.5 -63.5t131.5 -231.5l64 -311h-410l-55 332q-14 106 -67.5 151t-161.5 45h-222v-528h-381zM528 807h285q90 0 143.5 43t53.5 121t-52.5 120t-144.5 42h-285 v-326z" />
<glyph unicode="S" horiz-adv-x="1449" d="M45 408l379 98q20 -111 99 -181.5t208 -70.5q119 0 179.5 42t60.5 114q0 121 -195 149l-178 23q-244 31 -362.5 136t-118.5 302q0 195 164.5 321.5t441.5 126.5q264 0 427 -107.5t212 -285.5l-377 -96q-63 203 -270 203q-102 0 -154.5 -41t-52.5 -107q0 -115 168 -135 l178 -22q250 -31 385 -146t135 -303q0 -207 -168 -335t-479 -128q-291 0 -466 121t-216 322z" />
<glyph unicode="T" horiz-adv-x="1361" d="M23 1139v295h1316v-295h-465v-1139h-389v1139h-462z" />
<glyph unicode="U" horiz-adv-x="1599" d="M131 584v850h387v-799q0 -348 280.5 -348t280.5 348v799h387v-850q0 -297 -177 -458t-490 -161q-317 0 -492.5 161t-175.5 458z" />
<glyph unicode="V" horiz-adv-x="1560" d="M8 1434h434l207 -680q72 -244 72 -516h129v14q0 262 72 502l208 680h420l-491 -1434h-555z" />
<glyph unicode="W" horiz-adv-x="2211" d="M23 1434h417l90 -418q43 -211 43 -588q0 -100 -2 -127h131v86q0 266 52 533l129 514h460l132 -512q53 -246 53 -547v-74h131l-2 129q0 383 41 578l90 426h395l-360 -1434h-451l-141 569q-47 199 -47 504v80h-131v-84q0 -291 -49 -500l-148 -569h-461z" />
<glyph unicode="X" horiz-adv-x="1523" d="M-25 0l551 762l-497 672h473l96 -134q96 -139 96 -382q0 -51 -2 -66h131q2 141 28 238.5t91 193.5l102 150h443l-479 -676l542 -758h-477l-139 213q-100 152 -100 385v55h-129q-2 -242 -136 -442l-143 -211h-451z" />
<glyph unicode="Y" horiz-adv-x="1427" d="M4 1434h428l127 -226q66 -119 83 -214t17 -261h127q0 152 22.5 261.5t84.5 226.5l113 213h413l-510 -875v-559h-389v559z" />
<glyph unicode="Z" horiz-adv-x="1368" d="M82 0v387l879 825l-89 95q-166 -178 -393 -179h-381v306h1164v-385l-877 -824l88 -98q174 190 418 190h409v-317h-1218z" />
<glyph unicode="[" horiz-adv-x="765" d="M139 -307v1853h580v-256h-258v-1341h258v-256h-580z" />
<glyph unicode="\" horiz-adv-x="952" d="M43 1638h317l551 -1835h-317z" />
<glyph unicode="]" horiz-adv-x="765" d="M47 -51h256v1341h-256v256h578v-1853h-578v256z" />
<glyph unicode="^" horiz-adv-x="1236" d="M59 674l400 760h327l394 -760h-346l-86 180q-70 145 -70 395h-117q-4 -242 -78 -393l-88 -182h-336z" />
<glyph unicode="_" horiz-adv-x="1325" d="M76 -106h1173v-259h-1173v259z" />
<glyph unicode="`" horiz-adv-x="686" d="M106 1475h373l103 -316h-236z" />
<glyph unicode="a" horiz-adv-x="1218" d="M55 737q18 141 159.5 232.5t369.5 91.5q233 0 358 -104.5t125 -301.5v-338q0 -37 10 -49t47 -12h80v-256h-162q-127 0 -172 48t-49 165h-106q-72 -248 -326 -248q-141 0 -230 82t-89 219q0 348 653 398v36q0 127 -148 127q-154 0 -188 -145zM420 303q0 -98 115 -98 q82 0 135 55.5t53 155.5v61q-152 -14 -227.5 -55t-75.5 -119z" />
<glyph unicode="b" horiz-adv-x="1302" d="M119 0v1434h354v-230q0 -137 -25.5 -219t-78.5 -166h139q88 242 328 242q178 0 290.5 -151.5t112.5 -395.5t-111.5 -395.5t-291.5 -151.5q-127 0 -203 60.5t-127 179.5h-139q78 -121 77 -207h-325zM463 514q0 -143 54 -220t149 -77q200 0 200 297t-200 297 q-96 0 -149.5 -76t-53.5 -221z" />
<glyph unicode="c" horiz-adv-x="1193" d="M59 512q0 244 160 396.5t406 152.5q197 0 336 -92t186 -244l-336 -98q-47 178 -195 178q-94 0 -148 -75t-54 -214q0 -137 56 -215t148 -78q147 0 201 189l342 -84q-53 -172 -194.5 -267.5t-343.5 -95.5q-252 0 -408 150.5t-156 396.5z" />
<glyph unicode="d" horiz-adv-x="1304" d="M63 514q0 244 113 395.5t289 151.5q233 0 328 -242h139q-53 86 -78 170t-25 215v230h357v-1434h-328q0 90 78 207h-139q-100 -240 -332 -240q-180 0 -291 151.5t-111 395.5zM436 514q0 -297 201 -297q94 0 148.5 77t54.5 220q0 145 -53.5 221t-149.5 76q-201 0 -201 -297 z" />
<glyph unicode="e" horiz-adv-x="1200" d="M61 516q0 240 154 392.5t389 152.5q250 0 390.5 -148.5t140.5 -392.5q0 -33 -5 -82h-714q8 -223 190 -223q139 0 207 160l326 -105q-137 -305 -533 -305q-254 0 -399.5 147.5t-145.5 403.5zM424 643h358q-6 86 -52 134t-124 48q-166 0 -182 -182z" />
<glyph unicode="f" horiz-adv-x="833" d="M33 776v250h190v121q0 143 75 221t216 78h342v-258h-201q-80 0 -80 -80v-82h236v-250h-236v-776h-352v776h-190z" />
<glyph unicode="g" horiz-adv-x="1316" d="M39 -215q0 61 44 107.5t118 64.5v104q-141 25 -142 136q0 141 191 182v104q-127 72 -127 213q0 160 130 262.5t312 102.5q158 0 264.5 -59.5t143.5 -176.5h98q6 109 44 155t118 46h59v-258h-135q-43 0 -60.5 -19.5t-25.5 -82.5l-6 -25q-23 -143 -143.5 -233.5 t-313.5 -90.5q-135 0 -227 41q-61 -23 -62 -67q0 -31 23 -42t74 -11h461q170 0 272 -90.5t102 -223.5q0 -147 -103.5 -235t-268.5 -88h-582q-258 0 -258 184zM313 -80q0 -39 26 -61.5t71 -22.5h393q106 0 106 84q0 80 -106 80h-447q-43 -29 -43 -80zM453 680 q0 -80 39.5 -123t109.5 -43t112 44t42 122q0 80 -42 126t-112 46q-68 0 -108.5 -46t-40.5 -126z" />
<glyph unicode="h" horiz-adv-x="1253" d="M119 0v1434h352v-209q0 -260 -121 -434h142q39 127 116.5 198.5t192.5 71.5q160 0 252 -100.5t92 -278.5v-682h-363v621q0 161 -137 161h-2q-164 0 -164 -254v-528h-360z" />
<glyph unicode="i" horiz-adv-x="595" d="M111 1153v303h372v-303h-372zM117 0v1026h362v-1026h-362z" />
<glyph unicode="j" horiz-adv-x="606" d="M-78 -135h137q76 0 76 84v1077h352v-1116q0 -143 -77.5 -226t-219.5 -83h-268v264zM123 1155v299h371v-299h-371z" />
<glyph unicode="k" horiz-adv-x="1302" d="M119 0v1434h352v-402q0 -150 -43 -231.5t-135 -151.5l84 -92l475 469h430l-422 -393l475 -633h-436l-295 414l-133 -127v-287h-352z" />
<glyph unicode="l" horiz-adv-x="593" d="M119 0v1434h356v-1434h-356z" />
<glyph unicode="m" horiz-adv-x="1871" d="M119 0v1026h315q0 -106 -80 -213h144q55 248 268 248q100 0 172 -64.5t88 -183.5h111q35 121 112.5 184.5t186.5 63.5q143 0 235 -101.5t92 -281.5v-678h-360v621q0 161 -131 161h-2q-154 0 -154 -229v-553h-350v621q0 161 -133 161h-2q-154 0 -154 -229v-553h-358z" />
<glyph unicode="n" horiz-adv-x="1253" d="M119 0v1026h325q-2 -100 -94 -235h142q39 127 117.5 198.5t193.5 71.5q160 0 251 -100.5t91 -278.5v-682h-361v621q0 161 -137 161h-2q-100 0 -133 -75q-33 -72 -33 -179v-528h-360z" />
<glyph unicode="o" horiz-adv-x="1261" d="M59 512q0 248 158 398.5t412 150.5t412.5 -150.5t158.5 -398.5t-157.5 -397.5t-413.5 -149.5q-252 0 -411 153.5t-159 393.5zM436 512q0 -289 195 -289q192 0 192 289q0 143 -50 217t-142 74q-195 0 -195 -291z" />
<glyph unicode="p" horiz-adv-x="1304" d="M119 -399v1425h327q-2 -92 -77 -205h139q51 117 128 178.5t200 61.5q182 0 293.5 -151.5t111.5 -397.5q0 -242 -112.5 -393.5t-292.5 -151.5q-229 0 -324 242h-139q53 -86 77.5 -171t24.5 -216v-221h-356zM465 514q0 -143 54 -220t149 -77q198 0 198 297t-198 297 q-96 0 -149.5 -76t-53.5 -221z" />
<glyph unicode="q" horiz-adv-x="1304" d="M63 512q0 246 112 398.5t294 152.5q225 0 328 -242h139q-78 117 -78 205h328v-1425h-357v221q0 131 25 216t78 171h-139q-96 -244 -324 -244q-180 0 -293 152.5t-113 394.5zM436 514q0 -150 53.5 -224.5t147.5 -74.5t148.5 78t54.5 221q0 145 -54.5 221t-148.5 76 q-201 0 -201 -297z" />
<glyph unicode="r" horiz-adv-x="929" d="M119 0v1026h319q0 -174 -84 -321h142q29 180 105.5 264t215.5 84q55 0 82 -6v-347q-78 10 -131 11q-154 0 -221.5 -75t-67.5 -251v-385h-360z" />
<glyph unicode="s" horiz-adv-x="1116" d="M41 276l328 68q4 -51 51 -100t145 -49q66 0 103 24.5t37 65.5q0 74 -121 98l-135 25q-190 35 -276.5 107.5t-86.5 213.5q0 147 125 239.5t344 92.5q201 0 318.5 -75t150.5 -181l-309 -92q-18 59 -65.5 94t-112.5 35q-59 0 -91 -23.5t-32 -62.5q0 -37 29.5 -56.5 t105.5 -33.5l145 -25q369 -66 369 -328q0 -160 -133 -252t-377 -92q-217 0 -350 86t-162 221z" />
<glyph unicode="t" horiz-adv-x="917" d="M25 776v250h206v317h355v-317h245v-250h-245v-426q0 -80 80 -80h215v-270h-361q-139 0 -214 77t-75 218v481h-206z" />
<glyph unicode="u" horiz-adv-x="1243" d="M109 338v688h360v-618q0 -80 35 -122t98 -42q80 0 123 65.5t43 175.5v541h356v-1026h-327q0 94 86 229h-138q-90 -262 -321 -262q-145 0 -230 97.5t-85 273.5z" />
<glyph unicode="v" horiz-adv-x="1206" d="M4 1026h377l111 -344q37 -121 49 -227q12 -109 12 -267h121q0 150 10 269q12 117 45 223l107 346h358l-360 -1026h-451z" />
<glyph unicode="w" horiz-adv-x="1779" d="M16 1026h353l53 -233q27 -133 33 -252q6 -78 10 -305v-35h121q0 188 6 297q6 111 31 223l71 305h396l71 -303q23 -113 33 -236q10 -127 10 -286h121v67q0 186 6 293q10 111 37 254l49 211h346l-290 -1026h-422l-62 252q-25 102 -35 250q-6 96 -10 344h-127 q0 -418 -41 -592l-61 -254h-408z" />
<glyph unicode="x" horiz-adv-x="1204" d="M-6 0l393 539l-373 487h416l45 -70q57 -96 57 -264q0 -53 -2 -67h121q0 104 19.5 174.5t70.5 150.5l54 76h391l-379 -500l410 -526h-424l-66 109q-63 109 -63 272q0 41 2 51h-121q0 -166 -101 -326l-65 -106h-385z" />
<glyph unicode="y" horiz-adv-x="1189" d="M-25 1026h385l138 -321q65 -148 65 -396v-8v-43h121v61q0 256 45 404l98 303h353l-408 -1137q-57 -156 -140 -222t-239 -66h-319v270h280q49 0 74 21.5t43 80.5l16 45z" />
<glyph unicode="z" horiz-adv-x="1046" d="M70 0v315l555 506l-78 90q-70 -70 -136.5 -107.5t-166.5 -39.5h-148v262h862v-276l-598 -545l78 -90q82 76 159 114.5t198 40.5h188v-270h-913z" />
<glyph unicode="{" horiz-adv-x="784" d="M47 494v251q92 0 129 28t37 114v321q0 184 72.5 261t257.5 77h194v-241h-84q-70 0 -98.5 -29t-28.5 -102v-244q0 -133 -68.5 -189.5t-221.5 -58.5v-117q152 -2 221 -60.5t69 -191.5v-245q0 -78 29 -106t98 -28h84v-241h-194q-184 0 -257 77t-73 261v305q0 90 -38 124 t-128 34z" />
<glyph unicode="|" horiz-adv-x="595" d="M139 -197v1835h316v-1835h-316z" />
<glyph unicode="}" horiz-adv-x="784" d="M47 -66h84q72 0 99.5 28t27.5 104v243q0 133 68.5 189.5t222.5 56.5v119q-152 2 -221.5 60.5t-69.5 191.5v245q0 78 -27.5 106t-99.5 28h-84v241h197q184 0 256.5 -77t72.5 -261v-305q0 -90 37 -124t127 -34v-251q-92 0 -128 -28t-36 -114v-321q0 -184 -72.5 -261 t-256.5 -77h-197v241z" />
<glyph unicode="~" horiz-adv-x="1333" d="M74 684q53 127 150.5 196.5t219.5 69.5q109 0 228 -65l78 -43q68 -37 120 -37q104 0 177 125l217 -158q-53 -127 -151.5 -195.5t-221.5 -68.5q-113 0 -219 57l-78 45q-68 41 -127 41q-111 0 -176 -121z" />
<glyph unicode="&#xa1;" horiz-adv-x="624" d="M113 866v363h397v-363h-397zM119 121l100 577h187l100 -577v-328h-387v328z" />
<glyph unicode="&#xa2;" horiz-adv-x="1230" d="M76 512q0 219 128 363.5t326 177.5v225h201v-223q164 -20 278.5 -110.5t151.5 -221.5l-307 -94q-41 119 -123 151v-260q0 -172 -90 -256l74 -76q106 68 141 222l320 -82q-45 -147 -161 -241.5t-284 -115.5v-207h-201v209q-207 31 -330.5 176.5t-123.5 362.5zM395 530 q0 -206 135 -274v244q0 182 91 264l-72 80q-154 -111 -154 -314z" />
<glyph unicode="&#xa3;" horiz-adv-x="1271" d="M98 0v309q106 16 186.5 81t80.5 153q0 16 -5 49h-260v211h131q-82 115 -81 244q0 190 148 305.5t361 115.5q209 0 354.5 -105.5t174.5 -305.5l-361 -80q-10 98 -55 149.5t-114.5 51.5t-112.5 -40t-43 -112q0 -86 94 -223h319v-211h-247v-6q0 -102 -76 -175t-238 -137 l64 -118q194 145 432 145h348v-301h-1100z" />
<glyph unicode="&#xa4;" horiz-adv-x="1351" d="M82 1087l217 216l156 -154q100 51 221 51t219 -51l158 156l217 -213l-158 -156q53 -96 53 -213q0 -113 -55 -221l160 -158l-217 -215l-164 164q-102 -49 -213 -49t-215 47l-162 -160l-215 215l156 154q-57 109 -58 223q0 117 51 213zM489 721q0 -78 53.5 -134.5 t133.5 -56.5t131 56.5t51 134.5q0 80 -51 136t-131 56q-82 0 -134.5 -56t-52.5 -136z" />
<glyph unicode="&#xa5;" horiz-adv-x="1519" d="M47 1434h430l129 -226q61 -121 78.5 -215t17.5 -260h129q0 160 21.5 269.5t81.5 220.5l117 211h419l-383 -607h216v-209h-347v-126h347v-201h-347v-291h-389v291h-346v201h346v126h-346v209h213z" />
<glyph unicode="&#xa6;" horiz-adv-x="595" d="M139 -197v768h316v-768h-316zM139 866v772h316v-772h-316z" />
<glyph unicode="&#xa7;" horiz-adv-x="1376" d="M66 473q0 109 80.5 179.5t238.5 84.5v115q-203 66 -203 250q0 152 140.5 259t363.5 107q217 0 350 -98t158 -260l-338 -72q-37 158 -180 158q-63 0 -102 -34t-39 -85q0 -45 28.5 -74.5t108.5 -52.5l325 -94q317 -90 318 -283q0 -109 -83 -176t-249 -80v-112 q217 -74 217 -271q0 -162 -142.5 -262t-379.5 -100q-233 0 -369.5 101.5t-165.5 277.5l346 65q33 -162 189 -161q74 0 115 32.5t41 83.5q0 92 -123 125l-328 99q-170 51 -243.5 112.5t-73.5 165.5zM412 573q0 -78 120 -114l222 -72q37 -10 96 -31q106 52 106 115 q0 84 -112 119l-236 76l-86 26q-111 -51 -110 -119z" />
<glyph unicode="&#xa8;" horiz-adv-x="1005" d="M143 1171v271h318v-271h-318zM621 1171v271h317v-271h-317z" />
<glyph unicode="&#xa9;" horiz-adv-x="1822" d="M72 719q-6 338 243.5 584.5t591.5 240.5q344 6 597 -240.5t247 -584.5q4 -221 -110.5 -415.5t-311 -306.5t-422.5 -108q-223 -4 -417.5 108t-308 306.5t-109.5 415.5zM305 719q-4 -254 173 -437.5t433 -177.5q256 -6 433.5 177.5t173.5 437.5q4 256 -172.5 436 t-434.5 176q-258 4 -434 -176t-172 -436zM481 723q0 197 122 319.5t315 122.5q139 0 245.5 -72.5t147.5 -189.5l-226 -78q-49 168 -180 168q-84 0 -137 -71.5t-53 -198.5t51 -197.5t139 -70.5q143 0 185 168l225 -78q-47 -119 -153.5 -192.5t-243.5 -73.5q-199 0 -318 121.5 t-119 322.5z" />
<glyph unicode="&#xaa;" horiz-adv-x="1069" d="M66 1024q0 193 89 313.5t234 120.5q186 0 260 -203h99q-43 92 -43 179h247v-822h-247q0 88 43 179h-99q-72 -203 -264 -203q-141 0 -230 121.5t-89 314.5zM360 1026q0 -115 40 -177.5t110 -62.5q68 0 105.5 61.5t37.5 178.5q0 233 -143 234q-70 0 -110 -60.5t-40 -173.5z " />
<glyph unicode="&#xab;" horiz-adv-x="1302" d="M57 516l295 498h357l-306 -502l297 -494h-350zM598 516l299 498h354l-309 -502l301 -494h-350z" />
<glyph unicode="&#xac;" horiz-adv-x="1296" d="M94 594v278h1077v-565h-282v287h-795z" />
<glyph unicode="&#xad;" horiz-adv-x="1005" d="M109 502v301h788v-301h-788z" />
<glyph unicode="&#xae;" horiz-adv-x="1148" d="M68 1047q0 211 141 354t364.5 143t365.5 -143.5t142 -353.5q0 -213 -142 -358.5t-366 -145.5q-221 0 -363 145.5t-142 358.5zM221 1047q0 -160 95.5 -262.5t257 -102.5t258 102.5t96.5 262.5q0 156 -96.5 257t-258 101t-257 -101.5t-95.5 -256.5zM387 811v465h242 q70 0 112.5 -31t42.5 -80t-37.5 -76.5t-101.5 -27.5v-51q57 -4 84 -20.5t35 -69.5l16 -109h-139l-12 111q-6 41 -20.5 54t-49.5 13h-39v-178h-133zM520 1083h72q59 0 59 45.5t-59 45.5h-72v-91z" />
<glyph unicode="&#xaf;" horiz-adv-x="694" d="M35 1184v217h670v-217h-670z" />
<glyph unicode="&#xb0;" horiz-adv-x="937" d="M49 1227q0 172 120 288.5t298 116.5q182 0 300 -115.5t118 -289.5t-118 -289t-300 -115q-184 0 -301 116t-117 288zM313 1231q0 -76 44 -121t112 -45t110 46t42 120q0 70 -43 115t-109 45q-68 0 -112 -45.5t-44 -114.5z" />
<glyph unicode="&#xb1;" horiz-adv-x="1316" d="M111 156v268h1083v-268h-1083zM127 750v251h397v261h283v-261h397v-251h-397v-234h-283v234h-397z" />
<glyph unicode="&#xb2;" horiz-adv-x="831" d="M80 1319q0 135 91 227t253 92q141 0 229 -69.5t88 -179.5q0 -119 -92 -203q-76 -68 -295 -154l-78 -33l39 -84q152 94 289 95h135v-203h-645v227q225 111 307 177.5t82 142.5q0 39 -20.5 61.5t-54.5 22.5q-88 0 -84 -144z" />
<glyph unicode="&#xb3;" horiz-adv-x="825" d="M63 1040l246 50q16 -102 101 -103q37 0 59.5 18.5t22.5 51.5q0 68 -93 67h-57v183h57q39 0 61.5 18t22.5 49q0 29 -19.5 47.5t-49.5 18.5q-72 0 -76 -97l-248 33q10 117 98 189.5t226 72.5q139 0 225 -55t86 -145q0 -168 -242 -172v-84q125 0 192.5 -47.5t67.5 -133.5 q0 -96 -88 -155.5t-239.5 -59.5t-245 68.5t-107.5 185.5z" />
<glyph unicode="&#xb4;" horiz-adv-x="679" d="M117 1159l102 316h373l-242 -316h-233z" />
<glyph unicode="&#xb5;" horiz-adv-x="1294" d="M139 -399v1425h363v-620q0 -162 131 -162q82 0 123 64.5t41 174.5v543h358v-1026h-328q0 94 86 229h-139q-66 -197 -227 -209q-14 -20 -49 -36v-383h-359z" />
<glyph unicode="&#xb6;" horiz-adv-x="1697" d="M53 893q0 252 166 396.5t430 144.5h969v-273h-186v-1558h-316v1558h-158v-1558h-307v766h-63q-238 0 -386.5 149.5t-148.5 374.5z" />
<glyph unicode="&#xb7;" horiz-adv-x="608" d="M106 575v363h396v-363h-396z" />
<glyph unicode="&#xb8;" horiz-adv-x="768" d="M111 -367l112 140q74 -70 146 -70q74 0 73.5 45t-65.5 45q-29 0 -55 -6l-72 92l147 146l168 -21l-57 -51l-57 -49l22 -2q76 -4 131 -50.5t55 -130.5q0 -86 -70.5 -144t-211.5 -58q-84 0 -156.5 36.5t-109.5 77.5z" />
<glyph unicode="&#xb9;" horiz-adv-x="659" d="M68 1208v248q188 0 245 164h226v-813h-254v350q0 131 63 258h-96q-25 -106 -67 -155.5t-117 -51.5z" />
<glyph unicode="&#xba;" horiz-adv-x="1015" d="M59 1026q0 195 119 313.5t332 118.5q211 0 328.5 -118.5t117.5 -313.5q0 -193 -118.5 -315.5t-327.5 -122.5q-211 0 -331 122.5t-120 315.5zM360 1024q0 -115 41 -179.5t109 -64.5t106.5 64.5t38.5 179.5q0 117 -38.5 179.5t-106.5 62.5q-70 0 -110 -62.5t-40 -179.5z " />
<glyph unicode="&#xbb;" horiz-adv-x="1298" d="M49 18l309 502l-301 494h353l295 -500l-299 -496h-357zM594 18l305 502l-299 494h352l293 -498l-297 -498h-354z" />
<glyph unicode="&#xbc;" horiz-adv-x="1900" d="M59 1022v248q188 0 246 164h225v-813h-254v350q0 131 64 258h-96q-25 -106 -67 -155.5t-118 -51.5zM213 0l1047 1434h274l-1040 -1434h-281zM1108 168v221l299 424h322v-455h114v-190h-114v-168h-230v168h-391zM1290 313l66 -43q53 88 121 88h22v54q0 80 92 178l-69 51z " />
<glyph unicode="&#xbd;" horiz-adv-x="1843" d="M57 1022v248q188 0 246 164h225v-813h-254v350q0 131 64 258h-96q-25 -106 -67 -155.5t-118 -51.5zM213 0l1047 1434h274l-1040 -1434h-281zM1108 512q0 135 91 227t253 92q141 0 229 -69.5t88 -179.5q0 -119 -92 -203q-76 -68 -295 -154l-77 -32l38 -84q152 94 289 94 h135v-203h-645v227q225 111 307 177.5t82 142.5q0 39 -20.5 61.5t-54.5 22.5q-88 0 -84 -144z" />
<glyph unicode="&#xbe;" horiz-adv-x="2068" d="M59 854l246 49q16 -102 101 -102q37 0 59 18.5t22 50.5q0 68 -92 68h-57v182h57q39 0 61.5 18.5t22.5 49.5q0 29 -19.5 47t-49.5 18q-72 0 -76 -96l-248 33q10 117 98 189.5t226 72.5q139 0 225 -55.5t86 -145.5q0 -168 -242 -172v-84q125 0 192.5 -47t67.5 -133 q0 -96 -88 -155.5t-239.5 -59.5t-245 68.5t-107.5 185.5zM379 0l1046 1434h275l-1041 -1434h-280zM1276 168v221l299 424h321v-455h115v-190h-115v-168h-229v168h-391zM1458 313l66 -43q53 88 121 88h22v54q0 80 92 178l-69 51z" />
<glyph unicode="&#xbf;" horiz-adv-x="1204" d="M70 131q0 121 59 199t184 159q80 51 113 98.5t33 112.5h332q0 -133 -41 -203.5t-152 -142.5q-78 -51 -108.5 -89t-30.5 -89q0 -59 41 -94t108 -35q168 0 176 221l369 -53q-10 -201 -153.5 -326t-405.5 -125q-254 0 -389 104.5t-135 262.5zM426 868v363h393v-363h-393z " />
<glyph unicode="&#xc0;" d="M0 0l520 1434h512l518 -1434h-420l-96 299h-536l-101 -299h-397zM393 1880h410l112 -315h-258zM594 594h346l-68 213q-37 127 -36 352v78h-129v-53q0 -246 -41 -377z" />
<glyph unicode="&#xc1;" d="M0 0l520 1434h512l518 -1434h-420l-96 299h-536l-101 -299h-397zM594 594h346l-68 213q-37 127 -36 352v78h-129v-53q0 -246 -41 -377zM647 1565l113 315h409l-266 -315h-256z" />
<glyph unicode="&#xc2;" d="M0 0l520 1434h512l518 -1434h-420l-96 299h-536l-101 -299h-397zM297 1565l254 282h446l252 -282h-321l-154 147l-156 -147h-321zM594 594h346l-68 213q-37 127 -36 352v78h-129v-53q0 -246 -41 -377z" />
<glyph unicode="&#xc3;" d="M0 0l520 1434h512l518 -1434h-420l-96 299h-536l-101 -299h-397zM291 1563q-4 145 72.5 224t220.5 79q94 0 196 -54l54 -30q68 -35 108 -35q78 0 82 100h238q8 -303 -283 -303q-101 0 -201 53l-53 29q-70 39 -107 39q-78 0 -81 -102h-246zM594 594h346l-68 213 q-37 127 -36 352v78h-129v-53q0 -246 -41 -377z" />
<glyph unicode="&#xc4;" d="M0 0l520 1434h512l518 -1434h-420l-96 299h-536l-101 -299h-397zM338 1565v270h348v-270h-348zM594 594h346l-68 213q-37 127 -36 352v78h-129v-53q0 -246 -41 -377zM862 1565v270h350v-270h-350z" />
<glyph unicode="&#xc5;" d="M0 0l520 1434h512l518 -1434h-420l-96 299h-536l-101 -299h-397zM477 1790q0 123 90 207t209 84t207 -82t88 -205t-86 -202t-209 -79q-121 0 -210 79t-89 198zM594 594h346l-68 213q-37 127 -36 352v78h-129v-53q0 -246 -41 -377zM674 1796q0 -45 28.5 -74.5t73.5 -29.5 q43 0 70.5 29.5t27.5 74.5t-28.5 73.5t-69.5 28.5q-45 0 -73.5 -28.5t-28.5 -73.5z" />
<glyph unicode="&#xc6;" horiz-adv-x="2011" d="M-47 0l696 1434h1272v-306h-672v-256h504v-282h-504v-285h672v-305h-1024v307h-381l-133 -307h-430zM647 602h250v207q0 186 70 428h-144q-29 -303 -116 -498z" />
<glyph unicode="&#xc7;" horiz-adv-x="1581" d="M72 713q-4 322 214 541t554 214q262 0 449.5 -124.5t248.5 -333.5l-371 -127q-82 276 -333 276q-164 0 -257.5 -117.5t-93.5 -326.5q0 -205 93.5 -322t257.5 -117q248 0 340 277l366 -133q-68 -186 -216 -303t-361 -144l-27 -22q-31 -25 -57 -51h20q78 -4 136.5 -52.5 t58.5 -136.5q0 -86 -75 -147.5t-218 -61.5q-88 0 -162 37t-115 82l119 143q78 -70 150 -69q76 0 75 47q0 45 -67 45q-33 0 -58 -8l-73 96l94 94q-315 20 -503.5 223t-188.5 521z" />
<glyph unicode="&#xc8;" horiz-adv-x="1347" d="M147 0v1434h1110v-306h-731v-254h566v-284h-566v-285h731v-305h-1110zM324 1880h409l113 -315h-258z" />
<glyph unicode="&#xc9;" horiz-adv-x="1347" d="M147 0v1434h1110v-306h-731v-254h566v-284h-566v-285h731v-305h-1110zM578 1565l112 315h410l-266 -315h-256z" />
<glyph unicode="&#xca;" horiz-adv-x="1347" d="M147 0v1434h1110v-306h-731v-254h566v-284h-566v-285h731v-305h-1110zM229 1565l254 282h447l252 -282h-322l-153 147l-156 -147h-322z" />
<glyph unicode="&#xcb;" horiz-adv-x="1347" d="M147 0v1434h1110v-306h-731v-254h566v-284h-566v-285h731v-305h-1110zM270 1565v270h348v-270h-348zM795 1565v270h350v-270h-350z" />
<glyph unicode="&#xcc;" horiz-adv-x="684" d="M-41 1880h410l112 -315h-258zM147 0v1434h390v-1434h-390z" />
<glyph unicode="&#xcd;" horiz-adv-x="684" d="M147 0v1434h390v-1434h-390zM215 1565l113 315h409l-266 -315h-256z" />
<glyph unicode="&#xce;" horiz-adv-x="684" d="M-135 1565l254 282h446l252 -282h-321l-154 147l-156 -147h-321zM147 0v1434h390v-1434h-390z" />
<glyph unicode="&#xcf;" horiz-adv-x="684" d="M-94 1565v270h348v-270h-348zM147 0v1434h390v-1434h-390zM430 1565v270h350v-270h-350z" />
<glyph unicode="&#xd0;" horiz-adv-x="1605" d="M35 614v240h143v580h584q332 4 553 -193t217 -516q4 -324 -216 -526.5t-544 -198.5h-594v614h-143zM565 307h180q190 0 286.5 106.5t96.5 309.5q0 184 -98 294.5t-276 110.5h-189v-274h236v-240h-236v-307z" />
<glyph unicode="&#xd1;" horiz-adv-x="1732" d="M147 0v1434h543l590 -1049l111 72q-98 152 -139.5 273.5t-41.5 285.5v418h375v-1434h-442l-694 1237l-111 -68q184 -305 184 -612v-557h-375zM381 1563q-4 145 72.5 224t220.5 79q94 0 196 -54l54 -30q68 -35 108 -35q78 0 82 100h238q8 -303 -283 -303q-101 0 -201 53 l-53 29q-70 39 -106 39q-78 0 -82 -102h-246z" />
<glyph unicode="&#xd2;" horiz-adv-x="1722" d="M74 711q0 332 209 544.5t577 212.5q369 4 581 -213t208 -544q0 -330 -207 -538t-582 -208q-373 0 -579.5 208t-206.5 538zM475 1880h410l112 -315h-258zM483 713q0 -199 100.5 -319t278.5 -120q176 0 276.5 120t100.5 319q0 203 -100.5 324.5t-276.5 121.5t-277.5 -123 t-101.5 -323z" />
<glyph unicode="&#xd3;" horiz-adv-x="1722" d="M74 711q0 332 209 544.5t577 212.5q369 4 581 -213t208 -544q0 -330 -207 -538t-582 -208q-373 0 -579.5 208t-206.5 538zM483 713q0 -199 100.5 -319t278.5 -120q176 0 276.5 120t100.5 319q0 203 -100.5 324.5t-276.5 121.5t-277.5 -123t-101.5 -323zM729 1565l113 315 h409l-266 -315h-256z" />
<glyph unicode="&#xd4;" horiz-adv-x="1722" d="M74 711q0 332 209 544.5t577 212.5q369 4 581 -213t208 -544q0 -330 -207 -538t-582 -208q-373 0 -579.5 208t-206.5 538zM379 1565l254 282h446l252 -282h-321l-154 147l-156 -147h-321zM483 713q0 -199 100.5 -319t278.5 -120q176 0 276.5 120t100.5 319 q0 203 -100.5 324.5t-276.5 121.5t-277.5 -123t-101.5 -323z" />
<glyph unicode="&#xd5;" horiz-adv-x="1722" d="M74 711q0 332 209 544.5t577 212.5q369 4 581 -213t208 -544q0 -330 -207 -538t-582 -208q-373 0 -579.5 208t-206.5 538zM373 1563q-4 145 72.5 224t220.5 79q94 0 196 -54l53 -30q68 -35 109 -35q78 0 82 100h237q8 -303 -282 -303q-101 0 -201 53l-53 29 q-70 39 -107 39q-78 0 -82 -102h-245zM483 713q0 -199 100.5 -319t278.5 -120q176 0 276.5 120t100.5 319q0 203 -100.5 324.5t-276.5 121.5t-277.5 -123t-101.5 -323z" />
<glyph unicode="&#xd6;" horiz-adv-x="1722" d="M74 711q0 332 209 544.5t577 212.5q369 4 581 -213t208 -544q0 -330 -207 -538t-582 -208q-373 0 -579.5 208t-206.5 538zM422 1565v270h348v-270h-348zM483 713q0 -199 100.5 -319t278.5 -120q176 0 276.5 120t100.5 319q0 203 -100.5 324.5t-276.5 121.5t-277.5 -123 t-101.5 -323zM946 1565v270h350v-270h-350z" />
<glyph unicode="&#xd7;" horiz-adv-x="1226" d="M80 1049l192 190l342 -340l340 338l191 -188l-340 -338l340 -340l-193 -191l-340 338l-342 -338l-188 191l340 338z" />
<glyph unicode="&#xd8;" horiz-adv-x="1724" d="M74 709q-4 328 208 544.5t580 212.5q231 0 400 -86l149 168l209 -186l-137 -158q166 -201 166 -495q0 -330 -207 -538t-580 -208q-229 0 -401 84l-150 -168l-209 182l138 156q-166 201 -166 492zM483 731q0 -115 43 -207l289 357q68 80 129.5 107.5t151.5 27.5v119 q-96 31 -205 30q-197 0 -302.5 -118.5t-105.5 -315.5zM625 299q78 -35 204 -35q197 0 303.5 118.5t106.5 311.5q0 117 -43 205l-285 -350q-115 -131 -286 -127v-123z" />
<glyph unicode="&#xd9;" horiz-adv-x="1599" d="M131 584v850h387v-799q0 -348 280.5 -348t280.5 348v799h387v-850q0 -297 -177 -458t-490 -161q-317 0 -492.5 161t-175.5 458zM414 1880h409l113 -315h-258z" />
<glyph unicode="&#xda;" horiz-adv-x="1599" d="M131 584v850h387v-799q0 -348 280.5 -348t280.5 348v799h387v-850q0 -297 -177 -458t-490 -161q-317 0 -492.5 161t-175.5 458zM670 1565l112 315h410l-266 -315h-256z" />
<glyph unicode="&#xdb;" horiz-adv-x="1599" d="M131 584v850h387v-799q0 -348 280.5 -348t280.5 348v799h387v-850q0 -297 -177 -458t-490 -161q-317 0 -492.5 161t-175.5 458zM319 1565l254 282h447l252 -282h-322l-153 147l-156 -147h-322z" />
<glyph unicode="&#xdc;" horiz-adv-x="1599" d="M131 584v850h387v-799q0 -348 280.5 -348t280.5 348v799h387v-850q0 -297 -177 -458t-490 -161q-317 0 -492.5 161t-175.5 458zM362 1565v270h349v-270h-349zM887 1565v270h350v-270h-350z" />
<glyph unicode="&#xdd;" horiz-adv-x="1427" d="M4 1434h428l127 -226q66 -119 83 -214t17 -261h127q0 152 22.5 261.5t84.5 226.5l113 213h413l-510 -875v-559h-389v559zM584 1565l112 315h410l-266 -315h-256z" />
<glyph unicode="&#xde;" horiz-adv-x="1431" d="M147 0v1434h390v-234h297q233 0 383.5 -131t150.5 -350q0 -215 -150.5 -343t-381.5 -128h-299v-248h-390zM537 545h235q92 0 149.5 49t57.5 129q0 76 -58.5 126t-148.5 50h-235v-354z" />
<glyph unicode="&#xdf;" horiz-adv-x="1320" d="M119 0v938q0 254 138 392t425 138q240 0 374 -101t134 -249q0 -133 -96.5 -213t-247.5 -90v-117q184 -4 302 -90t118 -233q0 -180 -126 -291t-347 -111q-115 0 -193 23v285q59 -14 111 -15q90 0 141 47t51 127q0 82 -59.5 130t-161.5 48h-82v244h57q90 0 143.5 44 t53.5 118q0 68 -51 115t-127 47q-100 0 -150.5 -58.5t-50.5 -191.5v-936h-356z" />
<glyph unicode="&#xe0;" horiz-adv-x="1218" d="M55 737q18 141 159.5 232.5t369.5 91.5q233 0 358 -104.5t125 -301.5v-338q0 -37 10 -49t47 -12h80v-256h-162q-127 0 -172 48t-49 165h-106q-72 -248 -326 -248q-141 0 -230 82t-89 219q0 348 653 398v36q0 127 -148 127q-154 0 -188 -145zM231 1475h373l103 -316h-236z M420 303q0 -98 115 -98q82 0 135 55.5t53 155.5v61q-152 -14 -227.5 -55t-75.5 -119z" />
<glyph unicode="&#xe1;" horiz-adv-x="1218" d="M55 737q18 141 159.5 232.5t369.5 91.5q233 0 358 -104.5t125 -301.5v-338q0 -37 10 -49t47 -12h80v-256h-162q-127 0 -172 48t-49 165h-106q-72 -248 -326 -248q-141 0 -230 82t-89 219q0 348 653 398v36q0 127 -148 127q-154 0 -188 -145zM420 303q0 -98 115 -98 q82 0 135 55.5t53 155.5v61q-152 -14 -227.5 -55t-75.5 -119zM475 1159l103 316h372l-241 -316h-234z" />
<glyph unicode="&#xe2;" horiz-adv-x="1218" d="M55 737q18 141 159.5 232.5t369.5 91.5q233 0 358 -104.5t125 -301.5v-338q0 -37 10 -49t47 -12h80v-256h-162q-127 0 -172 48t-49 165h-106q-72 -248 -326 -248q-141 0 -230 82t-89 219q0 348 653 398v36q0 127 -148 127q-154 0 -188 -145zM154 1159l231 283h406 l229 -283h-291l-141 148l-139 -148h-295zM420 303q0 -98 115 -98q82 0 135 55.5t53 155.5v61q-152 -14 -227.5 -55t-75.5 -119z" />
<glyph unicode="&#xe3;" horiz-adv-x="1218" d="M55 737q18 141 159.5 232.5t369.5 91.5q233 0 358 -104.5t125 -301.5v-338q0 -37 10 -49t47 -12h80v-256h-162q-127 0 -172 48t-49 165h-106q-72 -248 -326 -248q-141 0 -230 82t-89 219q0 348 653 398v36q0 127 -148 127q-154 0 -188 -145zM137 1159q-4 141 69 221 t204 80q86 0 182 -53l49 -31q61 -35 100 -35q72 0 76 101h223q8 -303 -264 -303q-92 0 -186 55l-49 29q-63 37 -99 37q-72 0 -75 -101h-230zM420 303q0 -98 115 -98q82 0 135 55.5t53 155.5v61q-152 -14 -227.5 -55t-75.5 -119z" />
<glyph unicode="&#xe4;" horiz-adv-x="1218" d="M55 737q18 141 159.5 232.5t369.5 91.5q233 0 358 -104.5t125 -301.5v-338q0 -37 10 -49t47 -12h80v-256h-162q-127 0 -172 48t-49 165h-106q-72 -248 -326 -248q-141 0 -230 82t-89 219q0 348 653 398v36q0 127 -148 127q-154 0 -188 -145zM190 1171v271h318v-271h-318z M420 303q0 -98 115 -98q82 0 135 55.5t53 155.5v61q-152 -14 -227.5 -55t-75.5 -119zM668 1171v271h317v-271h-317z" />
<glyph unicode="&#xe5;" horiz-adv-x="1218" d="M55 737q18 141 159.5 232.5t369.5 91.5q233 0 358 -104.5t125 -301.5v-338q0 -37 10 -49t47 -12h80v-256h-162q-127 0 -172 48t-49 165h-106q-72 -248 -326 -248q-141 0 -230 82t-89 219q0 348 653 398v36q0 127 -148 127q-154 0 -188 -145zM315 1378q0 115 83 192 t192 77q113 0 193.5 -76t80.5 -189q0 -111 -81 -184.5t-193 -73.5q-111 0 -193 72.5t-82 181.5zM420 303q0 -98 115 -98q82 0 135 55.5t53 155.5v61q-152 -14 -227.5 -55t-75.5 -119zM498 1384q0 -41 25.5 -67.5t66.5 -26.5t66.5 26.5t25.5 67.5q0 43 -26.5 69t-65.5 26 q-41 0 -66.5 -26t-25.5 -69z" />
<glyph unicode="&#xe6;" horiz-adv-x="1824" d="M66 272q0 344 651 387v39q0 129 -150 129q-147 0 -178 -145l-323 55q18 137 145 230.5t301 93.5q152 0 245 -60.5t124 -158.5h104q25 90 104.5 155.5t213.5 65.5q211 0 334.5 -152.5t123.5 -378.5q0 -53 -6 -90h-715q8 -227 193 -227q139 0 205 160l325 -105 q-55 -133 -180 -219t-315 -86q-170 0 -280.5 77t-143.5 196h-105q-27 -123 -112.5 -198t-233.5 -75q-145 0 -236 83t-91 224zM414 303q0 -45 30.5 -71.5t85.5 -26.5q82 0 134.5 55.5t52.5 155.5v61q-152 -14 -227.5 -55t-75.5 -119zM1049 641h360q-6 88 -52 136t-126 48 q-159 0 -182 -184z" />
<glyph unicode="&#xe7;" horiz-adv-x="1193" d="M59 512q0 244 160 396.5t406 152.5q197 0 336 -92t186 -244l-336 -98q-47 178 -195 178q-94 0 -148 -75t-54 -214q0 -137 56 -215t148 -78q147 0 201 189l342 -84q-45 -141 -150 -232.5t-259 -118.5l-27 -24l-55 -49l20 -2q76 -4 131.5 -50.5t55.5 -130.5q0 -86 -71 -144 t-210 -58q-86 0 -160 35.5t-108 78.5l114 140q70 -70 144 -70q76 0 76 45t-68 45q-29 0 -55 -6l-70 92l88 90q-225 18 -361.5 166t-136.5 377z" />
<glyph unicode="&#xe8;" horiz-adv-x="1200" d="M61 516q0 240 154 392.5t389 152.5q250 0 390.5 -148.5t140.5 -392.5q0 -33 -5 -82h-714q8 -223 190 -223q139 0 207 160l326 -105q-137 -305 -533 -305q-254 0 -399.5 147.5t-145.5 403.5zM250 1475h373l102 -316h-236zM424 643h358q-6 86 -52 134t-124 48 q-166 0 -182 -182z" />
<glyph unicode="&#xe9;" horiz-adv-x="1200" d="M61 516q0 240 154 392.5t389 152.5q250 0 390.5 -148.5t140.5 -392.5q0 -33 -5 -82h-714q8 -223 190 -223q139 0 207 160l326 -105q-137 -305 -533 -305q-254 0 -399.5 147.5t-145.5 403.5zM424 643h358q-6 86 -52 134t-124 48q-166 0 -182 -182zM492 1159l102 316h373 l-242 -316h-233z" />
<glyph unicode="&#xea;" horiz-adv-x="1200" d="M61 516q0 240 154 392.5t389 152.5q250 0 390.5 -148.5t140.5 -392.5q0 -33 -5 -82h-714q8 -223 190 -223q139 0 207 160l326 -105q-137 -305 -533 -305q-254 0 -399.5 147.5t-145.5 403.5zM172 1159l231 283h406l229 -283h-290l-142 148l-139 -148h-295zM424 643h358 q-6 86 -52 134t-124 48q-166 0 -182 -182z" />
<glyph unicode="&#xeb;" horiz-adv-x="1200" d="M61 516q0 240 154 392.5t389 152.5q250 0 390.5 -148.5t140.5 -392.5q0 -33 -5 -82h-714q8 -223 190 -223q139 0 207 160l326 -105q-137 -305 -533 -305q-254 0 -399.5 147.5t-145.5 403.5zM209 1171v271h317v-271h-317zM424 643h358q-6 86 -52 134t-124 48 q-166 0 -182 -182zM686 1171v271h318v-271h-318z" />
<glyph unicode="&#xec;" horiz-adv-x="598" d="M-57 1475h372l103 -316h-236zM119 0v1026h360v-1026h-360z" />
<glyph unicode="&#xed;" horiz-adv-x="598" d="M119 0v1026h360v-1026h-360zM184 1159l103 316h372l-241 -316h-234z" />
<glyph unicode="&#xee;" horiz-adv-x="598" d="M-135 1159l231 283h406l229 -283h-291l-141 148l-139 -148h-295zM119 0v1026h360v-1026h-360z" />
<glyph unicode="&#xef;" horiz-adv-x="598" d="M-98 1171v271h317v-271h-317zM119 0v1026h360v-1026h-360zM379 1171v271h317v-271h-317z" />
<glyph unicode="&#xf0;" horiz-adv-x="1294" d="M61 475q0 215 132.5 339t302.5 124q137 0 229 -66.5t123 -181.5h113q-12 242 -166 383l-162 -102l-109 170l68 43q-57 14 -125 14q-162 0 -317 -72v283q139 59 360 59q199 0 364 -102l191 123l113 -172l-142 -90q189 -217 189 -541q4 -307 -159 -515t-460 -206 q-238 0 -391.5 137.5t-153.5 372.5zM410 469q0 -104 61 -168.5t151.5 -64.5t151 64.5t60.5 168.5q0 102 -56.5 164.5t-154.5 62.5q-90 0 -151.5 -65.5t-61.5 -161.5z" />
<glyph unicode="&#xf1;" horiz-adv-x="1253" d="M119 0v1026h325q-2 -100 -94 -235h142q39 127 117.5 198.5t193.5 71.5q160 0 251 -100.5t91 -278.5v-682h-361v621q0 162 -139 161q-100 0 -133 -75q-33 -72 -33 -179v-528h-360zM188 1159q-4 141 69 221t204 80q86 0 182 -53l49 -31q61 -35 101 -35q72 0 75 101h224 q8 -303 -265 -303q-92 0 -186 55l-49 29q-66 37 -98 37q-72 0 -76 -101h-230z" />
<glyph unicode="&#xf2;" horiz-adv-x="1261" d="M59 512q0 248 158 398.5t412 150.5t412.5 -150.5t158.5 -398.5t-157.5 -397.5t-413.5 -149.5q-252 0 -411 153.5t-159 393.5zM274 1475h373l103 -316h-236zM436 512q0 -289 195 -289q192 0 192 289q0 143 -50 217t-142 74q-195 0 -195 -291z" />
<glyph unicode="&#xf3;" horiz-adv-x="1261" d="M59 512q0 248 158 398.5t412 150.5t412.5 -150.5t158.5 -398.5t-157.5 -397.5t-413.5 -149.5q-252 0 -411 153.5t-159 393.5zM436 512q0 -289 195 -289q192 0 192 289q0 143 -50 217t-142 74q-195 0 -195 -291zM516 1159l102 316h373l-241 -316h-234z" />
<glyph unicode="&#xf4;" horiz-adv-x="1261" d="M59 512q0 248 158 398.5t412 150.5t412.5 -150.5t158.5 -398.5t-157.5 -397.5t-413.5 -149.5q-252 0 -411 153.5t-159 393.5zM197 1159l231 283h406l229 -283h-291l-141 148l-139 -148h-295zM436 512q0 -289 195 -289q192 0 192 289q0 143 -50 217t-142 74 q-195 0 -195 -291z" />
<glyph unicode="&#xf5;" horiz-adv-x="1261" d="M59 512q0 248 158 398.5t412 150.5t412.5 -150.5t158.5 -398.5t-157.5 -397.5t-413.5 -149.5q-252 0 -411 153.5t-159 393.5zM178 1159q-4 141 68.5 221t204.5 80q86 0 182 -53l49 -31q61 -35 100 -35q72 0 76 101h223q8 -303 -264 -303q-92 0 -186 55l-49 29 q-66 37 -99 37q-72 0 -75 -101h-230zM436 512q0 -289 195 -289q192 0 192 289q0 143 -50 217t-142 74q-195 0 -195 -291z" />
<glyph unicode="&#xf6;" horiz-adv-x="1261" d="M59 512q0 248 158 398.5t412 150.5t412.5 -150.5t158.5 -398.5t-157.5 -397.5t-413.5 -149.5q-252 0 -411 153.5t-159 393.5zM233 1171v271h318v-271h-318zM436 512q0 -289 195 -289q192 0 192 289q0 143 -50 217t-142 74q-195 0 -195 -291zM711 1171v271h317v-271h-317z " />
<glyph unicode="&#xf7;" horiz-adv-x="1236" d="M74 590v266h1089v-266h-1089zM444 166v303h351v-303h-351zM444 979v301h351v-301h-351z" />
<glyph unicode="&#xf8;" horiz-adv-x="1267" d="M63 512q0 248 158 398.5t412 150.5q182 0 313 -78l109 109l149 -142l-102 -102q102 -139 102 -336q0 -248 -157.5 -397.5t-413.5 -149.5q-183 0 -316 80l-102 -102l-147 143l96 98q-100 137 -101 328zM440 545q1 -53 9 -84l108 127q84 96 184 96q10 0 47 -4v115 q-57 25 -137 24q-98 0 -154.5 -72.5t-56.5 -201.5zM489 227q45 -27 115 -26q111 0 169 70.5t58 203.5q0 55 -12 98l-110 -127q-92 -106 -187 -106q-20 0 -33 2v-115z" />
<glyph unicode="&#xf9;" horiz-adv-x="1243" d="M109 338v688h360v-618q0 -80 35 -122t98 -42q80 0 123 65.5t43 175.5v541h356v-1026h-327q0 94 86 229h-138q-90 -262 -321 -262q-145 0 -230 97.5t-85 273.5zM262 1475h373l102 -316h-235z" />
<glyph unicode="&#xfa;" horiz-adv-x="1243" d="M109 338v688h360v-618q0 -80 35 -122t98 -42q80 0 123 65.5t43 175.5v541h356v-1026h-327q0 94 86 229h-138q-90 -262 -321 -262q-145 0 -230 97.5t-85 273.5zM504 1159l102 316h373l-242 -316h-233z" />
<glyph unicode="&#xfb;" horiz-adv-x="1243" d="M109 338v688h360v-618q0 -80 35 -122t98 -42q80 0 123 65.5t43 175.5v541h356v-1026h-327q0 94 86 229h-138q-90 -262 -321 -262q-145 0 -230 97.5t-85 273.5zM184 1159l232 283h405l230 -283h-291l-142 148l-139 -148h-295z" />
<glyph unicode="&#xfc;" horiz-adv-x="1243" d="M109 338v688h360v-618q0 -80 35 -122t98 -42q80 0 123 65.5t43 175.5v541h356v-1026h-327q0 94 86 229h-138q-90 -262 -321 -262q-145 0 -230 97.5t-85 273.5zM221 1171v271h318v-271h-318zM698 1171v271h318v-271h-318z" />
<glyph unicode="&#xfd;" horiz-adv-x="1189" d="M-25 1026h385l138 -321q66 -150 65 -404v-43h121v61q0 256 45 404l98 303h353l-408 -1137q-57 -156 -140 -222t-239 -66h-319v270h280q49 0 74 21.5t43 80.5l16 45zM473 1159l102 316h373l-241 -316h-234z" />
<glyph unicode="&#xfe;" horiz-adv-x="1302" d="M119 -399v1833h354v-230q0 -135 -25.5 -218t-78.5 -167h139q88 242 328 242q178 0 290.5 -151.5t112.5 -395.5t-112.5 -395.5t-290.5 -151.5q-236 0 -324 242h-141q102 -158 102 -387v-221h-354zM463 514q0 -145 53 -221t150 -76q200 0 200 297t-200 297 q-96 0 -149.5 -76t-53.5 -221z" />
<glyph unicode="&#xff;" horiz-adv-x="1189" d="M-25 1026h385l138 -321q66 -150 65 -404v-43h121v61q0 256 45 404l98 303h353l-408 -1137q-57 -156 -140 -222t-239 -66h-319v270h280q49 0 74 21.5t43 80.5l16 45zM190 1171v271h318v-271h-318zM668 1171v271h317v-271h-317z" />
<glyph unicode="&#x152;" horiz-adv-x="2412" d="M76 715q-4 317 181 537.5t443 213.5q195 0 309.5 -94t159.5 -217h125q-55 139 -55 279h1085v-308h-727v-243h557v-287h-557v-291h727v-305h-1085q0 141 55 276h-125q-45 -123 -159.5 -217t-304.5 -94q-264 -4 -448.5 213.5t-180.5 536.5zM483 711q0 -209 97.5 -323 t275.5 -114q182 0 278.5 114t96.5 323q0 207 -98.5 327.5t-276.5 120.5t-275.5 -120.5t-97.5 -327.5z" />
<glyph unicode="&#x153;" horiz-adv-x="1961" d="M61 512q0 244 138.5 396.5t351.5 152.5q293 0 407 -256h107q33 102 123 179t233 77q215 0 346 -149.5t131 -383.5q0 -41 -6 -86h-714q4 -113 54 -170t136 -57q139 0 207 160l326 -105q-137 -305 -478 -305q-156 0 -252 70.5t-129 181.5h-104q-115 -252 -395 -252 q-205 0 -343.5 152.5t-138.5 394.5zM436 512q0 -289 194.5 -289t194.5 289q0 291 -194.5 291t-194.5 -291zM1186 641h358q-4 88 -50 136t-126 48q-159 0 -182 -184z" />
<glyph unicode="&#x178;" horiz-adv-x="1427" d="M4 1434h428l127 -226q66 -119 83 -214t17 -261h127q0 152 22.5 261.5t84.5 226.5l113 213h413l-510 -875v-559h-389v559zM276 1565v270h349v-270h-349zM801 1565v270h350v-270h-350z" />
<glyph unicode="&#x2c6;" horiz-adv-x="1478" d="M162 1159l231 283h406l229 -283h-291l-141 148l-139 -148h-295z" />
<glyph unicode="&#x2dc;" horiz-adv-x="1079" d="M63 1159q-4 141 69 221t204 80q86 0 182 -53l49 -31q61 -35 101 -35q72 0 75 101h224q8 -303 -265 -303q-92 0 -186 55l-49 29q-66 37 -98 37q-72 0 -76 -101h-230z" />
<glyph unicode="&#x2000;" horiz-adv-x="1040" />
<glyph unicode="&#x2001;" horiz-adv-x="2081" />
<glyph unicode="&#x2002;" horiz-adv-x="1040" />
<glyph unicode="&#x2003;" horiz-adv-x="2081" />
<glyph unicode="&#x2004;" horiz-adv-x="693" />
<glyph unicode="&#x2005;" horiz-adv-x="520" />
<glyph unicode="&#x2006;" horiz-adv-x="346" />
<glyph unicode="&#x2007;" horiz-adv-x="346" />
<glyph unicode="&#x2008;" horiz-adv-x="260" />
<glyph unicode="&#x2009;" horiz-adv-x="416" />
<glyph unicode="&#x200a;" horiz-adv-x="115" />
<glyph unicode="&#x2010;" horiz-adv-x="1005" d="M109 502v301h788v-301h-788z" />
<glyph unicode="&#x2011;" horiz-adv-x="1005" d="M109 502v301h788v-301h-788z" />
<glyph unicode="&#x2012;" horiz-adv-x="1005" d="M109 502v301h788v-301h-788z" />
<glyph unicode="&#x2013;" horiz-adv-x="1353" d="M109 520v273h1136v-273h-1136z" />
<glyph unicode="&#x2014;" horiz-adv-x="1841" d="M111 524v269h1620v-269h-1620z" />
<glyph unicode="&#x2018;" horiz-adv-x="569" d="M90 750v344l209 342h170l-211 -342h209v-344h-377z" />
<glyph unicode="&#x2019;" horiz-adv-x="555" d="M106 748l211 342h-208v344h374v-344l-207 -342h-170z" />
<glyph unicode="&#x201a;" horiz-adv-x="591" d="M106 -342l211 342h-208v344h374v-344l-207 -342h-170z" />
<glyph unicode="&#x201c;" horiz-adv-x="1052" d="M90 752v344l209 340h170l-211 -340h209v-344h-377zM573 752v344l209 340h170l-211 -340h207v-344h-375z" />
<glyph unicode="&#x201d;" horiz-adv-x="1036" d="M106 748l211 342h-208v344h374v-344l-207 -342h-170zM590 748l211 342h-209v344h375v-344l-207 -342h-170z" />
<glyph unicode="&#x201e;" horiz-adv-x="1075" d="M106 -342l211 342h-208v344h374v-344l-207 -342h-170zM590 -342l211 342h-209v344h375v-344l-207 -342h-170z" />
<glyph unicode="&#x2022;" horiz-adv-x="1157" d="M121 711q-4 182 134 320t323 134q188 0 322 -134t134 -320q0 -184 -134 -319.5t-322 -135.5q-182 -4 -321.5 135.5t-135.5 319.5z" />
<glyph unicode="&#x2026;" horiz-adv-x="1789" d="M106 0v362h396v-362h-396zM698 0v362h396v-362h-396zM1288 0v362h395v-362h-395z" />
<glyph unicode="&#x202f;" horiz-adv-x="416" />
<glyph unicode="&#x2039;" horiz-adv-x="761" d="M57 518l299 496h355l-310 -502l301 -494h-350z" />
<glyph unicode="&#x203a;" horiz-adv-x="759" d="M49 18l309 500l-301 496h353l295 -500l-299 -496h-357z" />
<glyph unicode="&#x205f;" horiz-adv-x="520" />
<glyph unicode="&#x20ac;" horiz-adv-x="1492" d="M68 446v197h118q-2 23 -2 64q0 39 2 61h-118v199h145q59 236 220 368.5t388 132.5q233 0 391 -116.5t213 -341.5l-346 -107q-23 133 -100.5 206t-196.5 73q-96 0 -178 -64.5t-133 -175.5l92 -65q68 90 168 90h107v-199h-293q-2 -23 -2 -61q0 -41 2 -64h293v-197h-107 q-100 0 -168 91l-92 -68q109 -221 320 -221q223 0 292 293l347 -121q-135 -455 -609 -455q-227 0 -386 126t-220 355h-147z" />
<glyph unicode="&#x2122;" horiz-adv-x="1992" d="M59 1253v181h695v-181h-238v-596h-221v596h-236zM850 657v777h352l76 -265q39 -147 43 -370h74q4 223 43 375l71 260h344v-777h-213v209q0 117 74 346l23 72l-82 29l-6 -23l-187 -633h-217l-188 633l-6 21l-82 -31q2 -6 4 -13t4 -12l2 -4q86 -254 86 -387v-207h-215z" />
<glyph unicode="&#x25fc;" horiz-adv-x="1024" d="M0 0v1024h1024v-1024h-1024z" />
<glyph unicode="&#xfb03;" horiz-adv-x="2179" d="M33 776v250h190v121q0 143 75 221t216 78h342v-258h-201q-80 0 -80 -80v-82h388v121q0 143 74.5 221t215.5 78h342v-258h-200q-80 0 -80 -80v-82h749v-1026h-360v776h-389v-776h-352v776h-388v-776h-352v776h-190zM1696 1153v303h375v-303h-375z" />
<glyph unicode="&#xfb04;" horiz-adv-x="2191" d="M33 776v250h190v121q0 143 75 221t216 78h342v-258h-201q-80 0 -80 -80v-82h388v121q0 143 74.5 221t215.5 78h820v-12h2v-1434h-359v1188h-321q-80 0 -80 -80v-82h235v-250h-235v-776h-352v776h-388v-776h-352v776h-190z" />
</font>
</defs>
</svg>
