<?xml version="1.0" standalone="no"?>
<!DOCTYPE svg PUBLIC "-//W3C//DTD SVG 1.1//EN" "http://www.w3.org/Graphics/SVG/1.1/DTD/svg11.dtd" >
<svg xmlns="http://www.w3.org/2000/svg" xmlns:xlink="http://www.w3.org/1999/xlink" version="1.1">
<metadata>
Created by FontForge 20190801 at Tue Mar 28 13:39:13 2006
 By www-data
Copyright (c) 2005 by Boutros International. All rights reserved.
</metadata>
<defs>
<font id="GEDinarOneRegular" horiz-adv-x="0" >
  <font-face 
    font-family="GEDinarOneRegular"
    font-weight="400"
    font-stretch="normal"
    units-per-em="1000"
    panose-1="2 10 5 3 2 1 2 2 2 4"
    ascent="800"
    descent="-200"
    bbox="-114 -407 1259 1159.26"
    underline-thickness="50"
    underline-position="-100"
    unicode-range="U+0020-FEFF"
  />
<missing-glyph horiz-adv-x="500" 
d="M438 0h-375v750h375v-750zM125 688v-625h250v625h-250z" />
    <glyph glyph-name="alefmaddaabovearabic" unicode="&#x627;&#x653;" horiz-adv-x="176" 
d="M139 0v645l-69 -20v-625h69zM250 737q-44 -44 -82 -44q-26 0 -61 20q-32 18 -48 18q-22 0 -50 -28l-32 31q44 44 82 44q25 0 61 -21q28 -17 48 -17q22 0 50 28z" />
    <glyph glyph-name="alefhamzaabovearabic" unicode="&#x627;&#x654;" horiz-adv-x="176" 
d="M139 645v-645h-69v625zM184 721v-34h-189l33 34h25v11q-1 33 19 56t54 23q32 0 52 -25l-25 -27q-10 17 -31 17q-15 0 -24 -11t-9 -27v-17h95z" />
    <glyph glyph-name="wawhamzaabovearabic" unicode="&#x648;&#x654;" horiz-adv-x="443" 
d="M337 221q0 160 -109 160q-110 0 -110 -160q0 -158 110 -158q109 0 109 158zM405 232v-188q0 -113 -49.5 -175t-151.5 -62q-51 0 -96 22l-36 77q68 -36 132 -36t97 44.5t31 119.5q-46 -34 -104 -34q-84 0 -131 56t-47 165q0 110 46.5 167t131.5 57q86 0 133.5 -59.5
t43.5 -153.5zM350 553v-45h-291l43 45h43v24q-1 53 30.5 88.5t83.5 35.5q43 0 78 -35l-34 -35q-26 26 -50 26q-26 0 -43 -20.5t-17 -49.5v-34h157z" />
    <glyph glyph-name="alefhamzabelowarabic" unicode="&#x627;&#x655;" horiz-adv-x="176" 
d="M139 645v-645h-69v625zM170 -159v-34h-189l33 34h25v11q-1 33 19 56t54 23q32 0 52 -25l-25 -27q-10 17 -31 17q-15 0 -24 -11t-9 -27v-17h95z" />
    <glyph glyph-name="yehhamzaabovearabic" unicode="&#x64a;&#x654;" horiz-adv-x="604" 
d="M567 388l-24 -84q-16 40 -45.5 62.5t-65.5 22.5q-108 0 -108 -117v-60q39 0 120.5 0.5t118.5 0.5l1 -216q-6 -190 -250 -190q-138 0 -195.5 75.5t-68.5 226.5l67 22q0 -136 47 -198t155 -58q85 0 130.5 33t45.5 94v146h-240v132q0 80 45.5 126.5t125.5 46.5q82 0 141 -65
zM189 245v-45h-291l43 45h43v24q-1 53 30.5 88.5t83.5 35.5q43 0 78 -35l-34 -35q-26 26 -50 26q-26 0 -43 -20.5t-17 -49.5v-34h157z" />
    <glyph glyph-name="shaddadammatanarabic" unicode="&#x64c;&#x651;" arabic-form="isolated" 
d="M122 989l10 5q11 -39 11 -60q0 -31 -18.5 -46.5t-50.5 -4.5q-3 -13 -14 -28t-25 -16q-34 -2 -42 26q-6 20 0 69l11 5q3 -49 24 -49q6 0 11 5t8 11t5.5 16t3.5 16.5t2 15.5t1 10l11 6q7 -39 26 -40q26 -2 26 59zM67 1120q0 -14 22 -31q5 17 0.5 29t-16.5 11q-6 0 -6 -9z
M126 1051l3 -38q-3 0 -8 3.5t-14 10t-16 10.5q-39 -47 -114 -62q21 35 25 54q2 14 -4 23t-17 0q-8 -8 -20 -30l-5 1q3 39 4 44q5 28 27 31.5t30 -25.5q3 -9 3 -54q12 3 50 39q-20 16 -30 35q-16 39 18 58q28 16 50 1q24 -16 9 -56q-6 -14 -6 -23q0 -13 15 -22z" />
    <glyph glyph-name="shaddakasratanarabic" unicode="&#x64d;&#x651;" arabic-form="isolated" 
d="M192 989l10 5q11 -39 11 -60q0 -31 -18.5 -46.5t-50.5 -4.5q-3 -13 -14 -28t-25 -16q-34 -2 -42 26q-6 20 0 69l11 5q3 -49 24 -49q6 0 11 5t8 11t5.5 16t3.5 16.5t2 15.5t1 10l11 6q7 -39 26 -40q26 -2 26 59zM91 733l124 63q0 -36 -31 -51q-29 -15 -125 -56q3 32 32 44
zM97 795l123 63q0 -36 -31 -51q-29 -15 -125 -56q4 32 33 44z" />
    <glyph glyph-name="shaddafathaarabic" unicode="&#x64e;&#x651;" arabic-form="isolated" 
d="M122 989l10 5q11 -39 11 -60q0 -31 -18.5 -46.5t-50.5 -4.5q-3 -13 -14 -28t-25 -16q-34 -2 -42 26q-6 20 0 69l11 5q3 -49 24 -49q6 0 11 5t8 11t5.5 16t3.5 16.5t2 15.5t1 10l11 6q7 -39 26 -40q26 -2 26 59zM10 1011l123 63q0 -35 -30 -51q-23 -11 -126 -56
q4 32 33 44z" />
    <glyph glyph-name="shaddadammaarabicX" unicode="&#x64f;&#x651;" arabic-form="isolated" 
d="M122 989l10 5q11 -39 11 -60q0 -31 -18.5 -46.5t-50.5 -4.5q-3 -13 -14 -28t-25 -16q-34 -2 -42 26q-6 20 0 69l11 5q3 -49 24 -49q6 0 11 5t8 11t5.5 16t3.5 16.5t2 15.5t1 10l11 6q7 -39 26 -40q26 -2 26 59zM95 1095q-4 14 -15 12t-12 -14q3 -10 25 -21q2 17 2 23z
M131 1050v-35l-35 22q-31 -36 -48 -48q-32 -21 -79 -18q67 39 101 77q-14 10 -15 11q-12 9 -14 25q2 20 17.5 34t37.5 14q20 0 30 -16t2 -34q-9 -20 -9 -22q0 -6 12 -10z" />
    <glyph glyph-name="shaddakasraarabic" unicode="&#x650;&#x651;" arabic-form="isolated" 
d="M117 1060l10 5q11 -39 11 -60q0 -31 -18.5 -46.5t-50.5 -4.5q-3 -13 -14 -28t-25 -16q-34 -2 -42 26q-6 20 0 69l11 5q3 -49 24 -49q6 0 11 5t8 11t5.5 16t3.5 16.5t2 15.5t1 10l11 6q7 -39 26 -40q26 -2 26 59zM25 869l123 63q0 -35 -30 -51q-23 -11 -126 -56
q4 32 33 44z" />
    <glyph glyph-name="allahisolated" unicode="&#xfedf;&#xfee0;&#xfeea;" horiz-adv-x="1027" arabic-form="isolated" 
d="M340 227v168h-110q-112 0 -112 -168q0 -163 112 -163q110 0 110 163zM819 0h-17q-44 0 -78.5 19t-52.5 50q-48 -69 -142 -69h-19q-97 0 -143 70q-41 -70 -144 -70q-83 0 -128 56.5t-45 170.5q0 222 173 226h185v-272q0 -117 109 -117h7q108 0 108 117v442l68 22v-473
q0 -108 104 -108h11q107 0 107 117v441l68 23v-472q0 -77 -47 -125t-124 -48zM654 880l10 5q11 -39 11 -60q0 -31 -18.5 -46.5t-50.5 -4.5q-3 -13 -14 -28t-25 -16q-34 -2 -42 26q-6 20 0 69l11 5q3 -49 24 -49q6 0 11 5t8 11t5.5 16t3.5 16.5t2 15.5t1 10l11 6
q7 -39 26 -40q26 -2 26 59z" />
    <glyph glyph-name="lamalefmaddaaboveisolatedarabi" unicode="&#xfedf;&#xfe82;" horiz-adv-x="514" arabic-form="isolated" 
d="M185 564v-500h-102l-33 -64h257q77 0 123.5 48t46.5 125v472l-68 -23v-441q0 -117 -107 -117h-49v523zM343 681q-44 -44 -82 -44q-26 0 -61 20q-32 18 -48 18q-22 0 -50 -28l-32 31q44 44 82 44q25 0 61 -21q28 -17 48 -17q22 0 50 28z" />
    <glyph glyph-name="lamalefmaddaabovefinalarabic" unicode="&#xfee0;&#xfe82;" horiz-adv-x="630" arabic-form="final" 
d="M343 681q-44 -44 -82 -44q-26 0 -61 20q-32 18 -48 18q-22 0 -50 -28l-32 31q44 44 82 44q25 0 61 -21q28 -17 48 -17q22 0 50 28zM444 63q45 -63 134 -63h57v64h-49q-106 0 -109 106v475l-68 -23v-441q0 -117 -107 -117h-49v523l-68 -23v-500h-102l-33 -64h257
q89 0 137 63z" />
    <glyph glyph-name="lamalefhamzaaboveisolatedarabi" unicode="&#xfedf;&#xfe84;" horiz-adv-x="514" arabic-form="isolated" 
d="M292 671v-34h-189l33 34h25v11q-1 33 19 56t54 23q32 0 52 -25l-25 -27q-10 17 -31 17q-15 0 -24 -11t-9 -27v-17h95zM185 64v500l68 23v-523h49q107 0 107 117v441l68 23v-472q0 -77 -46.5 -125t-123.5 -48h-257l33 64h102z" />
    <glyph glyph-name="lamalefhamzaabovefinalarabicX" unicode="&#xfee0;&#xfe84;" horiz-adv-x="630" arabic-form="final" 
d="M292 671v-34h-189l33 34h25v11q-1 33 19 56t54 23q32 0 52 -25l-25 -27q-10 17 -31 17q-15 0 -24 -11t-9 -27v-17h95zM444 63q-48 -63 -137 -63h-257l33 64h102v500l68 23v-523h49q107 0 107 117v441l68 23v-475q3 -106 109 -106h49v-64h-57q-89 0 -134 63z" />
    <glyph glyph-name="lamalefhamzabelowisolatedarabi" unicode="&#xfedf;&#xfe88;" horiz-adv-x="514" arabic-form="isolated" 
d="M185 64v500l68 23v-523h49q107 0 107 117v441l68 23v-472q0 -77 -46.5 -125t-123.5 -48h-257l33 64h102zM275 -158v-34h-189l33 34h25v11q-1 33 19 56t54 23q32 0 52 -25l-25 -27q-10 17 -31 17q-15 0 -24 -11t-9 -27v-17h95z" />
    <glyph glyph-name="lamalefhamzabelowfinalarabicX" unicode="&#xfee0;&#xfe88;" horiz-adv-x="630" arabic-form="final" 
d="M444 63q-48 -63 -137 -63h-257l33 64h102v500l68 23v-523h49q107 0 107 117v441l68 23v-475q3 -106 109 -106h49v-64h-57q-89 0 -134 63zM275 -158v-34h-189l33 34h25v11q-1 33 19 56t54 23q32 0 52 -25l-25 -27q-10 17 -31 17q-15 0 -24 -11t-9 -27v-17h95z" />
    <glyph glyph-name="lamalefisolatedarabic" unicode="&#xfedf;&#xfe8e;" horiz-adv-x="514" arabic-form="isolated" 
d="M185 64v500l68 23v-523h49q107 0 107 117v441l68 23v-472q0 -77 -46.5 -125t-123.5 -48h-257l33 64h102z" />
    <glyph glyph-name="lamaleffinalarabic" unicode="&#xfee0;&#xfe8e;" horiz-adv-x="630" arabic-form="final" 
d="M444 63q-48 -63 -137 -63h-257l33 64h102v500l68 23v-523h49q107 0 107 117v441l68 23v-475q3 -106 109 -106h49v-64h-57q-89 0 -134 63z" />
    <glyph glyph-name="hamzaarabic" unicode="&#x621;" horiz-adv-x="548" arabic-form="isolated" 
d="M511 64v-64h-461l61 64h75v43q-2 86 48 143t134 57q68 0 120 -53l-49 -50q-38 40 -81 40q-47 0 -75.5 -34.5t-28.5 -85.5v-60h257z" />
    <glyph glyph-name="alefarabic" unicode="&#x627;" horiz-adv-x="176" arabic-form="isolated" 
d="M139 645v-645h-69v625z" />
    <glyph glyph-name="beharabic" unicode="&#x628;" horiz-adv-x="766" arabic-form="isolated" 
d="M729 453v-280q0 -79 -47.5 -126t-123.5 -47h-345q-74 0 -118.5 47t-44.5 126v131l68 85v-208q0 -117 109 -117h327q107 0 107 117v250zM430 -171q0 -44 -42 -44t-42 44q0 41 42 41t42 -41z" />
    <glyph glyph-name="tehmarbutaarabic" unicode="&#x629;" horiz-adv-x="459" arabic-form="isolated" 
d="M236 64q118 0 118 170q0 169 -118 169t-118 -169q0 -170 118 -170zM236 466q95 0 140.5 -65.5t45.5 -166.5q0 -103 -45.5 -168.5t-140.5 -65.5t-140.5 65.5t-45.5 168.5q0 101 45.5 166.5t140.5 65.5zM344 638q0 -42 -43 -42q-41 0 -41 42t41 42q43 0 43 -42zM210 638
q0 -42 -41 -42q-43 0 -43 42t43 42q41 0 41 -42z" />
    <glyph glyph-name="teharabic" unicode="&#x62a;" horiz-adv-x="766" arabic-form="isolated" 
d="M502 421q0 -42 -43 -42q-41 0 -41 42t41 42q43 0 43 -42zM368 421q0 -42 -41 -42q-43 0 -43 42t43 42q41 0 41 -42zM729 453v-280q0 -79 -47.5 -126t-123.5 -47h-345q-74 0 -118.5 47t-44.5 126v131l68 85v-208q0 -117 109 -117h327q107 0 107 117v250z" />
    <glyph glyph-name="theharabic" unicode="&#x62b;" horiz-adv-x="766" arabic-form="isolated" 
d="M502 421q0 -42 -43 -42q-41 0 -41 42t41 42q43 0 43 -42zM368 421q0 -42 -41 -42q-43 0 -43 42t43 42q41 0 41 -42zM729 453v-280q0 -79 -47.5 -126t-123.5 -47h-345q-74 0 -118.5 47t-44.5 126v131l68 85v-208q0 -117 109 -117h327q107 0 107 117v250zM431 530
q0 -39 -40 -39q-38 0 -38 39t38 39q40 0 40 -39z" />
    <glyph glyph-name="jeemarabic" unicode="&#x62c;" horiz-adv-x="539" arabic-form="isolated" 
d="M502 231h-207q-77 2 -125 -52.5t-48 -132.5q0 -74 50 -125t124 -51q89 0 149 51v-71q-72 -43 -149 -43q-101 0 -173.5 69.5t-72.5 169.5q0 107 69 179t176 70h120q-17 44 -55.5 70t-87.5 26q-72 0 -148 -72l-48 48q96 89 196 89q98 0 158.5 -60.5t71.5 -164.5zM348 52
q0 -42 -43 -42q-41 0 -41 42t41 42q43 0 43 -42z" />
    <glyph glyph-name="haharabic" unicode="&#x62d;" horiz-adv-x="539" arabic-form="isolated" 
d="M502 231h-207q-77 2 -125 -52.5t-48 -132.5q0 -74 50 -125t124 -51q89 0 149 51v-71q-72 -43 -149 -43q-101 0 -173.5 69.5t-72.5 169.5q0 107 69 179t176 70h120q-17 44 -55.5 70t-87.5 26q-72 0 -148 -72l-48 48q96 89 196 89q98 0 158.5 -60.5t71.5 -164.5z" />
    <glyph glyph-name="khaharabic" unicode="&#x62e;" horiz-adv-x="539" arabic-form="isolated" 
d="M502 231h-207q-77 2 -125 -52.5t-48 -132.5q0 -74 50 -125t124 -51q89 0 149 51v-71q-72 -43 -149 -43q-101 0 -173.5 69.5t-72.5 169.5q0 107 69 179t176 70h120q-17 44 -55.5 70t-87.5 26q-72 0 -148 -72l-48 48q96 89 196 89q98 0 158.5 -60.5t71.5 -164.5zM334 624
q0 -42 -43 -42q-41 0 -41 42t41 42q43 0 43 -42z" />
    <glyph glyph-name="dalarabic" unicode="&#x62f;" horiz-adv-x="451" arabic-form="isolated" 
d="M414 257v-257h-364l43 64h252v186q0 57 -29.5 87t-78.5 30q-78 0 -134 -83v83q53 61 134 64q79 3 128 -45t49 -129z" />
    <glyph glyph-name="thalarabic" unicode="&#x630;" horiz-adv-x="451" arabic-form="isolated" 
d="M414 257v-257h-364l43 64h252v186q0 57 -29.5 87t-78.5 30q-78 0 -134 -83v83q53 61 134 64q79 3 128 -45t49 -129zM289 602q0 -42 -43 -42q-41 0 -41 42t41 42q43 0 43 -42z" />
    <glyph glyph-name="reharabic" unicode="&#x631;" horiz-adv-x="345" arabic-form="isolated" 
d="M307 452v-412q2 -104 -45.5 -168t-145.5 -65q-58 0 -103 22l-32 73q56 -34 128 -34q63 0 96.5 45.5t33.5 113.5v403z" />
    <glyph glyph-name="zainarabic" unicode="&#x632;" horiz-adv-x="355" arabic-form="isolated" 
d="M307 452v-412q2 -104 -45.5 -168t-145.5 -65q-58 0 -103 22l-32 73q56 -34 128 -34q63 0 96.5 45.5t33.5 113.5v403zM318 611q0 -42 -43 -42q-41 0 -41 42t41 42q43 0 43 -42z" />
    <glyph glyph-name="seenarabic" unicode="&#x633;" horiz-adv-x="1169" arabic-form="isolated" 
d="M1132 454v-281q0 -80 -45 -126.5t-125 -46.5h-396q-7 -187 -248 -187q-66 0 -114.5 19t-78 50.5t-46.5 80.5t-22.5 100.5t-5.5 119.5l70 22l-2 -83q0 -126 47 -183.5t154 -57.5q82 0 130 31.5t48 111.5v315l68 23v-298h211v320l69 23v-343h110q108 0 108 117v250z" />
    <glyph glyph-name="sheenarabic" unicode="&#x634;" horiz-adv-x="1169" arabic-form="isolated" 
d="M920 613q0 -42 -43 -42q-41 0 -41 42t41 42q43 0 43 -42zM786 613q0 -42 -41 -42q-43 0 -43 42t43 42q41 0 41 -42zM849 722q0 -39 -40 -39q-38 0 -38 39t38 39q40 0 40 -39zM1132 454v-281q0 -80 -45 -126.5t-125 -46.5h-396q-7 -187 -248 -187q-66 0 -114.5 19
t-78 50.5t-46.5 80.5t-22.5 100.5t-5.5 119.5l70 22l-2 -83q0 -126 47 -183.5t154 -57.5q82 0 130 31.5t48 111.5v315l68 23v-298h211v320l69 23v-343h110q108 0 108 117v250z" />
    <glyph glyph-name="sadarabic" unicode="&#x635;" horiz-adv-x="1141" arabic-form="isolated" 
d="M566 64h466q6 32 6 67q1 122 -44 188t-137 67q-96 2 -188.5 -98t-102.5 -224zM576 232q51 99 136 156t169 51q102 -7 163 -85t59 -214q-2 -76 -14 -140h-523q-7 -187 -248 -187q-66 0 -114.5 19t-78 50.5t-46.5 80.5t-22.5 100.5t-5.5 119.5l70 22l-2 -83
q0 -126 47 -183.5t154 -57.5q82 0 130 31.5t48 111.5v326l68 22v-165z" />
    <glyph glyph-name="dadarabic" unicode="&#x636;" horiz-adv-x="1141" arabic-form="isolated" 
d="M566 64h466q6 32 6 67q1 122 -44 188t-137 67q-96 2 -188.5 -98t-102.5 -224zM869 602q0 -42 -43 -42q-41 0 -41 42t41 42q43 0 43 -42zM576 232q51 99 136 156t169 51q102 -7 163 -85t59 -214q-2 -76 -14 -140h-523q-7 -187 -248 -187q-66 0 -114.5 19t-78 50.5
t-46.5 80.5t-22.5 100.5t-5.5 119.5l70 22l-2 -83q0 -126 47 -183.5t154 -57.5q82 0 130 31.5t48 111.5v326l68 22v-165z" />
    <glyph glyph-name="taharabic" unicode="&#x637;" horiz-adv-x="792" arabic-form="isolated" 
d="M217 64h466q6 32 6 67q1 122 -44 188t-137 67q-96 2 -188.5 -98t-102.5 -224zM740 0h-690l30 64h79v538l68 24v-394q51 101 135.5 157t169.5 50q102 -7 163 -85t59 -214q-2 -76 -14 -140z" />
    <glyph glyph-name="zaharabic" unicode="&#x638;" horiz-adv-x="792" arabic-form="isolated" 
d="M217 64h466q6 32 6 67q1 122 -44 188t-137 67q-96 2 -188.5 -98t-102.5 -224zM520 602q0 -42 -43 -42q-41 0 -41 42t41 42q43 0 43 -42zM740 0h-690l30 64h79v538l68 24v-394q51 101 135.5 157t169.5 50q102 -7 163 -85t59 -214q-2 -76 -14 -140z" />
    <glyph glyph-name="ainarabic" unicode="&#x639;" horiz-adv-x="518" arabic-form="isolated" 
d="M448 291l33 -63h-182q-77 2 -127 -52t-50 -130q0 -74 51 -124.5t126 -50.5q79 0 145 51v-72q-72 -43 -145 -43q-101 0 -175 69.5t-74 169.5q0 76 41.5 136.5t106.5 88.5v29q0 68 38.5 111.5t104.5 43.5q53 0 102 -45l-51 -50q-25 32 -58 32q-32 0 -50.5 -22t-18.5 -58
v-21h183z" />
    <glyph glyph-name="ghainarabic" unicode="&#x63a;" horiz-adv-x="518" arabic-form="isolated" 
d="M448 291l33 -63h-182q-77 2 -127 -52t-50 -130q0 -74 51 -124.5t126 -50.5q79 0 145 51v-72q-72 -43 -145 -43q-101 0 -175 69.5t-74 169.5q0 76 41.5 136.5t106.5 88.5v29q0 68 38.5 111.5t104.5 43.5q53 0 102 -45l-51 -50q-25 32 -58 32q-32 0 -50.5 -22t-18.5 -58
v-21h183zM379 619q0 -42 -43 -42q-41 0 -41 42t41 42q43 0 43 -42z" />
    <glyph glyph-name="feharabic" unicode="&#x641;" horiz-adv-x="806" arabic-form="isolated" 
d="M577 217h123v91q0 42 -29 68t-78 26q-53 0 -84 -25t-31 -68q0 -58 23 -75t76 -17zM632 624q0 -42 -41 -42q-43 0 -43 42t43 42q41 0 41 -42zM768 309v-155q-1 -91 -36.5 -121t-129.5 -33h-389q-74 0 -118.5 47t-44.5 126v131l68 85v-208q0 -117 109 -117h363
q63 0 86.5 15.5t23.5 59.5v18h-136q-77 0 -116 36t-39 118q0 68 52.5 111.5t131.5 43.5q77 0 126.5 -42t48.5 -115z" />
    <glyph glyph-name="qafarabic" unicode="&#x642;" horiz-adv-x="600" arabic-form="isolated" 
d="M494 221q0 160 -109 160q-110 0 -110 -160q0 -158 110 -158q109 0 109 158zM494 18v20q-42 -38 -109 -38q-84 0 -131 56t-47 165q0 110 46.5 167t131.5 57q86 0 133.5 -59.5t43.5 -153.5v-226q0 -199 -248 -199q-136 0 -195 73t-69 209l65 29v-2q0 -126 47 -183.5
t154 -57.5q82 0 130 31.5t48 111.5zM497 602q0 -42 -43 -42q-41 0 -41 42t41 42q43 0 43 -42zM363 602q0 -42 -41 -42q-43 0 -43 42t43 42q41 0 41 -42z" />
    <glyph glyph-name="kafarabic" unicode="&#x643;" horiz-adv-x="766" arabic-form="isolated" 
d="M517 343v-45h-291l43 45h43v24q-1 53 30.5 88.5t83.5 35.5q43 0 78 -35l-34 -35q-26 26 -50 26q-26 0 -43 -20.5t-17 -49.5v-34h157zM729 645v-472q0 -79 -47.5 -126t-123.5 -47h-345q-74 0 -118.5 47t-44.5 126v131l68 85v-208q0 -117 109 -117h327q107 0 107 117v442z
" />
    <glyph glyph-name="lamarabic" unicode="&#x644;" horiz-adv-x="600" arabic-form="isolated" 
d="M50 93l66 23v-12q2 -119 49.5 -174t151.5 -55q82 0 130 31.5t48 111.5v605l68 22v-639q0 -199 -248 -199q-71 0 -122 20.5t-80.5 60.5t-44 89t-18.5 116z" />
    <glyph glyph-name="meemarabic" unicode="&#x645;" horiz-adv-x="691" arabic-form="isolated" 
d="M585 233q0 155 -106 155q-107 0 -107 -155q0 -156 107 -156q106 0 106 156zM654 233q0 -221 -175 -221q-176 0 -176 221q0 96 39 152h-96q-69 0 -97.5 -27t-30.5 -118v-409l-68 -24v448q2 107 49.5 152.5t157.5 45.5h222q175 0 175 -220z" />
    <glyph glyph-name="noonarabic" unicode="&#x646;" horiz-adv-x="603" arabic-form="isolated" 
d="M566 366v-360q0 -199 -248 -199q-66 0 -114.5 19t-78 50.5t-46.5 80.5t-22.5 100.5t-5.5 119.5l70 22l-2 -83q0 -126 47 -183.5t154 -57.5q82 0 130 31.5t48 111.5v326zM344 284q0 -42 -43 -42q-41 0 -41 42t41 42q43 0 43 -42z" />
    <glyph glyph-name="heharabic" unicode="&#x647;" horiz-adv-x="459" arabic-form="isolated" 
d="M236 64q118 0 118 170q0 169 -118 169t-118 -169q0 -170 118 -170zM236 466q95 0 140.5 -65.5t45.5 -166.5q0 -103 -45.5 -168.5t-140.5 -65.5t-140.5 65.5t-45.5 168.5q0 101 45.5 166.5t140.5 65.5z" />
    <glyph glyph-name="wawarabic" unicode="&#x648;" horiz-adv-x="443" arabic-form="isolated" 
d="M337 221q0 160 -109 160q-110 0 -110 -160q0 -158 110 -158q109 0 109 158zM405 232v-188q0 -113 -49.5 -175t-151.5 -62q-51 0 -96 22l-36 77q68 -36 132 -36t97 44.5t31 119.5q-46 -34 -104 -34q-84 0 -131 56t-47 165q0 110 46.5 167t131.5 57q86 0 133.5 -59.5
t43.5 -153.5z" />
    <glyph glyph-name="alefmaksuraarabic" unicode="&#x649;" horiz-adv-x="604" arabic-form="isolated" 
d="M567 388l-24 -84q-16 40 -45.5 62.5t-65.5 22.5q-108 0 -108 -117v-60q39 0 120.5 0.5t118.5 0.5l1 -216q-6 -190 -250 -190q-138 0 -195.5 75.5t-68.5 226.5l67 22q0 -136 47 -198t155 -58q85 0 130.5 33t45.5 94v146h-240v132q0 80 45.5 126.5t125.5 46.5q82 0 141 -65
z" />
    <glyph glyph-name="yeharabic" unicode="&#x64a;" horiz-adv-x="604" arabic-form="isolated" 
d="M567 388l-24 -84q-16 40 -45.5 62.5t-65.5 22.5q-108 0 -108 -117v-60q39 0 120.5 0.5t118.5 0.5l1 -216q-6 -190 -250 -190q-138 0 -195.5 75.5t-68.5 226.5l67 22q0 -136 47 -198t155 -58q85 0 130.5 33t45.5 94v146h-240v132q0 80 45.5 126.5t125.5 46.5q82 0 141 -65
zM437 -365q0 -42 -43 -42q-41 0 -41 42t41 42q43 0 43 -42zM303 -365q0 -42 -41 -42q-43 0 -43 42t43 42q41 0 41 -42z" />
    <glyph glyph-name="fathatanarabic" unicode="&#xfe70;" arabic-form="isolated" 
d="M70 753l136 26q-12 -35 -44 -39q-37 -8 -136 -20q11 29 44 33zM55 698l136 26q-10 -35 -43 -39q-58 -10 -136 -20q12 30 43 33z" />
    <glyph glyph-name="dammatanarabic" unicode="&#xfe72;" arabic-form="isolated" 
d="M140 793q0 -14 22 -31q5 17 0.5 29t-16.5 11q-6 0 -6 -9zM199 724l3 -38q-3 0 -8 3.5t-14 10t-16 10.5q-39 -47 -114 -62q21 35 25 54q2 14 -4 23t-17 0q-8 -7 -20 -30l-5 1q3 39 4 44q5 28 27 31.5t30 -25.5q3 -9 3 -54q12 3 50 39q-20 16 -30 35q-16 39 18 58
q28 16 50 1q24 -16 9 -56q-6 -13 -6 -23q0 -13 15 -22z" />
    <glyph glyph-name="kasratanarabic" unicode="&#xfe74;" arabic-form="isolated" 
d="M-32 -362l124 63q0 -35 -31 -51q-29 -15 -125 -56q3 32 32 44zM-26 -300l123 63q0 -35 -31 -51q-29 -15 -125 -56q4 32 33 44z" />
    <glyph glyph-name="fathaarabic" unicode="&#xfe76;" arabic-form="isolated" 
d="M29 900l123 63q0 -35 -30 -51q-23 -11 -126 -56q4 32 33 44z" />
    <glyph glyph-name="dammaarabic" unicode="&#xfe78;" arabic-form="isolated" 
d="M111 954q-4 14 -15 12t-12 -14q3 -10 25 -21q2 17 2 23zM147 909v-35l-35 22q-31 -36 -48 -48q-32 -21 -79 -18q67 39 101 77q-14 9 -15 11q-12 9 -14 25q2 20 17.5 34t37.5 14q20 0 30 -16t2 -34q-9 -19 -9 -22q0 -5 12 -10z" />
    <glyph glyph-name="kasraarabic" unicode="&#xfe7a;" arabic-form="isolated" 
d="M-23 -302l123 63q0 -35 -31 -51q-29 -15 -125 -56q4 32 33 44z" />
    <glyph glyph-name="shaddaarabic" unicode="&#xfe7c;" arabic-form="isolated" 
d="M122 989l10 5q11 -39 11 -60q0 -31 -18.5 -46.5t-50.5 -4.5q-3 -13 -14 -28t-25 -16q-34 -2 -42 26q-6 20 0 69l11 5q3 -49 24 -49q6 0 11 5t8 11t5.5 16t3.5 16.5t2 15.5t1 10l11 6q7 -39 26 -40q26 -2 26 59z" />
    <glyph glyph-name="sukunarabic" unicode="&#xfe7e;" arabic-form="isolated" 
d="M74 860q21 2 26 7q-8 39 -37 57q-18 -17 -14 -41q3 -23 25 -23zM134 905q14 -35 -10.5 -59.5t-61.5 -24.5q-18 0 -39 15t-21 44q0 25 19 48.5t45 35.5q21 -2 40 -18t28 -41z" />
    <glyph glyph-name="alefwaslaisolated" unicode="&#x671;" horiz-adv-x="176" arabic-form="isolated" 
d="M139 645v-645h-69v625zM176 724v1q-7 17 -25 17q-25 0 -44 -15q38 -6 69 -3zM203 743v-2q-1 -29 -10 -41.5t-34 -12.5h-118q-13 7 -37 19q-11 -6 -23 -2q28 33 32 36q15 -7 20 -14q16 0 44 7q14 14 67 48q35 0 59 -38z" />
    <glyph glyph-name="peharabic" unicode="&#x67e;" horiz-adv-x="766" arabic-form="isolated" 
d="M729 453v-280q0 -79 -47.5 -126t-123.5 -47h-345q-74 0 -118.5 47t-44.5 126v131l68 85v-208q0 -117 109 -117h327q107 0 107 117v250zM497 -172q0 -42 -43 -42q-41 0 -41 42t41 42q43 0 43 -42zM363 -172q0 -42 -41 -42q-43 0 -43 42t43 42q41 0 41 -42zM426 -281
q0 -39 -40 -39q-38 0 -38 39t38 39q40 0 40 -39z" />
    <glyph glyph-name="tcheharabic" unicode="&#x686;" horiz-adv-x="539" arabic-form="isolated" 
d="M502 231h-207q-77 2 -125 -52.5t-48 -132.5q0 -74 50 -125t124 -51q89 0 149 51v-71q-72 -43 -149 -43q-101 0 -173.5 69.5t-72.5 169.5q0 107 69 179t176 70h120q-17 44 -55.5 70t-87.5 26q-72 0 -148 -72l-48 48q96 89 196 89q98 0 158.5 -60.5t71.5 -164.5zM416 92
q0 -42 -43 -42q-41 0 -41 42t41 42q43 0 43 -42zM282 92q0 -42 -41 -42q-43 0 -43 42t43 42q41 0 41 -42zM345 -17q0 -39 -40 -39q-38 0 -38 39t38 39q40 0 40 -39z" />
    <glyph glyph-name="jeharabic" unicode="&#x698;" horiz-adv-x="355" arabic-form="isolated" 
d="M307 452v-412q2 -104 -45.5 -168t-145.5 -65q-58 0 -103 22l-32 73q56 -34 128 -34q63 0 96.5 45.5t33.5 113.5v403zM318 611q0 -42 -43 -42q-41 0 -41 42t41 42q43 0 43 -42zM184 611q0 -42 -41 -42q-43 0 -43 42t43 42q41 0 41 -42zM247 720q0 -39 -40 -39
q-38 0 -38 39t38 39q40 0 40 -39z" />
    <glyph glyph-name="veharabic" unicode="&#x6a4;" horiz-adv-x="806" arabic-form="isolated" 
d="M577 217h123v91q0 42 -29 68t-78 26q-53 0 -84 -25t-31 -68q0 -58 23 -75t76 -17zM768 309v-155q-1 -91 -36.5 -121t-129.5 -33h-389q-74 0 -118.5 47t-44.5 126v131l68 85v-208q0 -117 109 -117h363q63 0 86.5 15.5t23.5 59.5v18h-136q-77 0 -116 36t-39 118
q0 68 52.5 111.5t131.5 43.5q77 0 126.5 -42t48.5 -115zM698 624q0 -42 -43 -42q-41 0 -41 42t41 42q43 0 43 -42zM564 624q0 -42 -41 -42q-43 0 -43 42t43 42q41 0 41 -42zM627 733q0 -39 -40 -39q-38 0 -38 39t38 39q40 0 40 -39z" />
    <glyph glyph-name="alefwaslafinal" unicode="&#x671;" horiz-adv-x="286" arabic-form="final" 
d="M139 645v1v-521q0 -61 55 -61h97v-64h-106q-115 0 -115 124v501zM176 724v1q-7 17 -25 17q-25 0 -44 -15q38 -6 69 -3zM203 743v-2q-1 -29 -10 -41.5t-34 -12.5h-118q-13 7 -37 19q-11 -6 -23 -2q28 33 32 36q15 -7 20 -14q16 0 44 7q14 14 67 48q35 0 59 -38z" />
    <glyph glyph-name="pehfinalarabic" unicode="&#x67e;" horiz-adv-x="880" arabic-form="final" 
d="M497 -172q0 -42 -43 -42q-41 0 -41 42t41 42q43 0 43 -42zM363 -172q0 -42 -41 -42q-43 0 -43 42t43 42q41 0 41 -42zM426 -281q0 -39 -40 -39q-38 0 -38 39t38 39q40 0 40 -39zM885 64v-64h-54q-44 0 -78.5 19t-52.5 50q-48 -69 -142 -69h-345q-74 0 -118.5 47
t-44.5 126v131l68 85v-208q0 -117 109 -117h326q108 0 108 117v250l68 22v-281q0 -108 104 -108h52z" />
    <glyph glyph-name="pehinitialarabic" unicode="&#x67e;" horiz-adv-x="258" arabic-form="initial" 
d="M221 -172q0 -42 -43 -42q-41 0 -41 42t41 42q43 0 43 -42zM87 -172q0 -42 -41 -42q-43 0 -43 42t43 42q41 0 41 -42zM150 -281q0 -39 -40 -39q-38 0 -38 39t38 39q40 0 40 -39zM220 453v-280q0 -77 -47 -125t-124 -48h-54v64h50q107 0 107 117v249z" />
    <glyph glyph-name="pehmedialarabic" unicode="&#x67e;" horiz-adv-x="353" arabic-form="medial" 
d="M223 -172q0 -42 -43 -42q-41 0 -41 42t41 42q43 0 43 -42zM89 -172q0 -42 -41 -42q-43 0 -43 42t43 42q41 0 41 -42zM152 -281q0 -39 -40 -39q-38 0 -38 39t38 39q40 0 40 -39zM358 64v-64h-44q-44 0 -78.5 19t-52.5 50q-48 -69 -142 -69h-46v64h41q108 0 108 117v250
l68 22v-281q0 -108 104 -108h42z" />
    <glyph glyph-name="vehfinalarabic" unicode="&#x6a4;" horiz-adv-x="852" arabic-form="final" 
d="M530 175q18 -27 48.5 -52.5t62.5 -37.5q47 18 75 67t28 104q0 65 -35 104t-98 41q-52 2 -85 -29.5t-33 -84.5q0 -57 37 -112zM857 64v-64h-134q-47 0 -82 17q-37 -17 -85 -17h-343q-74 0 -118.5 47t-44.5 126v131l68 85v-208q0 -117 109 -117h236q77 0 96 2
q-67 49 -101 112.5t-29 126.5q7 77 58.5 117.5t131.5 38.5q87 -3 138.5 -57.5t51.5 -142.5q0 -57 -23.5 -109.5t-66.5 -84.5q20 -3 61 -3h77zM716 633q0 -42 -43 -42q-41 0 -41 42t41 42q43 0 43 -42zM582 633q0 -42 -41 -42q-43 0 -43 42t43 42q41 0 41 -42zM645 742
q0 -39 -40 -39q-38 0 -38 39t38 39q40 0 40 -39z" />
    <glyph glyph-name="vehinitialarabic" unicode="&#x6a4;" horiz-adv-x="505" arabic-form="initial" 
d="M397 624q0 -42 -43 -42q-41 0 -41 42t41 42q43 0 43 -42zM263 624q0 -42 -41 -42q-43 0 -43 42t43 42q41 0 41 -42zM326 733q0 -39 -40 -39q-38 0 -38 39t38 39q40 0 40 -39zM276 217h123v91q0 42 -29 68t-78 26q-53 0 -84 -25t-31 -68q0 -58 23 -75t76 -17zM467 309
v-155q-1 -91 -36.5 -121t-129.5 -33h-306v64h294q63 0 86.5 15.5t23.5 59.5v18h-136q-77 0 -116 36t-39 118q0 68 52.5 111.5t131.5 43.5q77 0 126.5 -42t48.5 -115z" />
    <glyph glyph-name="vehmedialarabic" unicode="&#x6a4;" horiz-adv-x="469" arabic-form="medial" 
d="M338 633q0 -42 -43 -42q-41 0 -41 42t41 42q43 0 43 -42zM204 633q0 -42 -41 -42q-43 0 -43 42t43 42q41 0 41 -42zM267 742q0 -39 -40 -39q-38 0 -38 39t38 39q40 0 40 -39zM153 175q18 -27 48.5 -52.5t62.5 -37.5q47 18 75 67t28 104q0 65 -35 104t-98 41
q-52 2 -85 -29.5t-33 -84.5q0 -57 37 -112zM474 64v-64h-128q-47 0 -82 17q-37 -17 -85 -17h-184v64h91q77 0 96 2q-67 49 -101 112.5t-29 126.5q7 77 58.5 117.5t131.5 38.5q87 -3 138.5 -57.5t51.5 -142.5q0 -57 -23.5 -109.5t-66.5 -84.5q20 -3 61 -3h71z" />
    <glyph glyph-name="tchehfinalarabic" unicode="&#x686;" horiz-adv-x="687" arabic-form="final" 
d="M416 92q0 -42 -43 -42q-41 0 -41 42t41 42q43 0 43 -42zM282 92q0 -42 -41 -42q-43 0 -43 42t43 42q41 0 41 -42zM345 -17q0 -39 -40 -39q-38 0 -38 39t38 39q40 0 40 -39zM433 231h-138q-77 2 -125 -52.5t-48 -132.5q0 -74 50 -125t124 -51q89 0 149 51v-71
q-72 -43 -149 -43q-101 0 -173.5 69.5t-72.5 169.5q0 107 69 179t176 70h120q-17 44 -55.5 70t-87.5 26q-72 0 -148 -72l-48 48q96 89 196 89q95 0 153 -57t76 -162q15 -86 60 -129.5t115 -43.5h16v-64h-25q-102 0 -167 76q-52 66 -67 155z" />
    <glyph glyph-name="tchehinitialarabic" unicode="&#x686;" horiz-adv-x="546" arabic-form="initial" 
d="M398 -172q0 -42 -43 -42q-41 0 -41 42t41 42q43 0 43 -42zM264 -172q0 -42 -41 -42q-43 0 -43 42t43 42q41 0 41 -42zM327 -281q0 -39 -40 -39q-38 0 -38 39t38 39q40 0 40 -39zM509 150v-150h-514v64h442v66q-1 41 -2.5 67t-6.5 60.5t-15.5 56t-27.5 42.5t-44.5 30.5
t-63.5 9.5q-77 0 -152 -72l-44 46q96 89 196 89q59 0 102 -18t67.5 -46t39 -71t19 -83t4.5 -91z" />
    <glyph glyph-name="tchehmedialarabic" unicode="&#x686;" horiz-adv-x="647" arabic-form="medial" 
d="M396 -172q0 -42 -43 -42q-41 0 -41 42t41 42q43 0 43 -42zM262 -172q0 -42 -41 -42q-43 0 -43 42t43 42q41 0 41 -42zM325 -281q0 -39 -40 -39q-38 0 -38 39t38 39q40 0 40 -39zM652 64v-64h-657v64h442v66q-1 41 -2.5 67t-6.5 60.5t-15.5 56t-27.5 42.5t-44.5 30.5
t-63.5 9.5q-77 0 -152 -72l-44 46q96 89 196 89q59 0 102 -18t67.5 -46t39 -71t19 -83t4.5 -91v-86h143z" />
    <glyph glyph-name="jehfinalarabic" unicode="&#x698;" horiz-adv-x="438" arabic-form="final" 
d="M384 624q0 -42 -43 -42q-41 0 -41 42t41 42q43 0 43 -42zM250 624q0 -42 -41 -42q-43 0 -43 42t43 42q41 0 41 -42zM313 733q0 -39 -40 -39q-38 0 -38 39t38 39q40 0 40 -39zM307 64h136v-64h-137q-7 -87 -54.5 -139.5t-135.5 -53.5q-58 0 -103 22l-32 73q56 -34 128 -34
q63 0 96.5 45.5t33.5 113.5v403l68 22v-388z" />
    <glyph glyph-name="alefmaksurainitialarabic" unicode="&#x6cc;" horiz-adv-x="241" arabic-form="initial" 
d="M221 -172q0 -42 -43 -42q-41 0 -41 42t41 42q43 0 43 -42zM87 -172q0 -42 -41 -42q-43 0 -43 42t43 42q41 0 41 -42zM220 453v-280q0 -77 -47 -125t-124 -48h-54v64h50q107 0 107 117v249z" />
    <glyph glyph-name="alefmaksuramedialarabic" unicode="&#x6cc;" horiz-adv-x="353" arabic-form="medial" 
d="M223 -172q0 -42 -43 -42q-41 0 -41 42t41 42q43 0 43 -42zM89 -172q0 -42 -41 -42q-43 0 -43 42t43 42q41 0 41 -42zM358 64v-64h-44q-44 0 -78.5 19t-52.5 50q-48 -69 -142 -69h-46v64h41q108 0 108 117v250l68 22v-281q0 -108 104 -108h42z" />
    <glyph glyph-name="alefwithfathatanfinal" unicode="&#xfd3c;" horiz-adv-x="286" arabic-form="final" 
d="M139 645v1v-521q0 -61 55 -61h105v-64h-114q-115 0 -115 124v501zM70 753l136 26q-12 -35 -44 -39q-37 -8 -136 -20q11 29 44 33zM55 698l136 26q-10 -35 -43 -39q-58 -10 -136 -20q12 30 43 33z" />
    <glyph glyph-name="alefwithfathatanisolated" unicode="&#xfd3d;" horiz-adv-x="176" arabic-form="isolated" 
d="M139 645v-645h-69v625zM70 753l136 26q-12 -35 -44 -39q-37 -8 -136 -20q11 29 44 33zM55 698l136 26q-10 -35 -43 -39q-58 -10 -136 -20q12 30 43 33z" />
    <glyph glyph-name="alefmaddaabovefinalarabic" unicode="&#x622;" horiz-adv-x="286" arabic-form="final" 
d="M250 737q-44 -44 -82 -44q-26 0 -61 20q-32 18 -48 18q-22 0 -50 -28l-32 31q44 44 82 44q25 0 61 -21q28 -17 48 -17q22 0 50 28zM139 646v-1l-69 -20v-501q0 -124 115 -124h106v64h-97q-55 0 -55 61v521z" />
    <glyph glyph-name="alefhamzaabovefinalarabic" unicode="&#x623;" horiz-adv-x="262" arabic-form="final" 
d="M70 625l69 20v-520q0 -61 55 -61h105v-64h-114q-115 0 -115 124v501zM184 721v-34h-189l33 34h25v11q-1 33 19 56t54 23q32 0 52 -25l-25 -27q-10 17 -31 17q-15 0 -24 -11t-9 -27v-17h95z" />
    <glyph glyph-name="wawhamzaabovefinalarabic" unicode="&#x624;" horiz-adv-x="534" arabic-form="final" 
d="M337 221q0 160 -109 160q-110 0 -110 -160q0 -157 110 -157h109v157zM403 0q-18 -193 -199 -193q-51 0 -96 22l-36 77q68 -36 132 -36q56 0 88.5 34.5t38.5 95.5h-103q-84 0 -131 56t-47 165q0 110 46.5 167t131.5 57q86 0 133.5 -59.5t43.5 -153.5v-168h134v-64h-136z
M350 553v-45h-291l43 45h43v24q-1 53 30.5 88.5t83.5 35.5q43 0 78 -35l-34 -35q-26 26 -50 26q-26 0 -43 -20.5t-17 -49.5v-34h157z" />
    <glyph glyph-name="alefhamzabelowfinalarabic" unicode="&#x625;" horiz-adv-x="286" arabic-form="final" 
d="M170 -159v-34h-189l33 34h25v11q-1 33 19 56t54 23q32 0 52 -25l-25 -27q-10 17 -31 17q-15 0 -24 -11t-9 -27v-17h95zM139 645v1v-521q0 -61 55 -61h97v-64h-106q-115 0 -115 124v501z" />
    <glyph glyph-name="yehhamzaabovefinalarabic" unicode="&#x626;" horiz-adv-x="542" arabic-form="final" 
d="M292 -193q-114 0 -178 72.5t-64 189.5q0 86 39 191l74 52q-47 -122 -47 -225q0 -95 44 -153.5t132 -58.5q78 0 127.5 32t53.5 93q-96 0 -126 82l32 71q35 -89 107 -89h56v-64q0 -83 -67.5 -138t-182.5 -55zM301 421v-45h-291l43 45h43v24q-1 53 30.5 88.5t83.5 35.5
q43 0 78 -35l-34 -35q-26 26 -50 26q-26 0 -43 -20.5t-17 -49.5v-34h157z" />
    <glyph glyph-name="yehhamzaaboveinitialarabic" unicode="&#x626;" horiz-adv-x="257" arabic-form="initial" 
d="M277 636v-45h-291l43 45h43v24q-1 53 30.5 88.5t83.5 35.5q43 0 78 -35l-34 -35q-26 26 -50 26q-26 0 -43 -20.5t-17 -49.5v-34h157zM220 453v-280q0 -77 -47 -125t-124 -48h-54v64h50q107 0 107 117v249z" />
    <glyph glyph-name="yehhamzaabovemedialarabic" unicode="&#x626;" horiz-adv-x="353" arabic-form="medial" 
d="M306 636v-45h-291l43 45h43v24q-1 53 30.5 88.5t83.5 35.5q43 0 78 -35l-34 -35q-26 26 -50 26q-26 0 -43 -20.5t-17 -49.5v-34h157zM358 64v-64h-44q-44 0 -78.5 19t-52.5 50q-48 -69 -142 -69h-46v64h41q108 0 108 117v250l68 22v-281q0 -108 104 -108h42z" />
    <glyph glyph-name="aleffinalarabic" unicode="&#x627;" horiz-adv-x="286" arabic-form="final" 
d="M139 645v1v-521q0 -61 55 -61h97v-64h-106q-115 0 -115 124v501z" />
    <glyph glyph-name="behfinalarabic" unicode="&#x628;" horiz-adv-x="880" arabic-form="final" 
d="M430 -171q0 -44 -42 -44t-42 44q0 41 42 41t42 -41zM885 64v-64h-54q-44 0 -78.5 19t-52.5 50q-48 -69 -142 -69h-345q-74 0 -118.5 47t-44.5 126v131l68 85v-208q0 -117 109 -117h326q108 0 108 117v250l68 22v-281q0 -108 104 -108h52z" />
    <glyph glyph-name="behinitialarabic" unicode="&#x628;" horiz-adv-x="257" arabic-form="initial" 
d="M158 -172q0 -42 -41 -42q-43 0 -43 42t43 42q41 0 41 -42zM220 453v-280q0 -77 -47 -125t-124 -48h-54v64h50q107 0 107 117v249z" />
    <glyph glyph-name="behmedialarabic" unicode="&#x628;" horiz-adv-x="353" arabic-form="medial" 
d="M219 -171q0 -44 -42 -44t-42 44q0 41 42 41t42 -41zM358 64v-64h-44q-44 0 -78.5 19t-52.5 50q-48 -69 -142 -69h-46v64h41q108 0 108 117v250l68 22v-281q0 -108 104 -108h42z" />
    <glyph glyph-name="tehmarbutafinalarabic" unicode="&#x629;" horiz-adv-x="540" arabic-form="final" 
d="M340 227v168h-110q-112 0 -112 -168q0 -163 112 -163q110 0 110 163zM545 64v-64h-35q-97 0 -143 70q-41 -70 -144 -70q-83 0 -128 56.5t-45 170.5q0 222 173 226h185v-272q0 -117 109 -117h28zM378 624q0 -42 -43 -42q-41 0 -41 42t41 42q43 0 43 -42zM244 624
q0 -42 -41 -42q-43 0 -43 42t43 42q41 0 41 -42z" />
    <glyph glyph-name="tehfinalarabic" unicode="&#x62a;" horiz-adv-x="880" arabic-form="final" 
d="M502 421q0 -42 -43 -42q-41 0 -41 42t41 42q43 0 43 -42zM368 421q0 -42 -41 -42q-43 0 -43 42t43 42q41 0 41 -42zM885 64v-64h-54q-44 0 -78.5 19t-52.5 50q-48 -69 -142 -69h-345q-74 0 -118.5 47t-44.5 126v131l68 85v-208q0 -117 109 -117h326q108 0 108 117v250
l68 22v-281q0 -108 104 -108h52z" />
    <glyph glyph-name="tehinitialarabic" unicode="&#x62a;" horiz-adv-x="257" arabic-form="initial" 
d="M235 624q0 -42 -43 -42q-41 0 -41 42t41 42q43 0 43 -42zM101 624q0 -42 -41 -42q-43 0 -43 42t43 42q41 0 41 -42zM220 453v-280q0 -77 -47 -125t-124 -48h-54v64h50q107 0 107 117v249z" />
    <glyph glyph-name="tehmedialarabic" unicode="&#x62a;" horiz-adv-x="353" arabic-form="medial" 
d="M284 624q0 -42 -43 -42q-41 0 -41 42t41 42q43 0 43 -42zM150 624q0 -42 -41 -42q-43 0 -43 42t43 42q41 0 41 -42zM358 64v-64h-44q-44 0 -78.5 19t-52.5 50q-48 -69 -142 -69h-46v64h41q108 0 108 117v250l68 22v-281q0 -108 104 -108h42z" />
    <glyph glyph-name="thehfinalarabic" unicode="&#x62b;" horiz-adv-x="880" arabic-form="final" 
d="M885 64v-64h-54q-44 0 -78.5 19t-52.5 50q-48 -69 -142 -69h-345q-74 0 -118.5 47t-44.5 126v131l68 85v-208q0 -117 109 -117h326q108 0 108 117v250l68 22v-281q0 -108 104 -108h52zM502 421q0 -42 -43 -42q-41 0 -41 42t41 42q43 0 43 -42zM368 421q0 -42 -41 -42
q-43 0 -43 42t43 42q41 0 41 -42zM431 530q0 -39 -40 -39q-38 0 -38 39t38 39q40 0 40 -39z" />
    <glyph glyph-name="thehinitialarabic" unicode="&#x62b;" horiz-adv-x="257" arabic-form="initial" 
d="M220 453v-280q0 -77 -47 -125t-124 -48h-54v64h50q107 0 107 117v249zM235 624q0 -42 -43 -42q-41 0 -41 42t41 42q43 0 43 -42zM101 624q0 -42 -41 -42q-43 0 -43 42t43 42q41 0 41 -42zM164 733q0 -39 -40 -39q-38 0 -38 39t38 39q40 0 40 -39z" />
    <glyph glyph-name="thehmedialarabic" unicode="&#x62b;" horiz-adv-x="353" arabic-form="medial" 
d="M284 624q0 -42 -43 -42q-41 0 -41 42t41 42q43 0 43 -42zM150 624q0 -42 -41 -42q-43 0 -43 42t43 42q41 0 41 -42zM213 733q0 -39 -40 -39q-38 0 -38 39t38 39q40 0 40 -39zM358 64v-64h-44q-44 0 -78.5 19t-52.5 50q-48 -69 -142 -69h-46v64h41q108 0 108 117v250
l68 22v-281q0 -108 104 -108h42z" />
    <glyph glyph-name="jeemfinalarabic" unicode="&#x62c;" horiz-adv-x="687" arabic-form="final" 
d="M348 52q0 -42 -43 -42q-41 0 -41 42t41 42q43 0 43 -42zM433 231h-138q-77 2 -125 -52.5t-48 -132.5q0 -74 50 -125t124 -51q89 0 149 51v-71q-72 -43 -149 -43q-101 0 -173.5 69.5t-72.5 169.5q0 107 69 179t176 70h120q-17 44 -55.5 70t-87.5 26q-72 0 -148 -72l-48 48
q96 89 196 89q95 0 153 -57t76 -162q15 -86 60 -129.5t115 -43.5h16v-64h-25q-102 0 -167 76q-52 66 -67 155z" />
    <glyph glyph-name="jeeminitialarabic" unicode="&#x62c;" horiz-adv-x="546" arabic-form="initial" 
d="M330 -172q0 -42 -41 -42q-43 0 -43 42t43 42q41 0 41 -42zM509 150v-150h-514v64h442v66q-1 41 -2.5 67t-6.5 60.5t-15.5 56t-27.5 42.5t-44.5 30.5t-63.5 9.5q-77 0 -152 -72l-44 46q96 89 196 89q59 0 102 -18t67.5 -46t39 -71t19 -83t4.5 -91z" />
    <glyph glyph-name="jeemmedialarabic" unicode="&#x62c;" horiz-adv-x="647" arabic-form="medial" 
d="M330 -172q0 -42 -41 -42q-43 0 -43 42t43 42q41 0 41 -42zM652 64v-64h-657v64h442v66q-1 41 -2.5 67t-6.5 60.5t-15.5 56t-27.5 42.5t-44.5 30.5t-63.5 9.5q-77 0 -152 -72l-44 46q96 89 196 89q59 0 102 -18t67.5 -46t39 -71t19 -83t4.5 -91v-86h143z" />
    <glyph glyph-name="hahfinalarabic" unicode="&#x62d;" horiz-adv-x="687" arabic-form="final" 
d="M433 231h-138q-77 2 -125 -52.5t-48 -132.5q0 -74 50 -125t124 -51q89 0 149 51v-71q-72 -43 -149 -43q-101 0 -173.5 69.5t-72.5 169.5q0 107 69 179t176 70h120q-17 44 -55.5 70t-87.5 26q-72 0 -148 -72l-48 48q96 89 196 89q95 0 153 -57t76 -162q15 -86 60 -129.5
t115 -43.5h16v-64h-25q-102 0 -167 76q-52 66 -67 155z" />
    <glyph glyph-name="hahinitialarabic" unicode="&#x62d;" horiz-adv-x="546" arabic-form="initial" 
d="M509 150v-150h-514v64h442v66q-1 41 -2.5 67t-6.5 60.5t-15.5 56t-27.5 42.5t-44.5 30.5t-63.5 9.5q-77 0 -152 -72l-44 46q96 89 196 89q59 0 102 -18t67.5 -46t39 -71t19 -83t4.5 -91z" />
    <glyph glyph-name="hahmedialarabic" unicode="&#x62d;" horiz-adv-x="647" arabic-form="medial" 
d="M652 64v-64h-657v64h442v66q-1 41 -2.5 67t-6.5 60.5t-15.5 56t-27.5 42.5t-44.5 30.5t-63.5 9.5q-77 0 -152 -72l-44 46q96 89 196 89q59 0 102 -18t67.5 -46t39 -71t19 -83t4.5 -91v-86h143z" />
    <glyph glyph-name="khahfinalarabic" unicode="&#x62e;" horiz-adv-x="687" arabic-form="final" 
d="M433 231h-138q-77 2 -125 -52.5t-48 -132.5q0 -74 50 -125t124 -51q89 0 149 51v-71q-72 -43 -149 -43q-101 0 -173.5 69.5t-72.5 169.5q0 107 69 179t176 70h120q-17 44 -55.5 70t-87.5 26q-72 0 -148 -72l-48 48q96 89 196 89q95 0 153 -57t76 -162q15 -86 60 -129.5
t115 -43.5h16v-64h-25q-102 0 -167 76q-52 66 -67 155zM334 624q0 -42 -43 -42q-41 0 -41 42t41 42q43 0 43 -42z" />
    <glyph glyph-name="khahinitialarabic" unicode="&#x62e;" horiz-adv-x="546" arabic-form="initial" 
d="M509 150v-150h-514v64h442v66q-1 41 -2.5 67t-6.5 60.5t-15.5 56t-27.5 42.5t-44.5 30.5t-63.5 9.5q-77 0 -152 -72l-44 46q96 89 196 89q59 0 102 -18t67.5 -46t39 -71t19 -83t4.5 -91zM324 622q0 -42 -43 -42q-41 0 -41 42t41 42q43 0 43 -42z" />
    <glyph glyph-name="khahmedialarabic" unicode="&#x62e;" horiz-adv-x="647" arabic-form="medial" 
d="M324 622q0 -42 -43 -42q-41 0 -41 42t41 42q43 0 43 -42zM652 64v-64h-657v64h442v66q-1 41 -2.5 67t-6.5 60.5t-15.5 56t-27.5 42.5t-44.5 30.5t-63.5 9.5q-77 0 -152 -72l-44 46q96 89 196 89q59 0 102 -18t67.5 -46t39 -71t19 -83t4.5 -91v-86h143z" />
    <glyph glyph-name="dalfinalarabic" unicode="&#x62f;" horiz-adv-x="538" arabic-form="final" 
d="M543 64v-64h-493l43 64h252v186q0 57 -29.5 87t-78.5 30q-78 0 -134 -83v83q53 61 134 64q79 3 128 -45t49 -129v-193h129z" />
    <glyph glyph-name="thalfinalarabic" unicode="&#x630;" horiz-adv-x="538" arabic-form="final" 
d="M289 602q0 -42 -43 -42q-41 0 -41 42t41 42q43 0 43 -42zM543 64v-64h-493l43 64h252v186q0 57 -29.5 87t-78.5 30q-78 0 -134 -83v83q53 61 134 64q79 3 128 -45t49 -129v-193h129z" />
    <glyph glyph-name="rehfinalarabic" unicode="&#x631;" horiz-adv-x="438" arabic-form="final" 
d="M307 64h136v-64h-137q-7 -87 -54.5 -139.5t-135.5 -53.5q-58 0 -103 22l-32 73q56 -34 128 -34q63 0 96.5 45.5t33.5 113.5v403l68 22v-388z" />
    <glyph glyph-name="zainfinalarabic" unicode="&#x632;" horiz-adv-x="438" arabic-form="final" 
d="M307 64h136v-64h-137q-7 -87 -54.5 -139.5t-135.5 -53.5q-58 0 -103 22l-32 73q56 -34 128 -34q63 0 96.5 45.5t33.5 113.5v403l68 22v-388zM318 611q0 -42 -43 -42q-41 0 -41 42t41 42q43 0 43 -42z" />
    <glyph glyph-name="seenfinalarabic" unicode="&#x633;" horiz-adv-x="1254" arabic-form="final" 
d="M1259 0h-693q-7 -187 -248 -187q-66 0 -114.5 19t-78 50.5t-46.5 80.5t-22.5 100.5t-5.5 119.5l70 22l-2 -83q0 -126 47 -183.5t154 -57.5q82 0 130 31.5t48 111.5v307l68 23v-290h212v313l68 22v-335h218v360l68 22v-382h127v-64z" />
    <glyph glyph-name="seeninitialarabic" unicode="&#x633;" horiz-adv-x="800" arabic-form="initial" 
d="M763 454v-281q0 -80 -45 -126.5t-125 -46.5h-598v64h133v275l69 23v-298h211v320l69 23v-343h110q108 0 108 117v250z" />
    <glyph glyph-name="seenmedialarabic" unicode="&#x633;" horiz-adv-x="885" arabic-form="medial" 
d="M129 64v268l68 22v-290h212v313l68 22v-335h218v360l68 22v-382h127v-64h-895v64h134z" />
    <glyph glyph-name="sheenfinalarabic" unicode="&#x634;" horiz-adv-x="1254" arabic-form="final" 
d="M920 605q0 -42 -43 -42q-41 0 -41 42t41 42q43 0 43 -42zM786 605q0 -42 -41 -42q-43 0 -43 42t43 42q41 0 41 -42zM849 714q0 -39 -40 -39q-38 0 -38 39t38 39q40 0 40 -39zM1259 0h-693q-7 -187 -248 -187q-66 0 -114.5 19t-78 50.5t-46.5 80.5t-22.5 100.5t-5.5 119.5
l70 22l-2 -83q0 -126 47 -183.5t154 -57.5q82 0 130 31.5t48 111.5v307l68 23v-290h212v313l68 22v-335h218v360l68 22v-382h127v-64z" />
    <glyph glyph-name="sheeninitialarabic" unicode="&#x634;" horiz-adv-x="800" arabic-form="initial" 
d="M763 454v-281q0 -80 -45 -126.5t-125 -46.5h-598v64h133v275l69 23v-298h211v320l69 23v-343h110q108 0 108 117v250zM551 613q0 -42 -43 -42q-41 0 -41 42t41 42q43 0 43 -42zM417 613q0 -42 -41 -42q-43 0 -43 42t43 42q41 0 41 -42zM480 722q0 -39 -40 -39
q-38 0 -38 39t38 39q40 0 40 -39z" />
    <glyph glyph-name="sheenmedialarabic" unicode="&#x634;" horiz-adv-x="885" arabic-form="medial" 
d="M551 605q0 -42 -43 -42q-41 0 -41 42t41 42q43 0 43 -42zM417 605q0 -42 -41 -42q-43 0 -43 42t43 42q41 0 41 -42zM480 714q0 -39 -40 -39q-38 0 -38 39t38 39q40 0 40 -39zM129 64v268l68 22v-290h212v313l68 22v-335h218v360l68 22v-382h127v-64h-895v64h134z" />
    <glyph glyph-name="sadfinalarabic" unicode="&#x635;" horiz-adv-x="1191" arabic-form="final" 
d="M566 64h466q6 32 6 67q1 122 -44 188t-137 67q-96 2 -188.5 -98t-102.5 -224zM1196 64v-64h-630q-7 -187 -248 -187q-66 0 -114.5 19t-78 50.5t-46.5 80.5t-22.5 100.5t-5.5 119.5l70 22l-2 -83q0 -126 47 -183.5t154 -57.5q82 0 130 31.5t48 111.5v326l68 22v-165l10 25
q51 99 136 156t169 51q102 -7 163 -85t59 -214q-3 -52 -5 -76h98z" />
    <glyph glyph-name="sadinitialarabic" unicode="&#x635;" horiz-adv-x="737" arabic-form="initial" 
d="M162 64h466q6 32 6 67q1 122 -44 188t-137 67q-96 2 -188.5 -98t-102.5 -224zM104 64v288l68 23v-143q51 101 135.5 157t169.5 50q102 -7 163 -85t59 -214q-2 -76 -14 -140h-690v64h109z" />
    <glyph glyph-name="sadmedialarabic" unicode="&#x635;" horiz-adv-x="787" arabic-form="medial" 
d="M162 64h466q6 32 6 67q1 122 -44 188t-137 67q-96 2 -188.5 -98t-102.5 -224zM104 64v289l68 22v-143q51 101 135.5 157t169.5 50q102 -7 163 -85t59 -214q-3 -52 -5 -76h98v-64h-797v64h109z" />
    <glyph glyph-name="dadfinalarabic" unicode="&#x636;" horiz-adv-x="1191" arabic-form="final" 
d="M566 64h466q6 32 6 67q1 122 -44 188t-137 67q-96 2 -188.5 -98t-102.5 -224zM869 602q0 -42 -43 -42q-41 0 -41 42t41 42q43 0 43 -42zM1196 64v-64h-630q-7 -187 -248 -187q-66 0 -114.5 19t-78 50.5t-46.5 80.5t-22.5 100.5t-5.5 119.5l70 22l-2 -83q0 -126 47 -183.5
t154 -57.5q82 0 130 31.5t48 111.5v326l68 22v-165l10 25q51 99 136 156t169 51q102 -7 163 -85t59 -214q-3 -52 -5 -76h98z" />
    <glyph glyph-name="dadinitialarabic" unicode="&#x636;" horiz-adv-x="737" arabic-form="initial" 
d="M465 602q0 -42 -43 -42q-41 0 -41 42t41 42q43 0 43 -42zM162 64h466q6 32 6 67q1 122 -44 188t-137 67q-96 2 -188.5 -98t-102.5 -224zM104 64v288l68 23v-143q51 101 135.5 157t169.5 50q102 -7 163 -85t59 -214q-2 -76 -14 -140h-690v64h109z" />
    <glyph glyph-name="dadmedialarabic" unicode="&#x636;" horiz-adv-x="787" arabic-form="medial" 
d="M162 64h466q6 32 6 67q1 122 -44 188t-137 67q-96 2 -188.5 -98t-102.5 -224zM465 602q0 -42 -43 -42q-41 0 -41 42t41 42q43 0 43 -42zM104 64v289l68 22v-143q51 101 135.5 157t169.5 50q102 -7 163 -85t59 -214q-3 -52 -5 -76h98v-64h-797v64h109z" />
    <glyph glyph-name="tahfinalarabic" unicode="&#x637;" horiz-adv-x="830" arabic-form="final" 
d="M217 64h466q6 32 6 67q1 122 -44 188t-137 67q-96 2 -188.5 -98t-102.5 -224zM159 64v540l68 22v-394q51 101 135.5 157t169.5 50q102 -7 163 -85t59 -214q-3 -52 -5 -76h86v-64h-785l30 64h79z" />
    <glyph glyph-name="tahinitialarabic" unicode="&#x637;" horiz-adv-x="736" arabic-form="initial" 
d="M161 64h466q6 32 6 67q1 122 -44 188t-137 67q-96 2 -188.5 -98t-102.5 -224zM684 0h-689v64h108v538l68 24v-394q51 101 135.5 157t169.5 50q102 -7 163 -85t59 -214q-2 -76 -14 -140z" />
    <glyph glyph-name="tahmedialarabic" unicode="&#x637;" horiz-adv-x="774" arabic-form="medial" 
d="M161 64h466q6 32 6 67q1 122 -44 188t-137 67q-96 2 -188.5 -98t-102.5 -224zM103 64v540l68 22v-394q51 101 135.5 157t169.5 50q102 -7 163 -85t59 -214q-3 -52 -5 -76h86v-64h-784v64h108z" />
    <glyph glyph-name="zahfinalarabic" unicode="&#x638;" horiz-adv-x="830" arabic-form="final" 
d="M217 64h466q6 32 6 67q1 122 -44 188t-137 67q-96 2 -188.5 -98t-102.5 -224zM520 602q0 -42 -43 -42q-41 0 -41 42t41 42q43 0 43 -42zM159 64v540l68 22v-394q51 101 135.5 157t169.5 50q102 -7 163 -85t59 -214q-3 -52 -5 -76h86v-64h-785l30 64h79z" />
    <glyph glyph-name="zahinitialarabic" unicode="&#x638;" horiz-adv-x="736" arabic-form="initial" 
d="M161 64h466q6 32 6 67q1 122 -44 188t-137 67q-96 2 -188.5 -98t-102.5 -224zM684 0h-689v64h108v538l68 24v-394q51 101 135.5 157t169.5 50q102 -7 163 -85t59 -214q-2 -76 -14 -140zM464 602q0 -42 -43 -42q-41 0 -41 42t41 42q43 0 43 -42z" />
    <glyph glyph-name="zahmedialarabic" unicode="&#x638;" horiz-adv-x="774" arabic-form="medial" 
d="M161 64h466q6 32 6 67q1 122 -44 188t-137 67q-96 2 -188.5 -98t-102.5 -224zM464 602q0 -42 -43 -42q-41 0 -41 42t41 42q43 0 43 -42zM103 64v540l68 22v-394q51 101 135.5 157t169.5 50q102 -7 163 -85t59 -214q-3 -52 -5 -76h86v-64h-784v64h108z" />
    <glyph glyph-name="ainfinalarabic" unicode="&#x639;" horiz-adv-x="517" arabic-form="final" 
d="M448 291l33 -63h-109v-103q0 -61 56 -61h94v-64h-103q-115 0 -115 124v104h-5q-77 2 -127 -52t-50 -130q0 -74 51 -124.5t126 -50.5q79 0 145 51v-72q-72 -43 -145 -43q-101 0 -175 69.5t-74 169.5q0 76 41.5 136.5t106.5 88.5v29q0 68 38.5 111.5t104.5 43.5
q53 0 102 -45l-51 -50q-25 32 -58 32q-32 0 -50.5 -22t-18.5 -58v-21h183z" />
    <glyph glyph-name="aininitialarabic" unicode="&#x639;" horiz-adv-x="531" arabic-form="initial" 
d="M444 64l50 -64h-499v64h125v193q0 87 50.5 144t134.5 55q68 -2 120 -52l-52 -51q-30 39 -80 39q-46 0 -74.5 -34t-28.5 -86v-208h254z" />
    <glyph glyph-name="ainmedialarabic" unicode="&#x639;" horiz-adv-x="547" arabic-form="medial" 
d="M552 64v-64h-557v64h125v193q0 87 50.5 144t134.5 55q68 -2 120 -52l-52 -51q-30 39 -80 39q-46 0 -74.5 -34t-28.5 -86v-208h362z" />
    <glyph glyph-name="ghainfinalarabic" unicode="&#x63a;" horiz-adv-x="517" arabic-form="final" 
d="M379 619q0 -42 -43 -42q-41 0 -41 42t41 42q43 0 43 -42zM448 291l33 -63h-109v-103q0 -61 56 -61h94v-64h-103q-115 0 -115 124v104h-5q-77 2 -127 -52t-50 -130q0 -74 51 -124.5t126 -50.5q79 0 145 51v-72q-72 -43 -145 -43q-101 0 -175 69.5t-74 169.5
q0 76 41.5 136.5t106.5 88.5v29q0 68 38.5 111.5t104.5 43.5q53 0 102 -45l-51 -50q-25 32 -58 32q-32 0 -50.5 -22t-18.5 -58v-21h183z" />
    <glyph glyph-name="ghaininitialarabic" unicode="&#x63a;" horiz-adv-x="531" arabic-form="initial" 
d="M336 619q0 -42 -43 -42q-41 0 -41 42t41 42q43 0 43 -42zM444 64l50 -64h-499v64h125v193q0 87 50.5 144t134.5 55q68 -2 120 -52l-52 -51q-30 39 -80 39q-46 0 -74.5 -34t-28.5 -86v-208h254z" />
    <glyph glyph-name="ghainmedialarabic" unicode="&#x63a;" horiz-adv-x="547" arabic-form="medial" 
d="M552 64v-64h-557v64h125v193q0 87 50.5 144t134.5 55q68 -2 120 -52l-52 -51q-30 39 -80 39q-46 0 -74.5 -34t-28.5 -86v-208h362zM336 619q0 -42 -43 -42q-41 0 -41 42t41 42q43 0 43 -42z" />
    <glyph glyph-name="fehfinalarabic" unicode="&#x641;" horiz-adv-x="853" arabic-form="final" 
d="M530 175q18 -27 48.5 -52.5t62.5 -37.5q47 18 75 67t28 104q0 65 -35 104t-98 41q-52 2 -85 -29.5t-33 -84.5q0 -57 37 -112zM634 632q0 -42 -43 -42q-41 0 -41 42t41 42q43 0 43 -42zM858 64v-64h-135q-47 0 -82 17q-37 -17 -85 -17h-343q-74 0 -118.5 47t-44.5 126v131
l68 85v-208q0 -117 109 -117h236q77 0 96 2q-67 49 -101 112.5t-29 126.5q7 77 58.5 117.5t131.5 38.5q87 -3 138.5 -57.5t51.5 -142.5q0 -57 -23.5 -109.5t-66.5 -84.5q20 -3 61 -3h78z" />
    <glyph glyph-name="fehinitialarabic" unicode="&#x641;" horiz-adv-x="505" arabic-form="initial" 
d="M276 217h123v91q0 42 -29 68t-78 26q-53 0 -84 -25t-31 -68q0 -58 23 -75t76 -17zM467 309v-155q-1 -91 -36.5 -121t-129.5 -33h-306v64h294q63 0 86.5 15.5t23.5 59.5v18h-136q-77 0 -116 36t-39 118q0 68 52.5 111.5t131.5 43.5q77 0 126.5 -42t48.5 -115zM331 624
q0 -42 -41 -42q-43 0 -43 42t43 42q41 0 41 -42z" />
    <glyph glyph-name="fehmedialarabic" unicode="&#x641;" horiz-adv-x="469" arabic-form="medial" 
d="M257 632q0 -42 -43 -42q-41 0 -41 42t41 42q43 0 43 -42zM153 175q18 -27 48.5 -52.5t62.5 -37.5q47 18 75 67t28 104q0 65 -35 104t-98 41q-52 2 -85 -29.5t-33 -84.5q0 -57 37 -112zM474 64v-64h-128q-47 0 -82 17q-37 -17 -85 -17h-184v64h91q77 0 96 2
q-67 49 -101 112.5t-29 126.5q7 77 58.5 117.5t131.5 38.5q87 -3 138.5 -57.5t51.5 -142.5q0 -57 -23.5 -109.5t-66.5 -84.5q20 -3 61 -3h71z" />
    <glyph glyph-name="qaffinalarabic" unicode="&#x642;" horiz-adv-x="691" arabic-form="final" 
d="M494 221q0 160 -109 160q-110 0 -110 -160q0 -157 110 -157h109v157zM562 0h1q-4 -96 -68 -144.5t-181 -48.5q-136 0 -195 73t-69 209l65 29v-2q0 -126 47 -183.5t154 -57.5q168 0 178 125h-109q-84 0 -131 56t-47 165q0 110 46.5 167t131.5 57q86 0 133.5 -59.5
t43.5 -153.5v-168h134v-64h-134zM363 602q0 -42 -41 -42q-43 0 -43 42t43 42q41 0 41 -42zM497 602q0 -42 -43 -42q-41 0 -41 42t41 42q43 0 43 -42z" />
    <glyph glyph-name="qafinitialarabic" unicode="&#x642;" horiz-adv-x="505" arabic-form="initial" 
d="M276 217h123v91q0 42 -29 68t-78 26q-53 0 -84 -25t-31 -68q0 -58 23 -75t76 -17zM467 309v-155q-1 -91 -36.5 -121t-129.5 -33h-306v64h294q63 0 86.5 15.5t23.5 59.5v18h-136q-77 0 -116 36t-39 118q0 68 52.5 111.5t131.5 43.5q77 0 126.5 -42t48.5 -115zM397 624
q0 -42 -43 -42q-41 0 -41 42t41 42q43 0 43 -42zM263 624q0 -42 -41 -42q-43 0 -43 42t43 42q41 0 41 -42z" />
    <glyph glyph-name="qafmedialarabic" unicode="&#x642;" horiz-adv-x="469" arabic-form="medial" 
d="M153 175q18 -27 48.5 -52.5t62.5 -37.5q47 18 75 67t28 104q0 65 -35 104t-98 41q-52 2 -85 -29.5t-33 -84.5q0 -57 37 -112zM474 64v-64h-128q-47 0 -82 17q-37 -17 -85 -17h-184v64h91q77 0 96 2q-67 49 -101 112.5t-29 126.5q7 77 58.5 117.5t131.5 38.5
q87 -3 138.5 -57.5t51.5 -142.5q0 -57 -23.5 -109.5t-66.5 -84.5q20 -3 61 -3h71zM338 633q0 -42 -43 -42q-41 0 -41 42t41 42q43 0 43 -42zM204 633q0 -42 -41 -42q-43 0 -43 42t43 42q41 0 41 -42z" />
    <glyph glyph-name="kaffinalarabic" unicode="&#x643;" horiz-adv-x="880" arabic-form="final" 
d="M885 64v-64h-54q-44 0 -78.5 19t-52.5 50q-48 -69 -142 -69h-345q-74 0 -118.5 47t-44.5 126v131l68 85v-208q0 -117 109 -117h326q108 0 108 117v442l68 22v-473q0 -108 104 -108h52zM517 343v-45h-291l43 45h43v24q-1 53 30.5 88.5t83.5 35.5q43 0 78 -35l-34 -35
q-26 26 -50 26q-26 0 -43 -20.5t-17 -49.5v-34h157z" />
    <glyph glyph-name="kafinitialarabic" unicode="&#x643;" horiz-adv-x="569" arabic-form="initial" 
d="M530 0h-535v64h466q0 7 0.5 54.5t-0.5 49.5q-4 88 -55 136t-133 49q-51 1 -101 -20t-88 -57l-37 45l284 324h89l-222 -247q31 16 102 16q35 0 70.5 -12t70 -36t59 -68.5t30.5 -103.5v-194z" />
    <glyph glyph-name="kafmedialarabic" unicode="&#x643;" horiz-adv-x="644" arabic-form="medial" 
d="M649 0h-654v64h466q0 7 0.5 54.5t-0.5 49.5q-4 88 -55 136t-133 49q-51 1 -101 -20t-88 -57l-37 45l284 324h89l-222 -247q31 16 102 16q35 0 70.5 -12t70 -36t59 -68.5t30.5 -103.5q1 -9 1 -130h118v-64z" />
    <glyph glyph-name="lamfinalarabic" unicode="&#x644;" horiz-adv-x="724" arabic-form="final" 
d="M563 0q-4 -193 -248 -193q-71 0 -122 20.5t-80.5 60.5t-44 89t-18.5 116l66 23v-12q2 -119 49.5 -174t151.5 -55q82 0 130 31.5t48 111.5v605l68 22v-581h166v-64h-166z" />
    <glyph glyph-name="laminitialarabic" unicode="&#x644;" horiz-adv-x="257" arabic-form="initial" 
d="M220 645v-472q0 -77 -47 -125t-124 -48h-54v64h50q107 0 107 117v441z" />
    <glyph glyph-name="lammedialarabic" unicode="&#x644;" horiz-adv-x="353" arabic-form="medial" 
d="M358 64v-64h-44q-44 0 -78.5 19t-52.5 50q-48 -69 -142 -69h-46v64h41q108 0 108 117v442l68 22v-473q0 -108 104 -108h42z" />
    <glyph glyph-name="meemfinalarabic" unicode="&#x645;" horiz-adv-x="808" arabic-form="final" 
d="M585 233q0 76 -28 115.5t-78 39.5q-107 0 -107 -155q0 -156 107 -156q106 0 106 156zM653 244v-15q0 -38 0.5 -56t6 -43.5t16.5 -36.5t32.5 -20t53.5 -9h51v-64h-58q-102 0 -142 71q-44 -59 -134 -59q-176 0 -176 221q0 96 39 152h-96q-66 0 -96 -27.5t-32 -117.5v-409
l-68 -24v448q2 107 49.5 152.5t157.5 45.5h222q83 0 128.5 -55t45.5 -154z" />
    <glyph glyph-name="meeminitialarabic" unicode="&#x645;" horiz-adv-x="525" arabic-form="initial" 
d="M420 219q0 157 -107 157t-107 -157q0 -155 107 -155t107 155zM488 219q0 -108 -45.5 -163.5t-129.5 -55.5q-90 0 -136 64q-19 -33 -58.5 -49t-82.5 -15h-41v64h35q108 0 108 117v38q0 109 45.5 165t129.5 56q85 0 130 -56t45 -165z" />
    <glyph glyph-name="meemmedialarabic" unicode="&#x645;" horiz-adv-x="663" arabic-form="medial" 
d="M432 151q0 78 -24.5 114.5t-80.5 36.5t-81.5 -36.5t-25.5 -114.5t25.5 -115.5t81.5 -37.5t80.5 37t24.5 116zM668 64v-64h-49q-81 0 -130 50q-36 -116 -162 -116q-118 0 -161 107q-44 -41 -118 -41h-53v64h46q96 0 107 96q3 95 46.5 150.5t132.5 55.5q162 0 176 -184
q0 -60 27.5 -89.5t82.5 -28.5h55z" />
    <glyph glyph-name="noonfinalarabic" unicode="&#x646;" horiz-adv-x="718" arabic-form="final" 
d="M344 284q0 -42 -43 -42q-41 0 -41 42t41 42q43 0 43 -42zM566 64h157v-64h-157q-4 -193 -248 -193q-66 0 -114.5 19t-78 50.5t-46.5 80.5t-22.5 100.5t-5.5 119.5l70 22l-2 -83q0 -126 47 -183.5t154 -57.5q82 0 130 31.5t48 111.5v326l68 22v-302z" />
    <glyph glyph-name="nooninitialarabic" unicode="&#x646;" horiz-adv-x="257" arabic-form="initial" 
d="M97 624q0 -42 -43 -42q-41 0 -41 42t41 42q43 0 43 -42zM220 453v-280q0 -77 -47 -125t-124 -48h-54v64h50q107 0 107 117v249z" />
    <glyph glyph-name="noonmedialarabic" unicode="&#x646;" horiz-adv-x="353" arabic-form="medial" 
d="M358 64v-64h-44q-44 0 -78.5 19t-52.5 50q-48 -69 -142 -69h-46v64h41q108 0 108 117v250l68 22v-281q0 -108 104 -108h42zM221 624q0 -42 -41 -42q-43 0 -43 42t43 42q41 0 41 -42z" />
    <glyph glyph-name="hehfinalarabic" unicode="&#x647;" horiz-adv-x="540" arabic-form="final" 
d="M340 227v168h-110q-112 0 -112 -168q0 -163 112 -163q110 0 110 163zM545 64v-64h-35q-97 0 -143 70q-41 -70 -144 -70q-83 0 -128 56.5t-45 170.5q0 222 173 226h185v-272q0 -117 109 -117h28z" />
    <glyph glyph-name="hehinitialarabic" unicode="&#x647;" horiz-adv-x="560" arabic-form="initial" 
d="M321 178q0 113 -77 113q-78 0 -78 -113q0 -114 78 -114q77 0 77 114zM522 139v-139h-527v64h131q-25 47 -25 114q0 178 143 178q142 0 142 -178q0 -77 -25 -114h92v75q-1 54 -4.5 89.5t-14.5 71.5t-30.5 57t-52 34t-79.5 13h-210l90 57h151q54 0 93.5 -15t64 -41
t38.5 -68t19 -88.5t4 -109.5z" />
    <glyph glyph-name="hehmedialarabic" unicode="&#x647;" horiz-adv-x="665" arabic-form="medial" 
d="M318 178q0 113 -76 113q-79 0 -79 -113q0 -114 79 -114q76 0 76 114zM355 64h132v61q0 117 -6 149q-10 55 -52.5 89t-99.5 34q-78 0 -117 -47q11 5 30 5q67 0 104 -44.5t37 -132.5q0 -69 -28 -114zM684 64v-64h-703v64h142q-24 42 -24 114q0 271 230 283q85 5 149 -44
t74 -129q4 -27 4 -163v-61h128z" />
    <glyph glyph-name="wawfinalarabic" unicode="&#x648;" horiz-adv-x="534" arabic-form="final" 
d="M337 221q0 160 -109 160q-110 0 -110 -160q0 -157 110 -157h109v157zM403 0q-18 -193 -199 -193q-51 0 -96 22l-36 77q68 -36 132 -36q56 0 88.5 34.5t38.5 95.5h-103q-84 0 -131 56t-47 165q0 110 46.5 167t131.5 57q86 0 133.5 -59.5t43.5 -153.5v-168h134v-64h-136z
" />
    <glyph glyph-name="alefmaksurafinalarabic" unicode="&#x649;" horiz-adv-x="542" arabic-form="final" 
d="M292 -193q-114 0 -178 72.5t-64 189.5q0 86 39 191l74 52q-47 -122 -47 -225q0 -95 44 -153.5t132 -58.5q78 0 127.5 32t53.5 93q-96 0 -126 82l32 71q35 -89 107 -89h56v-64q0 -83 -67.5 -138t-182.5 -55z" />
    <glyph glyph-name="yehfinalarabic" unicode="&#x64a;" horiz-adv-x="542" arabic-form="final" 
d="M292 -193q-114 0 -178 72.5t-64 189.5q0 86 39 191l74 52q-47 -122 -47 -225q0 -95 44 -153.5t132 -58.5q78 0 127.5 32t53.5 93q-96 0 -126 82l32 71q35 -89 107 -89h56v-64q0 -83 -67.5 -138t-182.5 -55zM413 -365q0 -42 -43 -42q-41 0 -41 42t41 42q43 0 43 -42z
M279 -365q0 -42 -41 -42q-43 0 -43 42t43 42q41 0 41 -42z" />
    <glyph glyph-name="yehinitialarabic" unicode="&#x64a;" horiz-adv-x="241" arabic-form="initial" 
d="M221 -172q0 -42 -43 -42q-41 0 -41 42t41 42q43 0 43 -42zM87 -172q0 -42 -41 -42q-43 0 -43 42t43 42q41 0 41 -42zM220 453v-280q0 -77 -47 -125t-124 -48h-54v64h50q107 0 107 117v249z" />
    <glyph glyph-name="yehmedialarabic" unicode="&#x64a;" horiz-adv-x="353" arabic-form="medial" 
d="M223 -172q0 -42 -43 -42q-41 0 -41 42t41 42q43 0 43 -42zM89 -172q0 -42 -41 -42q-43 0 -43 42t43 42q41 0 41 -42zM358 64v-64h-44q-44 0 -78.5 19t-52.5 50q-48 -69 -142 -69h-46v64h41q108 0 108 117v250l68 22v-281q0 -108 104 -108h42z" />
    <glyph glyph-name=".notdef" horiz-adv-x="500" 
d="M438 0h-375v750h375v-750zM125 688v-625h250v625h-250z" />
    <glyph glyph-name=".null" 
 />
    <glyph glyph-name="nonmarkingreturn" horiz-adv-x="333" 
 />
    <glyph glyph-name="space" unicode=" " horiz-adv-x="162" 
 />
    <glyph glyph-name="exclam" unicode="!" horiz-adv-x="186" 
d="M135 712l-11 -512h-62l-10 512h83zM136 0h-86v84h86v-84z" />
    <glyph glyph-name="quotedbl" unicode="&#x22;" horiz-adv-x="254" 
d="M119 604q0 -24 -15 -95q-3 -18 -19 -18q-19 0 -22 19q-13 89 -13 94q0 43 35 43q34 0 34 -43zM214 604q0 -24 -15 -95q-3 -18 -19 -18q-19 0 -22 19q-13 89 -13 94q0 43 35 43q34 0 34 -43z" />
    <glyph glyph-name="dollar" unicode="$" horiz-adv-x="598" 
d="M548 196q0 -86 -59 -139.5t-159 -60.5v-110h-60v108q-70 3 -121.5 25t-98.5 69l52 52q73 -73 172 -77v265l-20 2q-75 7 -130 54q-55 49 -55 133q0 85 54 139t147 61v89h60v-89q106 -5 186 -77l-49 -49q-61 55 -140 60v-259l31 -5q88 -15 129 -50q61 -52 61 -141zM274 399
v252q-62 -5 -96 -40t-34 -91q0 -54 32 -82q36 -30 98 -39zM472 194q0 59 -35 89q-7 6 -13.5 10.5t-16 8.5t-14 6t-16.5 4t-15 3t-18 3t-17 2v-257q68 5 106.5 39.5t38.5 91.5z" />
    <glyph glyph-name="quotesingle" unicode="'" horiz-adv-x="169" 
d="M119 604q0 -24 -15 -95q-3 -18 -19 -18q-19 0 -22 19q-13 89 -13 94q0 43 35 43q34 0 34 -43z" />
    <glyph glyph-name="parenleft" unicode="(" horiz-adv-x="290" 
d="M228 -45l-49 -49q-55 55 -72 86q-21 39 -21 103v522q0 65 21 103q17 31 72 86l49 -49q-43 -43 -54 -65q-16 -32 -16 -81v-510q0 -49 16 -81q11 -22 54 -65z" />
    <glyph glyph-name="parenright" unicode=")" horiz-adv-x="291" 
d="M205 95q0 -66 -20 -103q-17 -31 -72 -86l-51 51q45 45 55 65q14 28 14 79v510q0 51 -14 79q-10 20 -55 65l51 51q55 -55 72 -86q20 -37 20 -103v-522z" />
    <glyph glyph-name="at" unicode="*" horiz-adv-x="440" 
d="M390 120l-28 -49l-117 71l4 -137h-58l4 137l-116 -71l-29 49l120 65l-120 66l29 48l116 -71l-4 137h58l-4 -137l117 71l28 -48l-120 -66z" />
    <glyph glyph-name="plus" unicode="+" horiz-adv-x="518" 
d="M468 234h-175v-176h-67v176h-176v67h176v174h67v-174h175v-67z" />
    <glyph glyph-name="hyphen" unicode="-" horiz-adv-x="518" 
d="M468 236h-418v67h418v-67z" />
    <glyph glyph-name="period" unicode="." horiz-adv-x="198" 
d="M168 53q0 -22 -15 -37.5t-37 -15.5q-23 0 -38.5 15t-15.5 38q0 22 15.5 37t38.5 15q22 0 37 -15t15 -37z" />
    <glyph glyph-name="slash" unicode="/" horiz-adv-x="176" 
d="M266 786l-285 -860h-71l285 860h71z" />
    <glyph glyph-name="zero" unicode="0" horiz-adv-x="233" 
d="M157 199v-124l-91 27v124z" />
    <glyph glyph-name="one" unicode="1" horiz-adv-x="215" 
d="M150 643v-643l-84 30v613h84z" />
    <glyph glyph-name="two" unicode="2" horiz-adv-x="518" 
d="M452 643l-20 -70h-265q-27 -3 -27 -34v-539l-74 30v509q0 66 53 92q27 12 61 12h272z" />
    <glyph glyph-name="three" unicode="3" horiz-adv-x="530" 
d="M466 645v-164q0 -47 -19 -84t-47.5 -54t-64.5 -10t-67 41q-23 -31 -59 -41t-69 13v-346l-74 30v615h74v-167q7 -61 55 -61q22 0 30 26q0 2 2 44v158h76v-165q11 -63 54 -63q23 0 30 21q3 12 3 49v158h76z" />
    <glyph glyph-name="four" unicode="4" horiz-adv-x="545" 
d="M438 74l41 -74h-212q-85 0 -144 50q-57 49 -57 136q0 106 75 153q-63 45 -63 131q0 79 53 126t136 47h145v-78h-155q-97 0 -97 -95t101 -95h110v-70h-110q-54 0 -83.5 -36t-29.5 -93q0 -47 30 -74.5t79 -27.5h181z" />
    <glyph glyph-name="five" unicode="5" horiz-adv-x="538" 
d="M472 218q0 -94 -49 -153q-56 -65 -154 -65q-95 0 -151 65q-52 59 -52 153q0 155 204 284q202 -139 202 -284zM387 218q0 50 -31.5 101t-86.5 93q-55 -42 -86.5 -93t-31.5 -101q0 -68 32 -107.5t86 -39.5t86 39.5t32 107.5z" />
    <glyph glyph-name="six" unicode="6" horiz-adv-x="518" 
d="M452 539v-539l-73 30v499q0 31 -27 34h-286v80h272q34 0 61 -12q53 -26 53 -92z" />
    <glyph glyph-name="seven" unicode="7" horiz-adv-x="666" 
d="M498 643h92l-225 -643h-65l-224 643h92l165 -503z" />
    <glyph glyph-name="eight" unicode="8" horiz-adv-x="666" 
d="M365 643l225 -643h-92l-165 504l-165 -504h-92l224 643h65z" />
    <glyph glyph-name="nine" unicode="9" horiz-adv-x="521" 
d="M455 430v-400l-75 -30v230q-62 -34 -120 -34q-103 0 -154 71q-40 58 -40 152q0 95 40 153q51 71 154 71q96 0 149 -66q46 -58 46 -147zM371 419q0 71 -30 111.5t-81 40.5t-81 -40.5t-30 -111.5q0 -70 30 -110.5t81 -40.5t81 40.5t30 110.5z" />
    <glyph glyph-name="colon" unicode=":" horiz-adv-x="198" 
d="M168 53q0 -22 -15 -37.5t-37 -15.5q-23 0 -38.5 15t-15.5 38q0 22 15.5 37t38.5 15q22 0 37 -15t15 -37zM168 327q0 -22 -15 -37.5t-37 -15.5q-23 0 -38.5 15t-15.5 38q0 22 15.5 37t38.5 15q22 0 37 -15t15 -37z" />
    <glyph glyph-name="less" unicode="&#x3c;" horiz-adv-x="447" 
d="M154 228l238 -238h-99l-238 236l239 239h97z" />
    <glyph glyph-name="equal" unicode="=" horiz-adv-x="518" 
d="M468 320h-418v67h418v-67zM468 151h-418v66h418v-66z" />
    <glyph glyph-name="greater" unicode="&#x3e;" horiz-adv-x="448" 
d="M154 465l239 -239l-238 -236h-100l238 238l-237 237h98z" />
    <glyph glyph-name="bracketleft" unicode="[" horiz-adv-x="309" 
d="M265 -74h-177v860h177v-64h-105v-732h105v-64z" />
    <glyph glyph-name="backslash" unicode="\" horiz-adv-x="441" 
d="M355 -74h-71l-284 857h71z" />
    <glyph glyph-name="bracketright" unicode="]" horiz-adv-x="306" 
d="M218 -74h-177v62h108v736h-108v62h177v-860z" />
    <glyph glyph-name="underscore" unicode="_" horiz-adv-x="391" 
d="M391 -165h-391v51h391v-51z" />
    <glyph glyph-name="braceleft" unicode="{" horiz-adv-x="347" 
d="M303 -74h-37q-71 0 -101 30t-30 99v191q0 42 -18 60t-45 18h-26v64h26q27 0 45 18t18 60v191q0 69 30 99t101 30h37v-64h-23q-46 0 -59 -13q-14 -14 -14 -65v-188q0 -40 -16 -62.5t-47 -37.5q31 -15 47 -37.5t16 -62.5v-188q0 -51 14 -65q13 -13 59 -13h23v-64z" />
    <glyph glyph-name="bar" unicode="|" horiz-adv-x="149" 
d="M116 -74h-72v860h72v-860z" />
    <glyph glyph-name="braceright" unicode="}" horiz-adv-x="354" 
d="M305 324h-25q-27 0 -45 -18t-18 -60v-191q0 -69 -30 -99t-101 -30h-38v64h24q45 0 58 13q15 15 15 65v188q0 40 16 62.5t47 37.5q-31 15 -47 37.5t-16 62.5v188q0 50 -15 65q-13 13 -58 13h-24v64h38q71 0 101 -30t30 -99v-191q0 -42 18 -60t45 -18h25v-64z" />
    <glyph glyph-name="nbspace" unicode="&#xa0;" horiz-adv-x="623" 
 />
    <glyph glyph-name="guillemotleft" unicode="&#xab;" horiz-adv-x="440" 
d="M40 190q0 99 65 191h64q-51 -115 -51 -191q0 -78 51 -190h-66q-63 96 -63 190zM164 190q0 97 66 191h65q-52 -113 -52 -191q0 -77 52 -190h-67q-64 98 -64 190z" />
    <glyph glyph-name="guillemotright" unicode="&#xbb;" horiz-adv-x="440" 
d="M400 190q0 -94 -63 -190h-66q51 112 51 190q0 76 -51 191h64q65 -92 65 -191zM276 190q0 -92 -64 -190h-67q52 113 52 190q0 78 -52 191h65q66 -94 66 -191z" />
    <glyph glyph-name="multiply" unicode="&#xd7;" horiz-adv-x="492" 
d="M442 119l-45 -45l-151 151l-151 -151l-45 45l151 151l-151 151l45 45l151 -152l151 152l45 -45l-152 -151z" />
    <glyph glyph-name="divide" unicode="&#xf7;" horiz-adv-x="520" 
d="M303 404h-86v86h86v-86zM470 236h-420v67h420v-67zM303 49h-86v86h86v-86z" />
    <glyph glyph-name="commaarabic" unicode="&#x60c;" horiz-adv-x="149" 
d="M119 232v-232h-59v134z" />
    <glyph glyph-name="semicolonarabic" unicode="&#x61b;" horiz-adv-x="196" 
d="M140 502v-232h-59v134zM166 53q0 -22 -15 -37.5t-37 -15.5q-23 0 -38.5 15t-15.5 38q0 22 15.5 37t38.5 15q22 0 37 -15t15 -37z" />
    <glyph glyph-name="questionarabic" unicode="&#x61f;" horiz-adv-x="448" 
d="M50 536q0 79 53.5 130.5t133.5 51.5t134 -53t54 -130h-72q0 49 -32 84t-84 35q-50 0 -82.5 -33.5t-32.5 -84.5q0 -36 33 -85l81 -117q31 -44 31 -94v-40h-72v39q0 31 -18 58l-82 118q-45 66 -45 121zM274 0h-86v84h86v-84z" />
    <glyph glyph-name="tatweelarabic" unicode="&#x640;" horiz-adv-x="162" 
d="M174 64v-64h-186v64h186z" />
    <glyph glyph-name="maddaabove" unicode="&#x653;" 
d="M334 735l44 -32q-56 -41 -96 -41q-27 0 -60 15q-32 16 -47 16q-31 0 -59 -26l-44 31q56 42 96 42q30 0 63 -16q35 -15 51 -15q23 0 52 26z" />
    <glyph glyph-name="hamzaabove" unicode="&#x654;" 
d="M184 721v-34h-189l33 34h25v11q-1 33 19 56t54 23q32 0 52 -25l-25 -27q-10 17 -31 17q-15 0 -24 -11t-9 -27v-17h95z" />
    <glyph glyph-name="hamzabelow" unicode="&#x655;" 
d="M170 -159v-34h-189l33 34h25v11q-1 33 19 56t54 23q32 0 52 -25l-25 -27q-10 17 -31 17q-15 0 -24 -11t-9 -27v-17h95z" />
    <glyph glyph-name="zeroarabic" unicode="&#x660;" horiz-adv-x="233" 
d="M157 199v-124l-91 27v124z" />
    <glyph glyph-name="onearabic" unicode="&#x661;" horiz-adv-x="215" 
d="M150 643v-643l-84 30v613h84z" />
    <glyph glyph-name="twoarabic" unicode="&#x662;" horiz-adv-x="518" 
d="M452 643l-20 -70h-265q-27 -3 -27 -34v-539l-74 30v509q0 66 53 92q27 12 61 12h272z" />
    <glyph glyph-name="threearabic" unicode="&#x663;" horiz-adv-x="530" 
d="M466 645v-164q0 -47 -19 -84t-47.5 -54t-64.5 -10t-67 41q-23 -31 -59 -41t-69 13v-346l-74 30v615h74v-167q7 -61 55 -61q22 0 30 26q0 2 2 44v158h76v-165q11 -63 54 -63q23 0 30 21q3 12 3 49v158h76z" />
    <glyph glyph-name="fourarabic" unicode="&#x664;" horiz-adv-x="545" 
d="M438 74l41 -74h-212q-85 0 -144 50q-57 49 -57 136q0 106 75 153q-63 45 -63 131q0 79 53 126t136 47h145v-78h-155q-97 0 -97 -95t101 -95h110v-70h-110q-54 0 -83.5 -36t-29.5 -93q0 -47 30 -74.5t79 -27.5h181z" />
    <glyph glyph-name="fivearabic" unicode="&#x665;" horiz-adv-x="538" 
d="M472 218q0 -94 -49 -153q-56 -65 -154 -65q-95 0 -151 65q-52 59 -52 153q0 155 204 284q202 -139 202 -284zM387 218q0 50 -31.5 101t-86.5 93q-55 -42 -86.5 -93t-31.5 -101q0 -68 32 -107.5t86 -39.5t86 39.5t32 107.5z" />
    <glyph glyph-name="sixarabic" unicode="&#x666;" horiz-adv-x="518" 
d="M452 539v-539l-73 30v499q0 31 -27 34h-286v80h272q34 0 61 -12q53 -26 53 -92z" />
    <glyph glyph-name="sevenarabic" unicode="&#x667;" horiz-adv-x="666" 
d="M498 643h92l-225 -643h-65l-224 643h92l165 -503z" />
    <glyph glyph-name="eightarabic" unicode="&#x668;" horiz-adv-x="666" 
d="M365 643l225 -643h-92l-165 504l-165 -504h-92l224 643h65z" />
    <glyph glyph-name="ninearabic" unicode="&#x669;" horiz-adv-x="521" 
d="M455 430v-400l-75 -30v230q-62 -34 -120 -34q-103 0 -154 71q-40 58 -40 152q0 95 40 153q51 71 154 71q96 0 149 -66q46 -58 46 -147zM371 419q0 71 -30 111.5t-81 40.5t-81 -40.5t-30 -111.5q0 -70 30 -110.5t81 -40.5t81 40.5t30 110.5z" />
    <glyph glyph-name="percentarabic" unicode="&#x66a;" horiz-adv-x="494" 
d="M444 712l-334 -712h-60l334 712h60zM217 519v110l-90 28v-110zM366 55v110l-90 28v-110z" />
    <glyph glyph-name="decimalseparatorarabic" unicode="&#x66b;" horiz-adv-x="149" 
d="M119 232v-232h-59v134z" />
    <glyph glyph-name="thousandsseparatorarabic" unicode="&#x66c;" horiz-adv-x="149" 
d="M119 232v-232h-59v134z" />
    <glyph glyph-name="asteriskarabic" unicode="&#x66d;" horiz-adv-x="506" 
d="M439 280l17 -34l-113 -90q38 -105 48 -133l-29 -27l-110 92q-16 -13 -53.5 -44.5t-55.5 -46.5l-31 23l51 135q-59 46 -113 91l15 35l132 -19q10 39 36 136h39l36 -137q127 19 131 19z" />
    <glyph glyph-name="superscriptalef" unicode="&#x670;" 
d="M76 716h-65v195h65v-195z" />
    <glyph glyph-name="extendedarabicindicdigitzero" unicode="&#x6f0;" horiz-adv-x="233" 
d="M157 199v-124l-91 27v124z" />
    <glyph glyph-name="extendedarabicindicdigitone" unicode="&#x6f1;" horiz-adv-x="215" 
d="M150 643v-643l-84 30v613h84z" />
    <glyph glyph-name="extendedarabicindicdigittwo" unicode="&#x6f2;" horiz-adv-x="518" 
d="M452 643l-20 -70h-265q-27 -3 -27 -34v-539l-74 30v509q0 66 53 92q27 12 61 12h272z" />
    <glyph glyph-name="extendedarabicindicdigitthree" unicode="&#x6f3;" horiz-adv-x="530" 
d="M466 645v-164q0 -47 -19 -84t-47.5 -54t-64.5 -10t-67 41q-23 -31 -59 -41t-69 13v-346l-74 30v615h74v-167q7 -61 55 -61q22 0 30 26q0 2 2 44v158h76v-165q11 -63 54 -63q23 0 30 21q3 12 3 49v158h76z" />
    <glyph glyph-name="extendedarabicindicdigitfour" unicode="&#x6f4;" horiz-adv-x="545" 
d="M438 74l41 -74h-212q-85 0 -144 50q-57 49 -57 136q0 106 75 153q-63 45 -63 131q0 79 53 126t136 47h145v-78h-155q-97 0 -97 -95t101 -95h110v-70h-110q-54 0 -83.5 -36t-29.5 -93q0 -47 30 -74.5t79 -27.5h181z" />
    <glyph glyph-name="extendedarabicindicdigitfive" unicode="&#x6f5;" horiz-adv-x="538" 
d="M472 218q0 -94 -49 -153q-56 -65 -154 -65q-95 0 -151 65q-52 59 -52 153q0 155 204 284q202 -139 202 -284zM387 218q0 50 -31.5 101t-86.5 93q-55 -42 -86.5 -93t-31.5 -101q0 -68 32 -107.5t86 -39.5t86 39.5t32 107.5z" />
    <glyph glyph-name="extendedarabicindicdigitsix" unicode="&#x6f6;" horiz-adv-x="518" 
d="M452 539v-539l-73 30v499q0 31 -27 34h-286v80h272q34 0 61 -12q53 -26 53 -92z" />
    <glyph glyph-name="extendedarabicindicdigitseven" unicode="&#x6f7;" horiz-adv-x="666" 
d="M498 643h92l-225 -643h-65l-224 643h92l165 -503z" />
    <glyph glyph-name="extendedarabicindicdigiteight" unicode="&#x6f8;" horiz-adv-x="666" 
d="M365 643l225 -643h-92l-165 504l-165 -504h-92l224 643h65z" />
    <glyph glyph-name="extendedarabicindicdigitnine" unicode="&#x6f9;" horiz-adv-x="521" 
d="M455 430v-400l-75 -30v230q-62 -34 -120 -34q-103 0 -154 71q-40 58 -40 152q0 95 40 153q51 71 154 71q96 0 149 -66q46 -58 46 -147zM371 419q0 71 -30 111.5t-81 40.5t-81 -40.5t-30 -111.5q0 -70 30 -110.5t81 -40.5t81 40.5t30 110.5z" />
    <glyph glyph-name="zeronojoin" unicode="&#x200c;" horiz-adv-x="20" 
d="M20 722v-722h-20v722h20z" />
    <glyph glyph-name="zerojoin" unicode="&#x200d;" horiz-adv-x="20" 
d="M24 711l47 -48l-14 -13l-37 37v-687h-20v687l-37 -37l-14 13l48 48l-48 47l14 14l47 -48l47 48l14 -14z" />
    <glyph glyph-name="lefttoright" unicode="&#x200e;" horiz-adv-x="20" 
d="M74 772l60 -61l-60 -61l-14 14l38 38h-78v-702h-20v722h96l-36 36z" />
    <glyph glyph-name="righttoleft" unicode="&#x200f;" horiz-adv-x="20" 
d="M20 722v-722h-20v702h-78l38 -38l-14 -14l-60 61l60 61l14 -14l-36 -36h96z" />
    <glyph glyph-name="hyphenminus" unicode="&#x2010;" horiz-adv-x="518" 
d="M468 236h-418v67h418v-67z" />
    <glyph glyph-name="quotedblleft" unicode="&#x201c;" horiz-adv-x="254" 
d="M109 534q0 -43 -34 -43q-35 0 -35 43q0 5 13 94q3 19 22 19q16 0 19 -18q15 -71 15 -95zM204 534q0 -43 -34 -43q-35 0 -35 43q0 5 13 94q3 19 22 19q16 0 19 -18q15 -71 15 -95z" />
    <glyph glyph-name="quotedblright" unicode="&#x201d;" horiz-adv-x="254" 
d="M119 604q0 -24 -15 -95q-3 -18 -19 -18q-19 0 -22 19q-13 89 -13 94q0 43 35 43q34 0 34 -43zM214 604q0 -24 -15 -95q-3 -18 -19 -18q-19 0 -22 19q-13 89 -13 94q0 43 35 43q34 0 34 -43z" />
    <glyph glyph-name="delete" unicode="&#x2421;" horiz-adv-x="709" 
d="M674 88v-31h-163v260h36v-229h127zM479 88v-31h-195v260h189v-31h-153v-79h143v-31h-143v-88h159zM253 189q0 -108 -79 -127q-20 -5 -41 -5h-95v260h90q33 0 46 -4q79 -18 79 -124zM218 189q0 74 -46 92q-15 5 -44 5h-55v-198h56q43 0 63 18q26 28 26 83z" />
    <glyph glyph-name="ornateleftparenthesis" unicode="&#xfd3e;" horiz-adv-x="307" 
d="M236 -86l-54 -63l-42 42q-21 23 -33 45q-21 39 -21 108v441q0 69 21 107q17 28 75 87l54 -64q-22 -19 -52 -60q-13 -26 -13 -76v-429q0 -52 13 -77q10 -20 52 -61z" />
    <glyph glyph-name="ornaterightparenthesis" unicode="&#xfd3f;" horiz-adv-x="307" 
d="M211 487v-441q0 -69 -21 -108q-16 -28 -75 -87l-54 63q19 18 52 61q14 26 14 77v429q0 48 -14 76q-9 17 -52 60l54 64l41 -43q21 -21 34 -44q21 -37 21 -107z" />
    <glyph glyph-name="zerowidthnobreakspace" unicode="&#xfeff;" 
 />
    <glyph glyph-name="CR" horiz-adv-x="333" 
 />
    <glyph glyph-name="_4" horiz-adv-x="280" 
 />
    <glyph glyph-name="_13" horiz-adv-x="273" 
 />
    <glyph glyph-name="kashidaautoarabic" horiz-adv-x="80" 
d="M100 64v-64h-112v64h112z" />
    <glyph glyph-name="nonbreakingspace" horiz-adv-x="623" 
 />
    <glyph glyph-name="_246" 
 />
  </font>
</defs>
</svg>
