<svg width="264" height="255" viewBox="0 0 264 255" fill="none" xmlns="http://www.w3.org/2000/svg">
<path d="M261.862 130.723C261.817 132.557 260.936 134.37 259.21 136.151C257.481 137.934 254.931 139.656 251.618 141.29C244.994 144.557 235.422 147.425 223.583 149.743C199.913 154.379 167.287 156.801 131.323 155.902C95.3586 155.003 62.8949 150.954 39.4852 145.142C27.7763 142.235 18.3596 138.892 11.9066 135.298C8.67963 133.501 6.218 131.654 4.58058 129.786C2.94556 127.922 2.15634 126.067 2.20208 124.233C2.24783 122.399 3.12856 120.586 4.85453 118.805C6.58301 117.022 9.13369 115.3 12.4463 113.666C19.0704 110.399 28.6421 107.532 40.4814 105.213C64.1517 100.577 96.7769 98.1549 132.741 99.0538C168.706 99.9528 201.169 104.002 224.579 109.814C236.288 112.722 245.705 116.064 252.158 119.658C255.385 121.455 257.846 123.303 259.484 125.17C261.119 127.035 261.908 128.89 261.862 130.723Z" stroke="black"/>
<path d="M55.0178 232.149C53.5426 231.061 52.5619 229.3 52.0922 226.864C51.6218 224.425 51.6723 221.345 52.2314 217.691C53.3493 210.385 56.483 200.889 61.3647 189.846C71.1247 167.769 87.8263 139.612 109.16 110.617C130.494 81.622 152.403 57.3035 170.571 41.4242C179.658 33.4818 187.788 27.6691 194.427 24.4328C197.748 22.8143 200.67 21.8525 203.137 21.5784C205.601 21.3047 207.572 21.7196 209.047 22.8071C210.522 23.8946 211.503 25.6556 211.973 28.0916C212.443 30.5312 212.393 33.6103 211.834 37.2642C210.716 44.5709 207.582 54.067 202.7 65.1095C192.94 87.1868 176.239 115.344 154.905 144.339C133.571 173.334 111.662 197.652 93.4942 213.531C84.4072 221.474 76.277 227.287 69.6376 230.523C66.3173 232.141 63.3946 233.103 60.9275 233.377C58.4641 233.651 56.493 233.236 55.0178 232.149Z" stroke="black"/>
<path d="M196.968 240.056C195.381 240.973 193.376 241.167 190.958 240.621C188.537 240.075 185.739 238.794 182.618 236.817C176.379 232.863 168.943 226.183 160.793 217.281C144.497 199.481 125.42 172.88 107.432 141.694C89.4441 110.509 75.9671 80.6707 68.7148 57.6457C65.0874 46.1293 63.0259 36.3437 62.7248 28.958C62.5743 25.2646 62.8654 22.1988 63.6033 19.8266C64.3402 17.4578 65.51 15.8166 67.0966 14.8997C68.6833 13.9828 70.6881 13.7894 73.1061 14.335C75.5275 14.8814 78.3256 16.1619 81.4459 18.1391C87.6855 22.0929 95.1212 28.7728 103.272 37.6754C119.567 55.4745 138.644 82.0762 156.632 113.262C174.62 144.447 188.097 174.285 195.349 197.31C198.977 208.827 201.038 218.612 201.339 225.998C201.49 229.691 201.199 232.757 200.461 235.129C199.724 237.498 198.554 239.139 196.968 240.056Z" stroke="black"/>
<path d="M133.501 137.903L131.524 132.39H122.157L120.15 137.903H116.866L124.864 117.044H129.061L136.907 137.903H133.501ZM123.161 129.678H130.551L128.483 123.987C127.855 122.139 127.53 120.52 127.51 119.13H126.233C126.152 120.759 125.827 122.378 125.26 123.987L123.161 129.678Z" fill="black"/>
<path d="M140.478 137.903V117.044H143.519V137.903H140.478Z" fill="black"/>
<circle cx="85.0988" cy="99.6701" r="4.6354" fill="black"/>
<circle cx="236.908" cy="146.024" r="4.6354" fill="black"/>
<circle cx="54.9684" cy="230.62" r="4.6354" fill="black"/>
</svg>
