<svg width="112" height="713" viewBox="0 0 112 713" fill="none" xmlns="http://www.w3.org/2000/svg">
<g clip-path="url(#clip0_763_422)">
<path d="M53.6996 484.656L24.76 460.684L24.76 402.718C24.1208 402.643 23.5346 402.326 23.1213 401.833C22.708 401.339 22.4989 400.707 22.5367 400.064C22.5745 399.422 22.8563 398.818 23.3246 398.377C23.7928 397.935 24.4121 397.689 25.0557 397.689C25.6993 397.689 26.3185 397.935 26.7868 398.377C27.255 398.818 27.5369 399.422 27.5746 400.064C27.6124 400.707 27.4033 401.339 26.99 401.833C26.5767 402.326 25.9905 402.643 25.3514 402.718L25.3514 460.408L54.291 484.388L54.291 712.278L53.6996 712.278L53.6996 484.656Z" fill="url(#paint0_linear_763_422)"/>
<path d="M17.3638 365.349L17.3638 6.01664C16.5901 5.94072 15.8752 5.57023 15.3672 4.98167C14.8592 4.39312 14.5971 3.63166 14.6351 2.85514C14.6731 2.07862 15.0084 1.34637 15.5714 0.810233C16.1344 0.274096 16.882 -0.0249023 17.6595 -0.0249023C18.4369 -0.0249023 19.1846 0.274096 19.7476 0.810233C20.3106 1.34637 20.6459 2.07862 20.6839 2.85514C20.7219 3.63166 20.4598 4.39312 19.9518 4.98167C19.4438 5.57023 18.7289 5.94072 17.9552 6.01664L17.9552 365.594L0.607192 386.269L0.607196 695.766L0.0157859 695.766L0.0157822 386.017L17.3638 365.349Z" fill="url(#paint1_linear_763_422)"/>
<path d="M77.0096 512.831L97.5118 493.906L97.5118 448.076C97.9652 448.022 98.3812 447.798 98.6745 447.448C98.9679 447.098 99.1164 446.649 99.0897 446.193C99.063 445.737 98.8631 445.309 98.5309 444.995C98.1987 444.682 97.7594 444.508 97.3028 444.508C96.8462 444.508 96.4068 444.682 96.0746 444.995C95.7424 445.309 95.5425 445.737 95.5158 446.193C95.4891 446.649 95.6377 447.098 95.931 447.448C96.2243 447.798 96.6403 448.022 97.0938 448.076L97.0938 493.685L76.6311 512.61L76.6311 672.401L77.049 672.401L77.0096 512.831Z" fill="url(#paint2_linear_763_422)"/>
<path d="M82.6393 127.35C82.6393 128.241 81.7246 128.975 80.5497 129.077L80.5497 169.017L107.707 185.576L107.707 410.131L111.066 412.638L111.066 608.15L110.475 608.15L110.475 412.97L107.471 410.73L107.155 410.73L107.155 410.486L81.5353 391.379L81.5353 339.177C80.954 339.143 80.4058 338.896 79.9955 338.483C79.5852 338.07 79.3417 337.519 79.3116 336.938C79.3724 336.312 79.664 335.731 80.1298 335.308C80.5955 334.885 81.202 334.651 81.8311 334.651C82.4601 334.651 83.0666 334.885 83.5323 335.308C83.9981 335.731 84.2897 336.312 84.3505 336.938C84.3204 337.519 84.0769 338.07 83.6666 338.483C83.2564 338.896 82.7081 339.143 82.1268 339.177L82.1268 391.127L107.163 409.752L107.163 185.805L80.0056 169.246L80.0056 129.093C78.8306 128.99 77.9159 128.257 77.9159 127.366C77.9159 124.165 78.9804 123.865 80.2815 123.865C82.0558 123.849 82.6393 124.724 82.6393 127.35Z" fill="url(#paint3_linear_763_422)"/>
</g>
<defs>
<linearGradient id="paint0_linear_763_422" x1="38.4176" y1="397.703" x2="38.4176" y2="712.27" gradientUnits="userSpaceOnUse">
<stop offset="0.01" stop-color="#FF9E00"/>
<stop offset="1" stop-color="#303030" stop-opacity="0"/>
</linearGradient>
<linearGradient id="paint1_linear_763_422" x1="10.3457" y1="5.17836e-05" x2="10.3457" y2="695.734" gradientUnits="userSpaceOnUse">
<stop offset="0.01" stop-color="#FF9E00"/>
<stop offset="1" stop-color="#303030" stop-opacity="0"/>
</linearGradient>
<linearGradient id="paint2_linear_763_422" x1="87.8205" y1="444.086" x2="87.8205" y2="672.417" gradientUnits="userSpaceOnUse">
<stop offset="0.01" stop-color="#FF9E00"/>
<stop offset="1" stop-color="#303030" stop-opacity="0"/>
</linearGradient>
<linearGradient id="paint3_linear_763_422" x1="94.4911" y1="123.849" x2="94.4912" y2="608.19" gradientUnits="userSpaceOnUse">
<stop offset="0.01" stop-color="#FF9E00"/>
<stop offset="1" stop-color="#303030" stop-opacity="0"/>
</linearGradient>
<clipPath id="clip0_763_422">
<rect width="712.27" height="111.067" fill="white" transform="translate(111.066) rotate(90)"/>
</clipPath>
</defs>
</svg>
