<svg width="139" height="600" viewBox="0 0 139 600" fill="none" xmlns="http://www.w3.org/2000/svg">
<g clip-path="url(#clip0_469_7881)">
<path d="M0.791996 346.409L31.6863 320.84L31.6863 259.031C32.3686 258.951 32.9944 258.613 33.4356 258.087C33.8768 257.561 34.1001 256.886 34.0598 256.201C34.0195 255.516 33.7186 254.872 33.2187 254.402C32.7188 253.931 32.0577 253.668 31.3706 253.668C30.6835 253.668 30.0224 253.931 29.5226 254.402C29.0227 254.872 28.7218 255.516 28.6815 256.201C28.6411 256.886 28.8644 257.561 29.3056 258.087C29.7468 258.613 30.3726 258.951 31.0549 259.031L31.0549 320.545L0.16064 346.106L0.16063 589.103L0.791985 589.103L0.791996 346.409Z" fill="url(#paint0_linear_469_7881)"/>
<path d="M63.9194 257.921L63.9194 187.343C63.4602 187.264 63.0473 187.015 62.7626 186.647C62.4778 186.279 62.3418 185.817 62.3815 185.353C62.4212 184.889 62.6337 184.457 62.9769 184.143C63.3202 183.828 63.7691 183.653 64.2351 183.653C64.7011 183.653 65.1502 183.828 65.4934 184.143C65.8366 184.457 66.0491 184.889 66.0888 185.353C66.1285 185.817 65.9924 186.279 65.7076 186.647C65.4229 187.015 65.01 187.264 64.5508 187.343L64.5508 257.534L94.2666 273.115L94.2666 598.15L93.6352 598.15L93.6352 273.493L63.9194 257.921Z" fill="url(#paint1_linear_469_7881)"/>
<path d="M78.7768 257.921L78.7768 134.396C78.1665 134.316 77.6095 134.007 77.2188 133.532C76.8282 133.057 76.6331 132.451 76.6733 131.837C76.7134 131.224 76.9858 130.649 77.4351 130.228C77.8844 129.808 78.4769 129.574 79.0925 129.574C79.7081 129.574 80.3007 129.808 80.7499 130.228C81.1992 130.649 81.4716 131.224 81.5118 131.837C81.552 132.451 81.3569 133.057 80.9662 133.532C80.5756 134.007 80.0186 134.316 79.4082 134.396L79.4082 257.534L109.124 273.115L109.124 598.15L108.493 598.15L108.493 273.493L78.7768 257.921Z" fill="url(#paint2_linear_469_7881)"/>
<path d="M93.6344 257.921L93.6344 187.343C93.1751 187.264 92.7623 187.015 92.4775 186.647C92.1927 186.279 92.0567 185.817 92.0964 185.353C92.136 184.889 92.3485 184.457 92.6918 184.143C93.035 183.828 93.4841 183.653 93.9501 183.653C94.416 183.653 94.865 183.828 95.2082 184.143C95.5515 184.457 95.764 184.889 95.8036 185.353C95.8433 185.817 95.7074 186.279 95.4226 186.647C95.1378 187.015 94.725 187.264 94.2657 187.343L94.2657 257.534L123.981 273.115L123.981 598.15L123.35 598.15L123.35 273.493L93.6344 257.921Z" fill="url(#paint3_linear_469_7881)"/>
<path d="M108.493 257.921L108.493 3.67457C108.034 3.59559 107.621 3.34728 107.336 2.97888C107.051 2.61048 106.915 2.14876 106.955 1.68501C106.994 1.22127 107.207 0.789279 107.55 0.474489C107.893 0.159699 108.342 -0.0148939 108.808 -0.0148939C109.274 -0.0148939 109.723 0.159699 110.067 0.474489C110.41 0.789279 110.622 1.22127 110.662 1.68501C110.702 2.14876 110.566 2.61048 110.281 2.97888C109.996 3.34728 109.583 3.59559 109.124 3.67457L109.124 257.535L138.84 273.115L138.84 598.15L138.208 598.15L138.208 273.493L108.493 257.921Z" fill="url(#paint4_linear_469_7881)"/>
<path d="M78.6929 475.197L47.7985 449.636L47.7985 387.819C47.1162 387.739 46.4904 387.401 46.0492 386.875C45.608 386.349 45.3847 385.674 45.4251 384.989C45.4654 384.304 45.7663 383.66 46.2661 383.19C46.766 382.719 47.4271 382.457 48.1142 382.457C48.8012 382.457 49.4624 382.719 49.9623 383.19C50.4622 383.66 50.7631 384.304 50.8034 384.989C50.8437 385.674 50.6204 386.349 50.1792 386.875C49.738 387.401 49.1122 387.739 48.4299 387.819L48.4298 449.334L79.3242 474.903L79.3242 599.992L78.6929 599.992L78.6929 475.197Z" fill="url(#paint5_linear_469_7881)"/>
</g>
<defs>
<linearGradient id="paint0_linear_469_7881" x1="17.1062" y1="253.684" x2="17.1062" y2="589.112" gradientUnits="userSpaceOnUse">
<stop offset="0.01" stop-color="#0090D4"/>
<stop offset="1" stop-color="#303030" stop-opacity="0"/>
</linearGradient>
<linearGradient id="paint1_linear_469_7881" x1="78.3228" y1="183.668" x2="78.3228" y2="598.15" gradientUnits="userSpaceOnUse">
<stop offset="0.01" stop-color="#0090D4"/>
<stop offset="1" stop-color="#303030" stop-opacity="0"/>
</linearGradient>
<linearGradient id="paint2_linear_469_7881" x1="92.894" y1="129.595" x2="92.8939" y2="598.15" gradientUnits="userSpaceOnUse">
<stop offset="0.01" stop-color="#0090D4"/>
<stop offset="1" stop-color="#303030" stop-opacity="0"/>
</linearGradient>
<linearGradient id="paint3_linear_469_7881" x1="108.038" y1="183.668" x2="108.038" y2="598.15" gradientUnits="userSpaceOnUse">
<stop offset="0.01" stop-color="#0090D4"/>
<stop offset="1" stop-color="#303030" stop-opacity="0"/>
</linearGradient>
<linearGradient id="paint4_linear_469_7881" x1="122.896" y1="0.000201123" x2="122.896" y2="598.15" gradientUnits="userSpaceOnUse">
<stop offset="0.01" stop-color="#0090D4"/>
<stop offset="1" stop-color="#303030" stop-opacity="0"/>
</linearGradient>
<linearGradient id="paint5_linear_469_7881" x1="62.3786" y1="382.48" x2="62.3786" y2="600" gradientUnits="userSpaceOnUse">
<stop offset="0.01" stop-color="#0090D4"/>
<stop offset="1" stop-color="#303030" stop-opacity="0"/>
</linearGradient>
<clipPath id="clip0_469_7881">
<rect width="600" height="138.679" fill="white" transform="translate(138.84) rotate(90)"/>
</clipPath>
</defs>
</svg>
