<svg width="78" height="78" viewBox="0 0 78 78" fill="none" xmlns="http://www.w3.org/2000/svg">
<path d="M38.8126 36.021C39.1145 36.0454 39.4139 35.9489 39.6447 35.7526C39.8755 35.5564 40.0189 35.2765 40.0434 34.9745C40.3313 31.3932 39.9276 27.0245 38.3678 25.3412C37.7843 24.6953 37.1446 24.5598 36.718 24.5598C33.967 24.5598 33.3896 29.0504 33.3896 32.8175V39.6495C33.3896 42.1812 34.0843 44.5438 35.3456 46.3063C36.878 48.4465 39.1309 49.5768 41.8576 49.5768C47.4755 49.5768 53.1635 43.8202 53.1635 32.8206C53.1635 26.8295 51.7133 21.6655 48.9699 17.8923C48.0307 16.5882 46.9063 15.4279 45.6323 14.4482C45.5132 14.3547 45.3767 14.2858 45.2308 14.2455C45.0848 14.2052 44.9323 14.1944 44.7821 14.2136C44.6319 14.2327 44.487 14.2816 44.3558 14.3573C44.2247 14.433 44.1099 14.534 44.0181 14.6544C43.9264 14.7748 43.8594 14.9123 43.8213 15.0589C43.7831 15.2054 43.7745 15.3581 43.7958 15.508C43.8172 15.6579 43.8681 15.802 43.9457 15.9321C44.0233 16.0621 44.1259 16.1754 44.2477 16.2655C45.3445 17.1108 46.3123 18.1114 47.1206 19.2359C49.5792 22.6115 50.8846 27.3108 50.8846 32.8175C50.8846 38.4232 49.2974 41.8308 47.966 43.703C46.3209 46.0184 44.1578 47.2933 41.8637 47.2933C37.8788 47.2933 35.9488 43.9528 35.7066 40.4157C36.1003 40.8142 36.5689 41.131 37.0855 41.3477C37.602 41.5644 38.1564 41.6769 38.7166 41.6785C41.3199 41.6785 44.4244 40.1415 44.4244 32.8175C44.4244 32.0559 44.3969 31.3019 44.3406 30.5905C44.3319 30.4386 44.293 30.29 44.2261 30.1534C44.1592 30.0168 44.0657 29.8949 43.9511 29.7949C43.8365 29.6949 43.7031 29.6188 43.5586 29.571C43.4142 29.5233 43.2617 29.5048 43.1101 29.5168C42.9584 29.5288 42.8107 29.5709 42.6756 29.6407C42.5404 29.7105 42.4206 29.8066 42.3231 29.9234C42.2256 30.0401 42.1524 30.1752 42.1078 30.3206C42.0632 30.466 42.048 30.6189 42.0633 30.7702C42.1135 31.4207 42.1394 32.1107 42.1394 32.8175C42.1394 39.3936 39.5635 39.3936 38.7166 39.3936C36.8719 39.3936 35.6807 36.804 35.6807 32.8175C35.6807 28.988 36.3266 27.2438 36.6998 26.8858C36.8886 27.0884 37.2771 27.745 37.5558 29.221C37.8605 30.8053 37.9336 32.784 37.7722 34.7917C37.7473 35.0927 37.8429 35.3912 38.038 35.6217C38.233 35.8522 38.5116 35.9958 38.8126 36.021Z" fill="#E1E1E1"/>
<path d="M52.7696 57.7814C52.5542 57.5732 52.2656 57.4579 51.9661 57.4604C51.6665 57.4628 51.3799 57.5828 51.168 57.7946C50.9561 58.0063 50.8358 58.2928 50.8331 58.5923C50.8303 58.8919 50.9453 59.1805 51.1533 59.3961L58.8048 67.0537C58.9109 67.1598 59.0369 67.2441 59.1756 67.3015C59.3142 67.359 59.4628 67.3885 59.6129 67.3885C59.763 67.3885 59.9116 67.359 60.0503 67.3015C60.189 67.2441 60.3149 67.1598 60.421 67.0537L77.6631 49.8177C77.8714 49.6023 77.9867 49.3137 77.9842 49.0142C77.9817 48.7146 77.8617 48.428 77.65 48.2161C77.4383 48.0042 77.1518 47.8839 76.8522 47.8812C76.5527 47.8784 76.264 47.9934 76.0485 48.2014L59.6183 64.6301L52.7696 57.7814Z" fill="#FF9E00"/>
<path d="M76.3486 53.5223C75.7393 54.0387 75.0766 54.4926 74.4795 54.9344C75.9231 58.2409 76.114 61.9598 75.0166 65.3968C73.9191 68.8337 71.6084 71.7538 68.5157 73.6119C65.423 75.47 61.7598 76.139 58.21 75.4941C54.6602 74.8492 51.4664 72.9344 49.2249 70.1072C46.9834 67.2801 45.8474 63.7338 46.0291 60.1304C46.2107 56.5271 47.6975 53.113 50.2119 50.5255C52.7263 47.9381 56.0964 46.3541 59.6931 46.0694C63.2898 45.7847 66.8671 46.8187 69.7573 48.9783C69.8939 49.0807 70.0518 49.1511 70.2192 49.1844C70.3867 49.2178 70.5594 49.2131 70.7248 49.1709C70.8903 49.1287 71.0441 49.0499 71.1751 48.9404C71.306 48.8309 71.4108 48.6934 71.4817 48.5381C71.5001 48.4974 71.5164 48.4557 71.5304 48.4132C74.0046 41.0476 74.0786 33.0871 71.7418 25.6768C69.4049 18.2665 64.7777 11.7884 58.5259 7.17462C52.274 2.56081 44.7197 0.0490531 36.9499 0.000711104C29.18 -0.0476309 21.595 2.36993 15.2862 6.9056C8.97745 11.4413 4.27 17.8612 1.84114 25.2419C-0.587712 32.6225 -0.61277 40.5834 1.76957 47.9792C4.15191 55.3749 8.81885 61.8244 15.099 66.3997C21.3791 70.975 28.9487 73.4403 36.7187 73.4408C38.8205 73.4408 40.9184 73.2624 42.9901 72.9077C43.138 72.8822 43.2795 72.8278 43.4064 72.7476C43.5333 72.6674 43.6431 72.563 43.7297 72.4404C43.8163 72.3178 43.8778 72.1793 43.9109 72.0329C43.9439 71.8864 43.9478 71.7349 43.9223 71.587C43.8968 71.4391 43.8424 71.2976 43.7622 71.1707C43.6821 71.0438 43.5777 70.9339 43.455 70.8473C43.3324 70.7608 43.1939 70.6992 43.0475 70.6662C42.9011 70.6331 42.7496 70.6292 42.6016 70.6547C40.6584 70.9883 38.6903 71.1559 36.7187 71.1559C17.7354 71.1559 2.29234 55.7128 2.29234 36.7296C2.29234 17.7463 17.7354 2.30321 36.7187 2.30321C55.7019 2.30321 71.145 17.7463 71.145 36.7296C71.1482 39.9514 70.6991 43.1577 69.8106 46.2547C66.5194 44.2408 62.6446 43.3972 58.814 43.8606C54.9834 44.3239 51.4215 46.0671 48.7054 48.8077C46.8116 50.6529 44.2693 51.6811 41.6252 51.6715C41.3222 51.6715 41.0316 51.7919 40.8173 52.0061C40.6031 52.2204 40.4827 52.511 40.4827 52.814C40.4827 53.117 40.6031 53.4076 40.8173 53.6218C41.0316 53.8361 41.3222 53.9564 41.6252 53.9564C42.9255 53.9599 44.2184 53.7616 45.4578 53.3685C45.1155 54.0684 44.8218 54.7912 44.5789 55.5315C43.1243 55.8205 41.6443 55.9619 40.1613 55.9535C34.0499 55.9535 31.7375 53.0668 30.4945 51.5161C29.9903 50.887 29.6247 50.4315 29.0641 50.2579C28.432 50.0614 27.876 50.296 27.288 50.5427C26.4974 50.8748 25.3077 51.3775 23.0837 51.3775C22.7807 51.3775 22.4901 51.4979 22.2759 51.7121C22.0616 51.9264 21.9412 52.217 21.9412 52.52C21.9412 52.823 22.0616 53.1136 22.2759 53.3278C22.4901 53.5421 22.7807 53.6624 23.0837 53.6624C25.7662 53.6624 27.2728 53.0272 28.1746 52.6495L28.3954 52.5565C28.4929 52.6738 28.6102 52.8185 28.7123 52.945C30.0832 54.6632 32.9531 58.2384 40.1613 58.2384C41.4359 58.2416 42.709 58.1484 43.9695 57.9596C43.5133 60.6139 43.689 63.3384 44.4825 65.9121C45.276 68.4858 46.665 70.8362 48.5367 72.7728C50.4085 74.7093 52.7103 76.1774 55.2555 77.058C57.8007 77.9387 60.5176 78.207 63.1859 77.8413C65.8542 77.4755 68.3987 76.4861 70.6131 74.9531C72.8275 73.4201 74.6494 71.3868 75.931 69.018C77.2127 66.6493 77.918 64.0118 77.9897 61.3195C78.0615 58.6272 77.4977 55.9559 76.344 53.5223H76.3486Z" fill="#E1E1E1"/>
<path d="M26.2427 55.2527C26.0407 55.0264 25.7571 54.8897 25.4543 54.8726C25.1515 54.8554 24.8543 54.9593 24.628 55.1613C24.4018 55.3633 24.2651 55.6469 24.2479 55.9497C24.2308 56.2525 24.3346 56.5497 24.5366 56.776C27.5527 60.1561 31.8774 62.0176 36.723 62.0176C37.026 62.0176 37.3165 61.8972 37.5308 61.683C37.7451 61.4687 37.8654 61.1781 37.8654 60.8751C37.8654 60.5721 37.7451 60.2815 37.5308 60.0673C37.3165 59.853 37.026 59.7327 36.723 59.7327C32.5385 59.7311 28.8186 58.1408 26.2427 55.2527Z" fill="#E1E1E1"/>
<path d="M21.7802 49.5771C23.392 49.5784 24.9755 49.1533 26.3701 48.3452C27.7647 47.537 28.9208 46.3744 29.7211 44.9752C30.0398 46.1072 30.4972 47.1954 31.0829 48.2152C32.4631 50.6512 34.7096 52.4784 37.3756 53.3335C37.4887 53.3706 37.6069 53.3896 37.726 53.3899C37.9979 53.3888 38.2605 53.291 38.4669 53.1139C38.6732 52.9368 38.8097 52.6919 38.8518 52.4233C38.894 52.1547 38.8391 51.8798 38.697 51.648C38.5549 51.4162 38.3348 51.2425 38.0763 51.1582C33.7715 49.7736 31.3038 45.583 31.3038 39.6574V32.8178C31.3038 26.4368 33.3785 22.4716 36.7191 22.4716C39.4899 22.4716 40.7939 25.2136 41.3255 26.8389C41.3692 26.9848 41.4417 27.1204 41.5386 27.2379C41.6355 27.3554 41.7549 27.4523 41.8898 27.5229C42.0246 27.5936 42.1723 27.6366 42.324 27.6493C42.4758 27.6621 42.6285 27.6444 42.7734 27.5973C42.9182 27.5502 43.0521 27.4746 43.1673 27.375C43.2824 27.2754 43.3765 27.1537 43.444 27.0172C43.5115 26.8807 43.551 26.7321 43.5602 26.5801C43.5694 26.4281 43.5482 26.2758 43.4977 26.1321C42.2684 22.3544 39.7976 20.1913 36.7191 20.1913C32.9961 20.1913 29.0188 23.509 29.0188 32.8224V38.4738C29.0188 45.4383 24.4688 47.2967 21.7802 47.2967C21.4772 47.2967 21.1866 47.4171 20.9723 47.6313C20.7581 47.8456 20.6377 48.1362 20.6377 48.4392C20.6377 48.7422 20.7581 49.0328 20.9723 49.247C21.1866 49.4613 21.4772 49.5816 21.7802 49.5816V49.5771Z" fill="#E1E1E1"/>
<path d="M21.4142 45.49C23.9581 45.49 26.93 43.6514 26.9285 38.4692V32.8178C26.9285 32.1232 26.9544 31.4285 27.0016 30.7537C27.0232 30.4507 26.9236 30.1515 26.7246 29.922C26.5256 29.6925 26.2436 29.5514 25.9406 29.5298C25.6376 29.5081 25.3385 29.6078 25.1089 29.8068C24.8794 30.0057 24.7383 30.2877 24.7167 30.5907C24.6649 31.3189 24.6375 32.0683 24.6375 32.8178V38.4692C24.6375 41.435 23.431 43.2051 21.4081 43.2051C21.1051 43.2051 20.8145 43.3255 20.6002 43.5397C20.386 43.754 20.2656 44.0446 20.2656 44.3476C20.2656 44.6506 20.386 44.9411 20.6002 45.1554C20.8145 45.3697 21.1051 45.49 21.4081 45.49H21.4142Z" fill="#E1E1E1"/>
<path d="M41.7316 12.3066C40.1228 11.7302 38.4259 11.4379 36.7169 11.4429C31.8317 11.4429 27.4812 13.7279 24.4651 17.8834C21.7232 21.6627 20.2715 26.8251 20.2715 32.8116V39.5278C20.2715 39.8308 20.3919 40.1214 20.6061 40.3357C20.8204 40.5499 21.111 40.6703 21.414 40.6703C21.717 40.6703 22.0075 40.5499 22.2218 40.3357C22.4361 40.1214 22.5564 39.8308 22.5564 39.5278V32.8177C22.5564 27.311 23.8558 22.6117 26.3144 19.2269C28.8887 15.6807 32.5827 13.7279 36.7169 13.7279C38.1616 13.7229 39.596 13.9693 40.9562 14.456C41.2413 14.5588 41.5555 14.5442 41.8297 14.4154C42.1039 14.2865 42.3158 14.054 42.4186 13.769C42.5214 13.484 42.5068 13.1698 42.378 12.8955C42.2491 12.6213 42.0166 12.4095 41.7316 12.3066Z" fill="#E1E1E1"/>
<path d="M27.8341 20.5067C26.7861 21.9538 25.9391 23.9219 25.3862 26.219C25.3192 26.5121 25.3704 26.8197 25.5287 27.0752C25.6869 27.3308 25.9396 27.5136 26.2318 27.5842C26.524 27.6547 26.8322 27.6073 27.0897 27.4521C27.3471 27.2969 27.533 27.0465 27.6071 26.7552C28.0915 24.7475 28.8075 23.0521 29.6818 21.8533C31.4412 19.4343 33.947 18.1014 36.7179 18.1014C39.4888 18.1014 41.9946 19.4343 43.7555 21.8533C45.4768 24.2189 46.5066 28.3181 46.5066 32.8209C46.5066 37.8478 44.7304 43.2631 40.8338 43.2631C40.5308 43.2631 40.2402 43.3835 40.026 43.5977C39.8117 43.812 39.6914 44.1026 39.6914 44.4056C39.6914 44.7086 39.8117 44.9992 40.026 45.2134C40.2402 45.4277 40.5308 45.548 40.8338 45.548C43.3214 45.548 45.4738 44.1085 46.8981 41.493C48.1167 39.2492 48.7915 36.1691 48.7915 32.8209C48.7915 27.7804 47.6292 23.2928 45.6017 20.5097C43.4006 17.4845 40.2458 15.818 36.7179 15.818C33.19 15.818 30.0368 17.4814 27.8341 20.5067Z" fill="#E1E1E1"/>
</svg>
