<svg width="593" height="147" viewBox="0 0 593 147" fill="none" xmlns="http://www.w3.org/2000/svg">
<g clip-path="url(#clip0_763_4)">
<path d="M367.194 146.331L340.09 113.583H274.573C274.488 112.86 274.13 112.196 273.572 111.729C273.015 111.261 272.3 111.024 271.573 111.067C270.847 111.11 270.165 111.429 269.666 111.958C269.167 112.488 268.889 113.189 268.889 113.918C268.889 114.646 269.167 115.347 269.666 115.876C270.165 116.406 270.847 116.725 271.573 116.768C272.3 116.811 273.015 116.574 273.572 116.106C274.13 115.639 274.488 114.975 274.573 114.252H339.778L366.873 147H624.449V146.331H367.194Z" fill="url(#paint0_linear_763_4)"/>
<path d="M273.397 79.416H198.584C198.5 79.9028 198.237 80.3405 197.846 80.6423C197.456 80.9442 196.966 81.0883 196.475 81.0462C195.983 81.0042 195.525 80.7789 195.192 80.4151C194.858 80.0513 194.673 79.5754 194.673 79.0814C194.673 78.5875 194.858 78.1115 195.192 77.7476C195.525 77.3838 195.983 77.1586 196.475 77.1165C196.966 77.0745 197.456 77.2187 197.846 77.5205C198.237 77.8224 198.5 78.26 198.584 78.7468H272.987L289.502 47.248H634.039V47.9173H289.903L273.397 79.416Z" fill="url(#paint1_linear_763_4)"/>
<path d="M273.397 63.6667H142.461C142.376 64.3137 142.048 64.9041 141.545 65.3182C141.041 65.7323 140.398 65.939 139.748 65.8965C139.098 65.8539 138.488 65.5651 138.042 65.0889C137.597 64.6127 137.349 63.9846 137.349 63.332C137.349 62.6795 137.597 62.0514 138.042 61.5752C138.488 61.099 139.098 60.8102 139.748 60.7676C140.398 60.725 141.041 60.9318 141.545 61.3459C142.048 61.76 142.376 62.3504 142.461 62.9974H272.987L289.502 31.4987H634.04V32.1679H289.903L273.397 63.6667Z" fill="url(#paint2_linear_763_4)"/>
<path d="M273.397 47.9173H198.584C198.5 48.4041 198.237 48.8417 197.846 49.1436C197.456 49.4454 196.966 49.5896 196.475 49.5476C195.983 49.5055 195.525 49.2803 195.192 48.9165C194.858 48.5526 194.673 48.0766 194.673 47.5827C194.673 47.0887 194.858 46.6128 195.192 46.249C195.525 45.8852 195.983 45.6599 196.475 45.6179C196.966 45.5758 197.456 45.7199 197.846 46.0218C198.237 46.3236 198.5 46.7613 198.584 47.248H272.987L289.502 15.7494H634.039V16.4186H289.903L273.397 47.9173Z" fill="url(#paint3_linear_763_4)"/>
<path d="M273.397 32.1679H3.89521C3.81149 32.6547 3.54828 33.0923 3.15778 33.3942C2.76727 33.696 2.27785 33.8402 1.78628 33.7982C1.29471 33.7561 0.836798 33.5309 0.503121 33.1671C0.169444 32.8032 -0.015625 32.3272 -0.015625 31.8333C-0.015625 31.3393 0.169444 30.8634 0.503121 30.4996C0.836798 30.1358 1.29471 29.9105 1.78628 29.8685C2.27785 29.8264 2.76727 29.9706 3.15778 30.2725C3.54828 30.5744 3.81149 31.0119 3.89521 31.4987H272.987L289.502 0H634.04V0.669236H289.903L273.397 32.1679Z" fill="url(#paint4_linear_763_4)"/>
<path d="M503.709 63.7559L476.615 96.5039H411.089C411.003 97.2272 410.645 97.8905 410.088 98.3582C409.53 98.8258 408.815 99.0625 408.089 99.0198C407.363 98.977 406.68 98.6581 406.181 98.1282C405.682 97.5984 405.404 96.8976 405.404 96.1693C405.404 95.441 405.682 94.7402 406.181 94.2103C406.68 93.6804 407.363 93.3615 408.089 93.3187C408.815 93.276 409.53 93.5127 410.088 93.9804C410.645 94.448 411.003 95.1114 411.089 95.8347H476.294L503.397 63.0867H635.991V63.7559H503.709Z" fill="url(#paint5_linear_763_4)"/>
</g>
<defs>
<linearGradient id="paint0_linear_763_4" x1="268.905" y1="129.038" x2="624.458" y2="129.038" gradientUnits="userSpaceOnUse">
<stop offset="0.01" stop-color="#00B850"/>
<stop offset="1" stop-color="#303030" stop-opacity="0"/>
</linearGradient>
<linearGradient id="paint1_linear_763_4" x1="194.689" y1="64.1485" x2="634.04" y2="64.1485" gradientUnits="userSpaceOnUse">
<stop offset="0.01" stop-color="#00B850"/>
<stop offset="1" stop-color="#303030" stop-opacity="0"/>
</linearGradient>
<linearGradient id="paint2_linear_763_4" x1="137.371" y1="48.7025" x2="634.039" y2="48.7025" gradientUnits="userSpaceOnUse">
<stop offset="0.01" stop-color="#00B850"/>
<stop offset="1" stop-color="#303030" stop-opacity="0"/>
</linearGradient>
<linearGradient id="paint3_linear_763_4" x1="194.689" y1="32.6498" x2="634.04" y2="32.6498" gradientUnits="userSpaceOnUse">
<stop offset="0.01" stop-color="#00B850"/>
<stop offset="1" stop-color="#303030" stop-opacity="0"/>
</linearGradient>
<linearGradient id="paint4_linear_763_4" x1="0.000375061" y1="16.9004" x2="634.04" y2="16.9004" gradientUnits="userSpaceOnUse">
<stop offset="0.01" stop-color="#00B850"/>
<stop offset="1" stop-color="#303030" stop-opacity="0"/>
</linearGradient>
<linearGradient id="paint5_linear_763_4" x1="405.429" y1="81.049" x2="636" y2="81.049" gradientUnits="userSpaceOnUse">
<stop offset="0.01" stop-color="#00B850"/>
<stop offset="1" stop-color="#303030" stop-opacity="0"/>
</linearGradient>
<clipPath id="clip0_763_4">
<rect width="636" height="147" fill="white"/>
</clipPath>
</defs>
</svg>
