<svg width="65" height="65" viewBox="0 0 65 65" fill="none" xmlns="http://www.w3.org/2000/svg">
<path d="M24.7319 24.0541C25.0721 24.6433 25.7007 25.0063 26.381 25.0063H30.5959V29.6055L30.038 29.0477C29.2945 28.3041 28.0887 28.3041 27.345 29.0477C26.6013 29.7913 26.6013 30.9971 27.345 31.7408L31.1536 35.5494C31.5254 35.9212 32.0128 36.1072 32.5 36.1072C32.9873 36.1072 33.4748 35.9212 33.8465 35.5494L37.6551 31.7408C38.3988 30.9972 38.3988 29.7914 37.6551 29.0477C36.9115 28.3041 35.7057 28.3041 34.962 29.0477L34.4045 29.6055V25.0061H38.6193C39.2997 25.0061 39.9283 24.6432 40.2684 24.054L46.3877 13.4552C46.7279 12.866 46.7279 12.14 46.3877 11.5509L40.2684 0.95215C39.9283 0.36296 39.2998 0 38.6193 0H26.381C25.7007 0 25.072 0.36296 24.7319 0.95215L18.6126 11.5509C18.2724 12.14 18.2724 12.866 18.6126 13.4552L24.7319 24.0541ZM27.4804 3.8086H37.5199L42.5398 12.503L37.5199 21.1975H27.4804L22.4606 12.503L27.4804 3.8086Z" fill="#FF9E00"/>
<path d="M64.7449 40.9461L58.6258 30.3473C58.2856 29.7581 57.657 29.3951 56.9767 29.3951H44.7382C44.0579 29.3951 43.4292 29.7581 43.0891 30.3473L37.5197 39.994H27.4807L21.9113 30.3473C21.571 29.7581 20.9425 29.3951 20.2621 29.3951H8.02345C7.34311 29.3951 6.71444 29.7581 6.37433 30.3473L0.255176 40.9461C-0.0850588 41.5353 -0.0850588 42.2612 0.255176 42.8504L6.37433 53.4491C6.71456 54.0383 7.34311 54.4013 8.02345 54.4013H19.1622L24.7317 64.0478C25.0719 64.637 25.7004 65 26.3808 65H38.6191C39.2994 65 39.9281 64.637 40.2682 64.0478L45.8377 54.4013H56.9767C57.657 54.4013 58.2857 54.0383 58.6258 53.4491L64.7449 42.8504C65.0852 42.2614 65.0852 41.5353 64.7449 40.9461ZM9.12287 50.5928L4.10313 41.8984L9.12287 33.2039H19.1625L24.1821 41.8983L19.1622 50.5929H9.12287V50.5928ZM37.5198 61.1915H27.4803L22.4607 52.4972L27.4806 43.8026H37.5195L42.5394 52.4972L37.5198 61.1915ZM55.8773 50.5928H45.8379L40.8181 41.8981L45.8377 33.2037H55.8773L60.897 41.8983L55.8773 50.5928Z" fill="#EFEFEF"/>
</svg>
