<svg width="66" height="66" viewBox="0 0 66 66" fill="none" xmlns="http://www.w3.org/2000/svg">
<path d="M59.6127 27.6775H38.3224C37.1482 27.6775 36.1934 28.6324 36.1934 29.8065V59.613C36.1934 60.7871 37.1482 61.742 38.3224 61.742H59.6127C60.7869 61.742 61.7417 60.7871 61.7417 59.613V29.8065C61.7417 28.6324 60.7869 27.6775 59.6127 27.6775ZM59.6127 29.8065L59.6138 38.3227H38.3224V29.8065H59.6127ZM59.6138 40.4517L59.6148 48.9678H38.3224V40.4517H59.6138ZM38.3224 59.613V51.0968H59.6138L59.6148 59.613H38.3224Z" fill="#E1E1E1"/>
<path d="M40.4512 53.2258H42.5802V57.4839H40.4512V53.2258Z" fill="#FF9E00"/>
<path d="M44.71 53.2258H46.839V57.4839H44.71V53.2258Z" fill="#FF9E00"/>
<path d="M48.9678 53.2258H51.0968V57.4839H48.9678V53.2258Z" fill="#FF9E00"/>
<path d="M46.8389 42.5806H48.9679V46.8386H46.8389V42.5806Z" fill="#FF9E00"/>
<path d="M51.0967 42.5806H53.2257V46.8386H51.0967V42.5806Z" fill="#FF9E00"/>
<path d="M55.3545 42.5806H57.4835V46.8386H55.3545V42.5806Z" fill="#FF9E00"/>
<path d="M40.4512 31.9355H42.5802V36.1936H40.4512V31.9355Z" fill="#FF9E00"/>
<path d="M44.71 31.9355H46.839V36.1936H44.71V31.9355Z" fill="#FF9E00"/>
<path d="M48.9678 31.9355H51.0968V36.1936H48.9678V31.9355Z" fill="#FF9E00"/>
<path d="M60.6774 23.4194H57.9746C59.0253 21.8556 59.6129 20.0097 59.6129 18.0968C59.6129 12.8146 55.3155 8.51613 50.0323 8.51613C49.3488 8.51613 48.6686 8.59065 47.998 8.73755C45.9211 3.47032 40.8732 0 35.129 0C30.1726 0 25.5729 2.706 23.1245 6.97897C22.209 6.58936 21.2243 6.3871 20.2258 6.3871C16.4553 6.3871 13.3299 9.20274 12.8402 12.8413C9.20274 13.3299 6.3871 16.4553 6.3871 20.2258C6.3871 23.9718 9.16974 27.0728 12.7742 27.5923V38.3769C5.64087 38.924 0 44.8906 0 52.1613C0 59.7917 6.20826 66 13.8387 66C21.1094 66 27.076 60.3591 27.6231 53.2258H31.9355V60.6774C31.9355 63.6123 34.3232 66 37.2581 66H60.6774C63.6123 66 66 63.6123 66 60.6774V28.7419C66 25.8071 63.6123 23.4194 60.6774 23.4194ZM8.51613 20.2258C8.51613 17.2909 10.9038 14.9032 13.8387 14.9032H14.9032V13.8387C14.9032 10.9038 17.2909 8.51613 20.2258 8.51613C21.2084 8.51613 22.1739 8.7929 23.018 9.31452L24.0325 9.94258L24.5414 8.86316C26.4681 4.77223 30.6251 2.12903 35.129 2.12903C40.2824 2.12903 44.7746 5.43116 46.3075 10.345L46.6322 11.3839L47.6637 11.0369C48.4366 10.7772 49.2339 10.6452 50.0323 10.6452C54.1402 10.6452 57.4839 13.9877 57.4839 18.0968C57.4839 20.1034 56.6578 22.0174 55.2196 23.4194H37.2581C35.5261 23.4194 33.9996 24.2635 33.0277 25.5484H13.8387C10.9038 25.5484 8.51613 23.1607 8.51613 20.2258V20.2258ZM13.8387 63.871C12.6944 63.871 11.4755 62.2455 10.6356 59.6129H17.0429C16.2019 62.2455 14.9831 63.871 13.8387 63.871V63.871ZM10.0927 57.4839C9.83294 56.1969 9.65836 54.7662 9.603 53.2258H18.0744C18.0191 54.7662 17.8434 56.1969 17.5847 57.4839H10.0927ZM2.18332 53.2258H7.47503C7.524 54.7364 7.6709 56.1671 7.91042 57.4839H3.42136C2.75497 56.1841 2.32065 54.7481 2.18332 53.2258V53.2258ZM13.8387 40.4516C14.9831 40.4516 16.2019 42.0771 17.0418 44.7097H10.6345C11.4755 42.0771 12.6944 40.4516 13.8387 40.4516ZM17.5847 46.8387C17.8445 48.1257 18.0191 49.5564 18.0744 51.0968H9.603C9.65836 49.5564 9.834 48.1257 10.0927 46.8387H17.5847ZM7.47503 51.0968H2.18332C2.32171 49.5745 2.75497 48.1385 3.42242 46.8387H7.91042C7.6709 48.1555 7.52294 49.5862 7.47503 51.0968V51.0968ZM20.2024 53.2258H25.4941C25.3557 54.7481 24.9225 56.1841 24.255 57.4839H19.767C20.0065 56.1671 20.1545 54.7364 20.2024 53.2258V53.2258ZM20.2024 51.0968C20.1534 49.5862 20.0065 48.1555 19.767 46.8387H24.255C24.9214 48.1385 25.3557 49.5745 25.4941 51.0968H20.2024ZM19.2731 44.7097C18.8813 43.3311 18.3821 42.1314 17.7923 41.1531C19.7872 41.8717 21.5373 43.1055 22.8637 44.7097H19.2731ZM9.8851 41.1531C9.29536 42.1314 8.7961 43.3311 8.40436 44.7097H4.81268C6.14013 43.1055 7.89019 41.8727 9.8851 41.1531V41.1531ZM4.81268 59.6129H8.40329C8.79503 60.9915 9.29429 62.1912 9.88403 63.1695C7.89019 62.4498 6.14013 61.2171 4.81268 59.6129ZM17.7923 63.1695C18.381 62.1912 18.8813 60.9915 19.2731 59.6129H22.8637C21.5373 61.2171 19.7872 62.4498 17.7923 63.1695V63.1695ZM27.6231 51.0968C27.1036 44.3158 21.6842 38.8964 14.9032 38.3769V27.6774H32.043C31.9727 28.0213 31.9355 28.3779 31.9355 28.7419V51.0968H27.6231ZM63.871 60.6774C63.871 62.4381 62.4381 63.871 60.6774 63.871H37.2581C35.4974 63.871 34.0645 62.4381 34.0645 60.6774V28.7419C34.0645 26.9812 35.4974 25.5484 37.2581 25.5484H60.6774C62.4381 25.5484 63.871 26.9812 63.871 28.7419V60.6774Z" fill="#E1E1E1"/>
<path d="M35.129 6.38709C35.7602 6.38709 36.3883 6.46586 36.9929 6.62128L37.5231 4.55931C36.7449 4.35919 35.9391 4.25806 35.129 4.25806C31.7193 4.25806 28.5396 6.09328 26.8311 9.04838L28.6727 10.114C30.0033 7.81461 32.4772 6.38709 35.129 6.38709V6.38709Z" fill="#E1E1E1"/>
<path d="M42.3143 7.50051C41.6245 6.71916 40.8186 6.05916 39.9202 5.53967L38.8535 7.38235C39.5529 7.78687 40.1799 8.29996 40.7175 8.90993L42.3143 7.50051Z" fill="#E1E1E1"/>
<path d="M20.2262 23.4193V21.2903H13.8391C13.2514 21.2903 12.7745 20.8123 12.7745 20.2258C12.7745 19.6392 13.2514 19.1613 13.8391 19.1613V17.0322C12.0783 17.0322 10.6455 18.4651 10.6455 20.2258C10.6455 21.9865 12.0783 23.4193 13.8391 23.4193H20.2262Z" fill="#E1E1E1"/>
<path d="M22.3545 21.2903H24.4835V23.4193H22.3545V21.2903Z" fill="#E1E1E1"/>
<path d="M53.2258 18.0968H55.3548C55.3548 15.1619 52.9671 12.7742 50.0322 12.7742V14.9032C51.7929 14.9032 53.2258 16.336 53.2258 18.0968Z" fill="#E1E1E1"/>
</svg>
