<svg width="68" height="68" viewBox="0 0 68 68" fill="none" xmlns="http://www.w3.org/2000/svg">
<g clip-path="url(#clip0_822_78)">
<path d="M63.4669 13.6001C60.9667 13.6001 58.9336 15.6333 58.9336 18.1334C58.9336 20.6334 60.9668 22.6667 63.4669 22.6667C65.9669 22.6667 68.0002 20.6336 68.0002 18.1334C68.0002 15.6333 65.9669 13.6001 63.4669 13.6001ZM63.4669 20.4001C62.2169 20.4001 61.2002 19.3836 61.2002 18.1334C61.2002 16.8834 62.2167 15.8667 63.4669 15.8667C64.717 15.8667 65.7336 16.8832 65.7336 18.1334C65.7335 19.3836 64.7169 20.4001 63.4669 20.4001Z" fill="#E1E1E1"/>
<path d="M4.53329 51C2.03323 51 0 53.0332 0 55.5333C0 58.0334 2.03323 60.0666 4.53329 60.0666C7.03348 60.0666 9.06658 58.0334 9.06658 55.5333C9.06658 53.0332 7.03348 51 4.53329 51ZM4.53329 57.8C3.28326 57.8 2.26658 56.7835 2.26658 55.5333C2.26658 54.2831 3.28312 53.2666 4.53329 53.2666C5.78332 53.2666 6.8 54.2831 6.8 55.5333C6.8 56.7835 5.78345 57.8 4.53329 57.8Z" fill="#E1E1E1"/>
<path d="M61.2693 15.0326L51.492 10.3123C50.9276 10.0391 50.251 10.2771 49.979 10.8405C49.707 11.4038 49.9438 12.0815 50.5072 12.3535L60.2845 17.0738C60.4432 17.1508 60.6109 17.1871 60.7763 17.1871C61.1978 17.1871 61.6025 16.9513 61.7973 16.5456C62.0693 15.9823 61.8325 15.3046 61.2693 15.0326Z" fill="#E1E1E1"/>
<path d="M51.0001 58.9333C48.4999 58.9333 46.4668 60.9666 46.4668 63.4666C46.4668 65.9667 48.4999 68.0001 51.0001 68.0001C53.5003 68.0001 55.5334 65.9668 55.5334 63.4668C55.5334 60.9667 53.5003 58.9333 51.0001 58.9333ZM51.0001 65.7334C49.7501 65.7334 48.7334 64.7168 48.7334 63.4666C48.7334 62.2165 49.7501 61.2001 51.0001 61.2001C52.2501 61.2001 53.2668 62.2166 53.2668 63.4668C53.2668 64.7169 52.2501 65.7334 51.0001 65.7334Z" fill="#E1E1E1"/>
<path d="M48.8025 60.366L39.0252 55.6457C38.4608 55.3725 37.7842 55.6095 37.5122 56.1739C37.2402 56.7372 37.477 57.4149 38.0404 57.6869L47.8177 62.4072C47.9764 62.4843 48.1441 62.5205 48.3095 62.5205C48.731 62.5205 49.1357 62.2848 49.3307 61.879C49.6025 61.3156 49.3657 60.638 48.8025 60.366Z" fill="#E1E1E1"/>
<path d="M34.0001 30.6001C31.4999 30.6001 29.4668 32.6333 29.4668 35.1334C29.4668 37.6336 31.5 39.6667 34.0001 39.6667C36.5003 39.6667 38.5334 37.6334 38.5334 35.1334C38.5334 32.6333 36.5003 30.6001 34.0001 30.6001ZM34.0001 37.4001C32.7501 37.4001 31.7334 36.3836 31.7334 35.1334C31.7334 33.8834 32.7499 32.8667 34.0001 32.8667C35.2501 32.8667 36.2668 33.8832 36.2668 35.1334C36.2668 36.3836 35.2501 37.4001 34.0001 37.4001Z" fill="#E1E1E1"/>
<path d="M32.0072 32.1595L24.4966 26.3058C24.0024 25.9239 23.2908 26.0089 22.9054 26.5031C22.5212 26.9972 22.6084 27.7089 23.1026 28.0943L30.6132 33.948C30.8206 34.109 31.0654 34.1872 31.3091 34.1872C31.6469 34.1872 31.9801 34.0376 32.2044 33.7509C32.5886 33.2566 32.5014 32.5448 32.0072 32.1595Z" fill="#E1E1E1"/>
<path d="M54.4003 29.4668C47.5266 29.4668 41.9336 35.0598 41.9336 41.9335C41.9336 48.8072 47.5266 54.4002 54.4003 54.4002C61.274 54.4002 66.867 48.8072 66.867 41.9335C66.867 35.0598 61.274 29.4668 54.4003 29.4668ZM54.4003 52.1334C48.7756 52.1334 44.2003 47.5581 44.2003 41.9334C44.2003 36.3086 48.7756 31.7334 54.4003 31.7334C60.025 31.7334 64.6003 36.3086 64.6003 41.9334C64.6003 47.5581 60.025 52.1334 54.4003 52.1334Z" fill="#E1E1E1"/>
<path d="M54.4005 34C51.9003 34 49.8672 36.0332 49.8672 38.5333C49.8672 41.0335 51.9004 43.0666 54.4005 43.0666C56.9007 43.0666 58.9338 41.0334 58.9338 38.5333C58.9338 36.0332 56.9007 34 54.4005 34ZM54.4005 40.8C53.1504 40.8 52.1338 39.7835 52.1338 38.5333C52.1338 37.2833 53.1503 36.2666 54.4005 36.2666C55.6505 36.2666 56.6672 37.2831 56.6672 38.5333C56.6672 39.7835 55.6505 40.8 54.4005 40.8Z" fill="#FF9E00"/>
<path d="M57.6874 45.3333H51.1118C49.175 45.3333 47.5996 46.8667 47.5996 48.7503V51.7377C47.5996 52.1423 47.8149 52.5163 48.1651 52.7192C50.0646 53.8185 52.2202 54.4 54.3996 54.4C56.5791 54.4 58.7346 53.8185 60.6341 52.7192C60.9843 52.5175 61.1996 52.1423 61.1996 51.7389V48.7514C61.1996 46.8667 59.6243 45.3333 57.6874 45.3333ZM58.9329 51.0623C56.1121 52.4675 52.6871 52.4675 49.8662 51.0623V48.7514C49.8662 48.1167 50.4249 47.6 51.1117 47.6H57.6873C58.374 47.6 58.9328 48.1167 58.9328 48.7514V51.0623H58.9329Z" fill="#E1E1E1"/>
<path d="M27.2001 43.0667C20.3264 43.0667 14.7334 48.6597 14.7334 55.5334C14.7334 62.4071 20.3264 67.9999 27.2001 67.9999C34.0738 67.9999 39.6668 62.4069 39.6668 55.5332C39.6668 48.6595 34.0738 43.0667 27.2001 43.0667ZM27.2001 65.7332C21.5754 65.7332 17.0001 61.158 17.0001 55.5332C17.0001 49.9085 21.5754 45.3332 27.2001 45.3332C32.8249 45.3332 37.4001 49.9085 37.4001 55.5332C37.4001 61.158 32.8249 65.7332 27.2001 65.7332Z" fill="#E1E1E1"/>
<path d="M27.2003 47.6001C24.7001 47.6001 22.667 49.6333 22.667 52.1334C22.667 54.6336 24.7002 56.6667 27.2003 56.6667C29.7003 56.6667 31.7336 54.6334 31.7336 52.1334C31.7336 49.6333 29.7005 47.6001 27.2003 47.6001ZM27.2003 54.4001C25.9502 54.4001 24.9336 53.3836 24.9336 52.1334C24.9336 50.8834 25.9501 49.8667 27.2003 49.8667C28.4503 49.8667 29.467 50.8832 29.467 52.1334C29.467 53.3836 28.4503 54.4001 27.2003 54.4001Z" fill="#FF9E00"/>
<path d="M30.4882 58.9333H23.9126C21.9758 58.9333 20.4004 60.4668 20.4004 62.3503V65.3378C20.4004 65.7424 20.6157 66.1164 20.9659 66.3193C22.8654 67.4186 25.0209 68.0001 27.2004 68.0001C29.3798 68.0001 31.5354 67.4186 33.4349 66.3193C33.7851 66.1176 34.0004 65.7425 34.0004 65.339V62.3515C34.0004 60.4668 32.4251 58.9333 30.4882 58.9333ZM31.7337 64.6623C28.9127 66.0676 25.4879 66.0676 22.667 64.6623V62.3515C22.667 61.7168 23.2257 61.2001 23.9125 61.2001H30.488C31.1748 61.2001 31.7335 61.7168 31.7335 62.3515V64.6623H31.7337Z" fill="#E1E1E1"/>
<path d="M12.4667 14.7334C5.593 14.7334 0 20.3264 0 27.2001C0 34.0738 5.593 39.6668 12.4667 39.6668C19.3404 39.6668 24.9334 34.0738 24.9334 27.2001C24.9333 20.3264 19.3403 14.7334 12.4667 14.7334ZM12.4667 37.4001C6.84197 37.4001 2.26671 32.8249 2.26671 27.2001C2.26671 21.5754 6.84197 17.0001 12.4667 17.0001C18.0915 17.0001 22.6667 21.5754 22.6667 27.2001C22.6667 32.8249 18.0915 37.4001 12.4667 37.4001Z" fill="#E1E1E1"/>
<path d="M12.4669 19.2666C9.96669 19.2666 7.93359 21.2998 7.93359 23.7999C7.93359 26.3 9.96682 28.3332 12.4669 28.3332C14.9671 28.3332 17.0002 26.3 17.0002 23.7999C17.0002 21.2998 14.9669 19.2666 12.4669 19.2666ZM12.4669 26.0666C11.2169 26.0666 10.2002 25.0501 10.2002 23.7999C10.2002 22.5497 11.2167 21.5332 12.4669 21.5332C13.7169 21.5332 14.7336 22.5497 14.7336 23.7999C14.7336 25.0501 13.7169 26.0666 12.4669 26.0666Z" fill="#FF9E00"/>
<path d="M15.7548 30.6001H9.17922C7.24241 30.6001 5.66699 32.1336 5.66699 34.0171V37.0046C5.66699 37.4091 5.88228 37.7831 6.23251 37.9861C8.13199 39.0854 10.2875 39.6668 12.467 39.6668C14.6464 39.6668 16.802 39.0854 18.7015 37.9861C19.0517 37.7843 19.267 37.4091 19.267 37.0058V34.0183C19.267 32.1336 17.6916 30.6001 15.7548 30.6001ZM17.0003 36.3291C14.1795 37.7344 10.7545 37.7344 7.93357 36.3291V34.0183C7.93357 33.3836 8.49231 32.8668 9.17909 32.8668H15.7546C16.4414 32.8668 17.0001 33.3836 17.0001 34.0183V36.3291H17.0003Z" fill="#E1E1E1"/>
<path d="M39.6669 0C32.7932 0 27.2002 5.593 27.2002 12.4667C27.2002 19.3404 32.7932 24.9334 39.6669 24.9334C46.5406 24.9334 52.1336 19.3404 52.1336 12.4667C52.1335 5.593 46.5405 0 39.6669 0ZM39.6669 22.6667C34.0422 22.6667 29.4669 18.0915 29.4669 12.4667C29.4669 6.84197 34.0422 2.26671 39.6669 2.26671C45.2916 2.26671 49.8669 6.84197 49.8669 12.4667C49.8669 18.0915 45.2916 22.6667 39.6669 22.6667Z" fill="#E1E1E1"/>
<path d="M39.6671 4.5332C37.1669 4.5332 35.1338 6.56643 35.1338 9.06649C35.1338 11.5666 37.167 13.5998 39.6671 13.5998C42.1671 13.5998 44.2004 11.5667 44.2004 9.06663C44.2004 6.56656 42.1671 4.5332 39.6671 4.5332ZM39.6671 11.3332C38.417 11.3332 37.4004 10.3167 37.4004 9.06649C37.4004 7.81646 38.4169 6.79978 39.6671 6.79978C40.9172 6.79978 41.9338 7.81633 41.9338 9.06649C41.9337 10.3167 40.9171 11.3332 39.6671 11.3332Z" fill="#FF9E00"/>
<path d="M42.955 15.8667H36.3794C34.4426 15.8667 32.8672 17.4002 32.8672 19.2837V22.2712C32.8672 22.6757 33.0825 23.0497 33.4327 23.2527C35.3322 24.352 37.4877 24.9334 39.6672 24.9334C41.8466 24.9334 44.0022 24.352 45.9017 23.2527C46.2519 23.0509 46.4672 22.6757 46.4672 22.2724V19.2849C46.4672 17.4 44.8918 15.8667 42.955 15.8667ZM44.2005 21.5957C41.3797 23.001 37.9547 23.001 35.1338 21.5957V19.2849C35.1338 18.6502 35.6925 18.1334 36.3793 18.1334H42.9548C43.6416 18.1334 44.2003 18.6502 44.2003 19.2849V21.5957H44.2005Z" fill="#E1E1E1"/>
<path d="M29.1955 11.7287C28.7887 11.255 28.0735 11.1983 27.5975 11.6052L19.7435 18.3259C19.2675 18.7327 19.212 19.4479 19.6188 19.9239C19.8433 20.1857 20.1606 20.3206 20.4801 20.3206C20.7408 20.3206 21.0026 20.2311 21.2168 20.0474L29.0708 13.3267C29.547 12.9199 29.6025 12.2047 29.1955 11.7287Z" fill="#E1E1E1"/>
<path d="M54.173 29.9212L47.373 20.8545C46.9978 20.3525 46.2873 20.2538 45.7863 20.6278C45.2853 21.003 45.1845 21.7135 45.5596 22.2133L52.3596 31.28C52.5828 31.577 52.9228 31.7333 53.2674 31.7333C53.5031 31.7333 53.7423 31.6596 53.9463 31.5066C54.4473 31.1315 54.5482 30.421 54.173 29.9212Z" fill="#E1E1E1"/>
<path d="M44.8717 45.6813C44.4965 45.1803 43.786 45.0795 43.285 45.4546L36.9543 50.2021C36.4533 50.5773 36.3525 51.2879 36.7276 51.7876C36.9508 52.0846 37.2908 52.2409 37.6353 52.2409C37.8721 52.2409 38.1101 52.1661 38.3143 52.0142L44.645 47.2667C45.146 46.8918 45.2469 46.1811 44.8717 45.6813Z" fill="#E1E1E1"/>
<path d="M15.8665 54.3999H7.93309C7.30755 54.3999 6.7998 54.9064 6.7998 55.5332C6.7998 56.1599 7.30755 56.6665 7.93309 56.6665H15.8664C16.4919 56.6665 16.9997 56.1599 16.9997 55.5332C16.9997 54.9064 16.4921 54.3999 15.8665 54.3999Z" fill="#E1E1E1"/>
<path d="M12.467 0C9.96682 0 7.93359 2.03323 7.93359 4.53329C7.93359 7.03348 9.96682 9.06658 12.4669 9.06658C14.9671 9.06658 17.0002 7.03335 17.0002 4.53329C17.0003 2.03323 14.9671 0 12.467 0ZM12.467 6.8C11.217 6.8 10.2003 5.78345 10.2003 4.53329C10.2003 3.28326 11.2169 2.26658 12.467 2.26658C13.717 2.26658 14.7337 3.28312 14.7337 4.53329C14.7336 5.78345 13.717 6.8 12.467 6.8Z" fill="#E1E1E1"/>
<path d="M12.4663 6.80005C11.8407 6.80005 11.333 7.3066 11.333 7.93334V15.8666C11.333 16.4934 11.8407 16.9999 12.4663 16.9999C13.0918 16.9999 13.5996 16.4934 13.5996 15.8666V7.93334C13.5996 7.3066 13.0918 6.80005 12.4663 6.80005Z" fill="#E1E1E1"/>
</g>
<defs>
<clipPath id="clip0_822_78">
<rect width="68" height="68" fill="white"/>
</clipPath>
</defs>
</svg>
