<svg width="64" height="64" viewBox="0 0 64 64" fill="none" xmlns="http://www.w3.org/2000/svg">
<g clip-path="url(#clip0_822_154)">
<path d="M60.25 3.25H32.7498C30.6821 3.25 28.9998 4.93225 28.9998 7V10.2323L26.8661 12.3661C26.378 12.8542 26.378 13.6458 26.8661 14.1339L29 16.2679V27C29 29.0677 30.6822 30.75 32.75 30.75H60.2501C62.3178 30.75 64.0001 29.0677 64.0001 27V7C64 4.93225 62.3177 3.25 60.25 3.25ZM61.5 27C61.5 27.6893 60.9392 28.25 60.25 28.25H32.7498C32.0723 28.25 31.4998 27.6775 31.4998 27V15.75C31.4998 15.4185 31.3682 15.1005 31.1337 14.8661L29.5177 13.25L31.1338 11.6339C31.3682 11.3995 31.5 11.0815 31.5 10.75V7C31.5 6.31075 32.0607 5.75 32.75 5.75H60.2501C60.9393 5.75 61.5001 6.31075 61.5001 7V27H61.5Z" fill="#E1E1E1"/>
<path d="M35 40.2323V37C35 34.9323 33.3178 33.25 31.25 33.25H3.75C1.68225 33.25 0 34.9323 0 37V57C0 59.0677 1.68225 60.75 3.75 60.75H31.25C33.3178 60.75 35 59.0677 35 57V46.2677L37.1339 44.1339C37.622 43.6458 37.622 42.8543 37.1339 42.366L35 40.2323ZM32.8661 44.8661C32.6318 45.1006 32.5 45.4185 32.5 45.75V57C32.5 57.6775 31.9275 58.25 31.25 58.25H3.75C3.06075 58.25 2.5 57.6893 2.5 57V37C2.5 36.3108 3.06075 35.75 3.75 35.75H31.25C31.9393 35.75 32.5 36.3108 32.5 37V40.75C32.5 41.0815 32.6318 41.3995 32.8661 41.6339L34.4823 43.25L32.8661 44.8661Z" fill="#E1E1E1"/>
<path d="M3.14551 28.2499H21.8539C22.5443 28.2499 23.1039 27.6903 23.1039 26.9999V23.9197C23.1039 20.4612 21.3639 17.179 18.523 15.2039C18.8905 14.383 19.095 13.4739 19.095 12.5178V9.8453C18.7624 1.10555 6.23388 1.11217 5.90451 9.8453V12.5179C5.90451 13.4739 6.10901 14.3832 6.47651 15.204C3.63563 17.1792 1.89551 20.4613 1.89551 23.9198V26.9999C1.89551 27.6903 2.45513 28.2499 3.14551 28.2499ZM8.40451 9.8453C8.61113 4.41842 16.3904 4.42255 16.595 9.8453V12.5179C16.3884 17.9448 8.60913 17.9407 8.40451 12.5179V9.8453ZM4.39551 23.9197C4.39551 21.274 5.73126 18.7618 7.91138 17.251C10.3366 19.7129 14.6636 19.7123 17.0881 17.251C19.2681 18.7618 20.6039 21.274 20.6039 23.9197V25.7499H4.39551V23.9197Z" fill="#E1E1E1"/>
<path d="M57.523 45.204C57.8905 44.3832 58.095 43.474 58.095 42.5179V39.8453C57.7624 31.1055 45.234 31.1122 44.9045 39.8453V42.5179C44.9045 43.4739 45.109 44.3832 45.4765 45.204C42.6356 47.179 40.8955 50.4613 40.8955 53.9198V56.9999C40.8955 57.6903 41.4551 58.2499 42.1455 58.2499H60.8539C61.5443 58.2499 62.1039 57.6903 62.1039 56.9999V53.9197C62.1039 50.4612 60.3639 47.179 57.523 45.204ZM47.4044 39.8453C47.6109 34.4184 55.3904 34.4225 55.5949 39.8453V42.5179C55.3884 47.9448 47.6089 47.9407 47.4044 42.5179V39.8453ZM59.6039 55.7499H43.3954V53.9197C43.3954 51.274 44.7311 48.7618 46.9113 47.251C49.3365 49.713 53.6635 49.7124 56.0881 47.251C58.2681 48.7617 59.6039 51.2739 59.6039 53.9195V55.7499Z" fill="#E1E1E1"/>
<path d="M46.4997 9.5001C44.2759 9.5001 42.4668 11.3092 42.4668 13.533C42.4668 14.2233 43.0264 14.783 43.7168 14.783C44.4072 14.783 44.9668 14.2233 44.9668 13.533C44.9668 12.6877 45.6544 12.0001 46.4997 12.0001C47.8279 11.9836 48.5384 13.6432 47.6088 14.591C45.6618 16.631 45.2497 17.1313 45.2497 19.0986C45.2497 19.789 45.8093 20.3486 46.4997 20.3486C47.19 20.3486 47.7497 19.789 47.7497 19.0986C47.7497 18.429 47.7835 18.2613 47.8924 18.0672C48.0895 17.7157 48.6003 17.1732 49.4173 16.3171C51.86 13.7988 50.0094 9.47635 46.4997 9.5001Z" fill="#FF9E00"/>
<path d="M46.5004 22H46.4996C45.8093 22 45.25 22.5596 45.25 23.25C45.3114 24.9061 47.6894 24.906 47.7504 23.25C47.7504 22.5596 47.1908 22 46.5004 22Z" fill="#FF9E00"/>
<path d="M22.2407 42.3661L15.6246 48.9822L12.7585 46.1161C11.5475 44.9863 9.86136 46.6742 10.9906 47.884L14.7406 51.634C15.2061 52.1181 16.043 52.1181 16.5085 51.634L24.0085 44.134C25.1384 42.923 23.4504 41.2368 22.2407 42.3661Z" fill="#FF9E00"/>
</g>
<defs>
<clipPath id="clip0_822_154">
<rect width="64" height="64" fill="white"/>
</clipPath>
</defs>
</svg>
