<svg width="541" height="125" viewBox="0 0 541 125" fill="none" xmlns="http://www.w3.org/2000/svg">
<g clip-path="url(#clip0_469_7458)">
<path d="M228.654 0.568486L251.709 28.3846L307.44 28.3846C307.513 28.9991 307.817 29.5626 308.291 29.96C308.766 30.3573 309.374 30.5584 309.992 30.5221C310.609 30.4858 311.19 30.2148 311.614 29.7646C312.039 29.3144 312.275 28.7191 312.275 28.1003C312.275 27.4815 312.039 26.8861 311.614 26.4359C311.19 25.9857 310.609 25.7148 309.992 25.6784C309.374 25.6421 308.766 25.8432 308.291 26.2406C307.817 26.6379 307.513 27.2015 307.44 27.816L251.975 27.816L228.927 -0.00770725L9.82483 -0.00772641L9.82483 0.560877L228.654 0.568486Z" fill="url(#paint0_linear_469_7458)"/>
<path d="M308.44 57.4213L372.079 57.4213C372.15 57.0077 372.374 56.636 372.706 56.3795C373.038 56.123 373.454 56.0005 373.873 56.0362C374.291 56.072 374.68 56.2633 374.964 56.5725C375.248 56.8816 375.405 57.286 375.405 57.7056C375.405 58.1253 375.248 58.5297 374.964 58.8388C374.68 59.1479 374.291 59.3393 373.873 59.375C373.454 59.4108 373.038 59.2883 372.706 59.0318C372.374 58.7753 372.15 58.4035 372.079 57.9899L308.789 57.9899L294.741 84.7522L1.66681 84.7522L1.66681 84.1836L294.4 84.1836L308.44 57.4213Z" fill="url(#paint1_linear_469_7458)"/>
<path d="M308.44 70.8025L419.819 70.8025C419.891 70.2528 420.169 69.7511 420.598 69.3993C421.026 69.0475 421.573 68.8718 422.126 68.908C422.679 68.9442 423.198 69.1895 423.577 69.5941C423.956 69.9987 424.167 70.5324 424.167 71.0868C424.167 71.6412 423.956 72.1749 423.577 72.5795C423.198 72.9841 422.679 73.2294 422.126 73.2656C421.573 73.3018 421.026 73.1261 420.598 72.7743C420.169 72.4225 419.891 71.9208 419.819 71.3711L308.789 71.3711L294.741 98.1334L1.66684 98.1334L1.66684 97.5648L294.4 97.5648L308.44 70.8025Z" fill="url(#paint2_linear_469_7458)"/>
<path d="M308.44 84.1836L372.079 84.1836C372.15 83.7701 372.374 83.3983 372.706 83.1418C373.038 82.8853 373.454 82.7628 373.873 82.7985C374.291 82.8343 374.68 83.0256 374.964 83.3348C375.248 83.6439 375.405 84.0483 375.405 84.4679C375.405 84.8876 375.248 85.292 374.964 85.6011C374.68 85.9103 374.291 86.1017 373.873 86.1374C373.454 86.1731 373.038 86.0506 372.706 85.7941C372.374 85.5377 372.15 85.1658 372.079 84.7522L308.789 84.7522L294.741 111.515L1.66681 111.515L1.66681 110.946L294.4 110.946L308.44 84.1836Z" fill="url(#paint3_linear_469_7458)"/>
<path d="M308.441 97.5648L537.687 97.5648C537.758 97.1512 537.982 96.7794 538.314 96.5229C538.646 96.2665 539.063 96.144 539.481 96.1797C539.899 96.2155 540.289 96.4068 540.572 96.7159C540.856 97.0251 541.014 97.4295 541.014 97.8491C541.014 98.2688 540.856 98.6732 540.572 98.9823C540.289 99.2914 539.899 99.4828 539.481 99.5185C539.063 99.5543 538.646 99.4318 538.314 99.1753C537.982 98.9188 537.758 98.547 537.687 98.1334L308.79 98.1334L294.741 124.896L1.6673 124.896L1.6673 124.327L294.4 124.327L308.441 97.5648Z" fill="url(#paint4_linear_469_7458)"/>
<path d="M112.53 70.7266L135.578 42.9106L191.316 42.9106C191.389 42.2961 191.693 41.7324 192.167 41.3351C192.642 40.9377 193.25 40.7367 193.868 40.773C194.485 40.8093 195.066 41.0803 195.49 41.5305C195.915 41.9807 196.151 42.5761 196.151 43.1949C196.151 43.8136 195.915 44.409 195.49 44.8592C195.066 45.3094 194.485 45.5804 193.868 45.6167C193.25 45.653 192.642 45.4519 192.167 45.0546C191.693 44.6572 191.389 44.0937 191.316 43.4792L135.85 43.4792L112.795 71.2953L0.00704956 71.2952L0.00704961 70.7266L112.53 70.7266Z" fill="url(#paint5_linear_469_7458)"/>
</g>
<defs>
<linearGradient id="paint0_linear_469_7458" x1="312.262" y1="15.2688" x2="9.81724" y2="15.2687" gradientUnits="userSpaceOnUse">
<stop offset="0.02" stop-color="#FF9E00"/>
<stop offset="1" stop-color="#303030" stop-opacity="0"/>
</linearGradient>
<linearGradient id="paint1_linear_469_7458" x1="375.392" y1="70.3931" x2="1.66679" y2="70.3931" gradientUnits="userSpaceOnUse">
<stop offset="0.02" stop-color="#FF9E00"/>
<stop offset="1" stop-color="#303030" stop-opacity="0"/>
</linearGradient>
<linearGradient id="paint2_linear_469_7458" x1="424.148" y1="83.5241" x2="1.66686" y2="83.524" gradientUnits="userSpaceOnUse">
<stop offset="0.02" stop-color="#FF9E00"/>
<stop offset="1" stop-color="#303030" stop-opacity="0"/>
</linearGradient>
<linearGradient id="paint3_linear_469_7458" x1="375.392" y1="97.1554" x2="1.66679" y2="97.1554" gradientUnits="userSpaceOnUse">
<stop offset="0.02" stop-color="#FF9E00"/>
<stop offset="1" stop-color="#303030" stop-opacity="0"/>
</linearGradient>
<linearGradient id="paint4_linear_469_7458" x1="541" y1="110.537" x2="1.66732" y2="110.537" gradientUnits="userSpaceOnUse">
<stop offset="0.02" stop-color="#FF9E00"/>
<stop offset="1" stop-color="#303030" stop-opacity="0"/>
</linearGradient>
<linearGradient id="paint5_linear_469_7458" x1="196.13" y1="56.0339" x2="-0.000532646" y2="56.0339" gradientUnits="userSpaceOnUse">
<stop offset="0.02" stop-color="#FF9E00"/>
<stop offset="1" stop-color="#303030" stop-opacity="0"/>
</linearGradient>
<clipPath id="clip0_469_7458">
<rect width="541.001" height="124.896" fill="white" transform="translate(541 124.896) rotate(-180)"/>
</clipPath>
</defs>
</svg>
