<svg width="88" height="88" viewBox="0 0 88 88" fill="none" xmlns="http://www.w3.org/2000/svg">
<path d="M76.9999 37.583C77.243 37.583 77.4762 37.4864 77.6481 37.3145C77.82 37.1426 77.9166 36.9095 77.9166 36.6663C77.9166 36.4232 77.82 36.1901 77.6481 36.0182C77.4762 35.8463 77.243 35.7497 76.9999 35.7497H70.5833V22.9163H76.9999C77.243 22.9163 77.4762 22.8198 77.6481 22.6479C77.82 22.4759 77.9166 22.2428 77.9166 21.9997C77.9166 21.7566 77.82 21.5234 77.6481 21.3515C77.4762 21.1796 77.243 21.083 76.9999 21.083H70.3999C70.2247 20.225 69.8011 19.4375 69.1817 18.8185C68.5624 18.1995 67.7746 17.7763 66.9166 17.6015V10.9997C66.9166 10.7566 66.82 10.5234 66.6481 10.3515C66.4762 10.1796 66.243 10.083 65.9999 10.083C65.7568 10.083 65.5236 10.1796 65.3517 10.3515C65.1798 10.5234 65.0833 10.7566 65.0833 10.9997V17.4163H52.2499V10.9997C52.2499 10.7566 52.1533 10.5234 51.9814 10.3515C51.8095 10.1796 51.5764 10.083 51.3333 10.083C51.0901 10.083 50.857 10.1796 50.6851 10.3515C50.5132 10.5234 50.4166 10.7566 50.4166 10.9997V17.4163H37.5833V10.9997C37.5833 10.7566 37.4867 10.5234 37.3148 10.3515C37.1429 10.1796 36.9097 10.083 36.6666 10.083C36.4235 10.083 36.1903 10.1796 36.0184 10.3515C35.8465 10.5234 35.7499 10.7566 35.7499 10.9997V17.4163H22.9166V10.9997C22.9166 10.7566 22.82 10.5234 22.6481 10.3515C22.4762 10.1796 22.243 10.083 21.9999 10.083C21.7568 10.083 21.5236 10.1796 21.3517 10.3515C21.1798 10.5234 21.0833 10.7566 21.0833 10.9997V17.6015C20.2256 17.7767 19.4384 18.2001 18.8195 18.8191C18.2005 19.4381 17.7772 20.2254 17.6021 21.083H10.9999C10.7568 21.083 10.5236 21.1796 10.3517 21.3515C10.1798 21.5234 10.0833 21.7566 10.0833 21.9997C10.0833 22.2428 10.1798 22.4759 10.3517 22.6479C10.5236 22.8198 10.7568 22.9163 10.9999 22.9163H17.4166V35.7497H10.9999C10.7568 35.7497 10.5236 35.8463 10.3517 36.0182C10.1798 36.1901 10.0833 36.4232 10.0833 36.6663C10.0833 36.9095 10.1798 37.1426 10.3517 37.3145C10.5236 37.4864 10.7568 37.583 10.9999 37.583H17.4166V50.4163H10.9999C10.7568 50.4163 10.5236 50.5129 10.3517 50.6848C10.1798 50.8567 10.0833 51.0899 10.0833 51.333C10.0833 51.5761 10.1798 51.8093 10.3517 51.9812C10.5236 52.1531 10.7568 52.2497 10.9999 52.2497H17.4166V65.083H10.9999C10.7568 65.083 10.5236 65.1796 10.3517 65.3515C10.1798 65.5234 10.0833 65.7566 10.0833 65.9997C10.0833 66.2428 10.1798 66.4759 10.3517 66.6479C10.5236 66.8198 10.7568 66.9163 10.9999 66.9163H17.6021C17.7772 67.7739 18.2006 68.5612 18.8195 69.1801C19.4384 69.799 20.2256 70.2224 21.0833 70.3975V76.9997C21.0833 77.2428 21.1798 77.4759 21.3517 77.6479C21.5236 77.8198 21.7568 77.9163 21.9999 77.9163C22.243 77.9163 22.4762 77.8198 22.6481 77.6479C22.82 77.4759 22.9166 77.2428 22.9166 76.9997V70.583H35.7499V76.9997C35.7499 77.2428 35.8465 77.4759 36.0184 77.6479C36.1903 77.8198 36.4235 77.9163 36.6666 77.9163C36.9097 77.9163 37.1429 77.8198 37.3148 77.6479C37.4867 77.4759 37.5833 77.2428 37.5833 76.9997V70.583H50.4166V76.9997C50.4166 77.2428 50.5132 77.4759 50.6851 77.6479C50.857 77.8198 51.0901 77.9163 51.3333 77.9163C51.5764 77.9163 51.8095 77.8198 51.9814 77.6479C52.1533 77.4759 52.2499 77.2428 52.2499 76.9997V70.583H65.0833V76.9997C65.0833 77.2428 65.1798 77.4759 65.3517 77.6479C65.5236 77.8198 65.7568 77.9163 65.9999 77.9163C66.243 77.9163 66.4762 77.8198 66.6481 77.6479C66.82 77.4759 66.9166 77.2428 66.9166 76.9997V70.3975C67.7746 70.2227 68.5622 69.7995 69.1816 69.1806C69.8009 68.5616 70.2246 67.7742 70.3999 66.9163H76.9999C77.243 66.9163 77.4762 66.8198 77.6481 66.6479C77.82 66.4759 77.9166 66.2428 77.9166 65.9997C77.9166 65.7566 77.82 65.5234 77.6481 65.3515C77.4762 65.1796 77.243 65.083 76.9999 65.083H70.5833V52.2497H76.9999C77.243 52.2497 77.4762 52.1531 77.6481 51.9812C77.82 51.8093 77.9166 51.5761 77.9166 51.333C77.9166 51.0899 77.82 50.8567 77.6481 50.6848C77.4762 50.5129 77.243 50.4163 76.9999 50.4163H70.5833V37.583H76.9999ZM68.7499 65.9997C68.7489 66.7287 68.4588 67.4275 67.9433 67.943C67.4278 68.4585 66.7289 68.7486 65.9999 68.7497H21.9999C21.2709 68.7486 20.572 68.4585 20.0566 67.943C19.5411 67.4275 19.251 66.7287 19.2499 65.9997V21.9997C19.2507 21.2706 19.5407 20.5715 20.0562 20.056C20.5718 19.5404 21.2708 19.2505 21.9999 19.2497H65.9999C66.729 19.2505 67.428 19.5404 67.9436 20.056C68.4592 20.5715 68.7491 21.2706 68.7499 21.9997V65.9997Z" fill="black"/>
<path d="M60.5 24.75H27.5C26.7709 24.7508 26.0719 25.0408 25.5563 25.5563C25.0408 26.0719 24.7508 26.7709 24.75 27.5V60.5C24.7511 61.229 25.0411 61.9279 25.5566 62.4434C26.0721 62.9589 26.771 63.2489 27.5 63.25H60.5C61.229 63.2489 61.9279 62.9589 62.4434 62.4434C62.9589 61.9279 63.2489 61.229 63.25 60.5V27.5C63.2492 26.7709 62.9592 26.0719 62.4437 25.5563C61.9281 25.0408 61.2291 24.7508 60.5 24.75V24.75ZM61.4167 60.5C61.4167 60.7431 61.3201 60.9763 61.1482 61.1482C60.9763 61.3201 60.7431 61.4167 60.5 61.4167H55.9167V49.185C55.9133 47.9702 55.4308 46.8056 54.5739 45.9444L49.4908 40.8613C50.5526 40.4412 51.4245 39.6479 51.9428 38.6303C52.4611 37.6128 52.5901 36.4411 52.3055 35.3352C52.021 34.2293 51.3425 33.2653 50.3976 32.6242C49.4526 31.9832 48.3061 31.7091 47.1733 31.8536C46.0406 31.9981 44.9995 32.5511 44.2457 33.4088C43.4918 34.2665 43.077 35.3699 43.0792 36.5118C43.0813 37.6537 43.5002 38.7556 44.2573 39.6105C45.0144 40.4653 46.0575 41.0145 47.1907 41.1547L53.2774 47.2413C53.7914 47.7578 54.0813 48.456 54.0841 49.1847V61.4167H27.5C27.2569 61.4167 27.0237 61.3201 26.8518 61.1482C26.6799 60.9763 26.5833 60.7431 26.5833 60.5V27.5C26.5833 27.2569 26.6799 27.0237 26.8518 26.8518C27.0237 26.6799 27.2569 26.5833 27.5 26.5833H32.0833V38.815C32.0816 39.4171 32.1994 40.0136 32.4299 40.5699C32.6604 41.1261 32.999 41.6311 33.4261 42.0556L38.5092 47.1387C37.4474 47.5588 36.5755 48.3522 36.0572 49.3697C35.5389 50.3872 35.4099 51.5589 35.6945 52.6648C35.979 53.7707 36.6575 54.7347 37.6024 55.3758C38.5474 56.0168 39.6939 56.2909 40.8267 56.1464C41.9594 56.0019 43.0005 55.4489 43.7543 54.5912C44.5082 53.7335 44.923 52.6301 44.9208 51.4882C44.9187 50.3463 44.4998 49.2444 43.7427 48.3895C42.9856 47.5347 41.9425 46.9855 40.8093 46.8453L34.7226 40.7587C34.2086 40.2422 33.9187 39.544 33.9159 38.8153V26.5833H60.5C60.7431 26.5833 60.9763 26.6799 61.1482 26.8518C61.3201 27.0237 61.4167 27.2569 61.4167 27.5V60.5ZM47.6667 39.4167C47.1228 39.4167 46.5911 39.2554 46.1388 38.9532C45.6866 38.651 45.3341 38.2215 45.126 37.719C44.9179 37.2165 44.8634 36.6636 44.9695 36.1302C45.0756 35.5967 45.3375 35.1067 45.7221 34.7221C46.1067 34.3375 46.5967 34.0756 47.1302 33.9695C47.6636 33.8634 48.2165 33.9179 48.719 34.126C49.2215 34.3341 49.651 34.6866 49.9532 35.1388C50.2554 35.5911 50.4167 36.1228 50.4167 36.6667C50.4159 37.3958 50.1259 38.0948 49.6104 38.6104C49.0948 39.1259 48.3958 39.4159 47.6667 39.4167ZM40.3333 48.5833C40.8772 48.5833 41.4089 48.7446 41.8612 49.0468C42.3134 49.349 42.6659 49.7785 42.874 50.281C43.0821 50.7835 43.1366 51.3364 43.0305 51.8698C42.9244 52.4033 42.6625 52.8933 42.2779 53.2779C41.8933 53.6625 41.4033 53.9244 40.8698 54.0305C40.3364 54.1366 39.7835 54.0821 39.281 53.874C38.7785 53.6659 38.349 53.3134 38.0468 52.8612C37.7446 52.4089 37.5833 51.8772 37.5833 51.3333C37.5844 50.6043 37.8745 49.9055 38.39 49.39C38.9055 48.8745 39.6043 48.5844 40.3333 48.5833V48.5833Z" fill="black"/>
</svg>
