<svg width="478" height="575" viewBox="0 0 478 575" fill="none" xmlns="http://www.w3.org/2000/svg">
<path d="M139.001 1C125.469 11.8294 114.474 27.1358 103.169 40.304C86.2325 60.032 69.0783 79.5021 51.6384 98.7445C40.2297 111.332 23.5675 124.206 16.7303 140.561C12.5773 150.496 32.1994 144.183 35.7543 143.461C64.2075 137.679 91.742 127.24 117.33 113.113C141.104 99.987 164.591 84.7181 191.086 78.3193C192.092 78.0765 198.03 75.8024 198.659 77.9971C200.475 84.3317 195.04 93.312 192.317 98.2934C150.134 175.462 91.864 243.138 35.6927 309.246C23.9916 323.017 9.22387 336.556 1.21559 353.318C-1.52468 359.054 22.7308 351.608 24.4877 350.999C60.7615 338.411 92.6134 317.858 123.917 295.264C177.737 256.419 234.248 223.314 291.809 190.948C343.224 162.036 395.222 134.783 448.064 108.86C454.224 105.839 460.967 103.044 466.718 99.1311C467.019 98.9268 468.514 97.0159 468.996 97.5202C470.089 98.6637 469.243 103.836 469.243 105.317C469.243 113.057 469.508 117.554 466.472 125.291C464.1 131.336 462.84 137.587 461.362 143.912C457.925 158.627 452.058 172.436 444.37 185.278C424.697 218.134 396.463 244.684 374.8 276.063C349.68 312.45 331.453 352.94 309.909 391.591C292.369 423.061 275.467 454.816 259.794 487.338C245.616 516.759 222.415 539.367 204.877 566.462C203.782 568.154 201.235 570.588 200.814 572.647C200.276 575.273 210.282 573.291 210.91 573.163C232.239 568.822 253.532 560.146 274.139 553.06C295.353 545.765 316.357 537.784 337.614 530.637C347.386 527.352 357.209 524.658 365.996 518.91C372.677 514.54 378.304 508.89 385.574 505.508C398.587 499.455 411.081 489.564 422.206 480.508C435.196 469.935 448.48 460.953 463.209 453.318C466.39 451.669 475.864 449.927 477 446.359" stroke="black" stroke-width="0.5" stroke-linecap="round" stroke-dasharray="5 5"/>
</svg>
