<svg width="394" height="216" viewBox="0 0 394 216" fill="none" xmlns="http://www.w3.org/2000/svg">
<path d="M1 33.1378C37.3538 26.3506 73.7963 18.4768 110.859 15.224C122.553 14.1976 144.626 10.362 154.067 19.3305C166.531 31.1719 153.769 51.6509 147.047 62.8356C135.297 82.3863 120.749 100.617 107.997 119.672C95.6452 138.128 83.6044 156.771 73.2398 176.151C67.797 186.328 61.5699 197.176 59.2007 208.349C58.6009 211.177 57.2497 215.75 62.2675 214.895C75.4602 212.647 88.4344 201.763 99.6141 195.851C118.537 185.842 138.343 177.328 158.701 169.783C175.817 163.44 194.821 155.283 213.767 154.547C240.139 153.524 220.852 180.928 214.039 189.899C212.002 192.582 202.673 202.046 205.18 206.206C208.221 211.252 226.182 203.26 228.555 202.338C247.329 195.038 264.336 184.826 280.691 174.068C305.33 157.86 329.675 141.748 356.202 127.885C406.423 101.639 459.745 83.6044 514.175 65.5137C526.082 61.5564 537.924 57.3767 549.205 52.1825C551.559 51.0984 553.977 49.4711 556.701 49.2068C561.287 48.7618 567.385 48.0118 572.103 46.5286C578.823 44.4159 585.922 43.1887 592.208 40.101C596.929 37.782 598.923 35.8508 604.748 34.6852C628.139 30.0041 651.071 22.0049 674.193 16.2357C685.353 13.4513 695.408 11.4556 699 1" stroke="black" stroke-width="0.5" stroke-linecap="round" stroke-dasharray="5 5"/>
<path d="M279.222 88.4427C278.103 88.4415 277.03 87.9962 276.238 87.2046C275.447 86.413 275.001 85.3398 275 84.2203V79.2225C275.014 78.1118 275.465 77.0514 276.255 76.2709C277.046 75.4904 278.112 75.0527 279.223 75.0527C280.334 75.0527 281.4 75.4904 282.19 76.2709C282.98 77.0514 283.431 78.1118 283.446 79.2225V84.2203C283.444 85.3398 282.999 86.4131 282.207 87.2047C281.415 87.9962 280.342 88.4415 279.222 88.4427ZM279.222 76.345C278.46 76.3459 277.728 76.6494 277.189 77.1888C276.649 77.7283 276.346 78.4597 276.345 79.2225V84.2203C276.356 84.9759 276.665 85.6967 277.203 86.227C277.742 86.7572 278.467 87.0545 279.223 87.0545C279.978 87.0545 280.704 86.7572 281.242 86.227C281.781 85.6967 282.089 84.9759 282.101 84.2203V79.2225C282.1 78.4595 281.796 77.728 281.257 77.1886C280.717 76.6491 279.985 76.3458 279.222 76.345Z" fill="black"/>
<path d="M286.646 75.6724H287.991V87.77H286.646V75.6724Z" fill="black"/>
<path d="M309.673 75.6724H311.018V87.77H309.673V75.6724Z" fill="black"/>
<path d="M309.673 92.8145H311.018V104.912H309.673V92.8145Z" fill="black"/>
<path d="M316.073 75.6724H317.418V87.77H316.073V75.6724Z" fill="black"/>
<path d="M295.633 88.4426C294.514 88.4414 293.44 87.9961 292.649 87.2046C291.857 86.413 291.412 85.3397 291.41 84.2202V79.2224C291.41 78.6679 291.519 78.1189 291.732 77.6066C291.944 77.0943 292.255 76.6288 292.647 76.2367C293.039 75.8446 293.504 75.5336 294.017 75.3214C294.529 75.1092 295.078 75 295.633 75C296.187 75 296.736 75.1092 297.248 75.3214C297.761 75.5336 298.226 75.8446 298.618 76.2367C299.01 76.6288 299.321 77.0943 299.534 77.6066C299.746 78.1189 299.855 78.6679 299.855 79.2224V84.2202C299.854 85.3395 299.409 86.4127 298.617 87.2043C297.826 87.9958 296.753 88.4412 295.633 88.4426ZM295.633 76.3449C294.87 76.3456 294.139 76.649 293.599 77.1885C293.06 77.7279 292.756 78.4594 292.755 79.2224V84.2202C292.755 84.5981 292.83 84.9722 292.974 85.3214C293.119 85.6705 293.331 85.9877 293.598 86.2549C293.865 86.5221 294.182 86.734 294.531 86.8786C294.881 87.0232 295.255 87.0977 295.633 87.0977C296.01 87.0977 296.385 87.0232 296.734 86.8786C297.083 86.734 297.4 86.5221 297.667 86.2549C297.934 85.9877 298.146 85.6705 298.291 85.3214C298.436 84.9722 298.51 84.5981 298.51 84.2202V79.2224C298.509 78.4596 298.206 77.7282 297.667 77.1888C297.127 76.6493 296.396 76.3458 295.633 76.3449Z" fill="black"/>
<path d="M303.275 75.6724H304.62V87.77H303.275V75.6724Z" fill="black"/>
<path d="M302.172 105.585C301.052 105.583 299.979 105.138 299.187 104.346C298.396 103.554 297.951 102.481 297.95 101.361V96.3646C297.943 95.8056 298.047 95.2509 298.256 94.7324C298.465 94.214 298.775 93.7422 299.168 93.3445C299.56 92.9467 300.028 92.6309 300.544 92.4154C301.06 92.1999 301.613 92.0889 302.172 92.0889C302.731 92.0889 303.285 92.1999 303.8 92.4154C304.316 92.6309 304.784 92.9467 305.177 93.3445C305.569 93.7422 305.879 94.214 306.088 94.7324C306.297 95.2509 306.401 95.8056 306.394 96.3646V101.361C306.393 102.481 305.948 103.554 305.157 104.346C304.365 105.138 303.291 105.584 302.172 105.585ZM302.172 93.4871C301.409 93.4882 300.678 93.7917 300.139 94.3311C299.599 94.8705 299.296 95.6018 299.295 96.3646V101.361C299.289 101.743 299.359 102.121 299.501 102.476C299.643 102.83 299.854 103.152 300.122 103.424C300.39 103.696 300.709 103.912 301.061 104.059C301.413 104.207 301.791 104.282 302.172 104.282C302.554 104.282 302.931 104.207 303.283 104.059C303.635 103.912 303.955 103.696 304.222 103.424C304.49 103.152 304.701 102.83 304.843 102.476C304.985 102.121 305.055 101.743 305.049 101.361V96.3646C305.048 95.6017 304.745 94.8703 304.205 94.3309C303.666 93.7914 302.935 93.488 302.172 93.4871Z" fill="black"/>
<path d="M283.719 92.8145H285.064V104.912H283.719V92.8145Z" fill="black"/>
<path d="M275 92.8145H276.345V104.912H275V92.8145Z" fill="black"/>
<path d="M275 109.303H276.345V121.4H275V109.303Z" fill="black"/>
<path d="M316.073 92.8145H317.418V104.912H316.073V92.8145Z" fill="black"/>
<path d="M292.438 92.8145H293.783V104.912H292.438V92.8145Z" fill="black"/>
<path d="M283.719 109.303H285.064V121.4H283.719V109.303Z" fill="black"/>
<path d="M295.633 122.073C294.514 122.072 293.44 121.626 292.649 120.835C291.857 120.043 291.412 118.97 291.41 117.851V112.853C291.41 112.298 291.519 111.749 291.732 111.237C291.944 110.725 292.255 110.259 292.647 109.867C293.039 109.475 293.504 109.164 294.017 108.952C294.529 108.74 295.078 108.63 295.633 108.63C296.187 108.63 296.736 108.74 297.248 108.952C297.761 109.164 298.226 109.475 298.618 109.867C299.01 110.259 299.321 110.725 299.534 111.237C299.746 111.749 299.855 112.298 299.855 112.853V117.851C299.854 118.97 299.409 120.043 298.617 120.835C297.826 121.626 296.753 122.072 295.633 122.073ZM295.633 109.975C294.87 109.976 294.139 110.28 293.599 110.819C293.06 111.358 292.756 112.09 292.755 112.853V117.851C292.755 118.228 292.83 118.603 292.974 118.952C293.119 119.301 293.331 119.618 293.598 119.885C293.865 120.152 294.182 120.364 294.531 120.509C294.881 120.654 295.255 120.728 295.633 120.728C296.01 120.728 296.385 120.654 296.734 120.509C297.083 120.364 297.4 120.152 297.667 119.885C297.934 119.618 298.146 119.301 298.291 118.952C298.436 118.603 298.51 118.228 298.51 117.851V112.853C298.509 112.09 298.206 111.359 297.667 110.819C297.127 110.28 296.396 109.976 295.633 109.975Z" fill="black"/>
<path d="M313.195 122.073C312.076 122.071 311.002 121.626 310.211 120.835C309.419 120.043 308.974 118.97 308.972 117.85V112.852C308.986 111.742 309.437 110.681 310.228 109.901C311.018 109.12 312.084 108.683 313.195 108.683C314.306 108.683 315.372 109.12 316.162 109.901C316.953 110.681 317.404 111.742 317.418 112.852V117.85C317.416 118.97 316.971 120.043 316.18 120.835C315.388 121.626 314.315 122.071 313.195 122.073ZM313.195 109.975C312.432 109.976 311.701 110.279 311.161 110.819C310.622 111.358 310.318 112.089 310.317 112.852V117.85C310.329 118.606 310.637 119.327 311.175 119.857C311.714 120.387 312.439 120.684 313.195 120.684C313.951 120.684 314.676 120.387 315.214 119.857C315.753 119.327 316.061 118.606 316.073 117.85V112.852C316.072 112.09 315.768 111.358 315.229 110.819C314.69 110.279 313.958 109.976 313.195 109.975Z" fill="black"/>
<path d="M303.275 109.303H304.62V121.4H303.275V109.303Z" fill="black"/>
</svg>
