<svg width="43" height="48" viewBox="0 0 43 48" fill="none" xmlns="http://www.w3.org/2000/svg">
<path d="M4.22242 13.4429C3.10294 13.4416 2.02968 12.9964 1.23809 12.2048C0.446507 11.4132 0.00124594 10.3399 0 9.22048V4.22271C0.0140168 3.11199 0.465082 2.05153 1.25548 1.27104C2.04587 0.490558 3.11195 0.0529099 4.22275 0.0529099C5.33355 0.0529099 6.39963 0.490558 7.19003 1.27104C7.98042 2.05153 8.43149 3.11199 8.4455 4.22271V9.22048C8.44408 10.34 7.99867 11.4133 7.20698 12.2048C6.41528 12.9964 5.34195 13.4416 4.22242 13.4429ZM4.22242 1.34523C3.45953 1.34612 2.72815 1.64956 2.18871 2.189C1.64927 2.72844 1.34582 3.45983 1.34493 4.22271V9.22048C1.35648 9.9761 1.66476 10.6969 2.2032 11.2271C2.74164 11.7574 3.46704 12.0546 4.22275 12.0546C4.97847 12.0546 5.70386 11.7574 6.2423 11.2271C6.78074 10.6969 7.08902 9.9761 7.10057 9.22048V4.22271C7.09968 3.45971 6.79614 2.72823 6.25656 2.18877C5.71697 1.64931 4.98541 1.34594 4.22242 1.34523Z" fill="black"/>
<path d="M11.646 0.672371H12.9909V12.77H11.646V0.672371Z" fill="black"/>
<path d="M34.6733 0.672371H36.0183V12.77H34.6733V0.672371Z" fill="black"/>
<path d="M34.6733 17.8144H36.0183V29.9121H34.6733V17.8144Z" fill="black"/>
<path d="M41.0732 0.672371H42.4182V12.77H41.0732V0.672371Z" fill="black"/>
<path d="M20.6332 13.4427C19.5137 13.4415 18.4404 12.9963 17.6487 12.2047C16.857 11.4131 16.4116 10.3399 16.4102 9.22033V4.22256C16.4102 3.66807 16.5194 3.119 16.7316 2.60671C16.9438 2.09443 17.2548 1.62895 17.6469 1.23686C18.039 0.844775 18.5044 0.533754 19.0167 0.321557C19.529 0.109361 20.0781 0.000144958 20.6326 0.000144958C21.1871 0.000144958 21.7361 0.109361 22.2484 0.321557C22.7607 0.533754 23.2262 0.844775 23.6183 1.23686C24.0104 1.62895 24.3214 2.09443 24.5336 2.60671C24.7458 3.119 24.855 3.66807 24.855 4.22256V9.22033C24.8537 10.3397 24.4086 11.4128 23.6171 12.2044C22.8257 12.996 21.7526 13.4413 20.6332 13.4427ZM20.6332 1.34508C19.8702 1.34579 19.1387 1.64916 18.5991 2.18862C18.0595 2.72808 17.756 3.45956 17.7551 4.22256V9.22033C17.7551 9.59821 17.8295 9.97238 17.9741 10.3215C18.1187 10.6706 18.3307 10.9878 18.5979 11.255C18.8651 11.5222 19.1823 11.7342 19.5314 11.8788C19.8805 12.0234 20.2547 12.0978 20.6326 12.0978C21.0104 12.0978 21.3846 12.0234 21.7337 11.8788C22.0828 11.7342 22.4001 11.5222 22.6673 11.255C22.9345 10.9878 23.1464 10.6706 23.291 10.3215C23.4356 9.97238 23.5101 9.59821 23.5101 9.22033V4.22256C23.5093 3.45974 23.206 2.72836 22.6667 2.1889C22.1274 1.64944 21.3961 1.34597 20.6332 1.34508Z" fill="black"/>
<path d="M28.2749 0.672371H29.6198V12.77H28.2749V0.672371Z" fill="black"/>
<path d="M27.1718 30.5848C26.0522 30.5834 24.9789 30.1379 24.1874 29.346C23.3959 28.5542 22.9509 27.4807 22.95 26.3611V21.3647C22.943 20.8057 23.047 20.251 23.256 19.7325C23.465 19.2141 23.7749 18.7423 24.1676 18.3446C24.5604 17.9468 25.0282 17.631 25.544 17.4155C26.0597 17.1999 26.6131 17.089 27.1721 17.089C27.7311 17.089 28.2845 17.1999 28.8003 17.4155C29.316 17.631 29.7838 17.9468 30.1766 18.3446C30.5694 18.7423 30.8792 19.2141 31.0882 19.7325C31.2973 20.251 31.4013 20.8057 31.3942 21.3647V26.3611C31.3933 27.4808 30.9482 28.5544 30.1566 29.3463C29.365 30.1382 28.2915 30.5836 27.1718 30.5848ZM27.1718 18.4872C26.409 18.4882 25.6778 18.7918 25.1385 19.3312C24.5992 19.8706 24.2959 20.6019 24.295 21.3647V26.3611C24.2891 26.7426 24.3593 27.1215 24.5012 27.4757C24.6432 27.8299 24.8542 28.1523 25.1219 28.4241C25.3897 28.696 25.7088 28.9119 26.0608 29.0593C26.4128 29.2067 26.7905 29.2826 27.1721 29.2826C27.5537 29.2826 27.9315 29.2067 28.2834 29.0593C28.6354 28.9119 28.9546 28.696 29.2223 28.4241C29.49 28.1523 29.701 27.8299 29.843 27.4757C29.985 27.1215 30.0551 26.7426 30.0493 26.3611V21.3647C30.0484 20.6018 29.7449 19.8704 29.2055 19.331C28.6661 18.7915 27.9347 18.4881 27.1718 18.4872Z" fill="black"/>
<path d="M8.71924 17.8144H10.0642V29.9121H8.71924V17.8144Z" fill="black"/>
<path d="M0 17.8144H1.34493V29.9121H0V17.8144Z" fill="black"/>
<path d="M0 34.3028H1.34493V46.4005H0V34.3028Z" fill="black"/>
<path d="M41.0732 17.8144H42.4182V29.9121H41.0732V17.8144Z" fill="black"/>
<path d="M17.4385 17.8144H18.7834V29.9121H17.4385V17.8144Z" fill="black"/>
<path d="M8.71924 34.3028H10.0642V46.4005H8.71924V34.3028Z" fill="black"/>
<path d="M20.6332 47.0731C19.5137 47.0718 18.4404 46.6266 17.6487 45.835C16.857 45.0434 16.4116 43.9702 16.4102 42.8506V37.8529C16.4102 37.2984 16.5194 36.7493 16.7316 36.237C16.9438 35.7247 17.2548 35.2593 17.6469 34.8672C18.039 34.4751 18.5044 34.1641 19.0167 33.9519C19.529 33.7397 20.0781 33.6305 20.6326 33.6305C21.1871 33.6305 21.7361 33.7397 22.2484 33.9519C22.7607 34.1641 23.2262 34.4751 23.6183 34.8672C24.0104 35.2593 24.3214 35.7247 24.5336 36.237C24.7458 36.7493 24.855 37.2984 24.855 37.8529V42.8506C24.8537 43.97 24.4086 45.0432 23.6171 45.8347C22.8257 46.6263 21.7526 47.0716 20.6332 47.0731ZM20.6332 34.9754C19.8703 34.9763 19.1388 35.2797 18.5993 35.8191C18.0598 36.3586 17.7562 37.0899 17.7551 37.8529V42.8506C17.7551 43.2285 17.8295 43.6027 17.9741 43.9518C18.1187 44.3009 18.3307 44.6181 18.5979 44.8853C18.8651 45.1525 19.1823 45.3645 19.5314 45.5091C19.8805 45.6537 20.2547 45.7281 20.6326 45.7281C21.0104 45.7281 21.3846 45.6537 21.7337 45.5091C22.0828 45.3645 22.4001 45.1525 22.6673 44.8853C22.9345 44.6181 23.1464 44.3009 23.291 43.9518C23.4356 43.6027 23.5101 43.2285 23.5101 42.8506V37.8529C23.5092 37.0901 23.2058 36.3588 22.6665 35.8194C22.1272 35.28 21.396 34.9765 20.6332 34.9754Z" fill="black"/>
<path d="M38.1953 47.0726C37.0757 47.0714 36.0024 46.6261 35.2107 45.8346C34.419 45.043 33.9736 43.9697 33.9722 42.8502V37.8524C33.9862 36.7417 34.4373 35.6813 35.2276 34.9008C36.018 34.1203 37.0841 33.6826 38.1949 33.6826C39.3057 33.6826 40.3718 34.1203 41.1622 34.9008C41.9526 35.6813 42.4037 36.7417 42.4177 37.8524V42.8502C42.4164 43.9697 41.9712 45.0429 41.1796 45.8345C40.388 46.6261 39.3147 47.0714 38.1953 47.0726ZM38.1953 34.975C37.4323 34.9759 36.7009 35.2793 36.1613 35.8187C35.6218 36.3581 35.3182 37.0895 35.3171 37.8524V42.8502C35.3287 43.6058 35.6369 44.3266 36.1754 44.8569C36.7138 45.3872 37.4392 45.6844 38.1949 45.6844C38.9506 45.6844 39.676 45.3872 40.2145 44.8569C40.7529 44.3266 41.0612 43.6058 41.0727 42.8502V37.8524C41.0719 37.0896 40.7684 36.3582 40.229 35.8187C39.6895 35.2793 38.9581 34.9759 38.1953 34.975Z" fill="black"/>
<path d="M28.2749 34.3028H29.6198V46.4005H28.2749V34.3028Z" fill="black"/>
</svg>
