<svg width="123" height="108" viewBox="0 0 123 108" fill="none" xmlns="http://www.w3.org/2000/svg">
<path d="M47.3132 77.7025L47.3132 77.7025L34.236 66.5673C34.236 66.5672 34.2359 66.5672 34.2359 66.5671C33.8963 66.2775 33.7012 65.855 33.7012 65.4084C33.7012 64.9637 33.8968 64.5408 34.2361 64.2506C34.2362 64.2505 34.2364 64.2504 34.2365 64.2502L47.3132 53.1154L47.3134 53.1152C47.952 52.5708 48.9118 52.6475 49.457 53.2867C50.0013 53.9272 49.9241 54.8869 49.2849 55.4303L49.2846 55.4306L38.015 65.0277L37.568 65.4084L38.015 65.7891L49.2846 75.3862L49.2846 75.3862C49.9246 75.9311 50.001 76.891 49.457 77.5301C49.1556 77.8842 48.7286 78.0658 48.2972 78.0658C47.9496 78.0658 47.5998 77.9465 47.3132 77.7025Z" fill="black" stroke="#FFE2C9"/>
<path d="M72.955 77.5306L72.9543 77.5298C72.4098 76.8912 72.4866 75.9312 73.1261 75.386L84.3954 65.7891L84.8424 65.4084L84.3954 65.0277L73.1258 55.4306L73.1258 55.4305C72.487 54.8867 72.4095 53.9269 72.9545 53.2867L72.9546 53.2867C73.4986 52.6476 74.4593 52.5708 75.0968 53.115L75.0973 53.1154L88.1744 64.2506C88.5142 64.5403 88.7093 64.9629 88.7093 65.4084C88.7093 65.8551 88.5141 66.2777 88.1744 66.5673L75.0973 77.7025L75.0972 77.7025C74.8107 77.9465 74.4608 78.0658 74.1132 78.0658C73.6817 78.0658 73.2551 77.8841 72.955 77.5306Z" fill="black" stroke="#FFE2C9"/>
<path d="M55.0848 84.5827L55.0848 84.5828C54.9117 85.404 55.4377 86.211 56.2587 86.3845C56.3673 86.407 56.4728 86.4179 56.5759 86.4179C57.2789 86.4179 57.9102 85.9261 58.0613 85.21C58.0613 85.21 58.0613 85.21 58.0613 85.2099L66.2115 46.5137C66.3847 45.6911 65.8585 44.8849 65.037 44.7117L55.0848 84.5827ZM55.0848 84.5827L63.235 45.8864M55.0848 84.5827L63.235 45.8864M63.235 45.8864C63.2351 45.8863 63.2351 45.8863 63.2351 45.8863M63.235 45.8864L63.2351 45.8863M63.2351 45.8863C63.4082 45.0648 64.2144 44.5386 65.0369 44.7117L63.2351 45.8863Z" fill="black" stroke="#FFE2C9"/>
<path d="M108.841 107.5H13.5691C6.3637 107.5 0.5 101.637 0.5 94.4309V13.5691C0.5 6.36373 6.36373 0.5 13.5691 0.5H108.841C116.047 0.5 121.91 6.36373 121.91 13.5691V94.4309C121.91 101.637 116.047 107.5 108.841 107.5ZM13.5691 3.54185C8.03988 3.54185 3.54185 8.03988 3.54185 13.5691V94.4309C3.54185 99.9601 8.03988 104.458 13.5691 104.458H108.841C114.37 104.458 118.869 99.9601 118.869 94.4309V13.5691C118.869 8.03988 114.37 3.54185 108.841 3.54185H13.5691Z" fill="black" stroke="#FFE2C9"/>
<path d="M120.389 31.8607H2.02093C1.1806 31.8607 0.5 31.1801 0.5 30.3398C0.5 29.5004 1.18078 28.8188 2.02093 28.8188H120.389C121.23 28.8188 121.91 29.5004 121.91 30.3398C121.91 31.1801 121.23 31.8607 120.389 31.8607Z" fill="black" stroke="#FFE2C9"/>
<path d="M34.5293 22.1903C31.2801 22.1903 28.6338 19.5441 28.6338 16.2949C28.6338 13.0446 31.28 10.3994 34.5293 10.3994C37.7796 10.3994 40.4247 13.0445 40.4247 16.2949C40.4247 19.5441 37.7795 22.1903 34.5293 22.1903ZM34.5293 13.4413C32.9564 13.4413 31.6756 14.7205 31.6756 16.2949C31.6756 17.8692 32.9564 19.1485 34.5293 19.1485C36.1034 19.1485 37.3829 17.8691 37.3829 16.2949C37.3829 14.7207 36.1034 13.4413 34.5293 13.4413Z" fill="black" stroke="#FFE2C9"/>
<path d="M14.8798 22.1283C11.6295 22.1283 8.98438 19.4832 8.98438 16.2329C8.98438 12.9825 11.6295 10.3374 14.8798 10.3374C18.1302 10.3374 20.7753 12.9825 20.7753 16.2329C20.7753 19.4832 18.1302 22.1283 14.8798 22.1283ZM14.8798 13.3793C13.3068 13.3793 12.0262 14.6598 12.0262 16.2329C12.0262 17.8072 13.3069 19.0865 14.8798 19.0865C16.454 19.0865 17.7334 17.807 17.7334 16.2329C17.7334 14.66 16.4542 13.3793 14.8798 13.3793Z" fill="black" stroke="#FFE2C9"/>
<path d="M54.1795 22.2512C50.9303 22.2512 48.2852 19.6061 48.2852 16.3557C48.2852 13.1065 50.9303 10.4614 54.1795 10.4614C57.4299 10.4614 60.075 13.1066 60.075 16.3557C60.075 19.606 57.4298 22.2512 54.1795 22.2512ZM54.1795 13.5021C52.6063 13.5021 51.327 14.7817 51.327 16.3557C51.327 17.9297 52.6063 19.2093 54.1795 19.2093C55.7537 19.2093 57.0331 17.9299 57.0331 16.3557C57.0331 14.7815 55.7537 13.5021 54.1795 13.5021Z" fill="black" stroke="#FFE2C9"/>
</svg>
