<svg width="28" height="32" viewBox="0 0 28 32" fill="none" xmlns="http://www.w3.org/2000/svg">
<path d="M2.78722 8.87364C2.04825 8.87281 1.33979 8.5789 0.817265 8.05637C0.294739 7.53385 0.000822442 6.82538 0 6.08642V2.7874C0.00925248 2.05421 0.307001 1.3542 0.828741 0.839001C1.35048 0.323803 2.0542 0.0349121 2.78744 0.0349121C3.52068 0.0349121 4.22439 0.323803 4.74613 0.839001C5.26788 1.3542 5.56562 2.05421 5.57488 2.7874V6.08642C5.57394 6.82543 5.27992 7.53389 4.75732 8.0564C4.23473 8.57891 3.52622 8.87281 2.78722 8.87364ZM2.78722 0.887969C2.28364 0.888557 1.80085 1.08886 1.44477 1.44495C1.08868 1.80103 0.888377 2.28382 0.88779 2.7874V6.08642C0.895415 6.58521 1.09891 7.06099 1.45433 7.41102C1.80976 7.76105 2.28859 7.95725 2.78744 7.95725C3.28629 7.95725 3.76512 7.76105 4.12054 7.41102C4.47597 7.06099 4.67946 6.58521 4.68709 6.08642V2.7874C4.6865 2.28374 4.48613 1.80089 4.12995 1.44479C3.77377 1.08869 3.29087 0.888439 2.78722 0.887969V0.887969Z" fill="black"/>
<path d="M7.6875 0.443848H8.57529V8.42952H7.6875V0.443848Z" fill="black"/>
<path d="M22.8877 0.443848H23.7755V8.42952H22.8877V0.443848Z" fill="black"/>
<path d="M22.8877 11.7593H23.7755V19.7449H22.8877V11.7593Z" fill="black"/>
<path d="M27.1123 0.443848H28.0001V8.42952H27.1123V0.443848Z" fill="black"/>
<path d="M13.6202 8.87346C12.8812 8.87264 12.1727 8.57873 11.6501 8.05622C11.1275 7.53371 10.8335 6.82525 10.8325 6.08624V2.78722C10.8325 2.42119 10.9046 2.05876 11.0447 1.72059C11.1848 1.38243 11.3901 1.07517 11.6489 0.816357C11.9077 0.55754 12.215 0.352235 12.5531 0.212164C12.8913 0.0720935 13.2537 0 13.6197 0C13.9858 0 14.3482 0.0720935 14.6864 0.212164C15.0245 0.352235 15.3318 0.55754 15.5906 0.816357C15.8494 1.07517 16.0547 1.38243 16.1948 1.72059C16.3349 2.05876 16.407 2.42119 16.407 2.78722V6.08624C16.4061 6.82513 16.1123 7.53352 15.5898 8.05604C15.0674 8.57855 14.3591 8.87252 13.6202 8.87346V8.87346ZM13.6202 0.88779C13.1165 0.88826 12.6336 1.08851 12.2774 1.44461C11.9213 1.80071 11.7209 2.28356 11.7203 2.78722V6.08624C11.7203 6.33568 11.7694 6.58267 11.8649 6.81312C11.9603 7.04357 12.1003 7.25296 12.2766 7.42934C12.453 7.60572 12.6624 7.74563 12.8929 7.84108C13.1233 7.93654 13.3703 7.98567 13.6197 7.98567C13.8692 7.98567 14.1162 7.93654 14.3466 7.84108C14.5771 7.74563 14.7865 7.60572 14.9628 7.42934C15.1392 7.25296 15.2791 7.04357 15.3746 6.81312C15.47 6.58267 15.5192 6.33568 15.5192 6.08624V2.78722C15.5187 2.28368 15.3185 1.80089 14.9625 1.44479C14.6065 1.0887 14.1237 0.888378 13.6202 0.88779V0.88779Z" fill="black"/>
<path d="M18.6641 0.443848H19.5519V8.42952H18.6641V0.443848Z" fill="black"/>
<path d="M17.9364 20.1889C17.1974 20.188 16.4889 19.8939 15.9664 19.3712C15.444 18.8485 15.1502 18.1398 15.1496 17.4008V14.1027C15.145 13.7337 15.2136 13.3675 15.3516 13.0253C15.4896 12.6831 15.6941 12.3717 15.9534 12.1091C16.2126 11.8466 16.5214 11.6381 16.8619 11.4958C17.2023 11.3535 17.5676 11.2803 17.9366 11.2803C18.3056 11.2803 18.6709 11.3535 19.0114 11.4958C19.3518 11.6381 19.6606 11.8466 19.9199 12.1091C20.1791 12.3717 20.3837 12.6831 20.5217 13.0253C20.6596 13.3675 20.7283 13.7337 20.7236 14.1027V17.4008C20.723 18.1399 20.4292 18.8486 19.9067 19.3713C19.3841 19.894 18.6755 20.1881 17.9364 20.1889V20.1889ZM17.9364 12.2032C17.4329 12.2039 16.9502 12.4043 16.5942 12.7604C16.2383 13.1164 16.038 13.5992 16.0374 14.1027V17.4008C16.0336 17.6527 16.0799 17.9028 16.1736 18.1365C16.2673 18.3703 16.4066 18.5832 16.5833 18.7626C16.76 18.9421 16.9707 19.0846 17.203 19.1819C17.4354 19.2792 17.6848 19.3293 17.9366 19.3293C18.1885 19.3293 18.4379 19.2792 18.6702 19.1819C18.9025 19.0846 19.1132 18.9421 19.29 18.7626C19.4667 18.5832 19.606 18.3703 19.6997 18.1365C19.7934 17.9028 19.8397 17.6527 19.8358 17.4008V14.1027C19.8352 13.5991 19.6349 13.1163 19.2789 12.7602C18.9228 12.4041 18.44 12.2038 17.9364 12.2032V12.2032Z" fill="black"/>
<path d="M5.75586 11.7593H6.64365V19.7449H5.75586V11.7593Z" fill="black"/>
<path d="M0 11.7593H0.88779V19.7449H0V11.7593Z" fill="black"/>
<path d="M0 22.6433H0.88779V30.629H0V22.6433Z" fill="black"/>
<path d="M27.1123 11.7593H28.0001V19.7449H27.1123V11.7593Z" fill="black"/>
<path d="M11.5112 11.7593H12.399V19.7449H11.5112V11.7593Z" fill="black"/>
<path d="M5.75586 22.6433H6.64365V30.629H5.75586V22.6433Z" fill="black"/>
<path d="M13.6202 31.0729C12.8812 31.0721 12.1727 30.7782 11.6501 30.2557C11.1275 29.7332 10.8335 29.0247 10.8325 28.2857V24.9867C10.8325 24.6207 10.9046 24.2582 11.0447 23.9201C11.1848 23.5819 11.3901 23.2746 11.6489 23.0158C11.9077 22.757 12.215 22.5517 12.5531 22.4116C12.8913 22.2716 13.2537 22.1995 13.6197 22.1995C13.9858 22.1995 14.3482 22.2716 14.6864 22.4116C15.0245 22.5517 15.3318 22.757 15.5906 23.0158C15.8494 23.2746 16.0547 23.5819 16.1948 23.9201C16.3349 24.2582 16.407 24.6207 16.407 24.9867V28.2857C16.4061 29.0246 16.1123 29.733 15.5898 30.2555C15.0674 30.778 14.3591 31.072 13.6202 31.0729V31.0729ZM13.6202 23.0873C13.1166 23.0878 12.6337 23.2881 12.2776 23.6442C11.9214 24.0003 11.721 24.4831 11.7203 24.9867V28.2857C11.7203 28.5351 11.7694 28.7821 11.8649 29.0126C11.9603 29.243 12.1003 29.4524 12.2766 29.6288C12.453 29.8052 12.6624 29.9451 12.8929 30.0405C13.1233 30.136 13.3703 30.1851 13.6197 30.1851C13.8692 30.1851 14.1162 30.136 14.3466 30.0405C14.5771 29.9451 14.7865 29.8052 14.9628 29.6288C15.1392 29.4524 15.2791 29.243 15.3746 29.0126C15.47 28.7821 15.5192 28.5351 15.5192 28.2857V24.9867C15.5186 24.4832 15.3183 24.0005 14.9623 23.6444C14.6064 23.2883 14.1237 23.088 13.6202 23.0873Z" fill="black"/>
<path d="M25.213 31.0726C24.4739 31.0718 23.7654 30.7779 23.2428 30.2554C22.7202 29.7329 22.4262 29.0244 22.4253 28.2854V24.9864C22.4345 24.2532 22.7323 23.5532 23.254 23.038C23.7758 22.5228 24.4795 22.2339 25.2127 22.2339C25.946 22.2339 26.6497 22.5228 27.1714 23.038C27.6932 23.5532 27.9909 24.2532 28.0002 24.9864V28.2854C27.9993 29.0244 27.7054 29.7328 27.1829 30.2553C26.6604 30.7779 25.9519 31.0718 25.213 31.0726V31.0726ZM25.213 23.0869C24.7093 23.0875 24.2265 23.2878 23.8703 23.6439C23.5142 24 23.3138 24.4828 23.3131 24.9864V28.2854C23.3207 28.7842 23.5242 29.26 23.8796 29.61C24.2351 29.96 24.7139 30.1562 25.2127 30.1562C25.7116 30.1562 26.1904 29.96 26.5458 29.61C26.9013 29.26 27.1048 28.7842 27.1124 28.2854V24.9864C27.1118 24.4828 26.9115 24 26.5554 23.6439C26.1993 23.2878 25.7165 23.0875 25.213 23.0869V23.0869Z" fill="black"/>
<path d="M18.6641 22.6433H19.5519V30.629H18.6641V22.6433Z" fill="black"/>
</svg>
