<svg width="149" height="379" viewBox="0 0 149 379" fill="none" xmlns="http://www.w3.org/2000/svg">
<path d="M66.3773 43.2548L66.0308 43.1113C65.992 43.2052 65.935 43.2904 65.8632 43.3622C65.7914 43.434 65.7061 43.491 65.6123 43.5299L65.7558 43.8763L65.6123 43.5299C65.5185 43.5687 65.4179 43.5887 65.3163 43.5887C65.2148 43.5887 65.1142 43.5687 65.0204 43.5299L64.8769 43.8763L65.0204 43.5299C64.9266 43.491 64.8413 43.434 64.7695 43.3622C64.6977 43.2904 64.6407 43.2052 64.6018 43.1113C64.563 43.0176 64.543 42.9171 64.543 42.8156C64.5467 39.5308 65.8531 36.3816 68.1755 34.0586C70.4978 31.7356 73.6467 30.4285 76.9315 30.4238C77.1365 30.4239 77.3331 30.5054 77.4781 30.6503C77.6231 30.7954 77.7046 30.9921 77.7046 31.1972C77.7046 31.4022 77.6232 31.5989 77.4782 31.7439C77.3333 31.8889 77.1367 31.9704 76.9317 31.9706L76.9314 31.9706C74.0567 31.9745 71.301 33.1184 69.2686 35.1513C67.2361 37.1843 66.0929 39.9403 66.0897 42.8149V42.8154C66.0897 42.9169 66.0697 43.0175 66.0308 43.1113L66.3773 43.2548Z" fill="black" stroke="#F3EFDE" stroke-width="0.75"/>
<path d="M94.7265 13.3261H94.3515C94.3515 13.5312 94.2701 13.7279 94.125 13.8729C93.98 14.018 93.7833 14.0994 93.5782 14.0994C93.3731 14.0994 93.1764 14.018 93.0313 13.8729C92.8863 13.7279 92.8048 13.5312 92.8048 13.3261C92.8048 12.0681 92.3051 10.8617 91.4156 9.97223C90.5261 9.08274 89.3197 8.58302 88.0618 8.58302C86.8038 8.58302 85.5974 9.08274 84.7079 9.97223C83.8184 10.8617 83.3187 12.0681 83.3187 13.3261C83.3187 13.5312 83.2372 13.7279 83.0922 13.8729C82.9472 14.018 82.7504 14.0994 82.5453 14.0994C82.3402 14.0994 82.1435 14.018 81.9985 13.8729C81.8535 13.7279 81.772 13.5313 81.772 13.3263C81.774 11.6588 82.4373 10.0602 83.6164 8.88106C84.7955 7.70201 86.394 7.0387 88.0614 7.03662C89.729 7.03853 91.3277 7.70177 92.5069 8.88084C93.6862 10.06 94.3496 11.6588 94.3515 13.3265L94.7265 13.3261ZM94.7265 13.3261C94.7265 13.6306 94.6056 13.9227 94.3902 14.1381C94.1748 14.3535 93.8827 14.4744 93.5782 14.4744C93.2736 14.4744 92.9815 14.3535 92.7662 14.1381C92.5508 13.9227 92.4298 13.6306 92.4298 13.3261C92.4298 12.1676 91.9696 11.0566 91.1504 10.2374C90.3313 9.41823 89.2202 8.95802 88.0618 8.95802C86.9033 8.95802 85.7922 9.41823 84.9731 10.2374C84.1539 11.0566 83.6937 12.1676 83.6937 13.3261C83.6937 13.6306 83.5727 13.9227 83.3574 14.1381C83.142 14.3535 82.8499 14.4744 82.5453 14.4744C82.2408 14.4744 81.9487 14.3535 81.7333 14.1381C81.518 13.9227 81.397 13.6306 81.397 13.3261L88.0614 6.66162C89.8284 6.66353 91.5225 7.36627 92.772 8.61567C94.0216 9.86506 94.7245 11.5591 94.7265 13.3261Z" fill="black" stroke="#F3EFDE" stroke-width="0.75"/>
<path d="M82.0336 40.7576V40.3826C81.8285 40.3826 81.6318 40.3011 81.4867 40.1561C81.3417 40.011 81.2602 39.8143 81.2602 39.6092C81.2602 39.4041 81.3417 39.2074 81.4867 39.0623C81.6318 38.9173 81.8285 38.8358 82.0336 38.8358H82.034C83.6311 38.8342 85.1623 38.199 86.2917 37.0696C87.421 35.9403 88.0562 34.4091 88.0579 32.8119V32.8115V29.0994V29.099C88.0562 27.5018 87.421 25.9706 86.2917 24.8413C85.1623 23.7119 83.6311 23.0767 82.034 23.0751H82.0336H81.5414C81.3363 23.0751 81.1396 22.9936 80.9946 22.8485C80.8495 22.7035 80.7681 22.5068 80.7681 22.3017C80.7681 22.0966 80.8495 21.8999 80.9946 21.7548C81.1396 21.6098 81.3363 21.5283 81.5414 21.5283H82.0334C84.0407 21.5307 85.9651 22.3291 87.3844 23.7485C88.8039 25.1679 89.6023 27.0924 89.6046 29.0998V32.8111C89.6023 34.8185 88.8039 36.743 87.3844 38.1624C85.965 39.5818 84.0405 40.3802 82.0332 40.3826L82.0336 40.7576ZM82.0336 40.7576C84.1403 40.7551 86.16 39.9172 87.6496 38.4275C89.1392 36.9379 89.9772 34.9182 89.9796 32.8115L82.0336 21.1533H81.5414C81.2369 21.1533 80.9448 21.2743 80.7294 21.4897C80.5141 21.705 80.3931 21.9971 80.3931 22.3017C80.3931 22.6063 80.5141 22.8983 80.7294 23.1137C80.9448 23.3291 81.2369 23.4501 81.5414 23.4501H82.0336C83.5314 23.4516 84.9674 24.0473 86.0265 25.1064C87.0856 26.1655 87.6813 27.6015 87.6829 29.0994V32.8115C87.6813 34.3093 87.0856 35.7454 86.0265 36.8045C84.9674 37.8636 83.5314 38.4593 82.0336 38.4608C81.729 38.4608 81.4369 38.5818 81.2216 38.7972C81.0062 39.0125 80.8852 39.3046 80.8852 39.6092C80.8852 39.9138 81.0062 40.2059 81.2216 40.4212C81.4369 40.6366 81.729 40.7576 82.0336 40.7576Z" fill="black" stroke="#F3EFDE" stroke-width="0.75"/>
<path d="M82.2778 50.4019H82.2782H88.8403C89.0454 50.4019 89.2422 50.4833 89.3872 50.6284C89.5322 50.7734 89.6137 50.9701 89.6137 51.1752C89.6137 51.3803 89.5322 51.577 89.3872 51.7221C89.2422 51.8671 89.0455 51.9486 88.8403 51.9486H82.2787C80.0076 51.9459 77.8303 51.0426 76.2244 49.4366C74.6185 47.8308 73.7151 45.6536 73.7124 43.3825C73.7125 43.1775 73.7939 42.9809 73.9389 42.8359C74.084 42.6909 74.2807 42.6094 74.4858 42.6094C74.6909 42.6094 74.8876 42.6909 75.0326 42.8359C75.1777 42.9809 75.2591 43.1776 75.2591 43.3827L75.2591 43.3831C75.2612 45.244 76.0013 47.0281 77.3171 48.3439C78.6329 49.6597 80.417 50.3998 82.2778 50.4019Z" fill="black" stroke="#F3EFDE" stroke-width="0.75"/>
<path d="M93.0243 66.3144H93.0247C93.2298 66.3144 93.4266 66.3958 93.5716 66.5409C93.7166 66.6859 93.7981 66.8826 93.7981 67.0877C93.7981 67.2928 93.7166 67.4895 93.5716 67.6346C93.4266 67.7795 93.2301 67.861 93.0251 67.8611C90.3408 67.8581 87.7673 66.7904 85.8692 64.8923C83.9711 62.9942 82.9035 60.4208 82.9004 57.7366C82.9004 57.5315 82.9819 57.3349 83.1269 57.1899C83.2719 57.0449 83.4686 56.9634 83.6738 56.9634C83.8789 56.9634 84.0756 57.0449 84.2206 57.1899C84.3656 57.3349 84.4471 57.5316 84.4471 57.7367L84.4471 57.7372C84.4497 60.0112 85.3541 62.1914 86.9621 63.7993C88.5701 65.4073 90.7503 66.3118 93.0243 66.3144Z" fill="black" stroke="#F3EFDE" stroke-width="0.75"/>
<path d="M76.5628 65.833L76.5632 65.458C76.5242 65.4579 76.4851 65.4551 76.4464 65.4495C75.0225 65.2342 73.742 64.4631 72.8856 63.3052C72.029 62.147 71.6668 60.6964 71.8783 59.2715L71.8789 59.2671C71.8928 59.1657 71.9267 59.0679 71.9786 58.9797C72.0305 58.8914 72.0995 58.8143 72.1814 58.7529C72.2634 58.6915 72.3567 58.6469 72.456 58.6219C72.5553 58.5968 72.6586 58.5918 72.7599 58.6069C72.8612 58.6221 72.9584 58.6573 73.046 58.7104C73.1336 58.7634 73.2098 58.8334 73.2701 58.9161L73.5731 58.6952L73.2701 58.9161C73.3305 58.9989 73.3738 59.0928 73.3975 59.1924C73.4212 59.2921 73.425 59.3954 73.4084 59.4965L73.4084 59.4965L73.4076 59.502C73.2565 60.5209 73.5156 61.5582 74.1283 62.3864C74.7409 63.2145 75.657 63.7659 76.6755 63.9195L76.6764 63.9196C76.8695 63.9483 77.0446 64.049 77.1666 64.2014C77.2886 64.3539 77.3484 64.5468 77.334 64.7415C77.3196 64.9362 77.2321 65.1183 77.0891 65.2512C76.946 65.3841 76.758 65.4579 76.5628 65.458L76.5628 65.833ZM76.5628 65.833C76.8527 65.8329 77.1319 65.7232 77.3443 65.5259C77.5567 65.3286 77.6866 65.0583 77.708 64.7691C77.7293 64.48 77.6405 64.1935 77.4594 63.9672C77.2783 63.7408 77.0182 63.5913 76.7315 63.5487L71.5074 59.2164C71.2813 60.7395 71.6685 62.2902 72.5841 63.5282C73.4997 64.7663 74.869 65.5906 76.3916 65.8205C76.4483 65.8287 76.5055 65.8329 76.5628 65.833Z" fill="black" stroke="#F3EFDE" stroke-width="0.75"/>
<path d="M88.3483 76.0519H88.3487C88.5538 76.0519 88.7505 76.1333 88.8955 76.2784C89.0406 76.4234 89.122 76.6201 89.122 76.8252C89.122 77.0303 89.0406 77.227 88.8955 77.3721C88.7506 77.517 88.554 77.5985 88.349 77.5986C86.5346 77.5966 84.795 76.8749 83.512 75.5919C82.2291 74.309 81.5074 72.5695 81.5054 70.7551C81.5054 70.5501 81.5869 70.3534 81.7319 70.2084C81.8769 70.0634 82.0736 69.9819 82.2787 69.9819C82.4838 69.9819 82.6806 70.0634 82.8256 70.2084C82.9706 70.3535 83.0521 70.5502 83.0521 70.7553L83.0521 70.7557C83.0536 72.1599 83.6121 73.5061 84.605 74.499C85.5979 75.4919 86.9441 76.0504 88.3483 76.0519Z" fill="black" stroke="#F3EFDE" stroke-width="0.75"/>
<path d="M73.9387 74C54.452 88.517 38.4863 104.619 25.3392 125.113C17.9556 136.623 6.98562 153.461 8.83864 167.976C10.5414 181.314 24.2626 180.123 34.1697 177.516C57.5613 171.36 79.3467 158.563 101.719 149.542C113.276 144.882 131.972 135.954 144.969 138.842C154.082 140.867 142.612 162.704 140.715 166.171C117.906 207.857 81.5401 241.164 47.7698 273.941C28.6915 292.458 9.16777 309.153 -5.59939 331.5C-12.9647 342.646 -26.5226 358.792 -26.9986 373.074C-27.1552 377.77 -13.9576 377.972 -10.3046 377.972C-3.79038 377.972 2.66803 375.62 8.70973 373.46C27.0167 366.915 45.2813 360.231 63.5614 353.608C79.4515 347.851 95.5425 342.906 111.581 337.623C114.837 336.55 115.706 336.081 115.706 332.724" stroke="black" stroke-width="0.5" stroke-linecap="round" stroke-dasharray="5 5"/>
<mask id="path-9-inside-1_1116_3" fill="white">
<path d="M137.442 46.2533C136.633 46.2541 135.84 46.4717 135.145 46.8833L120.249 31.9873C120.034 31.7719 119.742 31.6508 119.437 31.6507H101.145V24.544H133.042C133.321 25.6154 133.981 26.5483 134.899 27.1681C135.816 27.7879 136.928 28.0522 138.026 27.9114C139.124 27.7706 140.134 27.2345 140.865 26.4033C141.597 25.5721 142 24.5028 142 23.3956C142 22.2884 141.597 21.2191 140.865 20.3879C140.134 19.5567 139.124 19.0205 138.026 18.8798C136.928 18.739 135.816 19.0032 134.899 19.6231C133.981 20.2429 133.321 21.1758 133.042 22.2472H101.145V17.1071H119.437C119.742 17.107 120.034 16.9859 120.249 16.7705L125.17 11.8489C126.154 12.3611 127.291 12.4972 128.369 12.2316C129.446 11.966 130.389 11.3169 131.022 10.4059C131.655 9.49496 131.935 8.38449 131.808 7.28237C131.681 6.18026 131.157 5.16206 130.334 4.41836C129.511 3.67467 128.445 3.25645 127.336 3.242C126.227 3.22755 125.15 3.61786 124.308 4.33986C123.466 5.06187 122.915 6.06607 122.76 7.16452C122.605 8.26296 122.855 9.38034 123.464 10.3075L118.961 14.8104H101.145V13.0741C101.143 9.69353 99.832 6.44514 97.4875 4.0097C95.143 1.57426 91.9468 0.140833 88.5688 0.0098361C85.1908 -0.121161 81.8932 1.06044 79.3671 3.307C76.841 5.55356 75.2826 8.69068 75.0183 12.0609C72.3295 12.456 69.8724 13.8049 68.0955 15.8613C66.3187 17.9178 65.3406 20.5446 65.3399 23.2624C65.3387 24.6426 65.5932 26.0112 66.0906 27.2987C63.6289 29.0182 61.6116 31.2986 60.2051 33.9517C58.7986 36.6047 58.0434 39.5542 58.0018 42.5567C57.9602 45.5592 58.6334 48.5285 59.9658 51.2195C61.2982 53.9104 63.2516 56.2459 65.6647 58.0329C65.2899 59.564 65.2391 61.1564 65.5156 62.7083C65.7922 64.2601 66.3899 65.737 67.2706 67.0443C68.1512 68.3516 69.2953 69.4605 70.6295 70.2998C71.9637 71.1392 73.4586 71.6904 75.0183 71.9183C75.2826 75.2886 76.8411 78.4258 79.3674 80.6724C81.8936 82.919 85.1913 84.1005 88.5695 83.9693C91.9476 83.8381 95.1438 82.4045 97.4882 79.9688C99.8326 77.5331 101.143 74.2845 101.145 70.9038V70.6991H113.712L118.606 76.9186C117.958 77.8236 117.663 78.9334 117.776 80.0403C117.888 81.1472 118.4 82.1752 119.216 82.9318C120.031 83.6884 121.095 84.1217 122.207 84.1505C123.319 84.1793 124.404 83.8017 125.258 83.0883C126.111 82.375 126.676 81.3748 126.845 80.2752C127.015 79.1756 126.777 78.052 126.178 77.1147C125.578 76.1775 124.658 75.4909 123.588 75.1837C122.519 74.8764 121.375 74.9694 120.369 75.4454L115.172 68.8407C115.064 68.7041 114.927 68.5937 114.771 68.5178C114.615 68.4418 114.443 68.4024 114.269 68.4023H101.145V61.5121H113.273C113.553 62.5835 114.213 63.5165 115.13 64.1363C116.048 64.7561 117.16 65.0204 118.258 64.8796C119.356 64.7388 120.365 64.2027 121.097 63.3715C121.828 62.5403 122.232 61.471 122.232 60.3638C122.232 59.2566 121.828 58.1873 121.097 57.3561C120.365 56.5249 119.356 55.9887 118.258 55.848C117.16 55.7072 116.048 55.9714 115.13 56.5912C114.213 57.2111 113.553 58.144 113.273 59.2154H101.145V52.3252H120.491C120.77 53.3966 121.43 54.3295 122.348 54.9494C123.265 55.5692 124.377 55.8335 125.475 55.6927C126.574 55.5519 127.583 55.0157 128.314 54.1845C129.046 53.3533 129.449 52.2841 129.449 51.1768C129.449 50.0696 129.046 49.0004 128.314 48.1692C127.583 47.338 126.574 46.8018 125.475 46.661C124.377 46.5202 123.265 46.7845 122.348 47.4043C121.43 48.0241 120.77 48.9571 120.491 50.0285H101.145V43.1383H108.048C108.354 44.2026 109.037 45.1192 109.969 45.7163C110.902 46.3135 112.02 46.5503 113.114 46.3826C114.209 46.2148 115.205 45.6539 115.916 44.8049C116.627 43.9559 117.004 42.8769 116.977 41.7698C116.949 40.6628 116.52 39.6037 115.768 38.7906C115.016 37.9775 113.994 37.4662 112.893 37.3524C111.791 37.2386 110.686 37.5301 109.784 38.1723C108.882 38.8145 108.244 39.7635 107.992 40.8416H101.145V33.9514H118.961L133.519 48.5087C133.014 49.3742 132.808 50.3825 132.934 51.3769C133.061 52.3713 133.512 53.2961 134.218 54.0075C134.924 54.719 135.846 55.1772 136.839 55.311C137.833 55.4447 138.842 55.2466 139.712 54.7473C140.581 54.248 141.261 53.4755 141.646 52.5499C142.031 51.6244 142.099 50.5976 141.84 49.6292C141.581 48.6608 141.01 47.805 140.215 47.1948C139.419 46.5847 138.445 46.2544 137.442 46.2553L137.442 46.2533ZM137.442 21.1395C137.888 21.1394 138.324 21.2716 138.695 21.5194C139.066 21.7673 139.355 22.1196 139.526 22.5318C139.697 22.944 139.742 23.3976 139.655 23.8353C139.568 24.273 139.353 24.675 139.038 24.9906C138.722 25.3062 138.32 25.5211 137.883 25.6082C137.445 25.6953 136.991 25.6507 136.579 25.48C136.167 25.3092 135.814 25.0201 135.566 24.649C135.318 24.278 135.186 23.8418 135.186 23.3956C135.187 22.7975 135.424 22.2241 135.847 21.8011C136.27 21.3782 136.843 21.1402 137.442 21.1395V21.1395ZM127.27 5.55392C127.716 5.55392 128.152 5.6862 128.523 5.93402C128.894 6.18185 129.183 6.53409 129.354 6.94621C129.525 7.35833 129.569 7.81181 129.482 8.24932C129.395 8.68682 129.181 9.08869 128.865 9.40411C128.55 9.71954 128.148 9.93434 127.71 10.0214C127.273 10.1084 126.819 10.0637 126.407 9.89302C125.995 9.72232 125.643 9.43324 125.395 9.06234C125.147 8.69144 125.015 8.25539 125.015 7.80931C125.016 7.21136 125.253 6.63809 125.676 6.21528C126.099 5.79246 126.672 5.55462 127.27 5.55392V5.55392ZM124.563 79.5559C124.563 80.002 124.431 80.4381 124.183 80.8089C123.935 81.1798 123.583 81.4689 123.171 81.6396C122.759 81.8103 122.306 81.855 121.868 81.768C121.431 81.681 121.029 81.4661 120.713 81.1507C120.398 80.8353 120.183 80.4334 120.096 79.9959C120.009 79.5584 120.054 79.1049 120.224 78.6928C120.395 78.2807 120.684 77.9285 121.055 77.6806C121.426 77.4328 121.862 77.3005 122.308 77.3005C122.906 77.3012 123.479 77.5391 123.902 77.9619C124.325 78.3847 124.563 78.958 124.563 79.5559V79.5559ZM117.673 58.1064C118.119 58.1063 118.556 58.2385 118.927 58.4864C119.298 58.7342 119.587 59.0865 119.758 59.4988C119.929 59.9111 119.974 60.3647 119.887 60.8024C119.8 61.2401 119.585 61.6422 119.269 61.9577C118.954 62.2733 118.552 62.4882 118.114 62.5752C117.676 62.6622 117.222 62.6175 116.81 62.4467C116.398 62.2758 116.046 61.9866 115.798 61.6154C115.55 61.2443 115.418 60.8081 115.418 60.3618C115.419 59.7639 115.656 59.1906 116.079 58.7678C116.502 58.345 117.075 58.1071 117.673 58.1064V58.1064ZM124.892 48.9195C125.338 48.9194 125.774 49.0516 126.145 49.2994C126.516 49.5473 126.806 49.8996 126.976 50.3119C127.147 50.7241 127.192 51.1778 127.105 51.6155C127.018 52.0532 126.803 52.4553 126.487 52.7708C126.172 53.0864 125.77 53.3012 125.332 53.3883C124.894 53.4753 124.441 53.4306 124.029 53.2597C123.616 53.0889 123.264 52.7996 123.016 52.4285C122.768 52.0574 122.636 51.6211 122.636 51.1749C122.637 50.5769 122.875 50.0037 123.297 49.5808C123.72 49.158 124.294 48.9202 124.892 48.9195V48.9195ZM112.42 39.6217C112.866 39.6215 113.302 39.7537 113.673 40.0016C114.044 40.2494 114.334 40.6017 114.504 41.0139C114.675 41.4261 114.72 41.8798 114.633 42.3174C114.546 42.7551 114.331 43.1572 114.016 43.4727C113.7 43.7883 113.298 44.0033 112.861 44.0904C112.423 44.1775 111.969 44.1328 111.557 43.9621C111.145 43.7914 110.792 43.5022 110.544 43.1312C110.297 42.7602 110.164 42.3239 110.164 41.8777C110.165 41.2796 110.403 40.7062 110.825 40.2833C111.248 39.8603 111.822 39.6224 112.42 39.6217V39.6217ZM98.8486 70.9025C98.83 73.7489 97.6871 76.4725 95.669 78.4799C93.651 80.4872 90.9213 81.6155 88.0748 81.6189C85.2284 81.6223 82.496 80.5004 80.4732 78.4979C78.4503 76.4953 77.301 73.7744 77.2757 70.9281C77.2757 70.9097 77.2757 70.89 77.2757 70.8749C77.2758 70.5809 77.163 70.298 76.9607 70.0846C76.7585 69.8712 76.482 69.7435 76.1884 69.7279C74.8046 69.6565 73.4559 69.2672 72.247 68.5902C71.038 67.9133 70.0013 66.9669 69.2172 65.8245C68.4332 64.6821 67.9229 63.3744 67.7259 62.0029C67.529 60.6314 67.6506 59.233 68.0816 57.9161C68.1588 57.679 68.1568 57.4231 68.0757 57.1873C67.9946 56.9514 67.8388 56.7484 67.632 56.6089C65.3309 55.0579 63.4542 52.9558 62.1731 50.4942C60.892 48.0325 60.247 45.2894 60.297 42.5148C60.3469 39.7401 61.0902 37.0221 62.4592 34.6081C63.8281 32.1941 65.7792 30.161 68.1347 28.6938C68.3757 28.5435 68.5524 28.3091 68.6307 28.036C68.709 27.763 68.6833 27.4706 68.5586 27.2154C67.9016 25.8765 67.5872 24.3955 67.6436 22.9052C67.7001 21.4149 68.1256 19.9619 68.882 18.6766C69.6384 17.3913 70.702 16.3138 71.9774 15.5409C73.2529 14.768 74.7002 14.3237 76.1897 14.248C76.4833 14.2324 76.7598 14.1047 76.9621 13.8913C77.1644 13.6779 77.2771 13.395 77.277 13.101C77.277 13.0865 77.277 13.0675 77.277 13.0485C77.3023 10.2022 78.4515 7.48123 80.4743 5.47862C82.4971 3.47602 85.2294 2.35411 88.0758 2.3574C90.9222 2.36069 93.652 3.48891 95.6701 5.49619C97.6883 7.50346 98.8312 10.2271 98.8499 13.0734L98.8486 70.9025ZM137.442 53.0621C136.995 53.0621 136.559 52.9298 136.188 52.6819C135.817 52.434 135.528 52.0816 135.357 51.6693C135.186 51.257 135.142 50.8034 135.229 50.3657C135.316 49.9281 135.531 49.5261 135.846 49.2106C136.162 48.8951 136.564 48.6803 137.002 48.5933C137.439 48.5063 137.893 48.5511 138.305 48.722C138.718 48.8928 139.07 49.1821 139.318 49.5532C139.566 49.9243 139.698 50.3605 139.698 50.8067C139.697 51.4047 139.459 51.9779 139.036 52.4006C138.613 52.8233 138.039 53.061 137.442 53.0615V53.0621Z"/>
</mask>
<path d="M137.442 46.2533C136.633 46.2541 135.84 46.4717 135.145 46.8833L120.249 31.9873C120.034 31.7719 119.742 31.6508 119.437 31.6507H101.145V24.544H133.042C133.321 25.6154 133.981 26.5483 134.899 27.1681C135.816 27.7879 136.928 28.0522 138.026 27.9114C139.124 27.7706 140.134 27.2345 140.865 26.4033C141.597 25.5721 142 24.5028 142 23.3956C142 22.2884 141.597 21.2191 140.865 20.3879C140.134 19.5567 139.124 19.0205 138.026 18.8798C136.928 18.739 135.816 19.0032 134.899 19.6231C133.981 20.2429 133.321 21.1758 133.042 22.2472H101.145V17.1071H119.437C119.742 17.107 120.034 16.9859 120.249 16.7705L125.17 11.8489C126.154 12.3611 127.291 12.4972 128.369 12.2316C129.446 11.966 130.389 11.3169 131.022 10.4059C131.655 9.49496 131.935 8.38449 131.808 7.28237C131.681 6.18026 131.157 5.16206 130.334 4.41836C129.511 3.67467 128.445 3.25645 127.336 3.242C126.227 3.22755 125.15 3.61786 124.308 4.33986C123.466 5.06187 122.915 6.06607 122.76 7.16452C122.605 8.26296 122.855 9.38034 123.464 10.3075L118.961 14.8104H101.145V13.0741C101.143 9.69353 99.832 6.44514 97.4875 4.0097C95.143 1.57426 91.9468 0.140833 88.5688 0.0098361C85.1908 -0.121161 81.8932 1.06044 79.3671 3.307C76.841 5.55356 75.2826 8.69068 75.0183 12.0609C72.3295 12.456 69.8724 13.8049 68.0955 15.8613C66.3187 17.9178 65.3406 20.5446 65.3399 23.2624C65.3387 24.6426 65.5932 26.0112 66.0906 27.2987C63.6289 29.0182 61.6116 31.2986 60.2051 33.9517C58.7986 36.6047 58.0434 39.5542 58.0018 42.5567C57.9602 45.5592 58.6334 48.5285 59.9658 51.2195C61.2982 53.9104 63.2516 56.2459 65.6647 58.0329C65.2899 59.564 65.2391 61.1564 65.5156 62.7083C65.7922 64.2601 66.3899 65.737 67.2706 67.0443C68.1512 68.3516 69.2953 69.4605 70.6295 70.2998C71.9637 71.1392 73.4586 71.6904 75.0183 71.9183C75.2826 75.2886 76.8411 78.4258 79.3674 80.6724C81.8936 82.919 85.1913 84.1005 88.5695 83.9693C91.9476 83.8381 95.1438 82.4045 97.4882 79.9688C99.8326 77.5331 101.143 74.2845 101.145 70.9038V70.6991H113.712L118.606 76.9186C117.958 77.8236 117.663 78.9334 117.776 80.0403C117.888 81.1472 118.4 82.1752 119.216 82.9318C120.031 83.6884 121.095 84.1217 122.207 84.1505C123.319 84.1793 124.404 83.8017 125.258 83.0883C126.111 82.375 126.676 81.3748 126.845 80.2752C127.015 79.1756 126.777 78.052 126.178 77.1147C125.578 76.1775 124.658 75.4909 123.588 75.1837C122.519 74.8764 121.375 74.9694 120.369 75.4454L115.172 68.8407C115.064 68.7041 114.927 68.5937 114.771 68.5178C114.615 68.4418 114.443 68.4024 114.269 68.4023H101.145V61.5121H113.273C113.553 62.5835 114.213 63.5165 115.13 64.1363C116.048 64.7561 117.16 65.0204 118.258 64.8796C119.356 64.7388 120.365 64.2027 121.097 63.3715C121.828 62.5403 122.232 61.471 122.232 60.3638C122.232 59.2566 121.828 58.1873 121.097 57.3561C120.365 56.5249 119.356 55.9887 118.258 55.848C117.16 55.7072 116.048 55.9714 115.13 56.5912C114.213 57.2111 113.553 58.144 113.273 59.2154H101.145V52.3252H120.491C120.77 53.3966 121.43 54.3295 122.348 54.9494C123.265 55.5692 124.377 55.8335 125.475 55.6927C126.574 55.5519 127.583 55.0157 128.314 54.1845C129.046 53.3533 129.449 52.2841 129.449 51.1768C129.449 50.0696 129.046 49.0004 128.314 48.1692C127.583 47.338 126.574 46.8018 125.475 46.661C124.377 46.5202 123.265 46.7845 122.348 47.4043C121.43 48.0241 120.77 48.9571 120.491 50.0285H101.145V43.1383H108.048C108.354 44.2026 109.037 45.1192 109.969 45.7163C110.902 46.3135 112.02 46.5503 113.114 46.3826C114.209 46.2148 115.205 45.6539 115.916 44.8049C116.627 43.9559 117.004 42.8769 116.977 41.7698C116.949 40.6628 116.52 39.6037 115.768 38.7906C115.016 37.9775 113.994 37.4662 112.893 37.3524C111.791 37.2386 110.686 37.5301 109.784 38.1723C108.882 38.8145 108.244 39.7635 107.992 40.8416H101.145V33.9514H118.961L133.519 48.5087C133.014 49.3742 132.808 50.3825 132.934 51.3769C133.061 52.3713 133.512 53.2961 134.218 54.0075C134.924 54.719 135.846 55.1772 136.839 55.311C137.833 55.4447 138.842 55.2466 139.712 54.7473C140.581 54.248 141.261 53.4755 141.646 52.5499C142.031 51.6244 142.099 50.5976 141.84 49.6292C141.581 48.6608 141.01 47.805 140.215 47.1948C139.419 46.5847 138.445 46.2544 137.442 46.2553L137.442 46.2533ZM137.442 21.1395C137.888 21.1394 138.324 21.2716 138.695 21.5194C139.066 21.7673 139.355 22.1196 139.526 22.5318C139.697 22.944 139.742 23.3976 139.655 23.8353C139.568 24.273 139.353 24.675 139.038 24.9906C138.722 25.3062 138.32 25.5211 137.883 25.6082C137.445 25.6953 136.991 25.6507 136.579 25.48C136.167 25.3092 135.814 25.0201 135.566 24.649C135.318 24.278 135.186 23.8418 135.186 23.3956C135.187 22.7975 135.424 22.2241 135.847 21.8011C136.27 21.3782 136.843 21.1402 137.442 21.1395V21.1395ZM127.27 5.55392C127.716 5.55392 128.152 5.6862 128.523 5.93402C128.894 6.18185 129.183 6.53409 129.354 6.94621C129.525 7.35833 129.569 7.81181 129.482 8.24932C129.395 8.68682 129.181 9.08869 128.865 9.40411C128.55 9.71954 128.148 9.93434 127.71 10.0214C127.273 10.1084 126.819 10.0637 126.407 9.89302C125.995 9.72232 125.643 9.43324 125.395 9.06234C125.147 8.69144 125.015 8.25539 125.015 7.80931C125.016 7.21136 125.253 6.63809 125.676 6.21528C126.099 5.79246 126.672 5.55462 127.27 5.55392V5.55392ZM124.563 79.5559C124.563 80.002 124.431 80.4381 124.183 80.8089C123.935 81.1798 123.583 81.4689 123.171 81.6396C122.759 81.8103 122.306 81.855 121.868 81.768C121.431 81.681 121.029 81.4661 120.713 81.1507C120.398 80.8353 120.183 80.4334 120.096 79.9959C120.009 79.5584 120.054 79.1049 120.224 78.6928C120.395 78.2807 120.684 77.9285 121.055 77.6806C121.426 77.4328 121.862 77.3005 122.308 77.3005C122.906 77.3012 123.479 77.5391 123.902 77.9619C124.325 78.3847 124.563 78.958 124.563 79.5559V79.5559ZM117.673 58.1064C118.119 58.1063 118.556 58.2385 118.927 58.4864C119.298 58.7342 119.587 59.0865 119.758 59.4988C119.929 59.9111 119.974 60.3647 119.887 60.8024C119.8 61.2401 119.585 61.6422 119.269 61.9577C118.954 62.2733 118.552 62.4882 118.114 62.5752C117.676 62.6622 117.222 62.6175 116.81 62.4467C116.398 62.2758 116.046 61.9866 115.798 61.6154C115.55 61.2443 115.418 60.8081 115.418 60.3618C115.419 59.7639 115.656 59.1906 116.079 58.7678C116.502 58.345 117.075 58.1071 117.673 58.1064V58.1064ZM124.892 48.9195C125.338 48.9194 125.774 49.0516 126.145 49.2994C126.516 49.5473 126.806 49.8996 126.976 50.3119C127.147 50.7241 127.192 51.1778 127.105 51.6155C127.018 52.0532 126.803 52.4553 126.487 52.7708C126.172 53.0864 125.77 53.3012 125.332 53.3883C124.894 53.4753 124.441 53.4306 124.029 53.2597C123.616 53.0889 123.264 52.7996 123.016 52.4285C122.768 52.0574 122.636 51.6211 122.636 51.1749C122.637 50.5769 122.875 50.0037 123.297 49.5808C123.72 49.158 124.294 48.9202 124.892 48.9195V48.9195ZM112.42 39.6217C112.866 39.6215 113.302 39.7537 113.673 40.0016C114.044 40.2494 114.334 40.6017 114.504 41.0139C114.675 41.4261 114.72 41.8798 114.633 42.3174C114.546 42.7551 114.331 43.1572 114.016 43.4727C113.7 43.7883 113.298 44.0033 112.861 44.0904C112.423 44.1775 111.969 44.1328 111.557 43.9621C111.145 43.7914 110.792 43.5022 110.544 43.1312C110.297 42.7602 110.164 42.3239 110.164 41.8777C110.165 41.2796 110.403 40.7062 110.825 40.2833C111.248 39.8603 111.822 39.6224 112.42 39.6217V39.6217ZM98.8486 70.9025C98.83 73.7489 97.6871 76.4725 95.669 78.4799C93.651 80.4872 90.9213 81.6155 88.0748 81.6189C85.2284 81.6223 82.496 80.5004 80.4732 78.4979C78.4503 76.4953 77.301 73.7744 77.2757 70.9281C77.2757 70.9097 77.2757 70.89 77.2757 70.8749C77.2758 70.5809 77.163 70.298 76.9607 70.0846C76.7585 69.8712 76.482 69.7435 76.1884 69.7279C74.8046 69.6565 73.4559 69.2672 72.247 68.5902C71.038 67.9133 70.0013 66.9669 69.2172 65.8245C68.4332 64.6821 67.9229 63.3744 67.7259 62.0029C67.529 60.6314 67.6506 59.233 68.0816 57.9161C68.1588 57.679 68.1568 57.4231 68.0757 57.1873C67.9946 56.9514 67.8388 56.7484 67.632 56.6089C65.3309 55.0579 63.4542 52.9558 62.1731 50.4942C60.892 48.0325 60.247 45.2894 60.297 42.5148C60.3469 39.7401 61.0902 37.0221 62.4592 34.6081C63.8281 32.1941 65.7792 30.161 68.1347 28.6938C68.3757 28.5435 68.5524 28.3091 68.6307 28.036C68.709 27.763 68.6833 27.4706 68.5586 27.2154C67.9016 25.8765 67.5872 24.3955 67.6436 22.9052C67.7001 21.4149 68.1256 19.9619 68.882 18.6766C69.6384 17.3913 70.702 16.3138 71.9774 15.5409C73.2529 14.768 74.7002 14.3237 76.1897 14.248C76.4833 14.2324 76.7598 14.1047 76.9621 13.8913C77.1644 13.6779 77.2771 13.395 77.277 13.101C77.277 13.0865 77.277 13.0675 77.277 13.0485C77.3023 10.2022 78.4515 7.48123 80.4743 5.47862C82.4971 3.47602 85.2294 2.35411 88.0758 2.3574C90.9222 2.36069 93.652 3.48891 95.6701 5.49619C97.6883 7.50346 98.8312 10.2271 98.8499 13.0734L98.8486 70.9025ZM137.442 53.0621C136.995 53.0621 136.559 52.9298 136.188 52.6819C135.817 52.434 135.528 52.0816 135.357 51.6693C135.186 51.257 135.142 50.8034 135.229 50.3657C135.316 49.9281 135.531 49.5261 135.846 49.2106C136.162 48.8951 136.564 48.6803 137.002 48.5933C137.439 48.5063 137.893 48.5511 138.305 48.722C138.718 48.8928 139.07 49.1821 139.318 49.5532C139.566 49.9243 139.698 50.3605 139.698 50.8067C139.697 51.4047 139.459 51.9779 139.036 52.4006C138.613 52.8233 138.039 53.061 137.442 53.0615V53.0621Z" fill="black" stroke="#F3EFDE" stroke-width="1.5" mask="url(#path-9-inside-1_1116_3)"/>
<path d="M134.038 36.8672L134.038 36.8672C134.736 36.8664 135.404 36.5891 135.897 36.0961C136.39 35.603 136.667 34.9346 136.668 34.2373V34.237C136.668 33.7165 136.514 33.2077 136.225 32.775C135.936 32.3422 135.525 32.0048 135.044 31.8056C134.564 31.6063 134.034 31.5542 133.524 31.6557C133.014 31.7572 132.545 32.0078 132.177 32.3758C131.809 32.7438 131.558 33.2127 131.457 33.7231C131.355 34.2335 131.407 34.7626 131.607 35.2434C131.806 35.7242 132.143 36.1351 132.576 36.4242C133.009 36.7132 133.517 36.8674 134.038 36.8672ZM131.717 30.7629C132.404 30.3039 133.211 30.059 134.038 30.0591C135.145 30.0606 136.207 30.5012 136.99 31.2845C137.773 32.0677 138.214 33.1297 138.215 34.2373C138.215 35.0635 137.97 35.871 137.511 36.558C137.052 37.245 136.399 37.7805 135.636 38.0967C134.872 38.4129 134.032 38.4956 133.222 38.3343C132.411 38.1731 131.667 37.7751 131.083 37.1908C130.499 36.6064 130.101 35.862 129.94 35.0515C129.778 34.2411 129.861 33.4011 130.178 32.6377C130.494 31.8743 131.029 31.2219 131.717 30.7629Z" fill="black" stroke="#F3EFDE" stroke-width="0.75"/>
<path d="M134.038 68.0699L134.038 68.0699C134.736 68.0691 135.404 67.7916 135.897 67.2984C136.39 66.8052 136.668 66.1366 136.668 65.4392V65.4388C136.668 64.9184 136.514 64.4097 136.225 63.977C135.936 63.5443 135.525 63.2071 135.044 63.008C134.563 62.8089 134.034 62.7568 133.524 62.8584C133.013 62.96 132.544 63.2106 132.176 63.5787C131.809 63.9467 131.558 64.4156 131.457 64.926C131.355 65.4364 131.407 65.9655 131.607 66.4462C131.806 66.927 132.143 67.3378 132.576 67.6268C133.009 67.9159 133.518 68.07 134.038 68.0699ZM131.717 61.9655C132.404 61.5066 133.211 61.2616 134.038 61.2617C135.145 61.2632 136.207 61.7039 136.99 62.4871C137.773 63.2704 138.214 64.3323 138.215 65.4399C138.215 66.2661 137.97 67.0737 137.511 67.7606C137.052 68.4477 136.399 68.9831 135.636 69.2993C134.872 69.6155 134.032 69.6982 133.222 69.537C132.411 69.3757 131.667 68.9778 131.083 68.3934L130.818 68.6586L131.083 68.3934C130.499 67.8091 130.101 67.0646 129.94 66.2542C129.778 65.4437 129.861 64.6037 130.178 63.8403C130.494 63.0769 131.029 62.4245 131.717 61.9655Z" fill="black" stroke="#F3EFDE" stroke-width="0.75"/>
</svg>
