<svg width="179" height="438" viewBox="0 0 179 438" fill="none" xmlns="http://www.w3.org/2000/svg">
<path d="M7.46892 424.892C38.031 436.533 67.597 439.237 102.077 434.626C122.852 431.848 155.34 428.435 171.901 412.249C186.155 398.316 172.368 376.519 163.147 366.5C147.251 349.228 125.798 336.014 104.951 324.302C84.5111 312.82 62.719 306.161 39.4383 300.265C26.9794 297.11 14.8093 291.79 5.91443 283.259C3.92572 281.352 -0.232325 277.146 1.24004 273.794C4.27496 266.886 14.5987 261.673 21.4344 259.31C32.8747 255.356 44.6064 254.56 55.599 248.798C62.2014 245.337 72.2759 240.683 74.1717 233.122C76.2126 224.983 69.3129 218.186 64.4046 213.097C52.3228 200.57 38.5112 189.521 26.0552 177.31C20.9964 172.351 5.72798 161.021 8.36063 151.892C10.9776 142.817 25.8131 138.051 32.4142 131.903C46.7949 118.51 46.8816 101.232 43.8145 85.0621C37.8214 53.4666 17.4722 27.0748 0.588403 0.900434" stroke="black" stroke-width="0.5" stroke-linecap="round" stroke-dasharray="5 5"/>
</svg>
