<svg width="386" height="627" viewBox="0 0 386 627" fill="none" xmlns="http://www.w3.org/2000/svg">
<path d="M270.505 1C198.311 8.3899 131.019 29.8762 70.6735 70.3118C55.7579 80.3062 43.4466 89.2833 29.8684 101.022C20.2508 109.337 2.57098 123.15 1.07737 137.775C-0.899578 157.133 35.5649 159.856 46.9298 161.235C87.597 166.169 128.804 165.149 169.558 169.481C199.407 172.654 234.367 176.747 259.628 194.718C295.975 220.575 272.312 264.794 266.95 299.645C265.221 310.884 265.199 321.391 272.637 330.711C285.511 346.84 305.269 356.28 320.551 369.81C345.532 391.926 342.719 417.215 333.49 446.728C328.324 463.245 323.019 479.988 322.897 497.486C322.761 517.071 331.44 533.037 342.447 548.67C361.109 575.175 384.93 598.562 401.024 626.725" stroke="black" stroke-width="0.5" stroke-linecap="round" stroke-dasharray="5 5"/>
</svg>
