<svg width="637" height="216" viewBox="0 0 637 216" fill="none" xmlns="http://www.w3.org/2000/svg">
<path d="M1 33.1378C37.3538 26.3506 73.7963 18.4768 110.859 15.224C122.553 14.1976 144.626 10.362 154.067 19.3305C166.531 31.1719 153.769 51.6509 147.047 62.8356C135.297 82.3863 120.749 100.617 107.997 119.672C95.6452 138.128 83.6044 156.771 73.2398 176.151C67.797 186.328 61.5699 197.176 59.2007 208.349C58.6009 211.177 57.2497 215.75 62.2675 214.895C75.4602 212.647 88.4344 201.763 99.6141 195.851C118.537 185.842 138.343 177.328 158.701 169.783C175.817 163.44 194.821 155.283 213.767 154.547C240.139 153.524 220.852 180.928 214.039 189.899C212.002 192.582 202.673 202.046 205.18 206.206C208.221 211.252 226.182 203.26 228.555 202.338C247.329 195.038 264.336 184.826 280.691 174.068C305.33 157.86 329.675 141.748 356.202 127.885C406.423 101.639 459.745 83.6044 514.175 65.5137C526.082 61.5564 537.924 57.3767 549.205 52.1825C551.559 51.0984 553.977 49.4711 556.701 49.2068C561.287 48.7618 567.385 48.0118 572.103 46.5286C578.823 44.4159 585.922 43.1887 592.208 40.101C596.929 37.782 598.923 35.8508 604.748 34.6852C628.139 30.0041 651.071 22.0049 674.193 16.2357C685.353 13.4513 695.408 11.4556 699 1" stroke="black" stroke-width="0.5" stroke-linecap="round" stroke-dasharray="5 5"/>
</svg>
