<svg width="177" height="306" viewBox="0 0 177 306" fill="none" xmlns="http://www.w3.org/2000/svg">
<path d="M101.939 1C82.452 15.517 66.4863 31.6193 53.3392 52.1132C45.9556 63.623 34.9856 80.4608 36.8386 94.9761C38.5414 108.314 52.2626 107.123 62.1697 104.516C85.5613 98.3598 107.347 85.5629 129.719 76.5418C141.276 71.8819 159.972 62.954 172.969 65.8422C182.082 67.8674 170.612 89.7038 168.715 93.1714C145.906 134.857 109.54 168.164 75.7698 200.941C56.6915 219.458 37.1678 236.153 22.4006 258.5C15.0353 269.646 1.47744 285.792 1.00138 300.074C0.844836 304.77 14.0424 304.972 17.6954 304.972C24.2096 304.972 30.668 302.62 36.7097 300.46C55.0167 293.915 73.2813 287.231 91.5614 280.608C107.452 274.851 123.543 269.906 139.581 264.623C142.837 263.55 143.706 263.081 143.706 259.724" stroke="black" stroke-width="0.5" stroke-linecap="round" stroke-dasharray="5 5"/>
</svg>
