<svg width="546" height="230" viewBox="0 0 546 230" fill="none" xmlns="http://www.w3.org/2000/svg">
<path d="M92.0022 1C60.5741 23.0174 39.2273 49.0184 22.5483 83.6054C12.4988 104.445 -4.2022 136.522 2.57228 160.808C8.40346 181.712 40.0903 180.867 56.4577 177.798C84.6743 172.508 112.071 159.823 137.499 146.875C162.43 134.18 183.102 117.579 203.896 99.1739C215.025 89.3245 228.264 80.9329 242.853 77.3496C246.115 76.5484 253.165 74.993 255.791 78.2027C261.204 84.8186 260.266 97.2795 258.493 104.932C255.524 117.739 249.032 129.083 248.256 142.467C247.79 150.506 246.417 162.428 253.232 168.344C260.569 174.711 272.076 172.031 280.53 170.263C301.34 165.912 321.668 159.141 342.378 154.268C350.788 152.289 372.325 144.318 380.339 151.78C388.306 159.197 384.074 175.607 386.453 185.121C391.634 205.846 409.864 215.417 428.893 221.447C466.075 233.23 506.727 228.809 544.981 227.49" stroke="black" stroke-width="0.5" stroke-linecap="round" stroke-dasharray="5 5"/>
</svg>
