<svg width="260" height="493" viewBox="0 0 260 493" fill="none" xmlns="http://www.w3.org/2000/svg">
<path d="M113.222 13.4427C112.103 13.4415 111.03 12.9962 110.238 12.2046C109.447 11.413 109.001 10.3398 109 9.2203V4.22253C109.014 3.11182 109.465 2.05135 110.255 1.27087C111.046 0.490382 112.112 0.0527344 113.223 0.0527344C114.334 0.0527344 115.4 0.490382 116.19 1.27087C116.98 2.05135 117.431 3.11182 117.446 4.22253V9.2203C117.444 10.3398 116.999 11.4131 116.207 12.2047C115.415 12.9962 114.342 13.4415 113.222 13.4427ZM113.222 1.34505C112.46 1.34594 111.728 1.64939 111.189 2.18883C110.649 2.72827 110.346 3.45965 110.345 4.22253V9.2203C110.356 9.97593 110.665 10.6967 111.203 11.227C111.742 11.7572 112.467 12.0545 113.223 12.0545C113.978 12.0545 114.704 11.7572 115.242 11.227C115.781 10.6967 116.089 9.97593 116.101 9.2203V4.22253C116.1 3.45953 115.796 2.72805 115.257 2.18859C114.717 1.64913 113.985 1.34576 113.222 1.34505Z" fill="black"/>
<path d="M120.646 0.672363H121.99V12.77H120.646V0.672363Z" fill="black"/>
<path d="M143.673 0.672363H145.018V12.77H143.673V0.672363Z" fill="black"/>
<path d="M143.673 17.8145H145.018V29.9121H143.673V17.8145Z" fill="black"/>
<path d="M150.073 0.672363H151.418V12.77H150.073V0.672363Z" fill="black"/>
<path d="M129.633 13.4426C128.514 13.4414 127.44 12.9961 126.649 12.2046C125.857 11.413 125.412 10.3397 125.41 9.22019V4.22242C125.41 3.66792 125.519 3.11885 125.732 2.60657C125.944 2.09428 126.255 1.6288 126.647 1.23672C127.039 0.84463 127.504 0.533609 128.017 0.321412C128.529 0.109216 129.078 0 129.633 0C130.187 0 130.736 0.109216 131.248 0.321412C131.761 0.533609 132.226 0.84463 132.618 1.23672C133.01 1.6288 133.321 2.09428 133.534 2.60657C133.746 3.11885 133.855 3.66792 133.855 4.22242V9.22019C133.854 10.3395 133.409 11.4127 132.617 12.2043C131.826 12.9958 130.753 13.4412 129.633 13.4426ZM129.633 1.34493C128.87 1.34564 128.139 1.64901 127.599 2.18847C127.06 2.72793 126.756 3.45942 126.755 4.22242V9.22019C126.755 9.59806 126.83 9.97224 126.974 10.3214C127.119 10.6705 127.331 10.9877 127.598 11.2549C127.865 11.5221 128.182 11.734 128.531 11.8786C128.881 12.0232 129.255 12.0977 129.633 12.0977C130.01 12.0977 130.385 12.0232 130.734 11.8786C131.083 11.734 131.4 11.5221 131.667 11.2549C131.934 10.9877 132.146 10.6705 132.291 10.3214C132.436 9.97224 132.51 9.59806 132.51 9.22019V4.22242C132.509 3.4596 132.206 2.72821 131.667 2.18875C131.127 1.64929 130.396 1.34582 129.633 1.34493Z" fill="black"/>
<path d="M137.275 0.672363H138.62V12.77H137.275V0.672363Z" fill="black"/>
<path d="M136.172 30.5848C135.053 30.5833 133.979 30.1378 133.188 29.3459C132.396 28.5541 131.951 27.4806 131.951 26.361V21.3646C131.943 20.8056 132.047 20.2509 132.256 19.7324C132.466 19.214 132.775 18.7422 133.168 18.3445C133.561 17.9467 134.029 17.6309 134.544 17.4154C135.06 17.1999 135.614 17.0889 136.173 17.0889C136.732 17.0889 137.285 17.1999 137.801 17.4154C138.317 17.6309 138.784 17.9467 139.177 18.3445C139.57 18.7422 139.88 19.214 140.089 19.7324C140.298 20.2509 140.402 20.8056 140.395 21.3646V26.361C140.394 27.4807 139.949 28.5543 139.157 29.3462C138.365 30.1381 137.292 30.5835 136.172 30.5848ZM136.172 18.4871C135.41 18.4882 134.678 18.7917 134.139 19.3311C133.6 19.8705 133.296 20.6018 133.295 21.3646V26.361C133.29 26.7425 133.36 27.1214 133.502 27.4756C133.644 27.8298 133.855 28.1522 134.122 28.4241C134.39 28.6959 134.709 28.9118 135.061 29.0592C135.413 29.2066 135.791 29.2825 136.173 29.2825C136.554 29.2825 136.932 29.2066 137.284 29.0592C137.636 28.9118 137.955 28.6959 138.223 28.4241C138.491 28.1522 138.702 27.8298 138.844 27.4756C138.985 27.1214 139.056 26.7425 139.05 26.361V21.3646C139.049 20.6017 138.745 19.8703 138.206 19.3309C137.667 18.7914 136.935 18.488 136.172 18.4871Z" fill="black"/>
<path d="M117.719 17.8145H119.064V29.9121H117.719V17.8145Z" fill="black"/>
<path d="M109 17.8145H110.345V29.9121H109V17.8145Z" fill="black"/>
<path d="M109 34.3027H110.345V46.4004H109V34.3027Z" fill="black"/>
<path d="M150.073 17.8145H151.418V29.9121H150.073V17.8145Z" fill="black"/>
<path d="M126.438 17.8145H127.783V29.9121H126.438V17.8145Z" fill="black"/>
<path d="M117.719 34.3027H119.064V46.4004H117.719V34.3027Z" fill="black"/>
<path d="M129.633 47.073C128.514 47.0717 127.44 46.6265 126.649 45.8349C125.857 45.0434 125.412 43.9701 125.41 42.8506V37.8528C125.41 37.2983 125.519 36.7492 125.732 36.2369C125.944 35.7247 126.255 35.2592 126.647 34.8671C127.039 34.475 127.504 34.164 128.017 33.9518C128.529 33.7396 129.078 33.6304 129.633 33.6304C130.187 33.6304 130.736 33.7396 131.248 33.9518C131.761 34.164 132.226 34.475 132.618 34.8671C133.01 35.2592 133.321 35.7247 133.534 36.2369C133.746 36.7492 133.855 37.2983 133.855 37.8528V42.8506C133.854 43.9699 133.409 45.0431 132.617 45.8346C131.826 46.6262 130.753 47.0716 129.633 47.073ZM129.633 34.9753C128.87 34.9762 128.139 35.2796 127.599 35.819C127.06 36.3585 126.756 37.0898 126.755 37.8528V42.8506C126.755 43.2284 126.83 43.6026 126.974 43.9517C127.119 44.3008 127.331 44.618 127.598 44.8852C127.865 45.1524 128.182 45.3644 128.531 45.509C128.881 45.6536 129.255 45.728 129.633 45.728C130.01 45.728 130.385 45.6536 130.734 45.509C131.083 45.3644 131.4 45.1524 131.667 44.8852C131.934 44.618 132.146 44.3008 132.291 43.9517C132.436 43.6026 132.51 43.2284 132.51 42.8506V37.8528C132.509 37.09 132.206 36.3587 131.667 35.8193C131.127 35.2799 130.396 34.9764 129.633 34.9753Z" fill="black"/>
<path d="M147.196 47.0726C146.076 47.0714 145.003 46.6261 144.211 45.8345C143.419 45.043 142.974 43.9697 142.973 42.8502V37.8524C142.987 36.7417 143.438 35.6812 144.228 34.9007C145.019 34.1203 146.085 33.6826 147.195 33.6826C148.306 33.6826 149.372 34.1203 150.163 34.9007C150.953 35.6812 151.404 36.7417 151.418 37.8524V42.8502C151.417 43.9697 150.972 45.0429 150.18 45.8345C149.388 46.6261 148.315 47.0714 147.196 47.0726ZM147.196 34.9749C146.433 34.9758 145.701 35.2792 145.162 35.8187C144.622 36.3581 144.319 37.0895 144.318 37.8524V42.8502C144.329 43.6058 144.637 44.3266 145.176 44.8569C145.714 45.3871 146.44 45.6843 147.195 45.6843C147.951 45.6843 148.677 45.3871 149.215 44.8569C149.753 44.3266 150.062 43.6058 150.073 42.8502V37.8524C150.072 37.0895 149.769 36.3582 149.229 35.8187C148.69 35.2793 147.959 34.9758 147.196 34.9749Z" fill="black"/>
<path d="M137.275 34.3027H138.62V46.4004H137.275V34.3027Z" fill="black"/>
<path d="M153.111 432.981C178.221 446.183 202.545 451.412 230.94 450.667C248.05 450.218 274.801 450.338 288.491 437.667C300.275 426.76 289.009 406.222 281.457 396.505C268.438 379.752 250.831 366.041 233.717 353.713C216.937 341.626 199.026 333.659 179.887 326.222C169.645 322.243 159.648 316.382 152.359 308.008C150.73 306.135 147.323 302.028 148.548 299.216C151.071 293.42 159.587 289.819 165.222 288.395C174.653 286.011 184.311 286.439 193.38 282.419C198.827 280.005 207.136 276.872 208.725 270.391C210.435 263.415 204.781 256.76 200.761 251.802C190.864 239.599 179.537 228.532 169.331 216.572C165.186 211.714 152.662 200.259 154.863 192.467C157.05 184.721 169.278 181.948 174.734 177.166C186.62 166.746 186.756 151.528 184.292 136.981C179.477 108.559 162.827 83.3403 149.029 58.6471" stroke="black" stroke-width="0.5" stroke-linecap="round" stroke-dasharray="5 5"/>
</svg>
