<svg width="156" height="51" viewBox="0 0 156 51" fill="none" xmlns="http://www.w3.org/2000/svg">
<g clip-path="url(#clip0_853_302)">
<path fill-rule="evenodd" clip-rule="evenodd" d="M65.2575 14.1643L64.5187 17.6328C63.1808 15.9407 61.5049 14.5482 59.5988 13.5451C57.7387 12.5836 55.2237 12.1019 52.0538 12.1001C49.0092 12.0956 46.0251 12.9543 43.4453 14.5772C40.716 16.2843 38.4928 18.6948 37.0072 21.5575C35.3943 24.5561 34.5879 28.0381 34.5879 32.0036C34.5879 38.2796 36.2414 43.0146 39.5484 46.2088C42.8554 49.4029 47.161 50.999 52.4652 50.9972C57.0026 50.9972 60.9934 49.1811 64.4375 45.5487V50.9972H75.9173V14.1643H65.2575ZM61.5175 39.8015C60.0888 40.8599 58.3795 41.4696 56.6057 41.5534C55.0036 41.6647 52.5139 41.1405 51.131 40.323C49.6196 39.4259 48.3779 38.1355 47.5371 36.5884C46.6611 35.0115 46.2088 33.2331 46.2246 31.4278C46.2246 28.565 47.1132 26.1975 48.8903 24.3252C49.7048 23.4273 50.6998 22.7127 51.8095 22.2286C52.9192 21.7446 54.1185 21.502 55.3283 21.5168C57.515 21.5168 59.4147 22.0401 61.0276 23.0867L61.0737 23.1193C62.1181 23.8253 62.9714 24.7806 63.5571 25.8994C64.1428 27.0182 64.4425 28.2655 64.4294 29.5293V33.7175C64.4433 34.8881 64.1878 36.0462 63.6828 37.1015C63.1777 38.1568 62.4367 39.0808 61.5175 39.8015Z" fill="white"/>
<path fill-rule="evenodd" clip-rule="evenodd" d="M14.8355 50.9971C11.9691 51.0202 9.12583 50.4814 6.46516 49.411C4.00411 48.4477 1.79338 46.9357 0 44.9892L4.80624 38.5602C8.01221 41.5678 11.0242 43.0707 13.8423 43.0689C15.3325 43.0689 16.5341 42.8326 17.447 42.36C18.3599 41.8874 18.8109 41.1776 18.8001 40.2306C18.8001 39.117 18.276 38.2686 17.2278 37.6856C16.1116 37.0714 14.9319 36.5814 13.7097 36.2243C12.4107 35.8332 11.5402 35.5824 11.0982 35.472C7.95358 34.4725 5.60819 32.9841 4.06203 31.0067C2.52721 29.0735 1.70675 26.6665 1.7401 24.1948C1.75811 22.1932 2.28636 20.2296 3.27452 18.491C4.29567 16.6278 5.88422 15.0977 8.04018 13.9008C10.1961 12.7039 12.8762 12.1055 16.0804 12.1055C19.0626 12.1055 21.6037 12.4115 23.7038 13.0235C25.877 13.6717 27.9236 14.6886 29.7549 16.0302L25.3627 22.8748C24.2389 21.9732 22.9979 21.2294 21.6741 20.6639C20.5161 20.1251 19.2613 19.8276 17.9855 19.7893C16.6595 19.7893 15.5824 20.0672 14.7543 20.6231C13.9262 21.179 13.5112 21.8463 13.5094 22.6249C13.4624 23.1587 13.5753 23.6945 13.8338 24.1634C14.0922 24.6324 14.4844 25.0131 14.96 25.2568C15.9829 25.8416 17.5715 26.4392 19.7256 27.0494C20.0585 27.1608 20.4022 27.2721 20.7621 27.3835C21.122 27.4948 21.4955 27.6062 21.8825 27.7175C27.5746 29.6098 30.4197 33.0601 30.4179 38.0686C30.4384 40.3306 29.8363 42.5544 28.6778 44.4948C27.5159 46.4414 25.7614 48.014 23.4142 49.2127C21.067 50.4114 18.2074 51.0062 14.8355 50.9971Z" fill="white"/>
<path d="M103.242 41.5534C105.017 41.4701 106.727 40.8604 108.157 39.8015C109.078 39.0813 109.821 38.1572 110.327 37.1014C110.834 36.0456 111.09 34.8865 111.077 33.7147V29.5265C111.09 28.2627 110.791 27.0154 110.205 25.8966C109.619 24.7777 108.766 23.8225 107.721 23.1166L107.672 23.084C106.06 22.0392 104.16 21.5159 101.973 21.5141C100.764 21.4996 99.565 21.7424 98.4558 22.2265C97.3466 22.7105 96.3521 23.4249 95.5378 24.3225C93.7589 26.1948 92.8704 28.5623 92.8722 31.4251C92.8551 33.2306 93.3075 35.0093 94.1847 36.5856C95.0223 38.1324 96.2613 39.4229 97.7704 40.3203C99.1506 41.1405 101.64 41.6647 103.242 41.5534ZM122.554 14.1643V50.9972H111.074V45.5487C107.63 49.1792 103.639 50.9954 99.1019 50.9972C93.7977 50.9972 89.4921 49.4011 86.1851 46.2088C82.8781 43.0164 81.2246 38.2814 81.2246 32.0036C81.2246 28.0417 82.0311 24.5597 83.644 21.5575C85.1293 18.6955 87.3515 16.2852 90.0794 14.5772C92.6585 12.9552 95.6414 12.0966 98.6851 12.1001C101.857 12.1001 104.372 12.5818 106.23 13.5451C108.136 14.5482 109.812 15.9407 111.15 17.6328L111.889 14.1643H122.554Z" fill="#33BBD6"/>
<path d="M144.355 45.0084C144.347 44.214 144.503 43.4265 144.814 42.6958C145.124 41.9651 145.583 41.307 146.16 40.7631C147.361 39.5789 148.728 38.9868 150.26 38.9868C151.681 38.9868 152.993 39.5789 154.195 40.7631C154.773 41.3079 155.232 41.9673 155.542 42.6995C155.853 43.4317 156.009 44.2207 156 45.0165C156.008 46.5641 155.412 48.0534 154.339 49.1649C153.266 50.2764 151.801 50.9216 150.26 50.962C148.732 50.9647 147.262 50.3728 146.16 49.3107C144.956 48.2061 144.355 46.772 144.355 45.0084Z" fill="#33BBD6"/>
<path d="M139.34 0V14.1671H127.86V6.01342L139.34 0Z" fill="white"/>
<path d="M139.34 14.167H127.86V50.9999H139.34V14.167Z" fill="#33BBD6"/>
</g>
<defs>
<clipPath id="clip0_853_302">
<rect width="156" height="51" fill="white"/>
</clipPath>
</defs>
</svg>
