<svg width="22" height="22" viewBox="0 0 22 22" fill="none" xmlns="http://www.w3.org/2000/svg">
<path d="M19.25 4.125H2.75C2.56766 4.125 2.3928 4.19743 2.26386 4.32636C2.13493 4.4553 2.0625 4.63016 2.0625 4.8125V16.5C2.0625 16.8647 2.20737 17.2144 2.46523 17.4723C2.72309 17.7301 3.07283 17.875 3.4375 17.875H18.5625C18.9272 17.875 19.2769 17.7301 19.5348 17.4723C19.7926 17.2144 19.9375 16.8647 19.9375 16.5V4.8125C19.9375 4.63016 19.8651 4.4553 19.7361 4.32636C19.6072 4.19743 19.4323 4.125 19.25 4.125ZM18.5625 16.5H3.4375V6.37656L10.5359 12.882C10.6627 12.998 10.8282 13.0623 11 13.0623C11.1718 13.0623 11.3373 12.998 11.4641 12.882L18.5625 6.37656V16.5Z" fill="black"/>
</svg>
