<svg width="17" height="17" viewBox="0 0 17 17" fill="none" xmlns="http://www.w3.org/2000/svg">
<path d="M14.875 3.1875H2.125C1.9841 3.1875 1.84898 3.24347 1.74935 3.3431C1.64972 3.44273 1.59375 3.57785 1.59375 3.71875V12.75C1.59375 13.0318 1.70569 13.302 1.90495 13.5013C2.10421 13.7006 2.37446 13.8125 2.65625 13.8125H14.3438C14.6255 13.8125 14.8958 13.7006 15.0951 13.5013C15.2943 13.302 15.4062 13.0318 15.4062 12.75V3.71875C15.4062 3.57785 15.3503 3.44273 15.2507 3.3431C15.151 3.24347 15.0159 3.1875 14.875 3.1875ZM14.3438 12.75H2.65625V4.92734L8.14141 9.9543C8.23934 10.0439 8.36727 10.0936 8.5 10.0936C8.63273 10.0936 8.76066 10.0439 8.85859 9.9543L14.3438 4.92734V12.75Z" fill="white"/>
</svg>
