<svg width="21" height="21" viewBox="0 0 21 21" fill="none" xmlns="http://www.w3.org/2000/svg">
<path d="M17.9555 12.8117L14.1622 11.1941C13.9664 11.1063 13.7516 11.07 13.5379 11.0884C13.3242 11.1068 13.1187 11.1793 12.9408 11.2992L10.9107 12.65C9.67339 12.049 8.6716 11.0529 8.06363 9.81907L9.40627 7.76466C9.52537 7.58662 9.5981 7.38165 9.61788 7.16837C9.63765 6.95508 9.60384 6.74024 9.51951 6.54334L7.89377 2.74996C7.78033 2.49381 7.58824 2.28046 7.34537 2.14085C7.1025 2.00124 6.82147 1.94261 6.54304 1.97349C5.4508 2.11657 4.44768 2.65142 3.72018 3.47859C2.99269 4.30576 2.59032 5.36897 2.58789 6.47054C2.58789 12.8926 7.81289 18.1176 14.2349 18.1176C15.3365 18.1152 16.3997 17.7128 17.2269 16.9853C18.0541 16.2578 18.5889 15.2547 18.732 14.1625C18.7629 13.884 18.7043 13.603 18.5646 13.3601C18.425 13.1172 18.2117 12.9252 17.9555 12.8117Z" fill="black"/>
</svg>
