<svg width="16" height="16" viewBox="0 0 16 16" fill="none" xmlns="http://www.w3.org/2000/svg">
<path d="M13.875 9.9L10.9438 8.65C10.7925 8.58222 10.6265 8.5541 10.4613 8.56832C10.2962 8.58254 10.1374 8.63861 10 8.73125L8.43125 9.775C7.47516 9.31064 6.70105 8.54094 6.23125 7.5875L7.26875 6C7.36078 5.86243 7.41698 5.70404 7.43226 5.53923C7.44754 5.37442 7.42141 5.20841 7.35625 5.05625L6.1 2.125C6.01234 1.92708 5.86391 1.76222 5.67624 1.65433C5.48856 1.54645 5.2714 1.50115 5.05625 1.525C4.21225 1.63557 3.43711 2.04886 2.87495 2.68804C2.3128 3.32722 2.00188 4.14879 2 5C2 9.9625 6.0375 14 11 14C11.8512 13.9981 12.6728 13.6872 13.312 13.1251C13.9511 12.5629 14.3644 11.7878 14.475 10.9438C14.4989 10.7286 14.4536 10.5114 14.3457 10.3238C14.2378 10.1361 14.0729 9.98767 13.875 9.9Z" fill="white"/>
</svg>
