<svg width="16" height="16" viewBox="0 0 16 16" fill="none" xmlns="http://www.w3.org/2000/svg">
<path fill-rule="evenodd" clip-rule="evenodd" d="M7.05881 0.941175C3.68013 0.941175 0.941174 3.68014 0.941174 7.05881C0.941174 10.4375 3.68013 13.1765 7.05881 13.1765C10.4375 13.1765 13.1764 10.4375 13.1764 7.05881C13.1764 3.68014 10.4375 0.941175 7.05881 0.941175ZM0 7.05881C0 3.16034 3.16034 0 7.05881 0C10.9573 0 14.1176 3.16034 14.1176 7.05881C14.1176 10.9573 10.9573 14.1176 7.05881 14.1176C3.16034 14.1176 0 10.9573 0 7.05881Z" fill="black"/>
<path fill-rule="evenodd" clip-rule="evenodd" d="M11.3849 11.3849C11.5687 11.2011 11.8666 11.2011 12.0504 11.3849L15.8622 15.1967C16.0459 15.3804 16.0459 15.6784 15.8622 15.8622C15.6784 16.0459 15.3804 16.0459 15.1967 15.8622L11.3849 12.0504C11.2011 11.8666 11.2011 11.5687 11.3849 11.3849Z" fill="black"/>
</svg>
